<svg width="64" height="64" viewBox="0 0 64 64" fill="none" xmlns="http://www.w3.org/2000/svg">
<path d="M26.7194 17.954C29.9406 24.9237 26.902 33.1845 19.9324 36.4056C12.9627 39.6268 4.90743 37.0329 1.68625 30.0633C-1.53493 23.0936 1.29811 14.3882 8.26777 11.167C15.2374 7.9458 23.4982 10.9844 26.7194 17.954Z" fill="#CFF6E0"/>
<path d="M60.2521 30.8306C65.0134 36.8532 64.64 46.0578 58.6174 50.8192C52.5948 55.5805 43.4442 53.6892 38.6819 47.6671C33.9196 41.645 34.7017 33.3089 40.7253 28.5472C46.7479 23.7858 55.4903 24.807 60.2531 30.8301L60.2521 30.8306Z" fill="#CFF6E0"/>
<path d="M18.5396 19.3305C18.0829 18.9353 17.92 18.6564 17.2163 18.4929C16.5136 18.329 15.7245 18.2354 15.7245 18.2354L15.4929 15.9474C15.4929 15.9474 15.6048 15.6228 15.4806 15.6111C15.3563 15.5994 14.7332 15.697 14.7332 15.697L14.1222 15.8181L14.1191 16.4331L14.1514 17.4029L14.2153 18.1579L13.7762 18.2967L13.1859 18.3366L13.0386 16.8792L12.9716 15.8684L11.6169 15.9598L11.7239 18.4217L9.14843 18.6977L9.15835 19.4643L9.28898 20.3583C9.28898 20.3583 9.87313 20.1503 10.1282 20.1852C10.3832 20.2201 10.7722 20.3192 10.9004 20.5862C11.0286 20.8531 11.0932 21.2367 11.0854 21.2828C11.0823 21.3024 11.0729 21.4002 11.0637 21.5063L11.0297 21.5087L11.0449 21.7175C11.0409 21.7691 11.0378 21.8044 11.0378 21.8044L11.0516 21.8029L11.2972 25.1758L11.2816 26.357C11.2816 26.357 11.2992 26.8908 11.3089 26.9434C11.3186 26.9959 11.2534 27.4189 11.2534 27.4189L10.946 27.6774L10.0028 27.6962L9.84246 28.7296L9.91119 29.1537L12.3965 29.2493L12.4537 30.2075L12.4882 31.1192L12.5887 31.3287L13.6752 31.4231L13.6143 29.368L14.6102 29.3345L14.6976 30.4498L14.8172 31.4774L15.5914 31.4786L15.9452 31.4097L15.9248 29.7493L15.9983 29.3757L16.0257 29.4298C16.0257 29.4298 17.6064 29.3443 18.2319 28.974C18.8575 28.6036 19.2924 28.2669 19.5764 27.6166C19.8604 26.9663 20.1738 26.1593 20.0571 25.3873C19.9405 24.6154 19.4698 24.0982 19.1023 23.8593C18.759 23.636 18.2004 23.4795 18.042 23.4544C18.2275 23.268 18.6059 22.8797 18.7816 22.6275C19.0197 22.2847 19.2724 21.8501 19.2599 21.3272C19.2474 20.8042 18.9993 19.7244 18.5416 19.3296L18.5396 19.3305ZM13.3034 20.265C13.3034 20.265 13.8585 20.0569 14.641 20.1391C15.3612 20.2149 15.9802 20.5545 16.0756 20.6087C16.2142 20.7617 16.4191 21.0055 16.4528 21.1572C16.5043 21.3893 16.5507 22.1379 16.3518 22.3766C16.1534 22.6138 15.7221 22.8639 15.7221 22.8639L15.7563 22.8749C15.6533 22.9407 15.4837 23.0251 15.2752 23.0487C14.9228 23.0891 14.0553 23.2038 14.0553 23.2038L13.346 23.2407L13.3095 22.8889L13.2314 21.3266L13.1964 21.3295L13.303 20.264L13.3034 20.265ZM17.3638 26.4187C17.1135 26.9528 16.5809 27.393 16.3518 27.4747C16.1914 27.5318 15.6757 27.6307 15.3844 27.6853C15.1694 27.7082 14.5265 27.7628 14.5265 27.7628C14.5265 27.7628 13.9015 27.7618 13.8419 27.7615C13.8262 27.7615 13.7759 27.7471 13.712 27.7269L13.737 27.6971C13.737 27.6971 13.4751 27.1803 13.5173 26.9595C13.561 26.7392 13.6424 26.2565 13.552 25.943C13.4617 25.6294 13.4874 25.0318 13.4874 25.0318L13.4936 24.6725L13.4871 24.6112C13.6863 24.5858 13.9346 24.5536 13.9803 24.5397C14.0583 24.517 14.6039 24.5692 14.694 24.57C14.7837 24.5698 15.3537 24.612 15.3537 24.612C15.3537 24.612 15.7502 24.6931 15.7981 24.6709C15.8471 24.6483 16.4953 24.8229 16.5937 24.9047C16.6922 24.9865 17.0939 25.2653 17.0939 25.2653C17.0939 25.2653 17.6141 25.8871 17.3638 26.4212L17.3638 26.4187ZM17.784 23.5337C17.784 23.5337 17.7755 23.5205 17.7659 23.5104L17.8342 23.5322C17.8097 23.5472 17.7917 23.5531 17.783 23.5341L17.784 23.5337Z" fill="#1E5736"/>
<path d="M12.5179 31.2366C12.3637 31.32 12.4465 31.5281 12.6135 31.5115C12.7073 31.5021 12.8038 31.472 12.8979 31.4552C12.9826 31.439 13.0957 31.445 13.1435 31.3622C13.1607 31.3312 13.1547 31.3025 13.1289 31.278C13.0623 31.2179 12.9682 31.253 12.8871 31.2638C12.8356 31.2706 12.7841 31.2773 12.7327 31.2841C12.707 31.2887 12.6813 31.2909 12.6552 31.2921C12.6002 31.286 12.6025 31.3067 12.6616 31.3558C12.6485 31.38 12.6359 31.4053 12.6229 31.4295L12.6345 31.418C12.7124 31.3372 12.6361 31.1748 12.5194 31.2372L12.5179 31.2366Z" fill="#1E5736"/>
<path d="M13.6955 29.4068C13.7125 29.3989 13.7271 29.3885 13.7384 29.3736C13.7511 29.3617 13.7609 29.3462 13.7664 29.3292C13.7733 29.3126 13.7763 29.2955 13.7739 29.2772C13.775 29.2586 13.7706 29.2411 13.7627 29.2242L13.7435 29.193C13.7278 29.1748 13.7095 29.1615 13.6861 29.1529L13.6523 29.1454C13.6282 29.1432 13.6045 29.1469 13.5825 29.157C13.5655 29.1649 13.551 29.1753 13.5397 29.1902C13.527 29.2021 13.5171 29.2176 13.5117 29.2347C13.5048 29.2512 13.5018 29.2684 13.5042 29.2867C13.5031 29.3054 13.5075 29.3227 13.5154 29.3397L13.5346 29.3708C13.5503 29.389 13.5686 29.4024 13.5919 29.411L13.6257 29.4184C13.6498 29.4207 13.6735 29.4169 13.6955 29.4068Z" fill="#1E5736"/>
<path d="M13.3553 26.7435C13.2787 26.848 13.2571 26.9902 13.2453 27.1169C13.2335 27.2436 13.1926 27.4044 13.2584 27.5231C13.3242 27.6419 13.4768 27.6598 13.563 27.5497C13.6491 27.4395 13.6332 27.2844 13.6421 27.1542C13.651 27.0239 13.654 26.8807 13.595 26.7637C13.5477 26.6691 13.419 26.6558 13.3563 26.7431L13.3553 26.7435Z" fill="#1E5736"/>
<path d="M14.7906 31.5601C14.9607 31.6525 15.1538 31.6008 15.3384 31.5907C15.512 31.5808 15.7426 31.6441 15.8675 31.5051C15.8925 31.4778 15.882 31.4341 15.8632 31.4064C15.7588 31.2594 15.4883 31.3117 15.3286 31.3151C15.1463 31.3194 14.9231 31.3061 14.7844 31.4442C14.7544 31.4738 14.7451 31.5351 14.7892 31.5596L14.7906 31.5601Z" fill="#1E5736"/>
<path d="M17.3047 29.364C17.7834 29.3634 18.2658 29.1477 18.6568 28.8785C18.8923 28.7163 19.1802 28.274 18.8924 28.0371C18.8497 28.0023 18.7787 28.0193 18.7488 28.0622C18.6859 28.1544 18.687 28.2485 18.6509 28.3489C18.5825 28.5393 18.4067 28.6837 18.2363 28.7769C17.9463 28.9365 17.6258 29.059 17.2954 29.0893C17.1403 29.1027 17.1481 29.3636 17.3047 29.364Z" fill="#1E5736"/>
<path d="M17.4822 26.084C17.456 25.8463 17.4549 25.6104 17.3603 25.3873C17.2611 25.1542 17.1121 24.9551 16.9262 24.7839C16.6043 24.4889 16.1977 24.3202 15.7661 24.2784C15.4498 24.2475 15.4027 24.741 15.7185 24.7685C16.081 24.7998 16.419 24.9407 16.6738 25.2061C16.8065 25.3437 16.9099 25.5069 17.0274 25.6563C17.1521 25.8157 17.304 25.9529 17.4357 26.1067C17.4542 26.1285 17.4873 26.1108 17.4837 26.0845L17.4822 26.084Z" fill="#1E5736"/>
<path d="M17.7099 23.2091C17.6481 23.2486 17.617 23.3126 17.5822 23.3736C17.5301 23.4655 17.4907 23.5772 17.5492 23.6775C17.5983 23.7627 17.6747 23.8073 17.7736 23.7956C17.8937 23.7826 17.9647 23.6843 18.0087 23.5827C18.0204 23.5555 18.0339 23.5298 18.0441 23.5021C18.0646 23.4465 18.0642 23.3958 18.0611 23.3366C18.0569 23.2621 17.9891 23.194 17.9233 23.1698C17.8444 23.1408 17.7767 23.1648 17.7104 23.2076L17.7099 23.2091Z" fill="#1E5736"/>
<path d="M11.9896 16.0494C11.9207 15.9503 11.9089 15.9849 11.7965 15.9229L11.7549 16.1057C12.1303 16.0863 12.5064 16.0604 12.8821 16.0493C13.0714 16.0443 13.0611 15.7676 12.8738 15.79C12.4912 15.8358 12.106 15.8684 11.7232 15.9058C11.613 15.9167 11.6223 16.0603 11.7049 16.0998C11.8204 16.1555 11.7988 16.1849 11.919 16.1852C11.9943 16.1855 12.0335 16.1103 11.9906 16.0489L11.9896 16.0494Z" fill="#1E5736"/>
<path d="M9.17738 18.6454C9.23014 18.8199 9.44642 18.834 9.60411 18.8472C9.75196 18.8601 9.99728 18.874 10.084 18.7284C10.1115 18.683 10.1001 18.6373 10.0613 18.6031C9.95626 18.5098 9.76448 18.5487 9.63324 18.5403C9.50199 18.5318 9.32112 18.4553 9.21123 18.5534C9.18741 18.5753 9.16751 18.6136 9.17683 18.6469L9.17738 18.6454Z" fill="#1E5736"/>
<path d="M9.11772 18.5956C9.07565 18.8588 9.11339 19.153 9.12983 19.4194C9.14813 19.7214 9.17682 20.0223 9.20849 20.3217C9.2146 20.3795 9.277 20.3991 9.32427 20.3833C9.74137 20.2415 10.3055 20.0609 10.7076 20.3431C10.9877 20.5399 10.9588 20.9025 10.9677 21.2076C10.9781 21.5557 10.998 21.903 11.0159 22.2513C11.0422 22.7727 11.1045 23.2907 11.1235 23.8119C11.1431 24.3606 11.1454 24.9114 11.1665 25.4607C11.1828 25.8897 11.1959 26.3142 11.2414 26.7406C11.2482 26.8078 11.3527 26.8032 11.3582 26.7364C11.4416 25.7386 11.2638 24.7269 11.2121 23.7334C11.1639 22.8183 11.1365 21.8984 11.0977 20.9826C11.0801 20.5614 10.9127 20.2858 10.5229 20.1168C10.1117 19.9381 9.65714 20.0986 9.2555 20.2345L9.37128 20.2961C9.34107 20.013 9.31635 19.7285 9.29652 19.4442C9.277 19.1659 9.28965 18.8653 9.22954 18.5935C9.21521 18.531 9.12798 18.5338 9.11717 18.597L9.11772 18.5956Z" fill="#1E5736"/>
<path d="M10.0238 27.6501C10.2126 27.7411 10.428 27.7507 10.6355 27.764C10.7706 27.7731 10.8956 27.7784 11.0188 27.7118C11.2767 27.5719 11.3886 27.2788 11.3262 27.0021C11.3232 26.9877 11.2998 26.9816 11.2948 26.9997C11.2057 27.3185 11.076 27.6125 10.6939 27.6254C10.4632 27.6326 10.2507 27.5743 10.0255 27.6433C10.0225 27.6447 10.0209 27.6491 10.0253 27.6507L10.0238 27.6501Z" fill="#1E5736"/>
<path d="M10.6243 27.6406C10.3736 27.5915 9.97035 27.4116 9.92556 27.7634C9.8692 28.2029 9.77577 28.7118 9.84496 29.1528C9.84697 29.1676 9.86263 29.1858 9.87939 29.1853C10.293 29.1724 10.6946 29.2305 11.1067 29.2511C11.5188 29.2716 11.9268 29.2965 12.3351 29.3454C12.4587 29.3611 12.4781 29.1642 12.3538 29.1525C11.9939 29.1188 11.6339 29.0851 11.2729 29.0676C10.9031 29.0493 10.5511 29.0932 10.1824 29.1035C9.95364 29.1098 9.93448 29.092 9.94389 28.8657C9.95171 28.6753 9.96589 28.4856 9.98109 28.2955C9.99354 28.1466 9.99232 27.9629 10.0488 27.8228C10.1213 27.6438 10.1754 27.6952 10.3293 27.6871C10.4285 27.6813 10.5259 27.669 10.6246 27.6597C10.6365 27.6591 10.6346 27.6418 10.6238 27.6395L10.6243 27.6406Z" fill="#1E5736"/>
<path d="M12.2835 29.2519C12.1912 29.5613 12.2853 29.9617 12.3095 30.2791C12.3397 30.675 12.3876 31.0724 12.4182 31.4694C12.4206 31.5034 12.4604 31.5421 12.4953 31.5417C12.8931 31.5338 13.294 31.5643 13.6912 31.5396C13.7441 31.5358 13.7729 31.4776 13.7689 31.4322C13.7288 31.0541 13.7098 30.6772 13.7097 30.2965C13.7086 30.0132 13.7785 29.679 13.6898 29.4084C13.6749 29.3631 13.6129 29.376 13.597 29.4124C13.47 29.6991 13.5348 30.1227 13.5406 30.4317C13.5478 30.7752 13.5638 31.1195 13.5843 31.4629C13.6184 31.4265 13.6515 31.3905 13.6856 31.3541C13.2966 31.3363 12.9034 31.3725 12.5129 31.3698L12.59 31.4422C12.5648 31.0597 12.5544 30.6776 12.5306 30.2957C12.5101 29.9705 12.5459 29.5441 12.4087 29.2474C12.3856 29.1974 12.3024 29.1958 12.2859 29.2519L12.2835 29.2519Z" fill="#1E5736"/>
<path d="M13.6011 29.4798C13.9304 29.4367 14.252 29.4372 14.5822 29.4774L14.5048 29.3834C14.4967 29.7436 14.5308 30.1086 14.5528 30.4684C14.5759 30.8542 14.5968 31.2484 14.6782 31.6267C14.6851 31.6599 14.7131 31.6785 14.7467 31.6751C15.1428 31.64 15.5398 31.6227 15.9365 31.6467C15.9901 31.6498 16.0368 31.604 16.0282 31.5485C15.9099 30.844 15.9006 30.139 16.0212 29.4344C16.0445 29.3012 15.8266 29.2782 15.8106 29.4142C15.7278 30.1351 15.737 30.8609 15.8613 31.5759L15.9308 31.4796C15.5279 31.4972 15.1274 31.5149 14.7266 31.5583L14.7951 31.6067C14.7769 31.2525 14.7232 30.9002 14.6977 30.5458C14.6695 30.1622 14.6842 29.7819 14.6768 29.3985C14.6761 29.3552 14.6495 29.3056 14.5993 29.3045C14.2606 29.301 13.9195 29.3265 13.5849 29.3792C13.5206 29.3896 13.5378 29.4872 13.6016 29.4783L13.6011 29.4798Z" fill="#1E5736"/>
<path d="M13.4075 24.619C13.3475 24.8226 13.3983 25.0477 13.4125 25.257C13.4326 25.5497 13.4551 25.8424 13.4752 26.1351C13.4963 26.4248 13.515 26.7145 13.5292 27.005C13.5388 27.2043 13.5112 27.4936 13.5913 27.6773C13.6052 27.7073 13.6396 27.7241 13.6713 27.7192L13.6871 27.7167C13.744 27.7086 13.7551 27.6356 13.7133 27.6028L13.708 27.5991C13.6777 27.5755 13.6372 27.5955 13.6234 27.6261L13.6223 27.629C13.6102 27.6552 13.6285 27.6869 13.6538 27.697L13.6567 27.698L13.6297 27.6135L13.6251 27.6193L13.7337 27.6286C13.6955 27.5565 13.7142 27.3817 13.7074 27.2987C13.6958 27.1609 13.6823 27.0241 13.6688 26.8872C13.6432 26.6299 13.6255 26.3712 13.6059 26.1135C13.5862 25.8558 13.5661 25.5971 13.5464 25.3394C13.5284 25.1064 13.5502 24.8308 13.4504 24.6174C13.4421 24.5994 13.4125 24.5985 13.4065 24.6195L13.4075 24.619Z" fill="#1E5736"/>
<path d="M13.4634 24.6345C14.1494 24.6363 14.8581 24.6715 15.5309 24.8128C16.2293 24.9594 17.0388 25.3334 17.1897 26.1113C17.3534 26.9561 16.4361 27.4273 15.7559 27.5901C15.3803 27.6801 14.9919 27.7056 14.6072 27.7051C14.4058 27.7048 14.2046 27.6971 14.0044 27.689C13.9104 27.6851 13.8062 27.709 13.7352 27.6315C13.7038 27.5975 13.6621 27.481 13.6367 27.4418C13.6075 27.3971 13.5481 27.4391 13.5507 27.4815C13.5583 27.5872 13.5823 27.673 13.6112 27.7749C13.6214 27.8102 13.646 27.8425 13.6863 27.8457C14.5452 27.8962 15.4397 27.9242 16.2577 27.608C16.9256 27.3502 17.6125 26.8764 17.4501 26.0686C17.3044 25.3465 16.6131 24.8716 15.9325 24.7108C15.5335 24.6163 15.1139 24.5823 14.7051 24.5505C14.2885 24.5175 13.8716 24.5101 13.4622 24.6084C13.4478 24.6114 13.4471 24.6359 13.4628 24.6359L13.4634 24.6345Z" fill="#1E5736"/>
<path d="M11.153 27.4933C11.2744 27.3754 11.3085 27.1946 11.3356 27.0329C11.38 26.7723 11.4157 26.4794 11.4031 26.216C11.4002 26.1652 11.3133 26.1556 11.3014 26.206C11.2028 26.6275 11.2844 27.0796 11.1511 27.4917L11.153 27.4933Z" fill="#1E5736"/>
<path d="M13.6687 30.1094C13.6547 29.9061 13.5747 29.641 13.6197 29.442C13.6374 29.3647 13.5193 29.3586 13.5274 29.4337C13.5481 29.6254 13.5021 29.8225 13.5149 30.0155C13.5261 30.1813 13.5298 30.3651 13.588 30.5226C13.6002 30.5569 13.6475 30.5412 13.6523 30.5122C13.716 30.1542 13.5791 29.7869 13.622 29.4312L13.5278 29.4347C13.5611 29.5539 13.5451 29.6899 13.561 29.8135C13.5749 29.9223 13.599 30.0191 13.6333 30.1221C13.641 30.144 13.67 30.1306 13.6696 30.1114L13.6687 30.1094Z" fill="#1E5736"/>
<path d="M12.3695 29.2109C12.3641 29.3881 12.3936 29.5648 12.4025 29.7414C12.4131 29.9402 12.3852 30.1422 12.4047 30.3393C12.4074 30.366 12.4454 30.3618 12.4501 30.3378C12.4812 30.1427 12.4565 29.937 12.4562 29.7395C12.4552 29.5642 12.4647 29.3828 12.4316 29.2089C12.4258 29.1752 12.3706 29.174 12.3695 29.2109Z" fill="#1E5736"/>
<path d="M17.9117 23.5803C18.6716 23.7105 19.2352 24.0746 19.6171 24.7567C19.7997 25.0834 19.8993 25.4485 19.9179 25.8219C19.9277 26.0296 19.8988 26.2321 19.8861 26.4381C19.8716 26.6691 19.7979 26.8402 19.7091 27.0522C19.395 27.8025 19.0889 28.5806 18.3185 28.9682C17.9438 29.1572 17.5349 29.2564 17.1188 29.3008C16.7018 29.3456 16.2878 29.3053 15.8714 29.3304C15.7534 29.3376 15.7607 29.5318 15.8783 29.5369C16.3549 29.558 16.8634 29.5038 17.3323 29.4216C17.7854 29.342 18.207 29.1992 18.6009 28.9601C18.9507 28.7488 19.2113 28.4756 19.4037 28.1126C19.6029 27.738 19.8108 27.3326 19.9049 26.9168C19.9534 26.7016 20.0424 26.4955 20.0742 26.2783C20.1072 26.0557 20.1039 25.8257 20.0763 25.6032C20.0294 25.221 19.8938 24.8568 19.6815 24.5366C19.3173 23.9846 18.5895 23.4987 17.9085 23.5236C17.875 23.5246 17.8819 23.5735 17.9108 23.5783L17.9117 23.5803Z" fill="#1E5736"/>
<path d="M13.3785 23.171C13.3724 22.6828 13.3327 22.1929 13.3202 21.704C13.3076 21.215 13.3385 20.7229 13.3364 20.2303L13.2748 20.2964C13.9027 20.1699 14.5631 20.203 15.1827 20.3629C15.4857 20.4412 15.8292 20.5443 16.0516 20.7762C16.2941 21.028 16.341 21.4234 16.3278 21.7594C16.3168 22.0507 16.2422 22.3484 16.0318 22.5596C15.7899 22.8024 15.3984 22.9287 15.0738 23.0108C14.7492 23.0929 14.4199 23.1493 14.086 23.1327C13.819 23.119 13.5659 23.0832 13.3117 23.1837L13.442 23.2533C13.2894 22.4664 13.2225 21.6291 13.2574 20.8283C13.2597 20.7703 13.1728 20.7607 13.1676 20.8201C13.131 21.2238 13.0955 21.6113 13.1155 22.0168C13.1354 22.443 13.188 22.8637 13.2598 23.2841C13.2711 23.3479 13.3334 23.3725 13.3902 23.3536C13.7591 23.2231 14.2147 23.3218 14.6039 23.3008C14.9862 23.2805 15.3624 23.1867 15.7156 23.0404C16.3347 22.7846 16.5881 22.2492 16.5534 21.597C16.5369 21.2857 16.4809 20.9441 16.2657 20.7041C16.0466 20.4585 15.7188 20.3395 15.408 20.2625C14.6972 20.0865 13.9754 20.0806 13.2492 20.1519C13.2181 20.1554 13.19 20.1865 13.1875 20.2179C13.1509 20.7211 13.1783 21.2396 13.1968 21.744C13.2138 22.2164 13.2425 22.7088 13.3277 23.1739C13.3328 23.2007 13.3781 23.2015 13.378 23.1725L13.3785 23.171Z" fill="#1E5736"/>
<path d="M13.4684 25.5185C13.4653 25.3781 13.4686 25.2383 13.4665 25.0973C13.411 24.9641 13.4421 24.8661 13.5578 24.8041C13.6002 24.7227 13.6627 24.6927 13.7438 24.7134C13.8007 24.7053 13.864 24.7111 13.9217 24.7099C14.2326 24.7057 14.5455 24.7006 14.8557 24.7209C15.1595 24.7406 15.4626 24.7799 15.759 24.8466C16.0364 24.9089 16.3186 25.0707 16.5981 25.0931C16.6394 25.0959 16.676 25.0413 16.6426 25.0083C16.4139 24.789 16.003 24.7291 15.7 24.6691C15.2961 24.5902 14.8822 24.5631 14.4719 24.5466C14.2643 24.5382 14.0571 24.5358 13.8497 24.5358C13.73 24.5366 13.558 24.5082 13.4552 24.5691C13.3564 24.6281 13.3819 24.6913 13.3882 24.7915C13.4054 25.0334 13.4404 25.2743 13.463 25.5149C13.464 25.5169 13.4679 25.5175 13.468 25.5151L13.4684 25.5185Z" fill="#1E5736"/>
<path d="M9.19273 18.6616C10.0364 18.5821 10.886 18.5496 11.7308 18.4962C11.7639 18.4943 11.7821 18.4628 11.7884 18.4345C11.869 18.0395 11.8027 17.6021 11.7789 17.2044C11.7527 16.7751 11.7408 16.3452 11.7195 15.916C11.7158 15.8425 11.5901 15.8461 11.5893 15.9204C11.5904 16.5578 11.6693 17.198 11.6851 17.8358C11.6881 17.9787 11.6871 18.1235 11.6744 18.2664C11.6726 18.2915 11.6768 18.3321 11.6648 18.3534C11.635 18.4096 11.6804 18.3582 11.6304 18.3813C11.6145 18.3887 11.4771 18.3722 11.444 18.3742C11.3552 18.3788 11.2674 18.383 11.1786 18.3877C10.5151 18.4214 9.8512 18.47 9.18687 18.4836C9.05578 18.486 9.06225 18.6758 9.19318 18.6626L9.19273 18.6616Z" fill="#1E5736"/>
<path d="M11.6649 15.9281C12.1303 15.9118 12.5927 15.8837 13.0567 15.8511L12.9887 15.7697C12.9273 15.9254 12.9722 16.0987 12.9834 16.262C12.9995 16.4911 13.0171 16.7207 13.0298 16.9501C13.0585 17.4268 13.0862 17.9039 13.1149 18.3806C13.1173 18.4146 13.156 18.4355 13.1857 18.4314C13.5294 18.3854 13.8737 18.3378 14.2174 18.2918C14.2426 18.2886 14.2546 18.2648 14.2529 18.2426C14.2095 17.6029 14.1933 16.9617 14.1854 16.3202C14.1839 16.2251 14.1392 15.9947 14.1826 15.9128C14.2417 15.8018 14.4714 15.8134 14.5857 15.7957C14.9069 15.7455 15.2287 15.7046 15.5523 15.6727L15.4752 15.6003C15.3896 16.1104 15.4742 16.5637 15.5359 17.0724C15.5721 17.3685 15.5906 17.6656 15.5927 17.9641C15.5937 18.0922 15.5578 18.2822 15.6639 18.3726C15.6817 18.3875 15.708 18.3814 15.7246 18.3701C15.7563 18.3469 15.7578 18.3317 15.7555 18.2927C15.7541 18.274 15.7349 18.2586 15.7167 18.2561L15.7025 18.2541C15.6554 18.2492 15.6405 18.3167 15.6838 18.3343C15.748 18.3604 15.7506 17.8099 15.749 17.767C15.7387 17.5268 15.714 17.2872 15.6814 17.0488C15.6196 16.6081 15.4413 16.0647 15.6043 15.6304C15.6226 15.5807 15.5796 15.5376 15.5307 15.542C15.0518 15.5815 14.579 15.6447 14.1086 15.742C14.0833 15.7477 14.055 15.7705 14.0551 15.7996C14.0604 16.3489 14.0781 16.8961 14.112 17.4444C14.1217 17.6072 14.2383 18.1219 14.0995 18.2177C14.0074 18.2808 13.7448 18.2531 13.6321 18.2639C13.4765 18.2789 13.3204 18.2952 13.1648 18.3101L13.2356 18.3611C13.2073 17.9376 13.1799 17.5137 13.1516 17.0903C13.1374 16.8786 13.1242 16.6663 13.1134 16.4542C13.1023 16.2544 13.0484 16.0065 13.1031 15.8126C13.1159 15.7667 13.0831 15.7273 13.0352 15.7313C12.573 15.7702 12.1137 15.8128 11.653 15.8681C11.6114 15.8727 11.6239 15.9312 11.6633 15.93L11.6649 15.9281Z" fill="#1E5736"/>
<path d="M15.6286 18.1901C15.6281 18.2388 15.6291 18.2699 15.6325 18.3193C15.6343 18.3415 15.6596 18.3648 15.6818 18.3655C16.02 18.3705 16.3486 18.4466 16.6745 18.5325C16.9672 18.6094 17.2685 18.6764 17.5497 18.7914C18.1966 19.0551 18.6092 19.6854 18.8783 20.3044C19.1372 20.9014 19.2114 21.5655 18.9747 22.1843C18.8606 22.4832 18.6923 22.7671 18.4728 23.0007C18.2753 23.2109 18.0156 23.3576 17.8354 23.5791C17.8185 23.6002 17.8407 23.6325 17.8665 23.6278C18.4365 23.5257 18.9044 22.7722 19.0877 22.2715C19.3177 21.6462 19.3405 20.9396 19.1041 20.3128C18.8632 19.6735 18.4131 18.9805 17.7828 18.674C17.1646 18.3728 16.3623 18.2112 15.6777 18.2571L15.7414 18.3029C15.7406 18.2645 15.7363 18.2264 15.7296 18.1883C15.7215 18.1314 15.6284 18.1319 15.627 18.192L15.6286 18.1901Z" fill="#1E5736"/>
<path d="M17.8516 23.614C18.182 23.6153 18.5685 23.6696 18.7999 23.9288L18.8596 23.843C18.5519 23.6966 18.1897 23.5269 17.8405 23.5743C17.7663 23.5843 17.7701 23.7001 17.8453 23.7054C18.2399 23.7353 18.6553 23.7471 18.9774 24.0033C19.1207 24.1165 19.2513 24.2392 19.3712 24.3778C19.4721 24.4937 19.55 24.6177 19.6814 24.7001C19.7138 24.7203 19.7463 24.6883 19.7355 24.6545C19.639 24.3486 19.2821 24.0224 19.0075 23.8716C18.6622 23.6807 18.2452 23.6128 17.8583 23.5733C17.8604 23.6172 17.861 23.6606 17.8631 23.7045C18.201 23.6381 18.5119 23.8437 18.8236 23.9434C18.885 23.9635 18.9169 23.8881 18.8733 23.8489C18.5719 23.5746 18.2354 23.6076 17.8537 23.6106L17.8536 23.6131L17.8516 23.614Z" fill="#1E5736"/>
<path d="M19.6453 24.7884C19.5101 24.3646 19.1335 24.1009 18.7696 23.8749C18.4535 23.6791 18.0894 23.5236 17.7138 23.5978L17.7568 23.738C18.1371 23.5586 18.5556 23.2754 18.7583 22.8955C18.7814 22.8509 18.7302 22.7873 18.687 22.8303C18.3682 23.1401 18.1091 23.4139 17.6954 23.6051C17.6224 23.6388 17.6559 23.7663 17.7383 23.7452C18.1344 23.6446 18.4722 23.7772 18.8045 23.9898C19.1349 24.2009 19.4622 24.4316 19.6428 24.7908C19.6437 24.7928 19.6457 24.7918 19.6448 24.7898L19.6453 24.7884Z" fill="#1E5736"/>
<path d="M52.3772 36.3979L54.6424 36.5552C54.6424 36.5552 55.0176 32.7412 50.3152 32.414C48.9445 32.3187 47.9345 32.5394 47.1907 32.911C44.8478 34.0787 44.7196 37.354 46.9302 38.7576C47.5172 39.1303 48.2924 39.4536 49.3164 39.6594C53.228 40.4455 52.3309 42.4245 52.069 42.8366C51.8687 43.1535 51.1455 44.071 49.5434 43.8922C47.9409 43.7125 47.251 42.8102 47.251 42.8102C47.251 42.8102 46.9371 42.4119 46.768 41.8885L44.1633 41.7075C44.1633 41.7075 44.9172 46.0571 49.5845 46.1773C50.4655 46.1995 51.201 46.0934 51.8145 45.9094C54.1643 45.2029 55.3972 42.5886 54.4008 40.3461C54.0295 39.5112 53.3363 38.7146 52.0695 38.3009C50.5973 37.8208 47.3098 37.4508 47.5589 35.9144C47.8986 33.8208 50.7029 34.2867 51.5403 34.7001C51.8494 34.8519 52.5845 35.4217 52.3801 36.399L52.3772 36.3979Z" fill="#1E5736"/>
<path d="M48.773 31.5226L47.7192 46.7267L48.937 46.8111L49.9909 31.6071L48.773 31.5226Z" fill="#1E5736"/>
<path d="M50.6461 31.6528L49.5923 46.8568L50.8343 46.9429L51.8882 31.7389L50.6461 31.6528Z" fill="#1E5736"/>
<path d="M3.56826 15.0023C3.02243 15.6632 2.43225 16.3725 2.03309 17.133C1.63393 17.8935 1.33209 18.66 1.08149 19.4585C0.57859 21.0625 0.274898 22.7406 0.322675 24.4235C0.405436 27.2921 1.35038 30.52 3.1723 32.7776C4.50315 34.4266 6.23679 35.8057 8.06215 36.8611C8.18943 36.9344 8.32228 36.747 8.19353 36.6731C6.60481 35.7544 5.01688 34.6171 3.93582 33.1098C3.05741 31.8835 2.27107 30.5941 1.74484 29.1747C0.691909 26.335 0.366709 23.0705 1.18736 20.1336C1.43301 19.2561 1.75869 18.4022 2.15767 17.5836C2.5919 16.6917 2.99599 15.8186 3.57211 15.0054C3.57365 15.0035 3.57025 15.0014 3.56871 15.0033L3.56826 15.0023Z" fill="#1E5736"/>
<path d="M27.0878 28.758C27.554 27.5627 27.9788 26.2567 28.1029 24.9746C28.2172 23.7867 28.1653 22.5724 27.973 21.3953C27.5943 19.0698 26.6812 16.8082 25.258 14.9278C22.315 11.0395 17.1768 8.80127 12.3232 9.7736C9.43944 10.3509 6.72678 11.5791 4.61021 13.6536C4.50509 13.7567 4.65236 13.9337 4.75948 13.8296C8.40409 10.257 14.0912 9.03886 18.9037 10.7825C23.1527 12.3222 26.5289 16.1401 27.5137 20.5538C28.1077 23.2164 27.9488 26.1735 27.0863 28.7574C27.0852 28.7603 27.0882 28.7614 27.0892 28.7585L27.0878 28.758Z" fill="#1E5736"/>
<path d="M0.682757 26.0991C0.850745 27.5725 1.16065 29.0433 1.80202 30.3864C2.43183 31.7046 3.25667 32.912 4.23503 33.995C5.76211 35.6855 7.57233 36.9601 9.76522 37.6273C13.6504 38.8076 18.0052 37.9786 21.3503 35.7522C23.2841 34.4656 24.9646 32.9116 26.177 30.9143C26.2532 30.7881 26.0657 30.6553 25.9889 30.7829C21.846 37.6041 11.5448 40.1737 5.32045 34.6538C4.09161 33.5641 3.09692 32.2279 2.34179 30.7724C1.58666 29.317 0.965044 27.7306 0.687184 26.0982C0.686261 26.0962 0.682823 26.0966 0.684208 26.0996L0.682757 26.0991Z" fill="#1E5736"/>
<path d="M18.3415 12.3328C13.8142 10.6999 8.44272 12.0316 5.28614 15.7024C2.21078 19.2787 1.47761 24.433 3.25571 28.7736C4.37224 31.499 6.38497 33.5895 8.91725 35.0568C8.95986 35.0807 9.00411 35.0191 8.96104 34.9941C6.73362 33.7037 4.80005 31.9051 3.71231 29.5411C2.82638 27.6137 2.33496 25.3828 2.44741 23.262C2.70085 18.4761 5.72244 14.0698 10.277 12.4426C12.8447 11.5251 15.7542 11.4524 18.3404 12.3357L18.3415 12.3328Z" fill="#1E5736"/>
<path d="M3.79539 14.8671C3.80689 14.8859 3.81806 14.9071 3.82507 14.9313C3.84879 15.0138 3.82754 15.0947 3.78422 15.1558L3.78601 15.1572C3.22532 15.9487 2.83183 16.799 2.39397 17.6983C2.00183 18.5029 1.6811 19.3422 1.43977 20.2043C0.636912 23.0775 0.953177 26.2848 1.99091 29.0836C2.50578 30.4723 3.27773 31.7401 4.1493 32.9569L4.35204 33.2269C4.87565 33.8967 5.50453 34.4906 6.18836 35.0249C9.13336 37.2517 12.8587 37.8218 16.3815 37.0893C20.1889 36.2975 23.7345 33.989 25.7644 30.6472L25.8132 30.5817C25.869 30.5222 25.9432 30.4823 26.0276 30.4713C26.1314 30.4579 26.2247 30.492 26.2916 30.5391C26.4223 30.6313 26.5274 30.841 26.4012 31.0499C25.1636 33.0886 23.4519 34.6689 21.4956 35.9705C18.0923 38.2355 13.6566 39.0837 9.68838 37.8783C7.44233 37.1947 5.59336 35.8898 4.04043 34.1707C3.91615 34.0331 3.79368 33.894 3.67432 33.7525C3.42908 33.49 3.19234 33.2207 2.9679 32.9426C1.10177 30.6302 0.143703 27.3422 0.0597065 24.4309C0.0109292 22.7119 0.321365 21.0041 0.830601 19.3799C1.08495 18.5694 1.393 17.7881 1.80077 17.0112C2.21501 16.222 2.82445 15.4909 3.36603 14.8351L3.63192 14.5134L3.79539 14.8671ZM3.56871 15.0033C3.0229 15.6642 2.43225 16.3726 2.03309 17.133L1.88735 17.4185C1.55882 18.0855 1.30074 18.7599 1.08149 19.4585L0.902287 20.063C0.507876 21.4817 0.280893 22.9509 0.322675 24.4235L0.348384 24.965C0.527026 27.6916 1.46421 30.6611 3.1723 32.7776C3.39532 33.0539 3.63079 33.322 3.87497 33.5829C3.99243 33.7223 4.11268 33.8596 4.23503 33.995C5.76211 35.6855 7.57233 36.9601 9.76522 37.6273C13.529 38.7707 17.7336 38.0285 21.034 35.9568L21.3503 35.7522C23.2841 34.4656 24.9646 32.9116 26.177 30.9143C26.2532 30.7881 26.0657 30.6553 25.9889 30.7829C21.9966 37.3559 12.2863 39.9804 6.01573 35.2233C5.22996 34.6081 4.5109 33.9117 3.93582 33.1098C3.05741 31.8835 2.27107 30.5941 1.74484 29.1747C0.691909 26.335 0.366709 23.0705 1.18736 20.1336C1.37159 19.4755 1.60051 18.8306 1.87193 18.2039L2.15767 17.5836C2.5919 16.6917 2.99599 15.8186 3.57211 15.0054C3.57365 15.0035 3.57025 15.0014 3.56871 15.0033ZM4.83855 13.0792C6.933 11.1952 9.53224 10.0646 12.2716 9.51618L12.738 9.43279C17.5594 8.66708 22.5633 10.9333 25.4668 14.7692C26.9182 16.6866 27.847 18.9895 28.2319 21.3533C28.4276 22.5509 28.4806 23.7877 28.3639 24.9996C28.2424 26.2554 27.8408 27.5238 27.398 28.6801L27.3359 28.8489C27.31 28.9194 27.19 29.0798 26.9934 29.0049C26.9883 29.003 26.9838 29.0002 26.979 28.998L26.7452 28.9152L26.8375 28.6748C27.685 26.1359 27.8408 23.2264 27.2573 20.6108C26.2921 16.2853 22.9793 12.5382 18.8142 11.0289C14.0958 9.31946 8.51511 10.5157 4.94324 14.0169C4.8635 14.0944 4.75502 14.1357 4.64229 14.121C4.53834 14.1074 4.45715 14.0505 4.4046 13.988C4.30217 13.8661 4.25271 13.6367 4.4266 13.4661L4.83855 13.0792ZM12.3232 9.7736C9.43944 10.3509 6.72678 11.5791 4.61021 13.6536C4.51836 13.7437 4.61904 13.8897 4.71742 13.8558L4.75948 13.8296C8.40409 10.257 14.0912 9.03886 18.9037 10.7825C23.1527 12.3222 26.5289 16.1401 27.5137 20.5538C28.1077 23.2164 27.9488 26.1735 27.0863 28.7574L27.0892 28.7585L27.0878 28.758C27.554 27.5627 27.9788 26.2567 28.1029 24.9746C28.2029 23.9351 28.1753 22.8755 28.0381 21.8382L27.973 21.3953C27.5943 19.0698 26.6812 16.8082 25.258 14.9278C22.4069 11.161 17.4956 8.94272 12.7787 9.69187L12.3232 9.7736ZM5.08712 15.5308C8.31678 11.7752 13.8041 10.4173 18.4308 12.0861L18.6817 12.1768L18.5868 12.4262L18.5858 12.429L18.4955 12.6661L18.2553 12.584C15.7287 11.7211 12.8805 11.7916 10.3656 12.6902C5.91885 14.2789 2.95767 18.5871 2.70934 23.2763C2.59949 25.3494 3.08079 27.5379 3.95116 29.4314C5.01023 31.733 6.89832 33.4954 9.09306 34.7668L9.14464 34.8051C9.19278 34.8488 9.22869 34.9095 9.23877 34.9819C9.25084 35.0693 9.22111 35.1444 9.18495 35.1954C9.11494 35.2941 8.95309 35.3784 8.78853 35.286L8.78538 35.2841C6.21119 33.7925 4.15496 31.6603 3.01312 28.8732C1.19923 24.4452 1.94471 19.185 5.08712 15.5308ZM18.3415 12.3328C13.8142 10.6999 8.44272 12.0316 5.28614 15.7024C2.21078 19.2787 1.47761 24.433 3.25571 28.7736C4.37224 31.499 6.38497 33.5895 8.91725 35.0568L8.92355 35.0575C8.96428 35.0736 9.00224 35.018 8.96104 34.9941C6.73362 33.7037 4.80005 31.9051 3.71231 29.5411C2.82638 27.6137 2.33496 25.3828 2.44741 23.262C2.70085 18.4761 5.72244 14.0698 10.277 12.4426C12.8447 11.5251 15.7542 11.4524 18.3404 12.3357L18.3415 12.3328Z" fill="#1E5736"/>
<path d="M36.7059 44.5162C37.0274 45.322 37.3727 46.1846 37.8548 46.9077C38.3576 47.6624 38.9514 48.3619 39.5907 49.0026C40.829 50.2468 42.215 51.3197 43.8064 52.0709C45.1109 52.6868 46.5194 53.0896 47.9423 53.3161C49.3651 53.5425 50.9038 53.6524 52.3304 53.3386C54.3491 52.8944 56.2759 52.1252 58.0401 51.0515C58.1651 50.9756 58.0705 50.7657 57.9435 50.8426C56.4549 51.7489 54.7786 52.5746 53.0373 52.8373C51.5954 53.055 50.1044 53.1269 48.6541 52.9592C45.6216 52.6085 42.4884 51.3498 40.253 49.2445C39.5704 48.602 38.9479 47.8953 38.397 47.1362C37.7813 46.2869 37.1714 45.4604 36.7089 44.5148C36.708 44.5128 36.705 44.5142 36.7059 44.5162Z" fill="#1E5736"/>
<path d="M60.0536 30.4669C59.2506 29.5114 58.3331 28.5311 57.3019 27.8193C56.2708 27.1074 55.2402 26.6014 54.1213 26.1981C51.9195 25.404 49.5077 25.1 47.1864 25.4222C42.3572 26.0933 37.8731 29.4815 36.3554 34.2005C35.4428 37.0379 35.2055 40.0616 36.0216 42.9502C36.0615 43.0918 36.2883 43.055 36.2493 42.9129C34.8499 37.9644 36.5436 32.3091 40.4596 28.9433C43.8743 26.0094 48.7998 24.9117 53.1278 26.1844C55.7212 26.9467 58.2126 28.4934 60.0505 30.4707C60.0514 30.4727 60.0535 30.4693 60.0535 30.4693L60.0536 30.4669Z" fill="#1E5736"/>
<path d="M45.0626 52.3683C46.2694 52.8595 47.5664 53.2884 48.8699 53.4063C50.1735 53.5242 51.4066 53.4661 52.6523 53.2541C54.955 52.8629 57.12 52.0163 58.9114 50.4923C62.1087 47.7729 63.7817 43.3506 63.4694 39.1984C63.2866 36.7666 62.7422 34.4317 61.5117 32.3046C61.4383 32.1772 61.229 32.2727 61.3029 32.4011C63.3883 36.0054 63.6316 40.3495 62.3901 44.2885C61.0973 48.3869 57.8678 51.6925 53.6571 52.7546C52.2866 53.1006 50.8449 53.2138 49.4359 53.1326C47.9471 53.0469 46.4791 52.8512 45.0657 52.3645C45.0628 52.3634 45.0617 52.3663 45.0646 52.3674L45.0626 52.3683Z" fill="#1E5736"/>
<path d="M41.4475 30.2707C37.8625 33.4422 36.45 38.7614 38.1218 43.276C39.7999 47.8095 44.1275 50.9887 48.9144 51.4175C51.7524 51.6726 54.4524 50.9051 56.873 49.4335C56.9147 49.4081 56.8834 49.3377 56.8407 49.3635C54.7071 50.6612 52.2806 51.4904 49.7591 51.3691C47.7 51.2694 45.5378 50.6764 43.748 49.6507C39.4366 47.1782 36.8598 42.2088 37.6992 37.2661C38.1489 34.6208 39.4659 32.0863 41.4485 30.2702L41.448 30.2692L41.4475 30.2707Z" fill="#1E5736"/>
<path d="M61.2431 32.0184C61.3864 31.9528 61.6187 31.9641 61.7393 32.1731L61.9658 32.5825C63.0621 34.6418 63.558 36.8748 63.7313 39.179C64.0492 43.4076 62.3478 47.9142 59.0814 50.6924C57.294 52.213 55.149 53.0679 52.8797 53.4785C52.716 53.5191 52.5516 53.5582 52.3866 53.5945C50.9125 53.9187 49.3358 53.8038 47.9012 53.5755C46.4577 53.3458 45.0243 52.9364 43.6941 52.3085C42.0686 51.5411 40.6579 50.4475 39.404 49.1877C38.7551 48.5372 38.1497 47.8245 37.6358 47.0532C37.136 46.3034 36.7815 45.4143 36.462 44.6136L36.4639 44.6127C36.4389 44.5502 36.4355 44.4776 36.465 44.4099C36.494 44.3436 36.5453 44.2995 36.5962 44.2759C36.6472 44.2523 36.714 44.242 36.7834 44.2628C36.857 44.2851 36.9131 44.337 36.9439 44.3999C37.3944 45.321 37.9903 46.1278 38.6093 46.9817C39.1505 47.7275 39.7624 48.4219 40.4331 49.0532C42.6201 51.1129 45.6971 52.353 48.6843 52.6985C50.1062 52.863 51.5732 52.7929 52.9978 52.5778C53.9351 52.4364 54.856 52.122 55.7438 51.7199C58.7983 50.2549 61.1032 47.4956 62.1398 44.2093C63.3623 40.3303 63.1186 36.0646 61.0754 32.5331C61.0198 32.4364 61.0075 32.3195 61.0517 32.213C61.0923 32.1155 61.1694 32.0522 61.2431 32.0184ZM61.5117 32.3046C61.4383 32.1772 61.229 32.2727 61.3029 32.4011C63.3883 36.0054 63.6316 40.3495 62.3901 44.2885L62.2637 44.6705C61.1525 47.8539 58.8604 50.5172 55.8549 51.9577C54.9492 52.3681 54.004 52.6914 53.0373 52.8373C51.5954 53.055 50.1044 53.1269 48.6541 52.9592C45.8111 52.6304 42.8796 51.5036 40.6824 49.6293L40.253 49.2445C39.6558 48.6824 39.1044 48.0714 38.6069 47.4189L38.397 47.1362C37.7813 46.2869 37.1714 45.4604 36.7089 44.5148L36.7059 44.5162C37.0274 45.322 37.3727 46.1846 37.8548 46.9077C38.3576 47.6624 38.9514 48.3619 39.5907 49.0026C40.829 50.2468 42.215 51.3197 43.8064 52.0709C45.1109 52.6868 46.5194 53.0896 47.9423 53.3161C49.3651 53.5425 50.9038 53.6524 52.3304 53.3386C52.4927 53.3029 52.654 53.2636 52.8151 53.2237C55.0568 52.8206 57.1624 51.9802 58.9114 50.4923C62.1087 47.7729 63.7817 43.3506 63.4694 39.1984C63.298 36.9188 62.8091 34.7241 61.7349 32.7061L61.5117 32.3046ZM41.7676 30.3345L41.6703 30.4223L41.6703 30.4246L41.6212 30.4676C39.6869 32.2415 38.3988 34.7207 37.9586 37.3103C37.1391 42.1361 39.6551 47.0008 43.8787 49.4229L44.2107 49.606C45.8941 50.4974 47.8771 51.0152 49.7718 51.1069C52.227 51.225 54.6017 50.4176 56.704 49.1389C56.7779 49.0942 56.8755 49.0793 56.9685 49.1172C57.0518 49.1511 57.1022 49.2149 57.1275 49.2707C57.1758 49.3771 57.1713 49.559 57.0092 49.6575C54.5486 51.1535 51.7933 51.94 48.8908 51.679C44.0073 51.2415 39.59 47.9997 37.8753 43.3673C36.1726 38.7693 37.5965 33.3646 41.2237 30.1182L41.4251 29.5936L41.7676 30.3345ZM41.4475 30.2707C37.8625 33.4422 36.45 38.7614 38.1218 43.276C39.7999 47.8095 44.1275 50.9887 48.9144 51.4175C51.575 51.6567 54.1145 50.9972 56.416 49.7012L56.873 49.4335C56.9147 49.4081 56.8834 49.3377 56.8407 49.3635C54.7071 50.6612 52.2806 51.4904 49.7591 51.3691C47.7 51.2694 45.5378 50.6764 43.748 49.6507C39.4366 47.1782 36.8598 42.2088 37.6992 37.2661C38.1489 34.6208 39.4659 32.0863 41.4485 30.2702L41.4475 30.2707ZM36.1059 34.1203C37.6578 29.2949 42.2325 25.8455 47.1498 25.1619C49.5168 24.8334 51.9718 25.1439 54.2096 25.9509C55.3473 26.361 56.3997 26.877 57.4515 27.6031C58.5121 28.3353 59.4478 29.3379 60.2549 30.2983L60.32 30.3756L60.3164 30.4778L60.3154 30.4805L60.3129 30.5483L60.2776 30.6064L60.2771 30.6078L60.2747 30.61L60.2723 30.6145C60.2704 30.6174 60.2675 30.6209 60.2646 30.6248C60.2599 30.6313 60.2492 30.6465 60.2323 30.6624C60.2249 30.6694 60.1707 30.7224 60.0806 30.7325C60.0239 30.7389 59.9595 30.7265 59.903 30.6881C59.885 30.6757 59.8717 30.6607 59.8593 30.6473L59.8579 30.649C58.0519 28.7063 55.6013 27.1855 53.0537 26.4366C48.8125 25.1895 43.979 26.266 40.6306 29.143C36.7924 32.442 35.1302 37.9918 36.5017 42.842L36.5026 42.8439C36.532 42.9514 36.5149 43.067 36.4438 43.1591C36.3786 43.2434 36.2867 43.2838 36.207 43.2968C36.0522 43.3219 35.8339 43.251 35.7691 43.0214C34.9362 40.0729 35.181 36.9957 36.1059 34.1203ZM47.1864 25.4222C42.3572 26.0933 37.8731 29.4815 36.3554 34.2005C35.4428 37.0379 35.2055 40.0616 36.0216 42.9502L36.0447 42.9945C36.1043 43.0684 36.2364 43.047 36.2517 42.961L36.2493 42.9129C34.8499 37.9644 36.5436 32.3091 40.4596 28.9433C43.8743 26.0094 48.7998 24.9117 53.1278 26.1844C55.559 26.8991 57.9004 28.3032 59.698 30.1051L60.0505 30.4707C60.0514 30.4727 60.0535 30.4693 60.0535 30.4693L60.0536 30.4669C59.2506 29.5114 58.3331 28.5311 57.3019 27.8193C56.3998 27.1965 55.498 26.7309 54.5372 26.3542L54.1213 26.1981C51.9195 25.404 49.5077 25.1 47.1864 25.4222Z" fill="#1E5736"/>
<path d="M16.8093 46.3081L23.4555 46.6876L14.9073 34.6518L5.48324 45.8601L10.0721 45.9233C10.0721 45.9233 8.25527 58.6301 21.0442 60.181C33.5402 61.6963 35.5279 48.1392 34.4924 46.4313C34.4924 46.4313 31.7095 58.1368 22.4053 54.0343C15.8743 51.1543 16.8078 46.3075 16.8078 46.3075L16.8093 46.3081Z" fill="#CFF6E0"/>
<path d="M47.5068 19.1445L40.8803 18.506L48.9526 30.8661L58.806 20.033L54.2226 19.7902C54.2226 19.7902 56.5325 7.16348 43.8145 5.11535C31.3876 3.11458 28.873 16.5841 29.8404 18.3308C29.8404 18.3308 33.0777 6.74275 42.2143 11.204C48.6278 14.336 47.5063 19.1435 47.5063 19.1435L47.5068 19.1445Z" fill="#CFF6E0"/>
<path d="M5.71606 45.909C7.33512 44.1094 8.88055 42.237 10.4319 40.3801C11.1938 39.4677 11.9489 38.5511 12.6969 37.627C13.493 36.6443 14.3439 35.6858 15.0669 34.6472C15.123 34.5666 15.0093 34.4544 14.9356 34.5284C14.1044 35.354 13.3672 36.2804 12.5993 37.164C11.7702 38.1172 10.9468 39.075 10.1331 40.0405C8.55259 41.9157 6.95444 43.7868 5.44362 45.7184C5.30878 45.8911 5.57783 46.0639 5.71706 45.9086L5.71606 45.909Z" fill="#1E5736"/>
<path d="M14.959 34.7298C16.3158 36.7342 17.748 38.6916 19.1673 40.6526C20.5866 42.6136 21.9937 44.6979 23.5719 46.5673C23.6252 46.63 23.7449 46.5612 23.6985 46.4869C22.4347 44.4189 20.9345 42.4613 19.5219 40.4936C18.0903 38.5007 16.6675 36.4953 15.1744 34.5478C15.0617 34.401 14.8581 34.5824 14.958 34.7303L14.959 34.7298Z" fill="#1E5736"/>
<path d="M16.8013 46.473C18.9648 46.5415 21.1575 46.6521 23.321 46.5763C23.4083 46.5735 23.3987 46.4349 23.3158 46.4259C21.1732 46.2059 18.9889 46.1713 16.8375 46.0949C16.5944 46.0859 16.5572 46.4645 16.8008 46.472L16.8013 46.473Z" fill="#1E5736"/>
<path d="M9.94177 45.821C8.49881 45.7688 7.00821 45.6161 5.56903 45.7295C5.3982 45.7429 5.42138 45.9978 5.57931 46.0194C6.99528 46.2126 8.47639 46.1453 9.9062 46.1927C10.1463 46.2006 10.1833 45.8294 9.94177 45.821Z" fill="#1E5736"/>
<path d="M9.56245 46.1527C9.77129 46.0562 9.6212 45.7314 9.41236 45.828C9.20352 45.9245 9.35361 46.2492 9.56245 46.1527Z" fill="#1E5736"/>
<path d="M16.6016 46.1953C16.341 48.1397 17.309 50.2499 18.5707 51.6786C19.7331 52.9944 21.2917 54.0578 22.9852 54.5497C24.6786 55.0416 26.7162 54.9898 28.4881 54.4862C30.2236 53.9934 31.7419 52.7812 32.8479 51.3751C34.0386 49.8607 34.5542 47.9064 34.7515 46.0217C34.7636 45.9009 34.5687 45.8491 34.5387 45.9733C34.1635 47.5097 33.8059 49.0502 32.9056 50.3795C32.0053 51.7087 30.5487 52.8864 29.0437 53.508C25.8944 54.8095 22.3176 54.1208 19.7687 51.9301C18.9717 51.2446 18.2705 50.407 17.776 49.4787C17.2158 48.4267 17.0369 47.3391 16.8082 46.1884C16.7847 46.072 16.6176 46.0776 16.6016 46.1953Z" fill="#1E5736"/>
<path d="M10.0942 45.4619C9.41427 48.2913 9.97497 51.4907 11.3309 54.0388C12.6868 56.587 14.8455 58.4633 17.4334 59.5628C20.0845 60.6889 23.0868 60.9166 25.8597 60.1153C28.7897 59.268 31.2179 57.406 32.9003 54.875C34.5708 52.3627 35.146 49.0785 34.6928 46.1144C34.6768 46.0114 34.5179 46.0376 34.533 46.141C34.9137 48.7542 34.4911 51.4924 33.2263 53.8197C31.8538 56.347 29.3854 58.2505 26.7267 59.2755C21.5899 61.2567 15.3679 59.3811 12.2853 54.7788C10.4388 52.0221 9.92278 48.7487 10.2541 45.4984C10.2633 45.4081 10.1163 45.3681 10.0942 45.4619Z" fill="#1E5736"/>
<path d="M12.163 49.7253C12.5862 51.9635 13.8318 54.3044 15.7115 55.6584C15.7843 55.7109 15.887 55.6052 15.8201 55.5391C14.999 54.7411 14.221 53.9657 13.6103 52.9855C12.9997 52.0053 12.5205 50.8662 12.2279 49.7136C12.2178 49.6734 12.1554 49.6828 12.1635 49.7239L12.163 49.7253Z" fill="#1E5736"/>
<path d="M14.7494 34.3428C14.8122 34.2798 14.8947 34.2466 14.9818 34.2445C15.0157 34.2359 15.0516 34.2293 15.0896 34.2308C15.2086 34.2356 15.3119 34.2961 15.3825 34.388C16.8787 36.3395 18.305 38.3491 19.7351 40.34C21.1408 42.2979 22.6511 44.2693 23.9214 46.3475L23.9529 46.4132C23.977 46.481 23.9779 46.5551 23.9537 46.6252C23.9242 46.7102 23.8651 46.7687 23.8088 46.8029C23.7261 46.8529 23.5811 46.8828 23.4563 46.8076C23.4171 46.8257 23.3747 46.8362 23.3301 46.8377C21.2873 46.9093 19.2174 46.8162 17.1865 46.748C17.3705 47.6719 17.5653 48.5249 18.0074 49.3553C18.4848 50.2515 19.1648 51.0642 19.9402 51.7311C22.419 53.8613 25.8913 54.5268 28.9431 53.2657C30.4016 52.6633 31.8178 51.5179 32.6887 50.2322C33.5575 48.9493 33.9058 47.458 34.2836 45.9108C34.3092 45.8057 34.3775 45.7201 34.4726 45.6744C34.56 45.6324 34.6514 45.6331 34.7238 45.6509C34.8575 45.6839 35.0356 45.8175 35.0125 46.0484C35.0036 46.1336 34.9924 46.2197 34.9822 46.3053C35.3805 49.2642 34.7872 52.5119 33.1192 55.0204C31.4046 57.5999 28.9256 59.5018 25.9322 60.3674C23.0986 61.1862 20.0346 60.9525 17.3308 59.804C14.6916 58.6826 12.4856 56.7668 11.0995 54.1621C9.88239 51.8748 9.29098 49.0686 9.64407 46.4497C8.31475 46.4176 6.89102 46.4635 5.54409 46.2797C5.40172 46.2602 5.30592 46.1772 5.24971 46.0803C5.2065 46.0319 5.17003 45.9725 5.15386 45.8998C5.12648 45.7763 5.1609 45.6537 5.2369 45.5564C6.75141 43.6201 8.35372 41.7441 9.93248 39.8709C10.7472 38.9044 11.571 37.9455 12.4007 36.9917C13.1581 36.1201 13.9097 35.1771 14.7494 34.3428ZM14.9356 34.5284C14.1044 35.354 13.3672 36.2804 12.5993 37.164L11.3603 38.5976C10.9492 39.0769 10.54 39.5577 10.1331 40.0405C8.55259 41.9157 6.95444 43.7868 5.44362 45.7184C5.38291 45.7961 5.40584 45.8719 5.46018 45.9197C5.47798 45.9694 5.51921 46.0111 5.57931 46.0194C6.99528 46.2126 8.47639 46.1453 9.9062 46.1927C9.92194 46.1932 9.93677 46.1919 9.95074 46.1894C9.51804 48.8296 10.0899 51.7068 11.3309 54.0388C12.6868 56.587 14.8455 58.4633 17.4334 59.5628C20.0845 60.6889 23.0868 60.9166 25.8597 60.1153C28.6066 59.321 30.9124 57.6347 32.5762 55.3414L32.9003 54.875C34.5366 52.4141 35.119 49.213 34.7163 46.2971C34.7275 46.2051 34.7419 46.1134 34.7515 46.0217C34.7636 45.9009 34.5687 45.8491 34.5387 45.9733C34.1635 47.5097 33.8059 49.0502 32.9056 50.3795L32.7298 50.6266C31.8828 51.7718 30.6348 52.782 29.3248 53.3853L29.0437 53.508C25.9929 54.7688 22.5411 54.1618 20.011 52.131L19.7687 51.9301C19.0714 51.3304 18.447 50.6145 17.9706 49.823L17.776 49.4787C17.2626 48.5146 17.0688 47.5207 16.8641 46.4757C19.0072 46.5443 21.1784 46.6514 23.321 46.5763C23.4083 46.5735 23.3987 46.4349 23.3158 46.4259C21.1732 46.2059 18.9889 46.1713 16.8375 46.0949C16.8032 46.0936 16.7731 46.1008 16.7472 46.1129C16.6896 46.089 16.6123 46.1171 16.6016 46.1953C16.341 48.1397 17.309 50.2499 18.5707 51.6786C19.7331 52.9944 21.2917 54.0578 22.9852 54.5497C24.6786 55.0416 26.7162 54.9898 28.4881 54.4862C30.1152 54.0241 31.5514 52.9295 32.6359 51.6358L32.8479 51.3751C33.8409 50.1122 34.3625 48.5429 34.6233 46.9636C34.8136 49.322 34.359 51.7355 33.2263 53.8197C31.8538 56.347 29.3854 58.2505 26.7267 59.2755C21.5899 61.2567 15.3679 59.3811 12.2853 54.7788C10.4388 52.0221 9.92278 48.7487 10.2541 45.4984C10.2633 45.4081 10.1163 45.3681 10.0942 45.4619L10.0899 45.4812C10.0618 45.5994 10.0382 45.7187 10.0143 45.8381C9.99369 45.8285 9.96972 45.822 9.94177 45.821C8.60623 45.7726 7.23004 45.6412 5.89141 45.7114C6.6396 44.8746 7.3736 44.0239 8.09931 43.166L10.4319 40.3801C10.8127 39.924 11.1919 39.4668 11.5693 39.0082L12.6969 37.627C13.4628 36.6815 14.2778 35.7574 14.9823 34.7638C16.3323 36.7562 17.7562 38.7029 19.1673 40.6526C20.5866 42.6136 21.9937 44.6979 23.5719 46.5673C23.6252 46.63 23.7449 46.5612 23.6985 46.4869C22.7506 44.9359 21.6702 43.4466 20.593 41.9689L19.5219 40.4936C18.0903 38.5007 16.6675 36.4953 15.1744 34.5478C15.1277 34.4874 15.066 34.4838 15.0163 34.5098C14.9903 34.5004 14.9607 34.5034 14.9356 34.5284ZM14.9771 35.2192C14.3177 36.1099 13.5798 36.9535 12.9005 37.7921C12.1516 38.7173 11.3955 39.6348 10.6329 40.548C9.26984 42.1795 7.9066 43.8275 6.49378 45.4285C7.60581 45.416 8.73422 45.5078 9.8061 45.5514C9.81736 45.5012 9.82716 45.4505 9.83918 45.4005C9.8625 45.3031 9.92572 45.2222 10.0157 45.1789C10.0983 45.1392 10.1836 45.1403 10.2495 45.1567C10.3693 45.1866 10.5377 45.3086 10.5157 45.525C10.1888 48.7318 10.6993 51.9397 12.5032 54.6329C15.5158 59.1306 21.6073 60.9687 26.6326 59.0305C29.2451 58.0232 31.6582 56.1559 32.9952 53.694C33.7645 52.2786 34.2157 50.7059 34.3567 49.1021C34.0916 49.8563 33.7419 50.5806 33.2776 51.2376L33.0546 51.5372C31.9956 52.8835 30.5568 54.0692 28.8955 54.6342L28.5597 54.7386C26.7471 55.2537 24.6584 55.3091 22.9115 54.8018C21.1647 54.2943 19.5651 53.2006 18.3743 51.8527C17.0825 50.3901 16.0669 48.2062 16.3411 46.1605L16.3576 46.0885C16.4131 45.9177 16.5735 45.8343 16.7285 45.8425C16.7652 45.8348 16.8047 45.8313 16.8471 45.8329L20.091 45.9445C21.017 45.9836 21.9437 46.0371 22.864 46.1201C21.4795 44.4052 20.2144 42.5477 18.9546 40.807C17.6175 38.9595 16.2671 37.1083 14.9771 35.2192ZM11.9643 49.5343C12.0167 49.4694 12.0871 49.4385 12.1483 49.429C12.2688 49.4102 12.438 49.4708 12.4829 49.6494C12.7692 50.7768 13.2374 51.8908 13.833 52.8468C14.2767 53.559 14.8128 54.1619 15.3998 54.7558L16.0037 55.3511C16.0742 55.4207 16.1101 55.5161 16.103 55.6124C16.0964 55.701 16.056 55.7732 16.0094 55.8229C15.9231 55.9146 15.7342 55.9978 15.5583 55.8709C13.612 54.4689 12.3374 52.0623 11.9047 49.7743L11.8913 49.7014L11.9058 49.6619C11.9143 49.617 11.9332 49.5729 11.9643 49.5343ZM12.2279 49.7136C12.2178 49.6734 12.1554 49.6828 12.1635 49.7239L12.163 49.7253L12.1639 49.729C12.5878 51.9661 13.8329 54.3051 15.7115 55.6584C15.7843 55.7109 15.887 55.6052 15.8201 55.5391C14.999 54.7411 14.221 53.9657 13.6103 52.9855C12.9997 52.0053 12.5205 50.8662 12.2279 49.7136Z" fill="#1E5736"/>
<path d="M58.6616 19.9117C56.9187 21.6377 55.2478 23.4431 53.57 25.2311C52.768 26.0856 51.9747 26.9458 51.1867 27.8121C50.3374 28.7454 49.4328 29.6534 48.6537 30.6465C48.5912 30.7264 48.7095 30.8329 48.785 30.7653C49.7049 29.9508 50.5333 29.0223 51.3907 28.1434C52.2481 27.2645 53.1431 26.3331 54.0094 25.4185C55.6583 23.6754 57.3227 21.9372 58.9064 20.1344C59.0304 19.9934 58.7967 19.779 58.6616 19.9117Z" fill="#1E5736"/>
<path d="M48.7811 30.5926C47.5525 28.5325 46.2478 26.5149 44.9559 24.4938C43.6641 22.4727 42.3326 20.2346 40.8446 18.2508C40.7939 18.1833 40.6775 18.2566 40.718 18.3312C41.8865 20.5185 43.3089 22.6041 44.6364 24.6973C45.9212 26.7216 47.1984 28.758 48.545 30.7429C48.6331 30.8732 48.8626 30.7295 48.7811 30.5926Z" fill="#1E5736"/>
<path d="M47.5919 18.7352C45.444 18.5431 43.2704 18.3059 41.1151 18.2579C41.0172 18.2558 41.0041 18.3929 41.1002 18.4091C43.2282 18.7523 45.4096 18.912 47.5553 19.1124C47.7984 19.1346 47.8346 18.7564 47.5919 18.7352Z" fill="#1E5736"/>
<path d="M54.4216 19.7843C55.8453 19.9182 57.3131 20.1553 58.7413 20.1258C58.9286 20.1217 58.957 19.8709 58.769 19.8341C57.3654 19.56 55.8824 19.542 54.4567 19.4115C54.216 19.3894 54.1804 19.7611 54.4211 19.7832L54.4216 19.7843Z" fill="#1E5736"/>
<path d="M54.9527 19.8008C55.1615 19.7043 55.0114 19.3796 54.8026 19.4761C54.5937 19.5726 54.7438 19.8974 54.9527 19.8008Z" fill="#1E5736"/>
<path d="M47.7881 19.0179C48.1662 17.052 47.2828 14.8677 46.0685 13.3528C44.9704 11.9818 43.4663 10.858 41.7996 10.2823C40.1328 9.7065 38.2393 9.68179 36.5046 10.0373C34.7322 10.4005 33.1446 11.51 31.94 12.8368C30.6137 14.2963 29.9677 16.2466 29.6552 18.1603C29.6357 18.2833 29.8323 18.3282 29.868 18.2087C30.3442 16.6546 30.8065 15.1071 31.827 13.8096C32.8382 12.5237 34.3867 11.4503 35.9461 10.9515C39.1692 9.92265 42.6526 10.8291 45.0293 13.1903C45.7338 13.8907 46.3425 14.7092 46.7695 15.6069C47.2965 16.713 47.4139 17.8303 47.5801 19.0243C47.5975 19.1485 47.766 19.1275 47.7867 19.0173L47.7881 19.0179Z" fill="#1E5736"/>
<path d="M54.2433 20.1263C55.0739 17.3789 54.711 14.2009 53.5482 11.6035C52.3854 9.00618 50.3537 6.97168 47.8573 5.70011C45.2969 4.39505 42.3196 3.95927 39.5037 4.55981C36.5176 5.1965 33.978 6.88562 32.1183 9.28764C30.2586 11.6897 29.3814 15.0395 29.668 18.0891C29.6775 18.1938 29.837 18.1662 29.8279 18.0624C29.5934 15.3695 30.2527 12.5874 31.7184 10.3141C33.2952 7.86942 35.9484 6.10596 38.7192 5.29471C43.9804 3.75324 50.0423 6.10907 52.7234 10.9394C54.2906 13.7634 54.5893 16.9444 54.0833 20.0898C54.0687 20.1815 54.2159 20.2165 54.2433 20.1263Z" fill="#1E5736"/>
<path d="M52.4462 15.8077C52.1517 13.5464 51.0411 11.1408 49.2405 9.67977C49.1689 9.62191 49.0705 9.73171 49.132 9.79911C49.9254 10.6657 50.6714 11.5032 51.2308 12.5483C51.7902 13.5934 52.1592 14.6804 52.3813 15.8195C52.3894 15.8606 52.4513 15.8502 52.4456 15.8092L52.4462 15.8077Z" fill="#1E5736"/>
<path d="M31.9103 9.12659C33.8049 6.67945 36.3974 4.95353 39.4486 4.30287C42.3261 3.68921 45.3646 4.1354 47.9761 5.46642L48.4482 5.71812C50.7786 7.02464 52.6733 9.00645 53.788 11.4964C54.8301 13.8242 55.2433 16.6145 54.7478 19.1701C55.8936 19.2641 57.1122 19.306 58.2828 19.4838L58.8194 19.5769L58.9013 19.6001C58.9908 19.6356 59.0568 19.6984 59.1006 19.7723C59.1464 19.827 59.1844 19.8959 59.1985 19.9767C59.218 20.0895 59.1891 20.2102 59.1039 20.3073C57.5162 22.1146 55.8473 23.8575 54.2002 25.5988C53.333 26.5142 52.4367 27.4466 51.5784 28.3264C50.7322 29.1939 49.8879 30.1378 48.9586 30.9606L48.9599 30.9611C48.8812 31.0315 48.7939 31.0533 48.7132 31.048C48.68 31.054 48.6454 31.0583 48.6093 31.0553C48.5025 31.0465 48.3968 30.9927 48.3276 30.8907L47.3277 29.3896C46.3383 27.8818 45.3779 26.3547 44.4152 24.8379C43.0941 22.7549 41.6616 20.6535 40.4869 18.4548C40.3817 18.2579 40.5019 18.0817 40.6069 18.0153C40.6935 17.9607 40.8509 17.9292 40.9788 18.0208C41.0001 18.0121 41.0229 18.0047 41.0473 18.0004L41.1208 17.9958L41.9339 18.0221C43.7045 18.0973 45.483 18.2786 47.2334 18.4387C47.0991 17.4783 46.9497 16.5954 46.5324 15.7195C46.1201 14.8528 45.5301 14.0585 44.844 13.3764C42.5342 11.0818 39.152 10.204 36.0256 11.202C34.5161 11.6849 33.0116 12.728 32.033 13.9724C31.0487 15.224 30.5971 16.7205 30.1181 18.2835L30.1195 18.284C30.0495 18.5178 29.8213 18.5628 29.6825 18.5311C29.5438 18.4995 29.3577 18.3602 29.396 18.1191L29.3965 18.1177C29.399 18.1024 29.4023 18.0873 29.4048 18.0721C29.1243 14.973 30.0148 11.5748 31.9103 9.12659ZM39.5037 4.55981C36.5176 5.1965 33.978 6.88562 32.1183 9.28764L31.781 9.74886C30.1536 12.107 29.3995 15.2303 29.668 18.0891C29.6639 18.1131 29.6591 18.1363 29.6552 18.1603C29.6357 18.2833 29.8323 18.3282 29.868 18.2087C30.3144 16.7518 30.7489 15.3005 31.6423 14.0558L31.827 13.8096C32.8382 12.5237 34.3867 11.4503 35.9461 10.9515C39.1692 9.92265 42.6526 10.8291 45.0293 13.1903C45.7338 13.8907 46.3425 14.7092 46.7695 15.6069C47.253 16.6217 47.3907 17.646 47.5387 18.7302C45.4083 18.539 43.2525 18.3055 41.1151 18.2579C41.0172 18.2558 41.0041 18.3929 41.1002 18.4091C43.2282 18.7523 45.4096 18.912 47.5553 19.1124C47.5864 19.1152 47.6136 19.1099 47.6379 19.1012C47.6943 19.1231 47.7728 19.0903 47.7867 19.0173L47.7881 19.0179C48.1426 17.175 47.3881 15.1402 46.292 13.6448L46.0685 13.3528C45.039 12.0674 43.6527 10.999 42.11 10.3961L41.7996 10.2823C40.2372 9.74254 38.4756 9.6872 36.8322 9.97518L36.5046 10.0373C34.7322 10.4005 33.1446 11.51 31.94 12.8368L31.6992 13.1157C30.6918 14.3467 30.1171 15.8787 29.7906 17.4306C29.7026 14.9385 30.3672 12.4099 31.7184 10.3141C33.2952 7.86942 35.9484 6.10596 38.7192 5.29471C43.9804 3.75324 50.0423 6.10907 52.7234 10.9394C54.2906 13.7634 54.5893 16.9444 54.0833 20.0898C54.0687 20.1815 54.2159 20.2165 54.2433 20.1263C54.2799 20.0052 54.3105 19.8823 54.3425 19.7596C54.3643 19.7722 54.3905 19.7804 54.4211 19.7832L54.4216 19.7843C55.748 19.909 57.1127 20.1199 58.448 20.1248C56.7821 21.786 55.179 23.5164 53.57 25.2311L52.3736 26.5176C51.9766 26.9476 51.5806 27.3791 51.1867 27.8121L49.8942 29.2065C49.4973 29.6386 49.1083 30.0775 48.7441 30.5333C48.141 29.5235 47.521 28.5231 46.8921 27.5282L44.9559 24.4938C43.6641 22.4727 42.3326 20.2346 40.8446 18.2508C40.7939 18.1833 40.6775 18.2566 40.718 18.3312C41.8865 20.5185 43.3089 22.6041 44.6364 24.6973C45.9212 26.7216 47.1984 28.758 48.545 30.7429C48.5828 30.7988 48.6458 30.8024 48.6999 30.7796C48.7272 30.7901 48.7585 30.7889 48.785 30.7653C49.2449 30.3581 49.6823 29.9226 50.1116 29.4788L51.3907 28.1434C51.8194 27.704 52.2576 27.2511 52.6968 26.794L54.0094 25.4185C55.6583 23.6754 57.3227 21.9372 58.9064 20.1344C58.9676 20.0648 58.9415 19.9773 58.8831 19.9225C58.8657 19.8814 58.8299 19.846 58.769 19.8341C57.3654 19.56 55.8824 19.542 54.4567 19.4115C54.4463 19.4106 54.4362 19.4108 54.4266 19.4112C54.9626 17.0142 54.6613 14.3681 53.7572 12.0969L53.5482 11.6035C52.3854 9.00618 50.3537 6.97168 47.8573 5.70011C45.4571 4.47679 42.6903 4.01736 40.0338 4.45941L39.5037 4.55981ZM38.7933 5.54669C36.0723 6.34337 33.4757 8.07359 31.9387 10.4566C31.0132 11.892 30.418 13.5369 30.1729 15.2319C30.5489 14.2982 31.0575 13.4175 31.7453 12.6606L31.9805 12.4095C33.1797 11.1662 34.7238 10.1346 36.4519 9.78044C38.2224 9.41763 40.165 9.44033 41.8853 10.0346C43.6034 10.6281 45.1473 11.783 46.273 13.1882C47.5152 14.7379 48.4436 16.9992 48.0458 19.0674L47.988 19.3675L47.8586 19.3222C47.8085 19.35 47.7541 19.3672 47.7016 19.3711C47.6818 19.3726 47.6612 19.3721 47.6401 19.3701C47.605 19.3751 47.5686 19.3775 47.5313 19.3741C45.5477 19.1889 43.5152 19.0345 41.5238 18.7381C42.8325 20.5648 44.0281 22.5549 45.1771 24.3526C46.3883 26.2476 47.612 28.1465 48.776 30.0791C49.4836 29.23 50.2686 28.4317 50.9927 27.6359C51.7815 26.7687 52.5758 25.9066 53.3789 25.051C54.8467 23.4867 56.3136 21.9037 57.8292 20.3723C56.7198 20.3215 55.5979 20.1652 54.5324 20.0604C54.5189 20.1073 54.5091 20.1553 54.495 20.202C54.4287 20.4203 54.2152 20.4611 54.0883 20.4317C53.9635 20.4026 53.7886 20.274 53.8244 20.0488C54.3234 16.9461 54.0255 13.8269 52.4937 11.0666C49.8743 6.34781 43.941 4.03864 38.7933 5.54669ZM49.1396 9.40643C49.2312 9.39041 49.3276 9.41274 49.4054 9.47562C51.2696 10.9882 52.4049 13.4619 52.706 15.7738L52.715 15.8397L52.701 15.8755C52.6913 15.9215 52.6717 15.9656 52.6402 16.0031C52.5898 16.0629 52.5228 16.0938 52.4609 16.104C52.3991 16.1141 52.3257 16.1059 52.2589 16.0652C52.1869 16.0213 52.1393 15.95 52.1236 15.8702L52.035 15.4536C51.8127 14.4891 51.4769 13.5647 50.9992 12.6723C50.4572 11.6597 49.7329 10.8436 48.9386 9.97603C48.7889 9.81189 48.856 9.6109 48.9417 9.51597C48.9874 9.46552 49.055 9.42125 49.1396 9.40643ZM49.2405 9.67977C49.1689 9.62191 49.0705 9.73171 49.132 9.79911C49.9254 10.6657 50.6714 11.5032 51.2308 12.5483C51.7902 13.5934 52.1592 14.6804 52.3813 15.8195C52.3894 15.8606 52.4513 15.8502 52.4456 15.8092L52.4462 15.8077C52.1517 13.5464 51.0411 11.1408 49.2405 9.67977Z" fill="#1E5736"/>
</svg>
