<svg width="64" height="64" viewBox="0 0 64 64" fill="none" xmlns="http://www.w3.org/2000/svg">
<path d="M53.0124 38.3995C53.0124 38.3995 51.0717 41.0922 47.2288 41.8317C47.2288 41.8317 40.8208 43.2507 33.1287 35.7494C25.4356 28.2472 23.5199 19.0636 23.5199 19.0636C23.5199 19.0636 21.5637 12.0696 24.6059 7.81071L28.3876 4.47498C28.3876 4.47498 30.0928 1.68276 35.0175 2.43578C39.9423 3.18881 45.3245 6.69464 51.1194 14.7871C56.9144 22.8805 57.1633 30.3133 56.4041 33.5775C55.6448 36.8416 53.0134 38.3995 53.0134 38.3995H53.0124Z" fill="#CFF6E0"/>
<path d="M35.2234 27.4342C35.2234 27.4342 41.6728 32.303 37.3684 44.6574C33.0639 57.0118 23.0266 58.775 23.0266 58.775C23.0266 58.775 15.6479 60.9428 11.3216 53.6854C6.99533 46.4279 12.3277 37.2059 13.1647 35.6947C14.0028 34.1834 19.2034 26.0547 26.8291 24.9697C26.8291 24.9697 31.1336 23.6048 35.2234 27.4353V27.4342Z" fill="#CFF6E0"/>
<path d="M35.0602 26.702L37.76 28.3978C37.76 28.3978 40.5616 30.7088 41.3157 33.1919C42.0697 35.6751 42.7107 39.6425 41.5221 44.0393C40.3324 48.4361 37.4603 53.1813 34.0779 56.1996C34.0779 56.1996 31.3915 59.0125 28.2466 59.999C25.1018 60.9854 23.1217 61.2115 20.3285 60.3402L18.253 59.4492L17.3381 59.1153L15.968 58.3633L17.8972 58.801L35.0612 26.702H35.0602Z" fill="#CFF6E0"/>
<path d="M34.4289 2.49207C35.8686 3.01068 37.3642 3.28867 38.7779 3.90478C40.116 4.48874 41.3814 5.23247 42.5773 6.06847C45.0439 7.79338 47.166 9.97773 49.0423 12.3198C51.0794 14.8631 52.8842 17.6242 54.2254 20.5989C54.8964 22.0874 55.4482 23.6328 55.8424 25.2187C56.2365 26.8005 56.3247 28.5036 56.3651 30.1279C56.4108 31.9908 56.2231 33.9439 55.3311 35.6128C54.5127 37.1427 53.1881 38.157 51.5587 38.7047C51.3637 38.77 51.3813 39.1009 51.6105 39.0843C54.8446 38.8551 56.5653 35.2767 56.9377 32.4637C57.3868 29.0616 56.5601 25.6004 55.3839 22.4203C54.1942 19.2038 52.4455 16.198 50.4052 13.4504C48.5133 10.903 46.3673 8.50173 43.8821 6.51649C42.5109 5.42118 41.0412 4.45868 39.449 3.71395C37.8569 2.96922 36.1465 2.27847 34.4454 2.37701C34.3791 2.38115 34.3677 2.46928 34.4299 2.49106L34.4289 2.49207Z" fill="#1E5736"/>
<path d="M34.4338 2.17716C36.1905 2.07541 37.9423 2.7884 39.5335 3.53263C41.1426 4.28532 42.6262 5.25678 44.0071 6.35978C46.5095 8.35878 48.6668 10.7747 50.5657 13.3315C52.6146 16.0908 54.3739 19.1131 55.5715 22.351C56.7522 25.5433 57.5913 29.0405 57.136 32.4897C56.9465 33.921 56.4144 35.551 55.512 36.8568C54.6084 38.1644 53.32 39.1634 51.6243 39.2836C51.5152 39.2913 51.4139 39.257 51.3391 39.185C51.2681 39.1164 51.2349 39.0272 51.2268 38.9447C51.2114 38.7872 51.2885 38.5844 51.4954 38.5151L51.7893 38.4096C53.2411 37.8563 54.4128 36.9046 55.1545 35.518C56.0221 33.8946 56.2106 31.9833 56.1653 30.1332C56.1299 28.7128 56.0582 27.2456 55.7805 25.8568L55.6487 25.267C55.2577 23.6939 54.7099 22.1597 54.0432 20.6811C52.7105 17.7251 50.9152 14.9782 48.886 12.4447C47.0174 10.1124 44.909 7.94337 42.4631 6.23283C41.2757 5.40275 40.021 4.66591 38.6975 4.08829C38.0035 3.78588 37.2872 3.56489 36.5579 3.35392C35.8319 3.14391 35.0891 2.94215 34.3616 2.68009L34.0647 2.57365L34.1936 2.44474C34.1888 2.31726 34.2699 2.18746 34.4338 2.17716ZM34.4454 2.37701C34.3791 2.38115 34.3677 2.46928 34.4299 2.49106L34.4289 2.49207C35.8686 3.01068 37.3642 3.28867 38.7779 3.90478C40.116 4.48874 41.3814 5.23247 42.5773 6.06847C45.0439 7.79338 47.166 9.97773 49.0423 12.3198C51.0794 14.8631 52.8842 17.6242 54.2254 20.5989C54.8964 22.0874 55.4482 23.6328 55.8424 25.2187C56.2365 26.8005 56.3247 28.5036 56.3651 30.1279C56.4108 31.9908 56.2231 33.9439 55.3311 35.6128C54.5127 37.1427 53.1881 38.157 51.5587 38.7047C51.3637 38.77 51.3813 39.1009 51.6105 39.0843C54.6423 38.8694 56.344 35.7111 56.8518 32.9994L56.9377 32.4637C57.3586 29.2744 56.6581 26.0328 55.5999 23.0199L55.3839 22.4203C54.2686 19.4048 52.6621 16.5742 50.7844 13.9682L50.4052 13.4504C48.5133 10.903 46.3673 8.50173 43.8821 6.51649C42.6824 5.55815 41.4069 4.7014 40.0403 4.00333L39.449 3.71395C37.8569 2.96922 36.1465 2.27847 34.4454 2.37701Z" fill="#1E5736"/>
<path d="M42.0288 37.09C43.3492 37.9042 44.7557 38.5877 46.2524 39.0088C47.6641 39.4061 49.2987 39.6747 50.7405 39.3169C50.9987 39.2526 50.9323 38.876 50.6792 38.8656C49.1908 38.8023 47.7813 38.8055 46.3302 38.3917C44.8791 37.9778 43.5857 37.3379 42.3337 36.5672C42.0008 36.3629 41.6969 36.8856 42.0278 37.09H42.0288Z" fill="#1E5736"/>
<path d="M42.0354 36.3439C42.164 36.3009 42.3072 36.316 42.4387 36.3967C43.6803 37.1609 44.9566 37.792 46.385 38.1994C47.8074 38.6051 49.1869 38.6024 50.6877 38.6662L50.7727 38.6769C50.9619 38.7215 51.0747 38.8842 51.0989 39.0402C51.1129 39.131 51.1006 39.2329 51.0481 39.3224C50.9935 39.4151 50.9027 39.4824 50.7883 39.5109C49.2952 39.8814 47.6195 39.6012 46.1985 39.2014C44.6983 38.7793 43.2917 38.0977 41.9748 37.2902H41.9709L41.9231 37.2599C41.7921 37.1791 41.7143 37.0586 41.6916 36.9269C41.6699 36.8004 41.7004 36.6749 41.759 36.5744C41.8176 36.4739 41.9124 36.3851 42.0354 36.3439ZM42.3337 36.5672C42.0217 36.3757 41.7351 36.8229 41.9729 37.048L42.0278 37.09H42.0288C43.3492 37.9042 44.7557 38.5877 46.2524 39.0088C47.6641 39.4061 49.2987 39.6747 50.7405 39.3169C50.9987 39.2526 50.9323 38.876 50.6792 38.8656C49.2839 38.8063 47.9577 38.8049 46.6018 38.464L46.3302 38.3917C45.0603 38.0295 43.9111 37.4943 42.8049 36.8498L42.3337 36.5672Z" fill="#1E5736"/>
<path d="M33.6506 2.43189C32.2048 1.87283 30.6427 2.38419 29.4603 3.30006C28.1378 4.32484 27.3246 5.82361 26.9367 7.43235C26.0312 11.1881 26.8205 15.1794 28.1471 18.7246C28.9406 20.8447 29.9021 22.8943 30.9715 24.8878C31.1893 25.2934 31.8065 24.9325 31.5886 24.5269C29.8824 21.3489 28.422 17.9385 27.643 14.4057C26.9191 11.1218 26.4938 7.07249 28.9375 4.34873C30.1552 2.99101 31.8272 2.36864 33.634 2.55223C33.7087 2.55949 33.7108 2.4537 33.6506 2.43088V2.43189Z" fill="#1E5736"/>
<path d="M29.3381 3.14169C30.4808 2.25669 31.9965 1.71909 33.4504 2.15341V2.14071L33.7219 2.24423C33.8541 2.29458 33.8996 2.42457 33.8918 2.51962C33.8887 2.55682 33.8764 2.59907 33.8508 2.63876V2.72372L33.7922 2.70028C33.754 2.72934 33.7114 2.74668 33.6672 2.75106H33.6135C31.8685 2.57386 30.2599 3.17383 29.0861 4.48251C27.9035 5.80079 27.4088 7.44601 27.302 9.17977C27.1951 10.9153 27.4776 12.7272 27.8381 14.3624C28.6118 17.8712 30.0638 21.2643 31.7649 24.4327L31.8137 24.5509C31.8938 24.8252 31.7393 25.0705 31.5441 25.1847C31.432 25.2501 31.2919 25.2837 31.1516 25.2559C31.005 25.2269 30.8765 25.134 30.7951 24.9825C29.7225 22.9828 28.7574 20.9249 27.9602 18.795C26.6271 15.2326 25.8236 11.197 26.7424 7.38583C27.1382 5.74428 27.9715 4.20069 29.3381 3.14169ZM33.6506 2.43088C32.2048 1.87188 30.6427 2.38422 29.4603 3.30006C28.1378 4.32484 27.3246 5.82361 26.9367 7.43235L26.8566 7.78524C26.081 11.4372 26.862 15.2902 28.1471 18.7246C28.9406 20.8447 29.9021 22.8943 30.9715 24.8878C31.1757 25.2677 31.7306 24.9747 31.6203 24.6026L31.5886 24.5269C29.8824 21.3489 28.422 17.9385 27.643 14.4057C26.9417 11.2243 26.5207 7.32434 28.717 4.60751L28.9375 4.34873C30.1552 2.99101 31.8272 2.36864 33.634 2.55223C33.7087 2.55949 33.7108 2.4537 33.6506 2.43088Z" fill="#1E5736"/>
<path d="M35.0135 5.01157C36.2696 5.27398 37.4956 5.56965 38.6781 6.081C39.8232 6.57679 40.9039 7.21566 41.9204 7.93757C44.0519 9.45088 45.8919 11.3501 47.5318 13.3768C51.0003 17.6637 53.723 22.6621 54.2447 28.2258C54.5248 31.2078 54.0508 35.1585 50.6902 36.177C50.6103 36.2009 50.6435 36.3171 50.7244 36.3015C53.3537 35.7819 54.4045 32.7988 54.5321 30.4412C54.6887 27.5453 53.9377 24.6214 52.8631 21.9526C51.7792 19.2579 50.2639 16.7436 48.5172 14.4285C46.869 12.2441 45.0134 10.179 42.8664 8.4728C40.6674 6.72611 37.8929 5.11216 35.0187 4.97318C34.9969 4.97214 34.9918 5.00638 35.0135 5.01157Z" fill="#1E5736"/>
<path d="M35.3033 4.79151C38.141 5.01881 40.8503 6.61567 42.9908 8.31593L43.3931 8.64307C45.3875 10.2966 47.126 12.2521 48.6773 14.3081C50.432 16.6339 51.9566 19.1634 53.0484 21.8775C54.1288 24.5608 54.8907 27.5157 54.732 30.4517C54.667 31.6519 54.367 33.0185 53.7417 34.1567C53.115 35.2975 52.1521 36.223 50.7632 36.4976C50.6044 36.5281 50.4865 36.4215 50.4546 36.3081C50.4389 36.252 50.4401 36.1842 50.4712 36.1206C50.5042 36.0536 50.5629 36.0068 50.6324 35.9858L50.9244 35.8862C52.3475 35.351 53.1846 34.228 53.6431 32.8735C54.1341 31.4229 54.1841 29.7211 54.0455 28.2446C53.5287 22.7345 50.8311 17.7721 47.3765 13.5024C45.7437 11.4845 43.9161 9.60044 41.8042 8.10108C40.7967 7.38555 39.728 6.75336 38.5982 6.26417C37.4354 5.76139 36.2256 5.46938 34.9722 5.20753L34.9673 5.20655C34.8293 5.17369 34.7897 5.04323 34.8013 4.96143C34.8128 4.88187 34.8853 4.76637 35.0279 4.77296L35.3033 4.79151ZM35.0187 4.97318C34.9969 4.97214 34.9918 5.00638 35.0135 5.01157C36.2696 5.27398 37.4956 5.56965 38.6781 6.081C39.8232 6.57679 40.9039 7.21566 41.9204 7.93757C44.0519 9.45088 45.8919 11.3501 47.5318 13.3768C51.0003 17.6637 53.723 22.6621 54.2447 28.2258C54.5248 31.2078 54.0508 35.1585 50.6902 36.177L50.6656 36.1899C50.6194 36.2279 50.6536 36.315 50.7244 36.3015C53.3537 35.7819 54.4045 32.7988 54.5321 30.4412C54.6887 27.5453 53.9377 24.6214 52.8631 21.9526C51.7792 19.2579 50.2639 16.7436 48.5172 14.4285C46.869 12.2441 45.0134 10.179 42.8664 8.4728C40.6674 6.72611 37.8929 5.11216 35.0187 4.97318Z" fill="#1E5736"/>
<path d="M41.3019 33.7761C42.6109 34.7231 44.0247 35.4968 45.5546 36.0216C46.8729 36.4738 48.604 36.8981 49.9887 36.5123C50.0717 36.4894 50.0551 36.3618 49.9679 36.3618C49.2294 36.3587 48.5189 36.4376 47.7773 36.3442C47.0357 36.2509 46.2537 36.0538 45.5245 35.7965C44.0558 35.2769 42.6856 34.471 41.4254 33.5635C41.2967 33.4711 41.1744 33.6838 41.3019 33.7751V33.7761Z" fill="#1E5736"/>
<path d="M41.2754 33.3532C41.3677 33.3251 41.4638 33.345 41.542 33.4011L42.0156 33.7341C43.1322 34.4966 44.3265 35.1607 45.5908 35.6081C46.3087 35.8614 47.0774 36.0549 47.8027 36.1462C48.1589 36.191 48.5104 36.1948 48.8691 36.1872C49.2224 36.1797 49.5963 36.1603 49.9678 36.1618C50.1317 36.1618 50.2251 36.2894 50.2402 36.402C50.2533 36.4997 50.2128 36.6253 50.0967 36.6843L50.042 36.7048C48.5927 37.1085 46.8087 36.6633 45.4892 36.2106C43.9381 35.6785 42.5069 34.8948 41.1846 33.9382L41.1015 33.8786V33.8493C41.0256 33.7345 41.0406 33.5931 41.0947 33.4997C41.1301 33.4388 41.1904 33.3791 41.2754 33.3532ZM41.4254 33.5635C41.2967 33.4711 41.1744 33.6838 41.3019 33.7751V33.7761C42.6109 34.7231 44.0247 35.4968 45.5546 36.0216C46.8664 36.4716 48.5865 36.8923 49.9678 36.5163L49.9887 36.5123C50.0614 36.4922 50.0578 36.3914 49.9971 36.3669L49.9679 36.3618C49.3217 36.3591 48.6967 36.4193 48.0537 36.3718L47.7773 36.3442C47.2211 36.2742 46.6423 36.1455 46.0801 35.9772L45.5245 35.7965C44.0558 35.2769 42.6856 34.471 41.4254 33.5635Z" fill="#1E5736"/>
<path d="M32.6349 22.6817C33.1701 24.0757 34.0518 25.394 34.8681 26.6376C34.9199 26.7175 35.0485 26.6428 34.9956 26.5629C34.1586 25.2996 33.501 23.9294 32.6723 22.6661C32.6598 22.6474 32.6256 22.6588 32.6349 22.6817Z" fill="#1E5736"/>
<path d="M32.5748 22.4712C32.6485 22.4433 32.7684 22.4502 32.8384 22.5552L32.8394 22.5561C33.258 23.1942 33.6325 23.8589 34.0044 24.5161C34.3775 25.1753 34.7486 25.8277 35.1626 26.4526C35.2071 26.5199 35.2207 26.602 35.1958 26.6802C35.1728 26.7521 35.1227 26.8028 35.0718 26.8325C34.972 26.8906 34.799 26.8977 34.7007 26.7466C33.8879 25.5082 32.9922 24.1713 32.4478 22.7534L32.4488 22.7524C32.4282 22.6987 32.4266 22.6341 32.4576 22.5747C32.4869 22.5187 32.5344 22.4864 32.5748 22.4712ZM32.6723 22.6661C32.6598 22.6474 32.6256 22.6588 32.6349 22.6817C33.1701 24.0757 34.0518 25.394 34.8681 26.6376C34.9135 26.7075 35.0176 26.659 35.0074 26.5923L34.9956 26.5629C34.1586 25.2996 33.501 23.9294 32.6723 22.6661Z" fill="#1E5736"/>
<path d="M34.3755 5.03948C33.1008 4.58206 31.7078 5.28107 30.8324 6.20109C29.7329 7.35552 29.2682 8.85023 29.1583 10.4164C29.0307 12.2274 29.3118 14.0633 29.7744 15.81C30.0171 16.7269 30.3345 17.624 30.6737 18.5098C30.9838 19.322 31.2783 20.2296 31.743 20.9661C31.7876 21.0376 31.909 20.993 31.883 20.9069C31.6445 20.13 31.2348 19.3905 30.9382 18.6323C30.6374 17.8637 30.3874 17.0848 30.1551 16.2934C29.6842 14.6877 29.374 13.0022 29.374 11.325C29.374 9.76711 29.6458 8.06394 30.5637 6.76326C30.9859 6.16374 31.5698 5.65662 32.2357 5.34649C32.9016 5.03636 33.6256 5.0104 34.3703 5.07989C34.3952 5.08197 34.3963 5.04674 34.3755 5.03948Z" fill="#1E5736"/>
<path d="M29.374 11.325C29.374 9.76711 29.6458 8.06394 30.5637 6.76326C30.9859 6.16374 31.5698 5.65662 32.2357 5.34649C32.8988 5.0377 33.6195 5.01071 34.3609 5.0791L34.3703 5.07989C34.3952 5.08197 34.3963 5.04674 34.3755 5.03948C33.1008 4.58206 31.7078 5.28107 30.8324 6.20109C29.7329 7.35552 29.2682 8.85023 29.1583 10.4164L29.1392 10.7559C29.0666 12.4561 29.3407 14.1725 29.7744 15.81C30.0171 16.7269 30.3345 17.624 30.6737 18.5098C30.9838 19.322 31.2783 20.2296 31.743 20.9661C31.7876 21.0376 31.909 20.993 31.883 20.9069C31.6445 20.13 31.2348 19.3905 30.9382 18.6323C30.6374 17.8637 30.3874 17.0848 30.1551 16.2934C29.7431 14.8886 29.454 13.4221 29.3882 11.9541L29.374 11.325ZM29.5737 11.3252C29.5738 12.9783 29.8801 14.6445 30.3472 16.2373C30.5786 17.0257 30.8267 17.7986 31.1245 18.5596C31.2705 18.9325 31.4434 19.2994 31.6148 19.6807C31.7421 19.9641 31.8674 20.2536 31.9741 20.5498L32.0747 20.8486C32.0959 20.9194 32.089 20.9952 32.0532 21.0596C32.0194 21.1205 31.9666 21.1606 31.9136 21.1816C31.8115 21.2222 31.658 21.2068 31.5737 21.0723C31.0954 20.314 30.7911 19.378 30.4868 18.5811C30.1467 17.6926 29.8259 16.7882 29.5806 15.8613C29.1145 14.1017 28.8289 12.2425 28.9585 10.4023C29.0705 8.80736 29.5455 7.26231 30.687 6.06348L30.8628 5.88867C31.7703 5.0282 33.1442 4.38732 34.4409 4.85156C34.5559 4.89178 34.5959 5.001 34.5894 5.08008C34.5857 5.12341 34.5683 5.17749 34.523 5.2207C34.4739 5.26747 34.4106 5.28393 34.354 5.2793H34.3521C33.6211 5.21109 32.9384 5.23924 32.3198 5.52734C31.6881 5.82158 31.1306 6.30492 30.7271 6.87793C29.8441 8.1292 29.5737 9.78416 29.5737 11.3252Z" fill="#1E5736"/>
<path d="M25.872 24.6494C23.9759 20.8946 23.255 16.7955 23.3172 12.6165C23.3494 10.4114 24.2497 8.26851 25.985 6.88485C26.5866 6.40565 27.1685 5.90052 27.7587 5.4068C28.2534 4.99295 28.7461 4.57804 29.2398 4.16315C29.4535 3.98371 29.746 3.63936 29.8839 3.52319C30.1111 3.33337 29.7844 3.00977 29.5593 3.19855C29.6703 3.1052 29.5106 3.22136 29.4307 3.26803C29.2481 3.37279 29.0874 3.4941 28.9256 3.62893C28.4827 3.99922 28.0387 4.3685 27.5958 4.73879C26.9112 5.3103 26.2392 5.89942 25.5432 6.45537C22.0633 9.2341 22.3298 14.3123 22.9968 18.2714C23.393 20.6249 24.1709 22.8882 25.2559 25.0104C25.4654 25.4201 26.0794 25.0591 25.873 24.6494H25.872Z" fill="#1E5736"/>
<path d="M29.5693 2.96759C29.7446 2.90466 29.925 2.97049 30.0321 3.07696C30.1011 3.14555 30.1553 3.24346 30.1601 3.35723C30.1638 3.44818 30.135 3.53512 30.078 3.60821L30.0126 3.67657C29.9546 3.72547 29.8579 3.828 29.7353 3.95684C29.6197 4.07834 29.485 4.21806 29.3681 4.31622C28.8747 4.73086 28.3815 5.14637 27.8866 5.56036C27.3004 6.0508 26.7132 6.55979 26.1093 7.04083C24.4277 8.38172 23.5489 10.4653 23.5175 12.6199C23.4559 16.7568 24.1672 20.8053 26.0282 24.5125L26.0517 24.5594C26.2135 24.8807 26.0429 25.1794 25.8212 25.3094C25.7095 25.3748 25.5699 25.4096 25.4296 25.3807C25.2827 25.3502 25.1562 25.2542 25.078 25.1014C23.9845 22.9624 23.1996 20.6796 22.7997 18.3045C22.4652 16.3185 22.2276 14.0358 22.5165 11.8943C22.8059 9.75022 23.6251 7.73021 25.4179 6.29864C25.7649 6.02141 26.105 5.73714 26.4443 5.45001L27.4677 4.58477C27.6891 4.39964 27.9112 4.21486 28.1327 4.03009C28.3543 3.84529 28.5756 3.66034 28.7968 3.4754C28.9631 3.33678 29.1345 3.20727 29.331 3.09454C29.3661 3.07395 29.4141 3.04072 29.4579 3.01251C29.4671 3.00657 29.4791 2.99976 29.4892 2.99395C29.4932 2.99163 29.5033 2.98557 29.5155 2.98028C29.5198 2.97845 29.5377 2.97086 29.5614 2.96661C29.5614 2.96661 29.5662 2.96802 29.5693 2.96759ZM29.4071 3.10333C29.4016 3.12085 29.3861 3.17542 29.412 3.23907C29.4165 3.24999 29.423 3.25919 29.4286 3.26837C29.2468 3.37286 29.0868 3.49458 28.9256 3.62893C28.4827 3.99922 28.0387 4.3685 27.5958 4.73879C26.9112 5.3103 26.2392 5.89942 25.5432 6.45537C22.0633 9.2341 22.3298 14.3123 22.9968 18.2714C23.393 20.6249 24.1709 22.8882 25.2559 25.0104C25.4654 25.4201 26.0794 25.0591 25.873 24.6494H25.872L25.5302 23.9412C23.9984 20.6191 23.3469 17.0461 23.3144 13.3992L23.3172 12.6165C23.3474 10.5491 24.1409 8.53674 25.6698 7.15313L25.985 6.88485C26.2857 6.64535 26.5816 6.39897 26.8759 6.15118L27.7587 5.4068L29.2398 4.16315C29.3999 4.02863 29.6044 3.80143 29.7548 3.64727L29.8839 3.52319C30.1111 3.33337 29.7844 3.00977 29.5593 3.19855C29.6216 3.14611 29.598 3.15894 29.5517 3.18926L29.4335 3.05059C29.4316 3.05329 29.4287 3.05616 29.4267 3.05938C29.4225 3.06616 29.414 3.08199 29.4071 3.10333Z" fill="#1E5736"/>
<path d="M47.2323 41.7709C45.497 41.7242 43.8063 41.6225 42.1281 41.1444C41.8657 41.0697 41.7537 41.4794 42.0161 41.552C43.7057 42.0208 45.5198 42.2936 47.2499 41.8922C47.3194 41.8756 47.3018 41.7719 47.2333 41.7709H47.2323Z" fill="#1E5736"/>
<path d="M42.183 40.9517C43.8355 41.4226 45.5047 41.5243 47.2377 41.5709C47.391 41.5734 47.4761 41.694 47.4916 41.7955C47.4996 41.8481 47.4925 41.9104 47.4593 41.9674C47.4239 42.0279 47.3652 42.07 47.2962 42.0865L47.2953 42.0875C45.7396 42.4484 44.127 42.2765 42.6078 41.9117L41.9623 41.7447C41.8419 41.7113 41.753 41.6331 41.7054 41.5318C41.6602 41.4354 41.6572 41.3301 41.682 41.2398C41.7068 41.1496 41.7631 41.0601 41.8519 41.0006C41.9455 40.9378 42.0626 40.9175 42.183 40.9517ZM42.1281 41.1444C41.8657 41.0697 41.7537 41.4794 42.0161 41.552C43.6986 42.0188 45.5043 42.2902 47.2279 41.8961L47.2499 41.8922C47.3194 41.8756 47.3018 41.7719 47.2333 41.7709H47.2323L46.5834 41.7506C45.1821 41.6974 43.8076 41.5813 42.4427 41.23L42.1281 41.1444Z" fill="#1E5736"/>
<path d="M54.1899 37.6374C53.2305 38.3635 52.2461 39.0585 51.2297 39.7047C50.6322 40.0843 50.013 40.4193 49.371 40.716C48.9706 40.9006 48.5671 41.079 48.1564 41.2397C47.8047 41.3777 47.3805 41.4368 47.1378 41.7366C47.0766 41.8113 47.0911 41.9347 47.1969 41.9617C47.5994 42.0633 47.9998 41.8289 48.3742 41.6857C48.7206 41.553 49.065 41.4129 49.4021 41.2584C50.096 40.942 50.7712 40.5686 51.4153 40.16C52.4847 39.4816 53.3705 38.6291 54.2926 37.7682C54.3611 37.7049 54.2677 37.5783 54.191 37.6364L54.1899 37.6374Z" fill="#1E5736"/>
<path d="M54.298 37.4301C54.3687 37.4481 54.4222 37.4915 54.4562 37.5366C54.5181 37.6189 54.563 37.7882 54.4279 37.9135L54.4288 37.9145C53.5112 38.7712 52.6109 39.6382 51.5226 40.3286C50.8719 40.7414 50.1886 41.1193 49.4855 41.4399C49.3143 41.5184 49.1415 41.5937 48.9679 41.6655L48.4454 41.8725C48.3559 41.9067 48.266 41.9458 48.1662 41.9878C48.0688 42.0286 47.9646 42.0713 47.8576 42.1059C47.6707 42.1663 47.4615 42.2077 47.2423 42.1743L47.1476 42.1557C47.0155 42.122 46.9331 42.0208 46.9093 41.9086C46.8873 41.8044 46.9153 41.693 46.9835 41.6098C47.1372 41.4206 47.3415 41.315 47.5343 41.2407C47.631 41.2034 47.7306 41.1723 47.8224 41.143C47.9164 41.1131 48.0023 41.0849 48.0831 41.0532C48.4887 40.8944 48.8886 40.7184 49.2872 40.5346C49.9216 40.2415 50.5327 39.9102 51.1222 39.5356C52.1333 38.8929 53.1135 38.2014 54.0695 37.478L54.0704 37.477C54.1381 37.4258 54.2207 37.4105 54.298 37.4301ZM54.191 37.6364L54.1899 37.6374C53.2305 38.3635 52.2461 39.0585 51.2297 39.7047C50.6322 40.0843 50.013 40.4193 49.371 40.716L48.7677 40.9868C48.5654 41.0746 48.3618 41.1593 48.1564 41.2397L47.8829 41.3335C47.6039 41.4223 47.3199 41.5118 47.1378 41.7366L47.1183 41.767C47.0818 41.841 47.1045 41.9381 47.1969 41.9617C47.4987 42.0377 47.7996 41.9247 48.089 41.8032L48.3742 41.6857C48.5475 41.6193 48.7202 41.5509 48.8917 41.4799L49.4021 41.2584C50.096 40.942 50.7712 40.5686 51.4153 40.16C52.4847 39.4816 53.3705 38.6291 54.2926 37.7682C54.3611 37.7049 54.2677 37.5783 54.191 37.6364Z" fill="#1E5736"/>
<path d="M27.4996 6.24592L27.3938 6.22617C27.3938 6.22617 27.3876 6.23243 27.3917 6.23346L27.4975 6.25311C27.4975 6.25311 27.5038 6.24696 27.4996 6.24592Z" fill="#1E5736"/>
<path d="M27.4303 6.02988L27.5368 6.04941L27.5485 6.05137L27.5358 6.09922C27.5331 6.09624 27.5298 6.09411 27.527 6.0914L27.4987 6.24473L27.487 6.24277C27.4524 6.20778 27.4265 6.18254 27.4079 6.16367L27.3913 6.23203L27.3923 6.22519L27.3249 6.15781C27.3222 6.16298 27.3179 6.16836 27.3151 6.17539C27.31 6.18838 27.3015 6.21408 27.3014 6.24765C27.3015 6.28463 27.3121 6.33285 27.3483 6.37558C27.3526 6.38065 27.3595 6.38295 27.3639 6.3873L27.3917 6.23346L27.403 6.23496L27.4821 6.31308L27.4975 6.25311L27.486 6.31699L27.5358 6.3668L27.5446 6.35801C27.5475 6.35469 27.5548 6.34567 27.5622 6.33359C27.566 6.3274 27.5715 6.31695 27.5768 6.30332C27.5818 6.29047 27.5905 6.2651 27.5905 6.23203C27.5905 6.19566 27.5797 6.14704 27.5436 6.1041C27.5418 6.10198 27.5376 6.10121 27.5358 6.09922L27.5485 6.05137C27.5762 6.05836 27.6183 6.07599 27.653 6.1168C27.6898 6.16017 27.7009 6.20991 27.7009 6.24765C27.7008 6.30738 27.6736 6.34868 27.6696 6.35508C27.6612 6.3686 27.6531 6.37877 27.6491 6.3834C27.6467 6.38617 27.644 6.38938 27.6423 6.39121L27.6384 6.39512L27.5641 6.46836L27.4606 6.4498L27.3552 6.43027L27.3434 6.42832C27.3152 6.42126 27.2719 6.40259 27.237 6.36094C27.2009 6.31765 27.1901 6.26896 27.1901 6.23203C27.1901 6.17244 27.2168 6.13046 27.2204 6.12461C27.2288 6.1109 27.237 6.1008 27.2409 6.09629L27.3268 6.01035L27.4303 6.02988ZM27.3571 6.11094L27.3532 6.11484C27.3518 6.11632 27.3502 6.11856 27.3483 6.1207C27.3454 6.12399 27.3382 6.13216 27.3307 6.14414C27.3288 6.14726 27.3276 6.15256 27.3249 6.15781L27.3923 6.22519L27.405 6.15976C27.3633 6.1176 27.3571 6.11094 27.3571 6.11094Z" fill="#1E5736"/>
<path d="M9.74412 47.8983C9.74412 47.8983 9.74986 47.8903 9.74412 47.8903C9.73838 47.8903 9.73838 47.8983 9.74412 47.8983Z" fill="#1E5736"/>
<path d="M9.78669 47.695C9.80357 47.6986 9.82269 47.7047 9.84235 47.7155C9.88651 47.74 9.91913 47.7795 9.93513 47.8239C9.9606 47.8949 9.93693 47.9548 9.93415 47.9626C9.92764 47.9805 9.9201 47.9938 9.91657 47.9997C9.91437 48.0033 9.91232 48.007 9.91071 48.0094L9.90778 48.0124L9.90681 48.0143L9.84626 48.0983H9.74372C9.69337 48.0982 9.63814 48.0794 9.59626 48.0358C9.55674 47.9946 9.53962 47.9422 9.53962 47.8942C9.53964 47.8462 9.55671 47.7938 9.59626 47.7526C9.63814 47.709 9.69337 47.6902 9.74372 47.6901L9.78669 47.695ZM9.74412 47.8903C9.73838 47.8903 9.73838 47.8983 9.74412 47.8983C9.58394 47.7828 9.58161 47.7809 9.58161 47.7809L9.5777 47.7868C9.57649 47.7886 9.57536 47.791 9.5738 47.7936C9.57124 47.7979 9.56413 47.8103 9.55817 47.8268C9.55513 47.8353 9.5507 47.8499 9.54841 47.8688C9.54621 47.8871 9.54423 47.921 9.55817 47.9596C9.57391 48.0032 9.60568 48.0411 9.64899 48.0651C9.66849 48.0759 9.68718 48.0821 9.70368 48.0856L9.74372 48.0905L9.81696 48.0758C9.84123 48.0661 9.865 48.0511 9.88532 48.0299C9.92333 47.9903 9.94001 47.9402 9.94001 47.8942C9.93999 47.8482 9.92336 47.7981 9.88532 47.7585C9.86498 47.7373 9.84125 47.7223 9.81696 47.7126L9.74372 47.6979L9.74412 47.8903Z" fill="#1E5736"/>
<path d="M10.4295 42.25C9.6962 44.8037 9.18902 47.6736 9.75016 50.3082C10.1982 52.4158 11.1867 54.4176 12.671 55.988C15.5607 59.0468 20.0425 60.1131 24.0462 58.9638C28.9502 57.5563 33.0317 53.6086 35.6165 49.3321C38.166 45.1127 39.8836 40.0324 39.1503 35.0641C38.7831 32.5789 37.9492 30.131 36.3601 28.1551C34.9215 26.3669 32.8958 25.0777 30.6305 24.6493C30.0653 24.5425 29.4927 24.4885 28.917 24.4781C28.6308 24.4729 28.6308 24.9179 28.917 24.9231C33.8065 25.0123 37.5405 28.9756 38.3444 33.6494C38.7302 35.8939 38.5228 38.2971 38.1079 40.524C37.6639 42.9055 36.8425 45.2123 35.7223 47.3573C33.4974 51.6182 29.9034 55.5295 25.4973 57.5656C21.8525 59.2501 17.3593 59.1651 14.1532 56.5855C12.5974 55.3336 11.4439 53.6356 10.7853 51.7551C10.4098 50.6837 10.2449 49.5926 10.0738 48.4775C9.88086 47.2173 9.84142 45.9767 9.99285 44.7082C10.0914 43.8805 10.2459 43.0632 10.4357 42.2521C10.4368 42.2479 10.4295 42.2459 10.4285 42.25H10.4295Z" fill="#1E5736"/>
<path d="M28.921 24.2779C29.5066 24.2885 30.0907 24.3436 30.6681 24.4527C32.9837 24.8907 35.0498 26.2078 36.5157 28.0299C38.1338 30.0419 38.9772 32.5269 39.3477 35.0347C40.0903 40.0659 38.35 45.1936 35.7872 49.4351C33.1862 53.7385 29.0695 57.7299 24.1016 59.1558C20.0315 60.3242 15.4702 59.2426 12.5255 56.1256C11.0137 54.5261 10.0098 52.4901 9.55477 50.3502C8.98375 47.6692 9.49954 44.763 10.2345 42.2017L10.252 42.1558C10.2747 42.1129 10.3117 42.0806 10.3546 42.0631C10.3883 42.0493 10.4211 42.0479 10.4493 42.0504H10.6954L10.6339 42.2613C10.6333 42.2729 10.6327 42.2846 10.63 42.2965L10.6309 42.2974C10.4424 43.103 10.289 43.9133 10.1915 44.732C10.0425 45.9805 10.0811 47.2026 10.2716 48.4468C10.4432 49.5651 10.6054 50.6381 10.9737 51.689C11.6208 53.5366 12.7538 55.2024 14.2784 56.4293C17.4123 58.9508 21.821 59.0444 25.4132 57.3843C29.7707 55.3707 33.3358 51.4952 35.545 47.2642C36.6564 45.1359 37.4711 42.8483 37.9112 40.4879C38.324 38.2721 38.5277 35.8947 38.1475 33.6832C37.3564 29.0837 33.6874 25.2097 28.9132 25.1226C28.7852 25.1202 28.6771 25.0669 28.6036 24.98C28.5334 24.897 28.5021 24.7932 28.502 24.6968C28.502 24.6006 28.5334 24.4965 28.6056 24.4136C28.6816 24.3264 28.7925 24.2756 28.921 24.2779ZM28.917 24.4781C28.6308 24.4729 28.6308 24.9179 28.917 24.9231C33.8065 25.0123 37.5405 28.9756 38.3444 33.6494C38.7302 35.8939 38.5228 38.2971 38.1079 40.524C37.6639 42.9055 36.8425 45.2123 35.7223 47.3573L35.5098 47.7554C33.2722 51.8607 29.7658 55.5931 25.4973 57.5656L25.1534 57.7183C21.6885 59.1933 17.5364 59.093 14.4571 56.8199L14.1532 56.5855C12.6944 55.4117 11.5892 53.8459 10.9141 52.105L10.7853 51.7551C10.4098 50.6837 10.2449 49.5926 10.0738 48.4775C9.88086 47.2173 9.84142 45.9767 9.99285 44.7082C10.0914 43.8805 10.2459 43.0632 10.4357 42.2521C10.4367 42.2481 10.431 42.2466 10.4295 42.25C9.6962 44.8037 9.18902 47.6736 9.75016 50.3082C10.1982 52.4158 11.1867 54.4176 12.671 55.988C15.5607 59.0468 20.0425 60.1131 24.0462 58.9638C28.7971 57.6003 32.7762 53.8529 35.3702 49.732L35.6165 49.3321C38.0863 45.2445 39.7756 40.3489 39.212 35.5299L39.1503 35.0641C38.8061 32.7342 38.0518 30.437 36.6495 28.5308L36.3601 28.1551C35.0115 26.4788 33.147 25.241 31.0528 24.7398L30.6305 24.6493C30.2065 24.5692 29.7782 24.5193 29.3477 24.4947L28.917 24.4781Z" fill="#1E5736"/>
<path d="M42.0299 37.71C42.1119 37.012 42.2239 36.318 42.0984 35.6231C41.9646 34.8773 41.724 34.1731 41.4916 33.4554C41.0508 32.0945 40.4233 30.8021 39.5261 29.6767C38.8384 28.8147 37.9547 27.8771 36.9548 27.3772C36.3262 27.0629 35.6499 26.872 35.0193 26.5484C34.3887 26.2248 33.7031 25.8669 33.0455 25.5236C32.8598 25.4261 32.6949 25.7083 32.8806 25.8058C33.3712 26.062 33.8597 26.3192 34.3493 26.5764C35.0681 26.954 35.7174 27.371 36.3936 27.8118C37.1259 28.2889 37.8312 28.7546 38.4245 29.4091C39.3829 30.466 40.0779 31.6516 40.7521 32.8962C41.1452 33.6223 41.3941 34.3836 41.5673 35.1906C41.6493 35.5754 41.6711 35.9852 41.7779 36.3637C41.9065 36.8191 41.9978 37.2329 42.0247 37.71C42.0247 37.7131 42.0299 37.7131 42.0299 37.71Z" fill="#1E5736"/>
<path d="M33.0599 25.315L33.138 25.3462L35.1107 26.3706C35.4156 26.5271 35.7335 26.652 36.0609 26.7798C36.3853 26.9065 36.7204 27.0368 37.0443 27.1987C38.0848 27.7191 38.9906 28.6857 39.682 29.5523C40.5974 30.7006 41.2356 32.0159 41.682 33.3941C41.9126 34.1064 42.1585 34.8254 42.2953 35.5874C42.4273 36.3188 42.3091 37.0492 42.2289 37.7329L42.2269 37.732C42.2209 37.7864 42.1951 37.8357 42.1537 37.8687C42.112 37.9017 42.0652 37.9126 42.0277 37.9126C41.99 37.9126 41.9425 37.9019 41.9007 37.8687C41.8566 37.8335 41.8288 37.7801 41.8255 37.7212L41.7943 37.3882C41.7529 37.0625 41.6802 36.7545 41.5853 36.4185C41.5281 36.2157 41.4943 36.0067 41.4652 35.8081C41.4355 35.6061 41.4106 35.4169 41.3714 35.2329L41.304 34.937C41.1381 34.2539 40.9104 33.6086 40.5765 32.9917C39.9036 31.7495 39.2179 30.5815 38.2767 29.5435C37.7032 28.9109 37.019 28.4576 36.2845 27.979C35.6082 27.5382 34.9658 27.1261 34.2562 26.7534C33.7665 26.4962 33.2786 26.2389 32.7884 25.9829C32.6916 25.932 32.6261 25.8472 32.6058 25.7466C32.5869 25.6522 32.6098 25.5608 32.6507 25.4907C32.7214 25.3698 32.8803 25.2653 33.0599 25.315ZM33.0455 25.5236C32.8598 25.4261 32.6949 25.7083 32.8806 25.8058C33.3712 26.062 33.8597 26.3192 34.3493 26.5764C35.0681 26.954 35.7174 27.371 36.3936 27.8118C37.1259 28.2889 37.8312 28.7546 38.4245 29.4091C39.3829 30.466 40.0779 31.6516 40.7521 32.8962C41.1452 33.6223 41.3941 34.3836 41.5673 35.1906C41.6493 35.5754 41.6711 35.9852 41.7779 36.3637C41.9065 36.8189 41.9968 37.2326 42.0238 37.7095L42.0247 37.71H42.0299C42.1017 37.0993 42.1967 36.4912 42.1351 35.8833L42.0984 35.6231C42.0315 35.2503 41.9383 34.8878 41.8324 34.5288L41.4916 33.4554C41.0508 32.0945 40.4233 30.8021 39.5261 29.6767C38.8815 28.8688 38.0642 27.9941 37.141 27.4761L36.9548 27.3772C36.3262 27.0629 35.6499 26.872 35.0193 26.5484C34.3887 26.2248 33.7031 25.8669 33.0455 25.5236Z" fill="#1E5736"/>
<path d="M11.8749 54.5794C13.0791 56.3707 14.5675 57.9816 16.5227 58.9452C17.2156 59.2864 17.953 59.5384 18.6677 59.8299C19.7433 60.2686 20.8137 60.6825 21.9494 60.946C25.1607 61.6907 28.4788 60.7178 31.2264 59.0147C33.7002 57.4817 36.147 55.3345 37.7277 52.8711C38.6332 51.4595 39.4495 49.9223 40.1621 48.4049C40.8653 46.9051 41.4265 45.343 41.8331 43.7374C41.9036 43.4594 41.4742 43.3411 41.4036 43.6191C40.7118 46.347 39.5947 49.2129 37.8335 51.4356C36.0661 53.6667 34.1949 55.9009 31.8311 57.5232C29.2287 59.3093 26.2882 60.6276 23.0707 60.3931C21.8073 60.3008 20.6311 60.0467 19.4642 59.5561C18.7112 59.2397 17.9468 58.9431 17.2 58.6122C16.5745 58.3353 15.9937 57.9732 15.4346 57.5822C14.8756 57.1912 14.3621 56.8396 13.8238 56.4703C13.0812 55.96 12.4474 55.2744 11.8811 54.5774C11.878 54.5743 11.8728 54.5774 11.8749 54.5815V54.5794Z" fill="#1E5736"/>
<path d="M41.4232 43.3014C41.5223 43.2537 41.6312 43.2515 41.724 43.277C41.817 43.3026 41.9086 43.3601 41.9701 43.4498C42.0345 43.5438 42.0583 43.6624 42.0267 43.7867C41.6682 45.2026 41.1905 46.5848 40.6019 47.9205L40.3432 48.4899C39.7173 49.8227 39.0112 51.1726 38.2338 52.441L37.8959 52.9791C36.2949 55.4741 33.823 57.6401 31.3314 59.1842C28.5557 60.9048 25.1836 61.9015 21.9047 61.1412C20.7522 60.8739 19.6686 60.4543 18.5922 60.0153C17.8924 59.7299 17.1348 59.4698 16.434 59.1246C14.4357 58.1397 12.9239 56.4976 11.7094 54.691L11.7641 54.6539L11.6957 54.6705C11.6854 54.6497 11.6779 54.6262 11.6752 54.6012V53.9235L12.016 54.4313L12.0228 54.4362L12.0297 54.443L12.0365 54.4508C12.5986 55.1426 13.2178 55.8111 13.9369 56.3053C14.475 56.6744 14.9892 57.0269 15.5492 57.4186C16.1029 57.8059 16.6719 58.1597 17.2807 58.4293C18.026 58.7596 18.7806 59.0521 19.5414 59.3717L19.9711 59.5416C20.9757 59.913 21.9961 60.1144 23.0853 60.194C26.2377 60.4236 29.1326 59.1325 31.7182 57.358C34.0544 55.7546 35.9097 53.5422 37.6771 51.3112C39.4137 49.1193 40.5211 46.2837 41.2094 43.5699C41.2409 43.4455 41.319 43.3518 41.4232 43.3014ZM41.8331 43.7374C41.9036 43.4594 41.4742 43.3411 41.4036 43.6191L41.2689 44.1324C40.5697 46.7029 39.4845 49.3519 37.8335 51.4356C36.0661 53.6667 34.1949 55.9009 31.8311 57.5232L31.3392 57.8522C28.9427 59.414 26.2716 60.5362 23.3715 60.4108L23.0707 60.3931C21.9654 60.3124 20.9268 60.1076 19.9027 59.7291L19.4642 59.5561C18.7112 59.2397 17.9468 58.9431 17.2 58.6122C16.7311 58.4046 16.2871 58.1484 15.8588 57.8688L15.4346 57.5822L13.8238 56.4703C13.0812 55.96 12.4474 55.2744 11.8811 54.5774C11.8782 54.5745 11.8739 54.5779 11.8749 54.5815C13.079 56.3726 14.5678 57.9817 16.5227 58.9452C17.2156 59.2864 17.953 59.5384 18.6677 59.8299C19.7433 60.2686 20.8137 60.6825 21.9494 60.946C25.1607 61.6907 28.4788 60.7178 31.2264 59.0147C33.5454 57.5775 35.8409 55.6008 37.4213 53.3297L37.7277 52.8711C38.52 51.636 39.2441 50.3043 39.89 48.9742L40.1621 48.4049C40.7774 47.0926 41.2838 45.7326 41.6732 44.3375L41.8331 43.7374Z" fill="#1E5736"/>
<path d="M28.429 26.7774C28.429 26.7774 28.4348 26.7694 28.429 26.7694C28.4233 26.7694 28.4233 26.7774 28.429 26.7774Z" fill="#1E5736"/>
<path d="M28.4716 26.5741C28.4885 26.5777 28.5076 26.5838 28.5272 26.5946C28.5714 26.6191 28.604 26.6587 28.62 26.703C28.6455 26.774 28.6218 26.834 28.619 26.8417C28.6125 26.8596 28.605 26.8729 28.6015 26.8788C28.5993 26.8825 28.5972 26.8862 28.5956 26.8886L28.5927 26.8915L28.5917 26.8935L28.5312 26.9775H28.4286C28.3783 26.9774 28.323 26.9585 28.2812 26.915C28.2416 26.8738 28.2245 26.8214 28.2245 26.7734C28.2245 26.7253 28.2416 26.6729 28.2812 26.6318C28.323 26.5882 28.3783 26.5694 28.4286 26.5693L28.4716 26.5741ZM28.429 26.7694C28.4233 26.7694 28.4233 26.7774 28.429 26.7774C28.2688 26.6619 28.2665 26.6601 28.2665 26.6601L28.2626 26.6659C28.2614 26.6678 28.2603 26.6702 28.2587 26.6728C28.2561 26.677 28.249 26.6894 28.2431 26.706C28.24 26.7145 28.2356 26.7291 28.2333 26.748C28.2311 26.7663 28.2291 26.8001 28.2431 26.8388C28.2588 26.8823 28.2906 26.9202 28.3339 26.9443C28.3534 26.9551 28.3721 26.9613 28.3886 26.9648L28.4286 26.9696L28.5019 26.955C28.5261 26.9452 28.5499 26.9302 28.5702 26.9091C28.6082 26.8694 28.6249 26.8193 28.6249 26.7734C28.6249 26.7274 28.6083 26.6773 28.5702 26.6376C28.5499 26.6165 28.5261 26.6015 28.5019 26.5917L28.4286 26.5771L28.429 26.7694Z" fill="#1E5736"/>
<path d="M31.1224 51.6597C34.2735 48.3333 36.4268 44.1056 36.962 39.5304C37.3976 35.8098 36.6913 31.7357 33.8482 29.0783C31.2967 26.6937 27.7898 26.3784 24.5921 27.5256C20.912 28.846 17.9237 31.523 15.7528 34.7229C13.2334 38.4372 11.7575 42.5798 11.6454 47.0886C11.6434 47.184 11.7917 47.184 11.7937 47.0886C11.8902 43.2042 12.9658 39.3904 15.0693 36.1086C17.0618 33.0011 19.7077 30.1902 23.0331 28.513C26.0649 26.9841 29.718 26.5153 32.6637 28.4964C35.7194 30.5521 36.9817 34.3971 36.8925 37.9444C36.768 42.9356 34.4519 47.992 31.1203 51.6576C31.1203 51.6576 31.1204 51.6607 31.1224 51.6597Z" fill="#1E5736"/>
<path d="M24.5243 27.3376C27.7747 26.1715 31.3663 26.4847 33.9853 28.9323C36.893 31.6504 37.6004 35.8004 37.161 39.5534C36.6203 44.1761 34.4449 48.4434 31.2675 51.7975L31.2431 51.8229L31.2118 51.8385C31.1809 51.854 31.1357 51.8658 31.0839 51.8561C31.0316 51.8462 30.9877 51.8172 30.9589 51.778C30.9076 51.708 30.9033 51.6009 30.9735 51.5241L30.9726 51.5231C34.2768 47.8875 36.5692 42.8752 36.6923 37.9391C36.7804 34.4324 35.5308 30.667 32.5517 28.6627C29.6892 26.7377 26.1197 27.1799 23.123 28.6911C19.8391 30.3473 17.2171 33.1286 15.2372 36.2165C13.2853 39.2619 12.2269 42.7726 12.0233 46.3727L11.994 47.0934C11.9922 47.1737 11.957 47.2462 11.8983 47.2956C11.8436 47.3417 11.777 47.36 11.7177 47.36C11.6586 47.3599 11.5915 47.3411 11.536 47.2926C11.4761 47.2402 11.4435 47.1643 11.4452 47.0836C11.5583 42.5325 13.0486 38.3532 15.5868 34.611C17.7755 31.385 20.7955 28.6755 24.5243 27.3376ZM33.8482 29.0783C31.2967 26.6937 27.7898 26.3784 24.5921 27.5256L24.2489 27.653C20.7259 29.0135 17.8559 31.623 15.7528 34.7229L15.2929 35.4245C13.0544 38.9566 11.7505 42.8617 11.6454 47.0886C11.6434 47.184 11.7917 47.184 11.7937 47.0886C11.8902 43.2042 12.9658 39.3904 15.0693 36.1086C16.9996 33.0982 19.5431 30.3661 22.7235 28.6735L23.0331 28.513C26.0649 26.9841 29.718 26.5153 32.6637 28.4964C35.7194 30.5521 36.9817 34.3971 36.8925 37.9444C36.768 42.9356 34.4519 47.992 31.1203 51.6576L31.1224 51.6597C34.2735 48.3333 36.4268 44.1056 36.962 39.5304C37.3839 35.9262 36.734 31.99 34.1083 29.3317L33.8482 29.0783Z" fill="#1E5736"/>
<path d="M25.4992 27.4095C22.0006 28.2559 19.0839 30.5834 16.8145 33.303C14.433 36.1574 12.7019 39.5544 11.9219 43.1971C11.3193 46.0111 11.4147 49.0419 12.6915 51.664C13.7588 53.8567 15.575 55.4561 17.859 56.2879C20.5589 57.2712 23.517 56.8781 26.052 55.6116C26.1371 55.5691 26.0624 55.4405 25.9774 55.4841C23.7173 56.6136 21.1159 57.045 18.6525 56.3729C16.4141 55.762 14.4973 54.1833 13.3222 52.1981C11.8794 49.7617 11.6232 46.8481 12.0619 44.0933C12.6117 40.6434 14.0928 37.2756 16.1434 34.4554C17.3725 32.7657 18.891 31.2399 20.5661 29.9922C22.0701 28.872 23.6778 27.9063 25.5002 27.4126V27.4105L25.4992 27.4095Z" fill="#1E5736"/>
<path d="M25.4992 27.4095C22.0006 28.2559 19.0839 30.5834 16.8145 33.303C14.433 36.1574 12.7019 39.5544 11.9219 43.1971L11.8168 43.7269C11.3353 46.3882 11.4945 49.2057 12.6915 51.664C13.7588 53.8567 15.575 55.4561 17.859 56.2879C20.5556 57.27 23.5094 56.8783 26.0423 55.6156L26.052 55.6116C26.1371 55.5691 26.0624 55.4405 25.9774 55.4841C23.7173 56.6136 21.1159 57.045 18.6525 56.3729C16.5541 55.8002 14.7382 54.3771 13.5511 52.5658L13.3222 52.1981C11.8794 49.7617 11.6232 46.8481 12.0619 44.0933C12.6117 40.6434 14.0928 37.2756 16.1434 34.4554C17.3725 32.7657 18.891 31.2399 20.5661 29.9922C22.0701 28.872 23.6778 27.9063 25.5002 27.4126V27.4105L25.4992 27.4095ZM25.6966 27.4359C25.6982 27.4238 25.7005 27.4147 25.7005 27.4105V27.8773L25.4466 27.6351C23.702 28.1278 22.1508 29.0616 20.6859 30.1527C19.0266 31.3887 17.522 32.8997 16.305 34.5726C14.2713 37.3697 12.8035 40.7087 12.2591 44.1244C11.8253 46.8487 12.0824 49.7114 13.4945 52.0961C14.6461 54.0416 16.5225 55.5842 18.7054 56.18C20.962 56.7956 23.3447 56.4652 25.4671 55.5052L25.888 55.305C26.0471 55.2249 26.1933 55.3152 26.2513 55.4144C26.281 55.4652 26.2991 55.5346 26.2835 55.6087C26.2666 55.6892 26.2142 55.7541 26.1419 55.7904C23.5684 57.076 20.5518 57.4816 17.7904 56.4759C15.4593 55.6269 13.6028 53.9921 12.5121 51.7513C11.2105 49.0783 11.1169 45.9996 11.7259 43.1556C12.5132 39.4789 14.2601 36.0525 16.6605 33.1752C18.9456 30.4367 21.8973 28.0753 25.4525 27.2152L25.558 27.1898L25.6371 27.265L25.638 27.266L25.6371 27.267C25.6581 27.287 25.671 27.3053 25.6742 27.3109C25.6897 27.3381 25.6949 27.3628 25.6966 27.3714C25.6984 27.3804 25.7004 27.4045 25.6966 27.4359Z" fill="#1E5736"/>
<path d="M22.1694 26.5672C21.6695 26.6315 21.2006 26.9417 20.7785 27.202C20.2184 27.5485 19.6759 27.9228 19.1542 28.3242C18.2321 29.0327 17.3702 29.8179 16.5736 30.6653C15.777 31.5127 15.053 32.3331 14.4151 33.2635C14.0842 33.7458 13.7243 34.2396 13.4837 34.7738C13.2213 35.3567 12.9433 35.9282 12.6622 36.5018C12.6456 36.535 12.6933 36.564 12.713 36.5308C13.2638 35.563 13.9463 34.6783 14.5873 33.7687C15.2656 32.8071 15.9658 31.8447 16.7634 30.9786C17.5185 30.1592 18.3327 29.3916 19.2081 28.7019C19.7143 28.3025 20.2401 27.9291 20.7837 27.5827C21.2463 27.2881 21.824 27.0319 22.1943 26.6233C22.2109 26.6046 22.2016 26.5631 22.1715 26.5672H22.1694Z" fill="#1E5736"/>
<path d="M22.1714 26.3668V26.3687C22.22 26.3678 22.2685 26.3806 22.3091 26.4107C22.3539 26.4439 22.3782 26.4877 22.3902 26.524C22.4113 26.588 22.4091 26.6824 22.3433 26.7564L22.3423 26.7574C22.1378 26.9831 21.8811 27.1609 21.6275 27.316C21.5004 27.3937 21.3705 27.4684 21.2466 27.5396C21.1216 27.6114 21.0025 27.6806 20.8912 27.7515C20.4879 28.0086 20.0942 28.2803 19.7115 28.5669L19.3316 28.8589C18.4656 29.5413 17.6594 30.3014 16.9107 31.1138C16.1226 31.9695 15.4286 32.9233 14.7505 33.8843C14.103 34.8032 13.4316 35.6732 12.8873 36.6294L12.8853 36.6334C12.8539 36.6861 12.801 36.7271 12.7349 36.7408C12.6731 36.7535 12.6156 36.7386 12.5728 36.7134C12.4875 36.6633 12.4193 36.5404 12.483 36.4127C12.7638 35.8395 13.0406 35.2712 13.3013 34.6919C13.5512 34.1372 13.9251 33.6243 14.2505 33.15C14.8971 32.2071 15.6296 31.3775 16.4283 30.5279C17.2317 29.6732 18.1011 28.8806 19.0318 28.1656C19.559 27.76 20.1076 27.3817 20.6734 27.0318L20.9976 26.8326C21.3389 26.6275 21.7297 26.422 22.1441 26.3687L22.1568 26.3668H22.1714ZM22.1694 26.5672C21.6695 26.6315 21.2006 26.9417 20.7785 27.202L20.3619 27.4673C19.9486 27.7376 19.5454 28.0232 19.1542 28.3242C18.2321 29.0327 17.3702 29.8179 16.5736 30.6653L15.9898 31.2984C15.4203 31.9301 14.8934 32.5658 14.4151 33.2635C14.0842 33.7458 13.7243 34.2396 13.4837 34.7738L13.0796 35.6412C12.9423 35.9285 12.8027 36.2152 12.6622 36.5018C12.6496 36.5269 12.6738 36.5493 12.6949 36.5445L12.713 36.5308C12.9885 36.0468 13.2971 35.5835 13.6168 35.1275L14.5873 33.7687C15.1807 32.9275 15.7908 32.0856 16.4683 31.3082L16.7634 30.9786C17.424 30.2617 18.1299 29.5845 18.8824 28.9644L19.2081 28.7019C19.5877 28.4024 19.9786 28.1171 20.3795 27.8472L20.7837 27.5827C21.1884 27.325 21.6815 27.0968 22.0464 26.7701L22.1943 26.6233C22.2109 26.6046 22.2016 26.5631 22.1715 26.5672H22.1694ZM12.8414 36.5894V36.5914C12.8426 36.589 12.8423 36.5859 12.8433 36.5835C12.8424 36.5854 12.8423 36.5876 12.8414 36.5894ZM12.5406 36.4283H12.5425L12.5445 36.4244L12.5406 36.4283Z" fill="#1E5736"/>
<path d="M27.0378 24.8703C27.3987 24.9844 27.8458 24.9501 28.2285 24.973C28.6372 24.9968 29.0489 24.9585 29.4586 24.9678C30.3102 24.9854 31.0995 25.2924 31.9324 25.3225C31.9884 25.3246 32.0113 25.2551 31.976 25.2167C31.4107 24.5964 30.4378 24.5218 29.636 24.471C29.191 24.443 28.7015 24.4098 28.2617 24.4959C27.8727 24.5726 27.3749 24.6328 27.0315 24.8247C27.0118 24.8361 27.017 24.865 27.0378 24.8713V24.8703Z" fill="#1E5736"/>
<path d="M28.2233 24.3C28.6931 24.208 29.2099 24.2441 29.6481 24.2716C30.0472 24.2969 30.5092 24.3283 30.943 24.4357C31.3776 24.5433 31.8036 24.7316 32.1227 25.0812C32.1974 25.1625 32.2073 25.2715 32.1754 25.3556C32.1414 25.4454 32.0514 25.5271 31.9254 25.5226C31.4895 25.5069 31.067 25.4181 30.6627 25.3361C30.2532 25.253 29.8598 25.1765 29.4547 25.1681C29.2562 25.1636 29.0561 25.1704 28.8483 25.1759C28.6428 25.1814 28.43 25.1855 28.2165 25.173C28.1255 25.1676 28.0297 25.165 27.9284 25.1632C27.8283 25.1615 27.7222 25.1598 27.6168 25.1554C27.4931 25.1503 27.3648 25.1385 27.2379 25.1183V25.1398L26.9801 25.0627C26.8879 25.0349 26.8337 24.9572 26.8219 24.88C26.816 24.8406 26.8208 24.7976 26.8376 24.758V24.5968L26.9635 24.6359C27.1542 24.5349 27.3743 24.4696 27.5856 24.422C27.8029 24.3731 28.0422 24.3357 28.2233 24.3ZM29.636 24.471C29.191 24.443 28.7015 24.4098 28.2617 24.4959L27.6295 24.6173C27.4137 24.6659 27.2031 24.7289 27.0315 24.8247C27.0119 24.8361 27.0171 24.864 27.0378 24.8703C27.3987 24.9844 27.8458 24.9501 28.2285 24.973C28.6372 24.9968 29.0489 24.9585 29.4586 24.9678L29.7751 24.9865C30.508 25.0574 31.2036 25.2962 31.9324 25.3225C31.9743 25.3241 31.9974 25.2857 31.9918 25.2502L31.976 25.2167C31.4815 24.6741 30.675 24.5492 29.944 24.4923L29.636 24.471Z" fill="#1E5736"/>
<path d="M42.0523 40.884C41.9807 41.1558 41.8033 41.3881 41.7349 41.665C41.6488 42.0166 41.5959 42.3901 41.5399 42.7479C41.4839 43.1058 41.4444 43.4543 41.3936 43.8069C41.3625 44.0258 41.3055 44.2332 41.3687 44.4479C41.3822 44.4914 41.433 44.5029 41.4662 44.4738C41.8448 44.1429 41.9153 43.2665 41.9983 42.8008C42.0595 42.4554 42.1176 42.0996 42.1498 41.7501C42.1767 41.4576 42.072 41.1775 42.0875 40.8881C42.0885 40.8674 42.0564 40.8632 42.0512 40.8829L42.0523 40.884Z" fill="#1E5736"/>
<path d="M42.0989 40.6719C42.1689 40.6815 42.266 40.7381 42.2845 40.8477L42.2874 40.8985C42.2809 41.0193 42.299 41.141 42.3206 41.2891C42.3412 41.43 42.3649 41.5955 42.3489 41.7686C42.316 42.1268 42.257 42.4895 42.1956 42.836C42.1576 43.0495 42.114 43.4093 42.0374 43.7334C41.9617 44.0539 41.839 44.4132 41.598 44.6241C41.4667 44.7389 41.2385 44.7023 41.178 44.5069L41.1771 44.5049L41.3687 44.4479C41.3822 44.4914 41.433 44.5029 41.4662 44.4738C41.7502 44.2256 41.8613 43.6705 41.9339 43.2119L41.9983 42.8008C42.0595 42.4554 42.1176 42.0996 42.1498 41.7501C42.1767 41.4576 42.072 41.1775 42.0875 40.8881C42.0885 40.8674 42.0564 40.8632 42.0512 40.8829L42.0523 40.884C41.9807 41.1558 41.8033 41.3881 41.7349 41.665L41.6761 41.9326C41.6223 42.2027 41.5819 42.4797 41.5399 42.7479L41.3936 43.8069C41.3625 44.0258 41.3055 44.2332 41.3687 44.4479L41.1771 44.5049C41.1357 44.3643 41.1352 44.2297 41.1468 44.1094C41.1574 43.9999 41.1828 43.8686 41.1956 43.7783L41.3421 42.7168C41.3974 42.3637 41.4517 41.9792 41.5403 41.6172L41.5755 41.4981C41.6153 41.3829 41.6667 41.2778 41.7122 41.1846C41.7735 41.0591 41.8235 40.9543 41.8538 40.8457L41.8577 40.8321C41.8933 40.697 42.0212 40.6613 42.0989 40.6719Z" fill="#1E5736"/>
<path d="M42.7701 48.9588C43.9007 47.6467 44.2492 45.5452 44.3529 43.8743L44.0998 44.1274C45.8257 44.2456 47.5693 44.1938 49.2776 43.9116C49.5349 43.8691 49.4778 43.4283 49.2154 43.4532C47.5102 43.6129 45.8123 43.6928 44.0998 43.6222C43.9587 43.616 43.854 43.7426 43.8467 43.8754C43.8011 44.7622 43.6652 45.6397 43.4391 46.4995C43.2254 47.3127 42.8624 48.0844 42.6632 48.8986C42.6487 48.9557 42.7255 49.0106 42.769 48.9598L42.7701 48.9588Z" fill="#1E5736"/>
<path d="M49.2894 43.2559C49.3781 43.2676 49.4553 43.3081 49.514 43.3672C49.5881 43.4419 49.6278 43.5391 49.64 43.6309C49.6521 43.7226 49.6392 43.8268 49.5872 43.918C49.5323 44.0143 49.4367 44.0884 49.3099 44.1094C47.7258 44.371 46.1137 44.4338 44.515 44.3506C44.3758 45.9437 43.9925 47.8456 42.9212 49.0889L42.9183 49.0918L42.9153 49.0967L42.9085 49.1035L42.9066 49.1045C42.8643 49.1468 42.8097 49.1735 42.7493 49.1787C42.6859 49.1841 42.6292 49.1653 42.5872 49.1387C42.5098 49.0895 42.4359 48.9809 42.4691 48.8496C42.5714 48.4315 42.7159 48.0258 42.8577 47.6309C43.0008 47.2324 43.1413 46.8446 43.2454 46.4483C43.468 45.6019 43.6019 44.7374 43.6468 43.8643C43.6584 43.6531 43.8293 43.4111 44.1077 43.4229C44.2415 43.4284 44.3755 43.4309 44.5091 43.4346L44.5853 43.3594L44.5804 43.4375C46.1218 43.4765 47.6548 43.3984 49.1966 43.2539L49.2894 43.2559ZM49.2154 43.4532C47.7235 43.5929 46.2369 43.6714 44.7415 43.6416L44.0998 43.6222C43.9587 43.616 43.854 43.7426 43.8467 43.8754L43.8255 44.2071C43.7658 44.9809 43.6369 45.7471 43.4391 46.4995C43.2254 47.3127 42.8624 48.0844 42.6632 48.8986L42.6673 48.9395C42.6848 48.9766 42.7364 48.9977 42.769 48.9598L42.7701 48.9588C43.8415 47.7154 44.2074 45.7627 44.3314 44.1397C45.7655 44.2251 47.2101 44.1941 48.6351 44.0069L49.2776 43.9116C49.5349 43.8691 49.4778 43.4283 49.2154 43.4532Z" fill="#1E5736"/>
<path d="M46.2579 6.59133C47.5897 8.10153 48.9868 9.56813 50.248 11.1395C51.5093 12.7109 52.6254 14.4959 53.7653 16.2022C53.8369 16.31 53.9852 16.2177 53.9354 16.1026C53.1056 14.1993 51.9263 12.4993 50.6495 10.8626C49.3726 9.22585 47.9941 7.74364 46.3024 6.53319C46.2672 6.5083 46.2319 6.56118 46.2579 6.59022V6.59133Z" fill="#1E5736"/>
<path d="M46.2294 6.33336C46.2804 6.32095 46.3315 6.32665 46.3759 6.34605L46.4179 6.36949L46.4188 6.37047C48.1317 7.59606 49.524 9.09431 50.8075 10.7396C52.008 12.2786 53.1295 13.8829 53.9569 15.6644L54.119 16.0228L54.1386 16.0814C54.1693 16.2175 54.1026 16.3451 53.9989 16.4076C53.9407 16.4426 53.8662 16.4604 53.789 16.4447C53.7288 16.4324 53.6766 16.4014 53.6356 16.3587L53.5985 16.3128C52.4539 14.5996 51.3456 12.8272 50.0917 11.265C48.8342 9.69831 47.447 8.24201 46.1083 6.72398L46.0575 6.66734V6.63023C46.0357 6.5516 46.0603 6.47284 46.0956 6.42418C46.1228 6.38677 46.167 6.34861 46.2294 6.33336ZM46.3024 6.53319C46.2672 6.5083 46.2319 6.56118 46.2579 6.59022C47.5897 8.10042 48.9868 9.56813 50.248 11.1395C51.5093 12.7109 52.6254 14.4959 53.7653 16.2022C53.8369 16.31 53.9852 16.2177 53.9354 16.1026C53.2094 14.4372 52.2154 12.9277 51.1229 11.4798L50.6495 10.8626C49.3726 9.22585 47.9941 7.74364 46.3024 6.53319Z" fill="#1E5736"/>
<path d="M41.6932 2.35009C44.9003 3.83644 47.9612 5.99911 50.1331 8.8131C50.1777 8.87118 50.2773 8.81722 50.2337 8.75395C49.7348 8.02789 49.2162 7.25307 48.6053 6.61518C47.9799 5.9638 47.3005 5.36328 46.5848 4.81148C45.0964 3.66534 43.5125 2.83661 41.7098 2.30867C41.687 2.3014 41.6704 2.33767 41.6932 2.34908V2.35009Z" fill="#1E5736"/>
<path d="M41.7653 2.11826L41.7663 2.11631C43.5942 2.65166 45.1999 3.49311 46.7067 4.65342C47.2489 5.07143 47.7711 5.5172 48.2653 5.99228L48.7497 6.47666C49.3743 7.12881 49.9025 7.91948 50.3981 8.64072C50.4391 8.70015 50.4576 8.77753 50.4343 8.85556C50.4127 8.92734 50.3632 8.97582 50.3151 9.00303C50.2223 9.05549 50.0697 9.05887 49.9743 8.93467C47.8268 6.15257 44.7948 4.00777 41.6091 2.53135L41.4929 2.47763V2.39463C41.4922 2.39235 41.4905 2.3901 41.4899 2.38779C41.4754 2.3326 41.4839 2.28111 41.5007 2.24228C41.5305 2.1735 41.6267 2.077 41.7653 2.11826ZM41.7098 2.30867C41.687 2.3014 41.6704 2.33767 41.6932 2.34908C44.9003 3.83542 47.9612 5.99911 50.1331 8.8131C50.1722 8.86311 50.2528 8.82898 50.2438 8.77744L50.2337 8.75395C49.7348 8.02789 49.2162 7.25307 48.6053 6.61518C48.1363 6.12672 47.6372 5.66663 47.1149 5.23447L46.5848 4.81148C45.1895 3.73704 43.7103 2.94149 42.0456 2.41123L41.7098 2.30867Z" fill="#1E5736"/>
<path d="M8.49566 41.4586C7.58809 42.9916 7.35987 44.9758 7.24993 46.7308C7.13998 48.4858 7.16489 50.5592 7.80901 52.2821C7.83909 52.363 7.97909 52.3599 7.97183 52.2603C7.83492 50.4669 7.55071 48.7275 7.65444 46.9196C7.70733 45.9965 7.8256 45.0775 8.01022 44.172C8.19381 43.2717 8.44795 42.4025 8.57553 41.4928C8.58175 41.4472 8.52263 41.4129 8.49566 41.4586Z" fill="#1E5736"/>
<path d="M8.46844 41.2456C8.53164 41.2286 8.59114 41.2399 8.63641 41.2622C8.72194 41.3044 8.79015 41.4024 8.77411 41.52L8.77313 41.521C8.64478 42.4358 8.38434 43.3366 8.20575 44.2124C8.02314 45.1082 7.90653 46.0176 7.85419 46.9312C7.76433 48.4976 7.96866 50.001 8.11395 51.5689L8.17157 52.2446C8.17704 52.3197 8.15368 52.3972 8.09735 52.4556C8.0445 52.5103 7.97771 52.5339 7.92059 52.5386C7.82794 52.5461 7.70901 52.5066 7.6452 52.4009L7.62176 52.3521C6.96215 50.5878 6.94019 48.4787 7.05047 46.7183C7.16037 44.9641 7.38936 42.9356 8.32391 41.3569L8.3493 41.3208C8.37876 41.2864 8.4189 41.259 8.46844 41.2456ZM8.49566 41.4586C7.58809 42.9916 7.35987 44.9758 7.24993 46.7308L7.21551 47.4028C7.15546 48.9988 7.24551 50.7747 7.80901 52.2821C7.83909 52.363 7.97909 52.3599 7.97183 52.2603C7.83492 50.4669 7.55071 48.7275 7.65444 46.9196C7.69412 46.2271 7.77079 45.5369 7.88446 44.853L8.01022 44.172C8.17084 43.3843 8.38553 42.6205 8.52215 41.8325L8.57553 41.4928C8.58175 41.4472 8.52263 41.4129 8.49566 41.4586Z" fill="#1E5736"/>
<path d="M12.0228 22.8124C11.7201 22.2246 11.596 21.2471 11.5875 20.5778C11.5773 19.82 11.8017 19.0392 12.2388 18.43C13.0704 17.2703 14.6332 16.6329 16.0022 16.8418C17.3711 17.0508 18.354 18.1433 18.6686 19.5032C18.8217 20.1672 18.8132 20.877 18.5853 21.5233C18.4612 21.8792 18.269 22.2405 18.002 22.5026C17.667 22.8319 17.2537 22.8425 16.8898 23.1028C16.5786 23.3241 16.5208 23.8413 16.8898 24.0484C17.8268 24.5761 18.8863 23.6109 19.3981 22.8301C19.9644 21.9678 20.1974 20.8949 20.1141 19.859C19.9457 17.7714 18.6108 15.8962 16.6279 15.3615C14.6451 14.8267 12.2932 15.6394 11.0467 17.4296C10.4226 18.3255 10.0859 19.4694 10.1353 20.5778C10.1914 21.8049 10.6828 22.5664 11.7049 23.1418C11.9106 23.2569 12.1317 23.0267 12.0211 22.8124H12.0228Z" fill="#1E5736"/>
<path d="M16.0475 21.9172C16.2562 22.8687 16.3581 23.8669 16.3499 24.838L16.9365 24.5292C15.9276 24.1197 14.9072 23.6876 13.9262 23.2239C13.8834 23.5205 13.8407 23.8171 13.7996 24.1137C14.9499 23.8563 16.041 23.0433 16.5109 22.0407L15.382 21.9051C15.6614 22.6293 15.7994 23.3835 15.8585 24.1468L16.902 23.8879C16.552 23.4121 16.2152 22.9274 15.829 22.4742C15.599 22.2047 15.0336 22.3538 14.9728 22.682C14.9055 23.0373 14.8677 23.3475 14.9943 23.6968C15.1931 24.2493 16.2497 24.1995 16.1724 23.5506C16.1166 23.0869 15.9933 22.694 15.7091 22.301L14.8579 23.0809C15.0895 23.2224 15.2966 23.4076 15.5053 23.5762L15.6203 22.7542C15.1454 22.9394 14.7116 23.0719 14.3517 23.4212C14.1085 23.6576 14.2877 24.034 14.6344 24.0476C15.1619 24.0671 15.5759 23.8834 16.0607 23.7118C16.4402 23.5778 16.6506 23.1307 16.3121 22.8371C16.0689 22.6263 15.8208 22.426 15.6105 22.1867C15.1586 21.6718 14.2943 22.3312 14.6344 22.8777C14.8004 23.1442 14.9121 23.4016 14.9943 23.6982L16.0903 23.2751C15.9835 23.1336 15.9473 22.9786 15.9802 22.8084L15.0255 23.0448C15.2982 23.5131 15.6285 23.9572 15.9374 24.4059C16.22 24.8169 17.0055 24.6768 16.9809 24.1468C16.9398 23.2811 16.7754 22.4486 16.575 21.604C16.4583 21.1192 15.7058 21.0649 15.4461 21.4684C14.922 22.2874 14.3221 22.7994 13.3904 23.2225C12.955 23.4212 13.1144 23.9888 13.517 24.1123C14.5637 24.4344 15.6137 24.8033 16.6375 25.1797C16.8757 25.267 17.1354 25.0472 17.1304 24.8349C17.1107 23.7404 16.8576 22.7858 16.3285 21.8057C16.248 21.6552 16.0146 21.765 16.0475 21.9141V21.9172Z" fill="#1E5736"/>
<path d="M26.2389 41.126L27.2989 39.2524L29.9364 40.7445L31.5515 37.8898L24.3695 33.8266L22.7544 36.6813L25.3922 38.1737L24.3331 40.0457C22.0988 38.9928 20.0967 38.7706 19.6293 39.5968C19.1619 40.423 20.3844 42.0251 22.4363 43.3984L19.041 49.3998L20.9483 50.4789L24.3439 44.477C26.5746 45.5272 28.5731 45.7481 29.0401 44.9226C29.5071 44.0972 28.288 42.4971 26.2389 41.126ZM24.6315 43.9687L24.6323 43.9672C24.5754 43.9423 24.2836 43.8128 23.668 43.4645C23.1759 43.1861 22.8424 42.9675 22.7262 42.8881L22.7248 42.8906C20.9079 41.6829 19.7973 40.3473 20.16 39.7062C20.5227 39.0651 22.2393 39.33 24.2103 40.2649L23.0268 42.3569C23.143 42.4409 23.4785 42.6757 23.9682 42.9527C24.5564 43.2855 24.8746 43.4129 24.9335 43.4356L26.117 41.3436C27.9299 42.5498 29.0369 43.8841 28.6755 44.5229C28.3141 45.1617 26.5993 44.8994 24.6323 43.9672" fill="#1E5736"/>
<path d="M45.4552 21.2146C44.3675 19.5817 43.473 19.3693 42.2744 19.8309C41.4049 20.1406 41.0073 19.8667 40.5722 19.2134C40.137 18.5602 40.1058 17.9749 40.6026 17.644C41.0497 17.3462 41.4845 17.4607 42.0749 18.0778C42.193 18.2012 42.3296 18.2449 42.4041 18.1952L42.8015 17.9306C42.9009 17.8644 42.8822 17.6748 42.7579 17.4882L42.7268 17.4415C41.9437 16.4812 40.9683 15.9859 40.3349 16.2732L39.5891 15.1534C39.4647 14.9668 39.297 14.8765 39.1417 14.9125L38.7691 15.1606C38.6697 15.2268 38.6885 15.4164 38.819 15.6664L39.5338 16.7394C38.913 17.4224 39.0626 18.6698 39.8396 19.8362C40.8651 21.3759 41.7658 21.6515 42.9645 21.1899C43.8153 20.9599 44.2254 21.0909 44.7226 21.8375C45.2199 22.584 45.2139 23.3288 44.742 23.6431C44.0962 24.0733 43.5308 23.709 42.9901 23.0587C42.841 22.8887 42.7043 22.845 42.6298 22.8946L42.2075 23.1759C42.1082 23.242 42.1269 23.4316 42.2512 23.6183L42.2823 23.665C43.1585 24.7652 44.1154 25.3402 45.0905 25.0276L45.8363 26.1474C45.9606 26.3339 46.1283 26.4242 46.2836 26.3882L46.6562 26.14C46.7556 26.0738 46.7368 25.8842 46.6063 25.6344L45.8605 24.5147C46.4502 23.785 46.2943 22.4743 45.4552 21.2146Z" fill="#1E5736"/>
<path d="M45.8123 28.0493C43.0047 28.0335 39.3074 24.6363 37.6348 20.5639C36.7021 18.3561 36.5273 16.3172 37.0795 14.939C37.1168 14.7796 37.0732 14.6065 36.9178 14.3732L36.4827 13.72C36.3584 13.5334 36.2155 13.4265 36.0851 13.4461C36.0602 13.4626 36.0106 13.4957 36.0167 13.5589C34.5894 16.5303 36.4367 22.103 40.1342 26.0389C42.3216 28.3537 44.726 29.6485 46.6763 29.5618C46.8378 29.5889 46.8751 29.4294 46.7755 29.2263C46.7694 29.1631 46.7383 29.1164 46.6761 29.0232L46.241 28.3699C46.1478 28.2299 45.949 28.093 45.8123 28.0493ZM38.749 11.7389C38.5875 11.7118 38.5503 11.8713 38.6498 12.0745C38.656 12.1377 38.6871 12.1843 38.7493 12.2777L39.1843 12.9308C39.3087 13.1175 39.5074 13.2544 39.6442 13.2981C42.4517 13.3139 46.149 16.7112 47.8216 20.7836C48.7543 22.9913 48.9291 25.0302 48.3769 26.4084C48.3397 26.5678 48.3832 26.7409 48.5387 26.9742L48.9737 27.6274C49.0981 27.814 49.241 27.9209 49.3714 27.9013C49.3962 27.8848 49.4459 27.8517 49.4397 27.7886C50.867 24.8171 49.0198 19.2445 45.3223 15.3085C43.1038 12.947 40.6745 11.6687 38.749 11.7389Z" fill="#1E5736"/>
</svg>
