<svg width="64" height="64" viewBox="0 0 64 64" fill="none" xmlns="http://www.w3.org/2000/svg">
<path d="M14.0923 10.3667L10.2695 24.9486L8.00473 27.0727L9.42081 28.9131L3.19141 50.1487L5.59807 54.254L47.2194 54.5377L55.4311 18.0123L63.6417 9.51797L56.2799 2.43872L48.3518 10.5085L14.0923 10.3667Z" fill="#CFF6E0"/>
<path d="M55.902 2.59986C57.1218 3.81397 58.3654 4.9997 59.6124 6.18657C60.2479 6.79136 60.8822 7.39842 61.5187 8.00207C62.0725 8.52743 62.6534 9.27066 63.3285 9.63035C63.585 9.76765 63.9311 9.47828 63.7506 9.20822C63.324 8.56826 62.5513 8.05652 61.9839 7.53684C61.336 6.94453 60.6893 6.3511 60.0448 5.75425C58.7784 4.58213 57.5189 3.41226 56.1879 2.31275C55.9905 2.15049 55.7137 2.41147 55.902 2.59869V2.59986Z" fill="#1E5736"/>
<path d="M55.7614 2.18205C55.8919 2.05527 56.125 2.00255 56.315 2.1587C57.6511 3.26245 58.9148 4.43717 60.1801 5.60844C60.8241 6.20477 61.4704 6.79769 62.1181 7.38974C62.4012 7.64912 62.7186 7.8918 63.0501 8.17677C63.3705 8.45223 63.6871 8.7541 63.9159 9.09709C64.071 9.32932 63.9916 9.57618 63.839 9.71778C63.694 9.85207 63.4527 9.92266 63.2349 9.80631C62.8709 9.61238 62.5399 9.31996 62.2377 9.02024C62.086 8.86975 61.938 8.71314 61.796 8.56494L61.3816 8.14662C60.745 7.54291 60.1096 6.93545 59.4748 6.33127C58.228 5.14457 56.983 3.95729 55.7614 2.74144L55.7031 2.68307V2.66653C55.659 2.59848 55.6366 2.52176 55.6408 2.4418C55.6464 2.33624 55.6959 2.24578 55.7614 2.18205ZM56.1879 2.31275C55.9905 2.15049 55.7137 2.41147 55.902 2.59869V2.59986C57.1218 3.81397 58.3654 4.9997 59.6124 6.18657C60.2479 6.79136 60.8822 7.39842 61.5187 8.00207C62.0725 8.52743 62.6534 9.27066 63.3285 9.63035C63.585 9.76765 63.9311 9.47828 63.7506 9.20822C63.324 8.56826 62.5513 8.05652 61.9839 7.53684L60.0448 5.75425C58.7784 4.58213 57.5189 3.41226 56.1879 2.31275Z" fill="#1E5736"/>
<path d="M29.2896 41.8972C27.8655 41.8098 26.4449 41.7917 25.0174 41.7724C24.3888 41.7644 23.7603 41.7531 23.1316 41.7428C22.3748 41.7304 21.5544 41.626 20.8089 41.7587C20.5128 41.8121 20.5162 42.2977 20.8089 42.3533C21.5272 42.4895 22.3158 42.3976 23.0465 42.393C23.7035 42.3885 24.3605 42.384 25.0174 42.3817C26.4437 42.3772 27.8644 42.3726 29.2896 42.3C29.5505 42.2864 29.5494 41.9119 29.2896 41.896V41.8972Z" fill="#1E5736"/>
<path d="M21.9715 41.4975C22.1704 41.5031 22.3698 41.5134 22.5639 41.5228C22.759 41.5323 22.9494 41.5402 23.135 41.5432C23.7641 41.5534 24.3923 41.5654 25.0204 41.5734C26.3764 41.5917 27.7313 41.6112 29.0899 41.6882V41.6843L29.3019 41.6969C29.5514 41.7123 29.684 41.9116 29.6843 42.0987C29.6844 42.1905 29.6535 42.287 29.586 42.3643C29.5161 42.4443 29.416 42.4925 29.3 42.4986C27.8694 42.5715 26.4439 42.5767 25.0185 42.5813C24.3619 42.5835 23.7045 42.5874 23.0475 42.592C22.8684 42.5931 22.6847 42.5994 22.4968 42.6066C22.31 42.6136 22.1182 42.6217 21.9267 42.625C21.5437 42.6317 21.1509 42.621 20.7719 42.5492C20.5014 42.4978 20.3893 42.2516 20.3886 42.0559C20.388 41.8595 20.4998 41.612 20.7739 41.5627L21.0706 41.5208C21.3695 41.49 21.6733 41.4891 21.9715 41.4975ZM23.1316 41.7428C22.3748 41.7304 21.5544 41.626 20.8089 41.7587L20.7574 41.7738C20.5144 41.871 20.5343 42.3012 20.8089 42.3533C21.3477 42.4555 21.9262 42.4295 22.49 42.4081L23.0465 42.393L25.0174 42.3817C26.0871 42.3783 27.1535 42.375 28.2211 42.3429L29.2896 42.3C29.5505 42.2864 29.5494 41.9119 29.2896 41.896C28.5777 41.8524 27.8663 41.8267 27.1548 41.8088L23.1316 41.7428Z" fill="#1E5736"/>
<path d="M21.8838 44.3824C23.2591 44.4482 24.6331 44.464 26.0095 44.4799C26.6188 44.4867 27.2271 44.4947 27.8353 44.5038C28.5887 44.514 29.392 44.6013 30.1387 44.5038C30.3679 44.4743 30.4859 44.0896 30.1999 44.0488C29.4828 43.9467 28.7271 44.0136 28.002 44.017C27.3621 44.0192 26.7221 44.0227 26.081 44.0238C24.6797 44.0261 23.2829 44.0272 21.8827 44.0794C21.6876 44.0862 21.6876 44.3733 21.8827 44.3824H21.8838Z" fill="#1E5736"/>
<path d="M28.0015 43.8182C28.7031 43.8149 29.4923 43.7464 30.2284 43.8512C30.3482 43.8684 30.4518 43.9283 30.5134 44.0303C30.5717 44.1266 30.576 44.234 30.5572 44.3221C30.5263 44.467 30.416 44.6275 30.242 44.684L30.1642 44.7015C29.3991 44.8015 28.5584 44.7123 27.8323 44.7025C27.2243 44.6934 26.6162 44.686 26.0072 44.6791C24.9754 44.6672 23.9425 44.6558 22.9086 44.6227L21.8745 44.5819C21.6525 44.5715 21.5369 44.3908 21.5369 44.2297C21.537 44.1505 21.5631 44.0654 21.6225 43.9972C21.6848 43.9258 21.7743 43.884 21.8755 43.8804L22.9281 43.8503C23.98 43.8278 25.0307 43.8267 26.0811 43.825C26.7219 43.8238 27.3612 43.8204 28.0015 43.8182ZM28.002 44.017L26.081 44.0238L23.9817 44.0332C23.2822 44.0403 22.5829 44.0533 21.8827 44.0794L21.819 44.0945C21.7091 44.1455 21.709 44.3146 21.819 44.3669L21.8827 44.3824H21.8838C23.2591 44.4482 24.6331 44.464 26.0095 44.4799C26.6188 44.4867 27.2271 44.4947 27.8353 44.5038C28.4944 44.5127 29.1917 44.5807 29.8558 44.5322L30.1387 44.5038C30.3534 44.4759 30.4706 44.1364 30.2488 44.0604L30.1999 44.0488C29.4828 43.9467 28.7271 44.0136 28.002 44.017Z" fill="#1E5736"/>
<path d="M14.7865 12.0937C19.0642 12.2186 23.3443 12.2254 27.6232 12.2356C29.6996 12.2401 31.7727 12.2537 33.8469 12.1516C34.0682 12.1414 34.0682 11.8203 33.8469 11.8089C29.5782 11.5888 25.2744 11.6898 20.9989 11.7227C18.927 11.7386 16.8573 11.759 14.7865 11.8135C14.6072 11.818 14.6061 12.0869 14.7865 12.0926V12.0937Z" fill="#1E5736"/>
<path d="M20.9975 11.5239C25.2684 11.4911 29.5806 11.3891 33.8567 11.6096C34.0891 11.6215 34.2116 11.8081 34.2118 11.9802C34.2118 12.0646 34.1839 12.1546 34.1213 12.2263C34.0562 12.301 33.9626 12.345 33.8558 12.3499C31.7756 12.4523 29.6971 12.4391 27.6227 12.4345C23.3445 12.4243 19.0618 12.4174 14.781 12.2925L14.5874 12.2876V12.2254C14.5683 12.2112 14.5497 12.196 14.5339 12.1777C14.4765 12.1111 14.452 12.0282 14.4522 11.952C14.4524 11.8759 14.4774 11.7935 14.5349 11.7273C14.5953 11.6577 14.6825 11.617 14.781 11.6144C16.8538 11.5599 18.9255 11.5398 20.9975 11.5239ZM33.8469 11.8089C29.5782 11.5888 25.2744 11.6898 20.9989 11.7227C18.927 11.7386 16.8573 11.759 14.7865 11.8135C14.6072 11.818 14.6061 12.0881 14.7865 12.0937C19.0642 12.2186 23.3443 12.2254 27.6232 12.2356C29.6996 12.2401 31.7727 12.2537 33.8469 12.1516C34.0403 12.1426 34.0647 11.8959 33.92 11.8265L33.8469 11.8089Z" fill="#1E5736"/>
<path d="M52.2485 20.9589C50.3377 28.2118 48.4371 35.4715 46.6194 42.7494C45.9805 45.3081 45.3757 47.869 44.8708 50.4584C44.8152 50.7443 45.2305 50.8669 45.3122 50.5798C46.4548 46.5506 47.4057 42.4713 48.4383 38.4126C49.2745 35.1265 50.1085 31.8405 50.9028 28.5443C51.503 26.0548 52.0704 23.5619 52.6071 21.0576C52.657 20.825 52.3098 20.7252 52.2485 20.9589Z" fill="#1E5736"/>
<path d="M52.2496 20.6642C52.3404 20.6196 52.4391 20.6183 52.523 20.6418C52.6903 20.6889 52.8535 20.8591 52.8022 21.099C52.2652 23.6049 51.6975 26.0999 51.0968 28.591C50.3022 31.8886 49.4678 35.1757 48.6316 38.4616C47.7293 42.0083 46.8867 45.5802 45.9241 49.1192L45.5039 50.6339C45.4692 50.7556 45.3927 50.8493 45.2889 50.9005C45.1891 50.9497 45.0796 50.9526 44.9853 50.9258C44.7968 50.8721 44.6241 50.6818 44.675 50.4199C45.1809 47.8258 45.787 45.2613 46.4261 42.7013C48.2442 35.4221 50.1452 28.1613 52.056 20.9084L52.0852 20.8305C52.1214 20.7573 52.1779 20.6995 52.2496 20.6642ZM52.6071 21.0576C52.657 20.825 52.3098 20.7252 52.2485 20.9589C50.3377 28.2118 48.4371 35.4715 46.6194 42.7494L46.1479 44.6694C45.6846 46.5904 45.2495 48.5164 44.8708 50.4584L44.8657 50.5104C44.8661 50.7415 45.1874 50.8358 45.2928 50.6291L45.3122 50.5798C46.1692 47.5579 46.9187 44.5074 47.6753 41.4589L48.4383 38.4126C49.0655 35.948 49.6912 33.4833 50.3 31.0144L50.9028 28.5443C51.503 26.0548 52.0704 23.5619 52.6071 21.0576Z" fill="#1E5736"/>
<path d="M34.9094 50.3621C26.5944 50.2861 18.2783 50.1715 9.96332 50.1829C7.54531 50.1863 5.12845 50.1987 2.71044 50.2294C2.48463 50.2328 2.48463 50.5743 2.71044 50.58C11.0118 50.8035 19.3177 50.8251 27.6213 50.8671C30.0506 50.8795 32.48 50.892 34.9105 50.9034C35.26 50.9056 35.26 50.3644 34.9105 50.361L34.9094 50.3621Z" fill="#1E5736"/>
<path d="M9.96299 49.9836C18.2523 49.9723 26.5434 50.0866 34.8301 50.1626L34.8321 50.1607L34.9128 50.1617C35.0562 50.1632 35.1763 50.2224 35.2582 50.3183C35.3367 50.4103 35.372 50.526 35.372 50.6345C35.372 50.7428 35.3375 50.8589 35.2582 50.9506C35.1752 51.0465 35.0533 51.1032 34.9099 51.1024C32.4794 51.0911 30.0496 51.0789 27.6203 51.0664C19.3177 51.0244 11.0094 51.003 2.7055 50.7794C2.59451 50.7766 2.49823 50.7299 2.43212 50.653C2.36923 50.5796 2.34166 50.4886 2.34165 50.4039C2.34165 50.3192 2.36954 50.2273 2.4331 50.1539C2.49985 50.077 2.59658 50.032 2.70744 50.0303C5.12641 49.9997 7.54452 49.987 9.96299 49.9836ZM9.96332 50.1829C7.54531 50.1863 5.12845 50.1987 2.71044 50.2294C2.48463 50.2328 2.48463 50.5743 2.71044 50.58C11.0118 50.8035 19.3177 50.8251 27.6213 50.8671C30.0506 50.8795 32.48 50.892 34.9105 50.9034C35.26 50.9056 35.26 50.3644 34.9105 50.361L34.9094 50.3621C27.6341 50.2956 20.3575 50.1994 13.082 50.184L9.96332 50.1829Z" fill="#1E5736"/>
<path d="M47.0661 54.22C36.3286 54.144 25.5899 54.0294 14.8524 54.0408C11.7786 54.0442 8.70586 54.0566 5.63201 54.0873C5.4062 54.0895 5.4062 54.4334 5.63201 54.4379C16.3525 54.6614 27.0775 54.683 37.8003 54.725C40.8889 54.7374 43.9775 54.7488 47.0661 54.7612C47.4156 54.7624 47.4156 54.2212 47.0661 54.2189V54.22Z" fill="#1E5736"/>
<path d="M14.8526 53.8415C25.524 53.8303 36.1969 53.9435 46.8664 54.0196H47.0677C47.2112 54.0206 47.332 54.0793 47.4141 54.1752C47.4928 54.2672 47.5279 54.3829 47.5279 54.4914C47.5279 54.5998 47.4923 54.7158 47.4131 54.8076C47.3303 54.9033 47.2092 54.9607 47.0658 54.9603C45.5217 54.9541 43.9762 54.9487 42.4321 54.9428C40.8879 54.9368 39.3436 54.9306 37.7994 54.9243C27.0774 54.8823 16.3505 54.8609 5.62804 54.6373C5.51656 54.6351 5.41996 54.5881 5.3537 54.5108C5.2908 54.4374 5.26323 54.3464 5.26322 54.2618C5.26322 54.1771 5.29105 54.0853 5.35467 54.0118C5.42159 53.9346 5.51859 53.8893 5.62999 53.8882C8.70461 53.8576 11.7784 53.8449 14.8526 53.8415ZM14.8524 54.0408C11.7786 54.0442 8.70586 54.0566 5.63201 54.0873C5.4062 54.0895 5.4062 54.4334 5.63201 54.4379C16.3525 54.6614 27.0775 54.683 37.8003 54.725C40.8889 54.7374 43.9775 54.7488 47.0661 54.7612C47.4156 54.7624 47.4156 54.2212 47.0661 54.2189V54.22C37.6709 54.1535 28.2747 54.0573 18.8793 54.0419L14.8524 54.0408Z" fill="#1E5736"/>
<path d="M55.0386 18.2413C52.8861 27.4561 50.9446 36.7174 48.9838 45.9741C48.3836 48.8086 47.7743 51.6407 47.1695 54.474C47.123 54.693 47.4532 54.7883 47.5077 54.5671C49.7986 45.4011 51.6447 36.1364 53.6542 26.9069C54.2738 24.0634 54.9092 21.2221 55.5616 18.3854C55.6399 18.0461 55.118 17.9009 55.0386 18.2413Z" fill="#1E5736"/>
<path d="M55.0773 17.8936C55.1867 17.8399 55.3079 17.8377 55.4119 17.8663C55.6184 17.9235 55.8243 18.1318 55.7553 18.4306C55.1032 21.2662 54.4679 24.1064 53.8486 26.9489C51.9656 35.5973 50.2241 44.2868 48.1253 52.8949L47.7011 54.6149C47.6744 54.7231 47.6073 54.8087 47.5133 54.8552C47.4245 54.8991 47.328 54.9005 47.2468 54.8776C47.0857 54.8322 46.9245 54.6665 46.9744 54.432C47.5792 51.5985 48.1886 48.7672 48.7887 45.9332C50.7493 36.6772 52.6917 27.4133 54.8448 18.1961C54.8775 18.056 54.962 17.9503 55.0773 17.8936ZM55.5616 18.3854C55.6399 18.0461 55.118 17.9009 55.0386 18.2413C52.8861 27.4561 50.9446 36.7174 48.9838 45.9741L47.1695 54.474L47.165 54.5138C47.1634 54.6911 47.4192 54.7647 47.4948 54.6052L47.5077 54.5671C49.5122 46.5469 51.1759 38.4511 52.9068 30.3695L53.6542 26.9069C54.2738 24.0634 54.9092 21.2221 55.5616 18.3854Z" fill="#1E5736"/>
<path d="M45.1747 50.5743C43.7143 50.4313 42.2347 50.4574 40.7687 50.4336C39.3027 50.4098 37.8332 50.3859 36.3661 50.3598C36.0019 50.353 36.0007 50.9272 36.3661 50.926C37.8332 50.9215 39.3015 50.9181 40.7687 50.9147C42.2347 50.9113 43.7132 50.9589 45.1747 50.8364C45.3449 50.8216 45.3437 50.5891 45.1747 50.5732V50.5743Z" fill="#1E5736"/>
<path d="M40.7719 50.2342C42.1568 50.2568 43.5752 50.2364 44.9756 50.3578V50.3539L45.1935 50.3743C45.3876 50.3927 45.5006 50.5482 45.501 50.7051C45.5011 50.8432 45.4141 50.979 45.2616 51.0223L45.1916 51.0349C43.7194 51.1584 42.2257 51.1103 40.769 51.1137C39.3019 51.1171 37.8338 51.1208 36.3668 51.1254C36.2181 51.1258 36.0932 51.065 36.0088 50.9658C35.9284 50.8712 35.893 50.7522 35.8931 50.6409C35.8932 50.5295 35.9284 50.4093 36.0098 50.315C36.0951 50.2162 36.2211 50.1575 36.3698 50.1603L40.7719 50.2342ZM36.3661 50.3598C36.0019 50.353 36.0007 50.9272 36.3661 50.926C37.8332 50.9215 39.3015 50.9181 40.7687 50.9147L42.9735 50.9201C43.5253 50.9172 44.0768 50.9057 44.6264 50.8744L45.1747 50.8364C45.3449 50.8216 45.3437 50.5891 45.1747 50.5732V50.5743C44.4444 50.5028 43.7093 50.4733 42.9735 50.459L40.7687 50.4336C39.3027 50.4098 37.8332 50.3859 36.3661 50.3598Z" fill="#1E5736"/>
<path d="M18.0346 22.029C20.8691 25.3479 23.8499 28.559 26.8001 31.7747C26.9646 31.954 27.2335 31.6851 27.0667 31.5081C24.0882 28.3219 21.2492 24.9825 18.1583 21.9053C18.0766 21.8247 17.962 21.945 18.0346 22.029Z" fill="#1E5736"/>
<path d="M18.0826 21.6802C18.144 21.6766 18.2023 21.6933 18.2518 21.7259L18.2985 21.7639L18.8764 22.3447C21.749 25.2619 24.4287 28.3946 27.2118 31.3718L27.2634 31.4389C27.3067 31.5098 27.324 31.5892 27.3169 31.6675C27.3078 31.7669 27.2603 31.8535 27.1982 31.9156C27.1363 31.9775 27.0484 32.0262 26.9462 32.0323C26.838 32.0388 26.7331 31.9964 26.6534 31.9098C23.7046 28.6955 20.7204 25.4811 17.8831 22.1588L17.8841 22.1579C17.7689 22.0238 17.8074 21.8563 17.8958 21.7658C17.9402 21.7203 18.0053 21.6848 18.0826 21.6802ZM18.1583 21.9053C18.0766 21.8247 17.962 21.945 18.0346 22.029C20.8691 25.3479 23.8499 28.559 26.8001 31.7747C26.9544 31.9428 27.2006 31.7168 27.0931 31.542L27.0667 31.5081C24.0882 28.3219 21.2492 24.9825 18.1583 21.9053Z" fill="#1E5736"/>
<path d="M47.636 10.1342C46.4174 9.93906 45.1499 9.99581 43.9188 9.97539C42.7671 9.9561 41.6154 9.93568 40.4625 9.93001C38.3554 9.92093 36.2483 9.91294 34.1412 9.90386C30.0949 9.88684 26.0475 9.88686 22.0013 9.89366C19.295 9.8982 16.5899 9.94812 13.8848 10.031C13.5841 10.04 13.583 10.4894 13.8848 10.4985C22.4574 10.7787 31.0413 10.6766 39.6172 10.6618C40.9142 10.6596 42.2111 10.6482 43.508 10.6289C44.873 10.6085 46.2846 10.6857 47.636 10.4724C47.804 10.4463 47.804 10.1603 47.636 10.1342Z" fill="#1E5736"/>
<path d="M34.1423 9.70456C35.1958 9.7091 36.2497 9.71294 37.3031 9.71721C38.3564 9.72148 39.4097 9.72629 40.463 9.73083C41.6171 9.73651 42.7713 9.75727 43.9224 9.77655C45.1366 9.79668 46.4308 9.73894 47.6679 9.93707C47.8844 9.97088 47.9606 10.1681 47.9608 10.3029C47.9608 10.4208 47.9018 10.5869 47.7419 10.6492L47.667 10.6696C46.297 10.8859 44.8567 10.8081 43.5109 10.8282C42.2132 10.8475 40.9154 10.859 39.6176 10.8613C31.5803 10.8751 23.5291 10.9653 15.4869 10.7455L13.8788 10.6978C13.7499 10.6939 13.6401 10.6403 13.5645 10.5529C13.492 10.469 13.4594 10.364 13.4595 10.2649C13.4596 10.1657 13.492 10.0598 13.5645 9.97599C13.64 9.88876 13.75 9.83591 13.8788 9.83201L15.9091 9.77558C17.9392 9.72635 19.9699 9.69824 22.0011 9.69483C26.0475 9.68803 30.0956 9.68754 34.1423 9.70456ZM22.0013 9.89366C19.295 9.8982 16.5899 9.94812 13.8848 10.031L13.8321 10.0373C13.5852 10.094 13.602 10.4897 13.8848 10.4985C20.3142 10.7087 26.75 10.7041 33.1841 10.6823L39.6172 10.6618C40.2655 10.6607 40.9141 10.6577 41.5623 10.6521L43.508 10.6289C44.873 10.6085 46.2846 10.6857 47.636 10.4724C47.783 10.4495 47.8015 10.2276 47.6913 10.155L47.636 10.1342C46.4174 9.93906 45.1499 9.99581 43.9188 9.97539C43.3429 9.96574 42.7668 9.956 42.1908 9.94778L40.4625 9.93001L34.1412 9.90386C30.0949 9.88684 26.0475 9.88686 22.0013 9.89366Z" fill="#1E5736"/>
<path d="M15.0701 20.7151C14.3473 20.95 13.7006 21.5763 13.1196 22.054C12.5387 22.5317 11.9271 23.0469 11.3348 23.5484C10.0809 24.6082 8.81806 25.6748 7.66295 26.8424C7.48027 27.0274 7.71742 27.3553 7.94663 27.21C9.31051 26.342 10.5485 25.2857 11.7592 24.2179C12.3367 23.7084 12.9131 23.199 13.4963 22.6963C14.0796 22.1936 14.8716 21.6535 15.2676 20.9727C15.3425 20.8445 15.2177 20.6663 15.069 20.7151H15.0701Z" fill="#1E5736"/>
<path d="M15.0072 20.5259C15.1788 20.4698 15.3311 20.5503 15.4119 20.6592C15.4904 20.765 15.5247 20.9273 15.4402 21.0727C15.2261 21.4408 14.9097 21.7628 14.584 22.0504C14.4205 22.1948 14.2513 22.3329 14.0889 22.4648C13.9254 22.5976 13.7697 22.7239 13.6268 22.8472C13.0446 23.3489 12.469 23.858 11.8912 24.3677C10.6801 25.4358 9.43146 26.5006 8.05327 27.3778C7.95071 27.4427 7.83625 27.4603 7.73028 27.4332C7.6287 27.4072 7.54666 27.344 7.49096 27.2698C7.38218 27.1245 7.34397 26.8821 7.52112 26.7026C8.39291 25.8214 9.3255 24.9979 10.2655 24.1946L11.2063 23.3959C11.7986 22.8943 12.4115 22.3791 12.9934 21.9006C13.2738 21.67 13.5934 21.3832 13.9215 21.1349C14.2528 20.8843 14.6156 20.6535 15.0072 20.5259ZM15.0701 20.7151C14.3473 20.95 13.7006 21.5763 13.1196 22.054L12.2317 22.7927C11.9321 23.0439 11.6309 23.2977 11.3348 23.5484C10.0809 24.6082 8.81806 25.6748 7.66295 26.8424L7.63397 26.8787C7.51837 27.054 7.70348 27.3091 7.90345 27.2318L7.94663 27.21C9.31051 26.342 10.5485 25.2857 11.7592 24.2179L13.4963 22.6963C14.0796 22.1936 14.8716 21.6535 15.2676 20.9727C15.342 20.8447 15.2184 20.667 15.0701 20.7151Z" fill="#1E5736"/>
<path d="M29.4247 42.2344C30.6354 41.1406 31.7042 39.889 32.8991 38.7714C34.061 37.6843 35.1912 36.5656 36.3134 35.4377C38.4625 33.2761 40.6456 31.1395 42.7436 28.9269C44.7997 26.7596 46.7229 24.4721 48.7835 22.3071C50.8691 20.1172 52.9694 17.9397 55.0765 15.7691C57.4877 13.2841 59.9681 10.848 62.2613 8.2518C62.4462 8.04189 62.1581 7.74911 61.9527 7.94314C59.6878 10.0843 57.5694 12.3832 55.4123 14.631C53.3381 16.7925 51.2515 18.9417 49.1682 21.0953C47.0929 23.241 44.9267 25.28 42.7935 27.3667C40.6603 29.4534 38.5521 31.8237 36.4472 34.059C35.2626 35.3174 34.0678 36.5712 32.932 37.8727C32.351 38.5388 31.7803 39.215 31.1789 39.8629C30.5151 40.5767 29.7844 41.2166 29.1546 41.9621C28.9969 42.1493 29.2409 42.4001 29.4258 42.2333L29.4247 42.2344Z" fill="#1E5736"/>
<path d="M62.1265 7.68113C62.2338 7.6881 62.3277 7.73786 62.395 7.80565C62.5137 7.92535 62.5689 8.12738 62.465 8.30764L62.4105 8.38353C60.1132 10.9843 57.6259 13.4272 55.2192 15.9076C53.1124 18.0779 51.0127 20.2549 48.9278 22.4442C47.9 23.5241 46.9057 24.6352 45.91 25.749C44.915 26.8619 43.9186 27.9784 42.8883 29.0645C40.7882 31.2792 38.6012 33.4189 36.4548 35.5777C35.3321 36.7061 34.1997 37.8272 33.0352 38.9166C32.4424 39.4711 31.8804 40.0596 31.3113 40.6502C30.7437 41.2392 30.1692 41.8298 29.5582 42.3819C29.4752 42.4564 29.3738 42.4936 29.2703 42.4869C29.17 42.4805 29.083 42.4337 29.0202 42.3702C28.8929 42.2411 28.8493 42.0153 29.0027 41.8332C29.3234 41.4536 29.6686 41.102 30.0135 40.7591C30.3602 40.4145 30.7047 40.08 31.0331 39.7269C31.6316 39.0822 32.1986 38.4106 32.7823 37.7414C33.921 36.4365 35.119 35.1796 36.3021 33.9229C38.4014 31.6934 40.5168 29.3142 42.6538 27.2238C44.7907 25.1335 46.9522 23.0998 49.025 20.9567C51.1087 18.8027 53.195 16.6542 55.2688 14.4931C57.4221 12.2492 59.5467 9.94341 61.8161 7.79787C61.9052 7.71391 62.0151 7.67389 62.1265 7.68113ZM62.2613 8.2518C62.4462 8.04189 62.1581 7.74911 61.9527 7.94314C59.6878 10.0843 57.5694 12.3832 55.4123 14.631L52.2938 17.8659C51.2525 18.9426 50.2098 20.0185 49.1682 21.0953C47.0929 23.241 44.9267 25.28 42.7935 27.3667L41.9942 28.1617C40.1329 30.0438 38.2889 32.1032 36.4472 34.059L34.6716 35.9494C34.0827 36.5829 33.5 37.2219 32.932 37.8727L32.0633 38.8747C31.7728 39.2081 31.4796 39.539 31.1789 39.8629L30.6712 40.3875C30.1561 40.9035 29.6269 41.403 29.1546 41.9621C28.9969 42.1493 29.2409 42.4001 29.4258 42.2333L29.4247 42.2344C30.484 41.2773 31.4348 40.199 32.4564 39.1958L32.8991 38.7714C33.7706 37.956 34.6244 37.1227 35.4703 36.2811L36.3134 35.4377C38.4625 33.2761 40.6456 31.1395 42.7436 28.9269C44.5427 27.0305 46.2404 25.0421 48.0172 23.1242L48.7835 22.3071C49.8264 21.2121 50.873 20.1199 51.9222 19.0304L55.0765 15.7691C57.1863 13.5948 59.349 11.4577 61.3929 9.21824L62.2613 8.2518Z" fill="#1E5736"/>
<path d="M14.9811 20.9159C15.4418 21.5445 16.0284 22.0585 16.5197 22.661C16.9611 23.2023 17.3809 23.7616 17.8439 24.2859C18.6711 25.222 19.5187 26.1365 20.3742 27.0466C22.2703 29.0617 24.1051 31.1949 26.2156 32.9946C26.4436 33.1886 26.8498 32.9356 26.6581 32.653C25.1115 30.3655 23.0895 28.4332 21.1322 26.5065C20.2676 25.6555 19.4007 24.8067 18.5349 23.9568C18.0232 23.4541 17.4853 22.9821 16.9679 22.4863C16.3733 21.9144 15.8877 21.2438 15.2818 20.6855C15.1309 20.5459 14.8461 20.7343 14.9811 20.917V20.9159Z" fill="#1E5736"/>
<path d="M14.9282 20.5067C15.0564 20.4257 15.2604 20.3948 15.4166 20.5388C15.7283 20.826 16.0076 21.141 16.2786 21.4494C16.5516 21.7602 16.8164 22.0635 17.1065 22.3425C17.61 22.825 18.1672 23.316 18.6747 23.8144C19.5402 24.664 20.4075 25.5131 21.2722 26.3643C23.2247 28.2861 25.2623 30.2337 26.8223 32.5409C26.8984 32.653 26.9247 32.7791 26.8953 32.8999C26.8671 33.016 26.7933 33.1061 26.7085 33.1655C26.5452 33.2799 26.2846 33.3142 26.0869 33.146C23.9655 31.3371 22.1169 29.1896 20.2293 27.1834C19.3732 26.2728 18.5242 25.3559 17.695 24.4176C17.2291 23.89 16.7993 23.3195 16.3651 22.7871C16.1251 22.4927 15.862 22.2201 15.5937 21.9349C15.4548 21.7872 15.316 21.6359 15.1802 21.4796V21.5214L14.8212 21.035C14.755 20.9453 14.7309 20.839 14.756 20.7363C14.7623 20.7107 14.7713 20.6866 14.7823 20.6643V20.3073L14.9282 20.5067ZM15.2818 20.6855C15.1309 20.5459 14.8461 20.7343 14.9811 20.917V20.9159C15.4418 21.5445 16.0284 22.0585 16.5197 22.661C16.9611 23.2023 17.3809 23.7616 17.8439 24.2859C18.6711 25.222 19.5187 26.1365 20.3742 27.0466C22.2703 29.0617 24.1051 31.1949 26.2156 32.9946C26.4436 33.1886 26.8498 32.9356 26.6581 32.653C25.1115 30.3655 23.0895 28.4332 21.1322 26.5065C20.2676 25.6555 19.4007 24.8067 18.5349 23.9568C18.2791 23.7056 18.0164 23.4618 17.7534 23.219L16.9679 22.4863C16.4477 21.9859 16.0111 21.4099 15.5042 20.8997L15.2818 20.6855Z" fill="#1E5736"/>
<path d="M26.603 32.9833C34.2916 25.0836 42.0165 17.2169 49.6654 9.27749C51.7986 7.06372 53.9307 4.84995 56.0639 2.63732C56.292 2.40017 55.9334 2.04045 55.7031 2.27647C48.0496 10.0922 40.4382 17.9476 32.8245 25.8019C30.6254 28.0701 28.4264 30.3395 26.2274 32.6077C25.9891 32.8539 26.3647 33.2295 26.603 32.9833Z" fill="#1E5736"/>
<path d="M55.9021 2.00096C56.0195 2.00893 56.123 2.06517 56.1969 2.13911C56.2705 2.21308 56.3256 2.31582 56.335 2.43193C56.3447 2.5532 56.3032 2.67583 56.2076 2.77535C54.0744 4.98796 51.9424 7.20223 49.8091 9.41606C42.16 17.3556 34.4341 25.2231 26.7466 33.1216C26.6478 33.2237 26.5221 33.2703 26.3964 33.2617C26.2765 33.2534 26.1714 33.1962 26.0958 33.1206C26.0201 33.0449 25.9635 32.94 25.9537 32.821C25.9436 32.6968 25.9854 32.5708 26.0841 32.4688C27.1836 31.3347 28.2835 30.2002 29.383 29.0658C30.4825 27.9315 31.5816 26.7968 32.681 25.6627C40.2946 17.8086 47.9068 9.95324 55.5606 2.13716L55.6375 2.07295C55.7183 2.01885 55.8099 1.99473 55.9021 2.00096ZM56.0639 2.63732C56.292 2.40017 55.9334 2.04045 55.7031 2.27647C48.0496 10.0922 40.4382 17.9476 32.8245 25.8019C30.6254 28.0701 28.4264 30.3395 26.2274 32.6077L26.1901 32.6556C26.0361 32.8987 26.3796 33.2136 26.603 32.9833C33.3305 26.0711 40.0863 19.1845 46.7942 12.2519L49.6654 9.27749C51.7986 7.06372 53.9307 4.84995 56.0639 2.63732Z" fill="#1E5736"/>
<path d="M30.4977 44.3913C39.1508 35.29 47.8311 26.2148 56.4547 17.0851C58.8432 14.5559 61.2317 12.0278 63.6202 9.49864C63.7892 9.31936 63.5204 9.04929 63.349 9.22743C54.7447 18.2414 46.1711 27.2837 37.5963 36.326C35.1363 38.9199 32.6762 41.5149 30.2151 44.1088C30.0381 44.2948 30.3195 44.5774 30.4977 44.3913Z" fill="#1E5736"/>
<path d="M63.5005 8.97063C63.6026 8.97734 63.691 9.0257 63.7535 9.08834C63.816 9.15107 63.8635 9.23837 63.8721 9.33836C63.8789 9.41729 63.8603 9.49694 63.8167 9.56796L63.7651 9.63508C62.5709 10.8996 61.3763 12.164 60.1821 13.4282C58.9878 14.6926 57.7933 15.9578 56.5991 17.2224C47.9754 26.3521 39.2947 35.428 30.6423 44.5285L30.6414 44.5294C30.5579 44.6165 30.4497 44.6583 30.3398 44.651C30.2358 44.644 30.1458 44.5943 30.082 44.5304C30.018 44.4663 29.9701 44.3767 29.9614 44.2745C29.9522 44.1673 29.9872 44.0583 30.0703 43.971C32.5313 41.3773 34.9915 38.7829 37.4514 36.1891C46.026 27.147 54.6003 18.1044 63.2048 9.09029L63.2057 9.08931C63.2874 9.00445 63.3927 8.96354 63.5005 8.97063ZM63.6202 9.49864C63.7892 9.31936 63.5204 9.04929 63.349 9.22743C54.7447 18.2414 46.1711 27.2837 37.5963 36.326L30.2151 44.1088C30.0381 44.2948 30.3195 44.5774 30.4977 44.3913C36.9875 37.5653 43.4928 30.754 49.9778 23.9234L56.4547 17.0851L63.6202 9.49864Z" fill="#1E5736"/>
<path d="M7.5928 27.243C9.04519 28.9348 10.4964 30.6255 11.9488 32.3173C14.2658 35.0156 16.5715 37.7241 18.9237 40.3917C19.4672 41.0079 20.0176 41.6183 20.5543 42.2401C20.8232 42.5522 21.2725 42.0982 21.0059 41.7885C19.549 40.1001 18.1329 38.3765 16.6714 36.6926C14.3407 34.0069 12.0101 31.321 9.67944 28.6352C9.14047 28.0146 8.60149 27.3928 8.06252 26.7721C7.78112 26.4476 7.3148 26.9196 7.5928 27.2419V27.243Z" fill="#1E5736"/>
<path d="M7.8217 26.4645C7.96611 26.4578 8.1056 26.518 8.21279 26.6416C8.48231 26.952 8.75175 27.263 9.02123 27.5736C9.29065 27.8841 9.5603 28.1944 9.82968 28.5046L13.3261 32.5332C14.4913 33.876 15.6564 35.219 16.8216 36.5618C18.2755 38.2369 19.7117 39.984 21.1566 41.6586C21.3742 41.9113 21.2894 42.2204 21.1226 42.3882C21.038 42.4732 20.9195 42.5376 20.785 42.5439C20.6437 42.5504 20.5077 42.4912 20.4036 42.3707C19.8677 41.7498 19.3196 41.1417 18.7741 40.5232C16.4209 37.8545 14.1139 35.1448 11.7978 32.4476C11.0717 31.6018 10.3453 30.7559 9.61954 29.9104C8.89366 29.0648 8.16749 28.219 7.44132 27.3732L7.39365 27.3167V27.3031C7.23644 27.0589 7.31952 26.782 7.47634 26.6241C7.56307 26.5368 7.6842 26.471 7.8217 26.4645ZM8.06252 26.7721C7.78112 26.4476 7.3148 26.9196 7.5928 27.2419C9.04513 28.9336 10.4965 30.6256 11.9488 32.3173C14.2658 35.0156 16.5715 37.7241 18.9237 40.3917C19.4672 41.0079 20.0176 41.6183 20.5543 42.2401C20.8064 42.5323 21.2168 42.1521 21.0477 41.8483L21.0059 41.7885C19.9132 40.5222 18.8435 39.236 17.7604 37.9617L16.6714 36.6926L8.06252 26.7721Z" fill="#1E5736"/>
<path d="M13.7961 10.1965C12.2768 15.0904 10.9084 20.0502 9.59327 25.0031L10.2956 25.1971C11.5404 20.2589 12.944 15.3616 14.1887 10.4235C14.2999 9.98322 13.6191 9.79487 13.5079 10.2363C12.2564 15.1721 10.846 20.0672 9.59327 25.0042C9.47867 25.458 10.1742 25.6509 10.2956 25.1982C11.6175 20.2464 13.1811 15.3389 14.2954 10.3361C14.368 10.0116 13.8949 9.87883 13.7961 10.1988V10.1965Z" fill="#1E5736"/>
<path d="M13.5907 9.83778C13.7183 9.77632 13.8607 9.77342 13.9847 9.80762C13.994 9.8102 14.0026 9.81527 14.0119 9.81832C14.0639 9.81577 14.1156 9.82054 14.1637 9.83389C14.3685 9.89094 14.5531 10.0959 14.4896 10.3797C13.3744 15.3867 11.8066 20.3114 10.4882 25.2497L10.4386 25.4433L10.4007 25.4326C10.3487 25.5065 10.2828 25.5653 10.2042 25.6029C10.0743 25.6648 9.92892 25.6681 9.80238 25.633C9.67575 25.5979 9.55336 25.5201 9.47258 25.4015C9.42308 25.3287 9.39535 25.244 9.38697 25.1525L9.35 25.1427L9.40059 24.952C9.4067 24.9291 9.41297 24.906 9.41908 24.883C10.0405 22.4371 10.6999 20.0016 11.3589 17.5681C12.0247 15.11 12.6891 12.6532 13.3144 10.187C13.3561 10.0221 13.4578 9.90195 13.5907 9.83778ZM13.9895 10.0197C13.8094 9.93957 13.57 9.99002 13.5079 10.2363C12.2564 15.1721 10.846 20.0672 9.59327 25.0042C9.47867 25.458 10.1742 25.6509 10.2956 25.1982C11.6175 20.2464 13.1811 15.3389 14.2954 10.3361C14.3433 10.1215 14.1527 9.99107 13.9895 10.0197Z" fill="#1E5736"/>
<path d="M7.97405 31.329C7.87987 31.6104 7.78456 31.8906 7.69038 32.172C7.60187 32.4352 7.99905 32.5306 8.09777 32.2844C8.16245 32.1017 8.24865 31.9281 8.35418 31.7647L7.87765 31.2881C7.24903 32.7723 6.83371 34.3722 6.37757 35.9165C5.92143 37.4608 5.44147 39.1322 4.97739 40.7411C4.52124 42.324 4.07416 43.9092 3.62596 45.4943C3.40016 46.2909 3.1755 47.0863 2.94969 47.8829C2.74545 48.6034 2.26432 49.5701 2.49466 50.3122C2.58543 50.605 2.92473 50.6798 3.14826 50.4847C3.69405 50.007 3.77571 49.0675 3.9652 48.3969C4.19101 47.6003 4.41572 46.8038 4.64153 46.0084C5.10107 44.3869 5.56174 42.7666 6.01334 41.1428C6.45133 39.5645 6.8927 37.9884 7.32161 36.4078C7.75052 34.8272 8.26569 33.191 8.51419 31.557C8.60269 30.9749 7.72105 31.0135 7.84246 31.557C7.88218 31.7352 7.74598 32.0086 7.69038 32.1732L8.09777 32.2855C8.1772 32.0007 8.25658 31.7148 8.33601 31.43C8.40068 31.1951 8.05121 31.1031 7.97405 31.3301V31.329Z" fill="#1E5736"/>
<path d="M8.1608 30.9353C8.30311 30.9318 8.45882 30.98 8.57232 31.0959C8.69066 31.2169 8.74146 31.3897 8.71144 31.5872C8.46067 33.2359 7.9398 34.8905 7.51386 36.4602C7.08477 38.0414 6.64316 39.6184 6.20537 41.196C5.75365 42.8202 5.29307 44.4412 4.83364 46.0623C4.60783 46.8577 4.38246 47.6546 4.15654 48.4516C4.11104 48.6127 4.07238 48.7909 4.02909 48.9828C3.98633 49.1723 3.93944 49.3732 3.88122 49.5694C3.78027 49.9095 3.63793 50.2585 3.39187 50.5257L3.27902 50.6347C2.95881 50.9141 2.44222 50.8161 2.30422 50.371C2.17145 49.943 2.24824 49.4687 2.36746 49.0363C2.42783 48.8173 2.50166 48.6003 2.57176 48.3971C2.64266 48.1916 2.70841 48.0023 2.75757 47.829L3.43468 45.4396C3.88274 43.855 4.32974 42.2695 4.78597 40.6863C5.24995 39.0777 5.73051 37.405 6.18688 35.8599C6.62907 34.3629 7.03974 32.7887 7.64811 31.3225C7.65924 31.2788 7.67589 31.2374 7.69773 31.199L7.8096 30.9383L7.88549 31.0151C7.97156 30.9651 8.06748 30.9377 8.1608 30.9353ZM8.51419 31.557C8.58055 31.1206 8.10154 31.0331 7.90883 31.2457L7.87765 31.2881C7.8772 31.2892 7.87621 31.2904 7.87576 31.2914C7.85919 31.3188 7.84618 31.3494 7.83879 31.3838C7.23241 32.841 6.82396 34.4052 6.37757 35.9165C5.92143 37.4608 5.44147 39.1322 4.97739 40.7411L3.62596 45.4943C3.40016 46.2909 3.1755 47.0863 2.94969 47.8829C2.74545 48.6034 2.26432 49.5701 2.49466 50.3122C2.57432 50.5681 2.84427 50.6578 3.06013 50.5452L3.14826 50.4847C3.69405 50.007 3.77571 49.0675 3.9652 48.3969L4.64153 46.0084L6.01334 41.1428C6.45133 39.5645 6.8927 37.9884 7.32161 36.4078C7.75052 34.8272 8.26569 33.191 8.51419 31.557Z" fill="#1E5736"/>
<path d="M47.6161 29.9116C47.0385 32.038 46.4837 34.1689 45.9469 36.3055C45.6814 37.3631 45.4159 38.4194 45.1606 39.4781C45.0369 39.991 44.9132 40.5039 44.7895 41.0167C44.6636 41.5376 44.4571 42.0959 44.5172 42.6348C44.5365 42.805 44.743 42.8776 44.844 42.7233C45.1413 42.2706 45.2094 41.6862 45.3319 41.1665L45.6961 39.6256C45.9469 38.5647 46.1875 37.5015 46.4292 36.4372C46.9171 34.2847 47.3857 32.131 47.8316 29.9695C47.86 29.8299 47.6546 29.7698 47.6161 29.9105V29.9116Z" fill="#1E5736"/>
<path d="M47.5817 29.662C47.6563 29.6251 47.7368 29.6246 47.8035 29.6435C47.9198 29.6765 48.0335 29.7856 48.0341 29.9402L48.0273 30.0093C47.581 32.1722 47.1116 34.3281 46.6234 36.4817C46.3818 37.5456 46.1409 38.6098 45.8899 39.6717L45.5261 41.2127C45.4703 41.4493 45.4144 41.757 45.3461 42.0201C45.2922 42.2276 45.2241 42.4388 45.1233 42.6379L45.0104 42.8325C44.9111 42.9841 44.7426 43.0365 44.5921 42.991C44.4496 42.9478 44.3384 42.8215 44.3197 42.6573C44.2861 42.3565 44.3269 42.057 44.3888 41.7759C44.4198 41.635 44.4567 41.4957 44.4929 41.3615C44.5294 41.2259 44.5653 41.0964 44.596 40.9694C44.6578 40.7132 44.72 40.4571 44.7818 40.2009C44.8437 39.9445 44.9048 39.6878 44.9667 39.4314C45.2222 38.3716 45.4882 37.3143 45.7537 36.2569C46.2892 34.1251 46.843 31.9989 47.4192 29.877L47.4241 29.8575C47.4477 29.7717 47.5028 29.7009 47.5817 29.662ZM47.8316 29.9695C47.86 29.8299 47.6546 29.7698 47.6161 29.9105V29.9116C47.0385 32.038 46.4837 34.1689 45.9469 36.3055L45.5504 37.8913C45.4189 38.42 45.2883 38.9487 45.1606 39.4781C45.0369 39.991 44.9132 40.5039 44.7895 41.0167C44.6636 41.5376 44.4571 42.0959 44.5172 42.6348C44.5342 42.7837 44.6948 42.8584 44.8022 42.7712L44.844 42.7233C45.0669 42.3839 45.1611 41.9705 45.2459 41.5658L45.3319 41.1665L45.6961 39.6256C45.9469 38.5647 46.1875 37.5015 46.4292 36.4372C46.7951 34.8228 47.1504 33.2077 47.4932 31.5892L47.8316 29.9695Z" fill="#1E5736"/>
<path d="M5.08127 53.4393C4.73633 52.8583 4.39142 52.2774 4.04421 51.6987C3.7299 51.1745 3.46665 50.572 3.05136 50.1226C2.85052 49.9048 2.57703 50.1816 2.67461 50.4131C2.9163 50.9839 3.38493 51.499 3.73555 52.0096C4.08617 52.5202 4.46514 53.0615 4.83051 53.5857C4.93603 53.7366 5.17661 53.6027 5.08016 53.4393H5.08127Z" fill="#1E5736"/>
<path d="M2.8984 49.8441C3.0125 49.8465 3.11574 49.8999 3.19707 49.9881C3.41968 50.2289 3.59886 50.5062 3.7584 50.7829C3.92535 51.0724 4.05531 51.3304 4.21467 51.5962C4.56216 52.1753 4.90781 52.7567 5.25271 53.3376L5.43171 53.6382H5.27508C5.24414 53.7125 5.19062 53.769 5.13013 53.8036C4.99603 53.8803 4.78922 53.8742 4.66705 53.6995C4.30211 53.1759 3.92269 52.6338 3.57162 52.1225C3.39629 51.8672 3.2032 51.6281 3.0025 51.351C2.80875 51.0835 2.62054 50.7974 2.49077 50.491C2.404 50.2846 2.48421 50.0678 2.62016 49.9491C2.69094 49.8874 2.78775 49.8418 2.8984 49.8441ZM3.05136 50.1226C2.85052 49.9048 2.57703 50.1816 2.67461 50.4131C2.9163 50.9839 3.38493 51.499 3.73555 52.0096C4.08617 52.5202 4.46514 53.0615 4.83051 53.5857C4.93593 53.7364 5.17696 53.6025 5.08127 53.4393L4.04421 51.6987C3.7299 51.1745 3.46665 50.572 3.05136 50.1226Z" fill="#1E5736"/>
<path d="M18.1717 21.8419C17.6293 21.6036 17.0846 21.3676 16.5411 21.1316C16.1917 20.9795 15.4428 20.4519 15.0559 20.6312C14.9288 20.6902 14.9231 20.8502 14.9696 20.9591C15.04 21.1248 15.2283 21.1577 15.3815 21.2088C15.7287 21.3245 16.077 21.4346 16.4231 21.5537C16.9678 21.7398 17.5136 21.9247 18.0594 22.1074C18.2126 22.1585 18.3226 21.9089 18.1706 21.843L18.1717 21.8419Z" fill="#1E5736"/>
<path d="M15.0888 20.4116C15.2074 20.3852 15.3301 20.3945 15.442 20.4174C15.5935 20.4484 15.75 20.5091 15.8953 20.576C16.0417 20.6433 16.1858 20.7212 16.3107 20.789C16.4399 20.8591 16.5437 20.9149 16.6211 20.9486C17.1642 21.1844 17.7089 21.4213 18.2516 21.6597L18.5191 21.7765L18.4306 21.864L18.4316 21.867C18.4542 21.9502 18.4402 22.0323 18.4121 22.0975C18.3598 22.219 18.2062 22.3657 17.9967 22.296L16.3584 21.7424C16.0128 21.6235 15.6703 21.5153 15.3184 21.398C15.2637 21.3798 15.1486 21.3494 15.0597 21.3076C14.9844 21.2721 14.9027 21.2185 14.8408 21.1334L14.7863 21.0371C14.7498 20.9515 14.7325 20.8442 14.7522 20.7394C14.773 20.6293 14.8385 20.5125 14.9721 20.4505L15.0888 20.4116ZM16.5411 21.1316C16.1917 20.9795 15.4428 20.4519 15.0559 20.6312C14.9288 20.6902 14.9231 20.8502 14.9696 20.9591C15.04 21.1248 15.2283 21.1577 15.3815 21.2088C15.7287 21.3245 16.077 21.4346 16.4231 21.5537C16.9678 21.7398 17.5136 21.9247 18.0594 22.1074C18.2126 22.1585 18.3226 21.9089 18.1706 21.843L18.1717 21.8419L16.5411 21.1316Z" fill="#1E5736"/>
<path d="M45.1188 50.5552C45.6521 51.8419 46.2364 53.1297 46.8957 54.3575C47.0682 54.6797 47.53 54.3972 47.3802 54.0738C46.8015 52.829 46.1332 51.6025 45.4331 50.4224C45.3378 50.2613 45.0416 50.3691 45.1188 50.5552Z" fill="#1E5736"/>
<path d="M45.1382 50.1736C45.2734 50.1203 45.49 50.1303 45.6032 50.3215L45.6042 50.3205C46.3067 51.5046 46.9784 52.7378 47.5606 53.9901C47.6866 54.2622 47.5486 54.516 47.3612 54.6283C47.2665 54.6849 47.146 54.7154 47.0236 54.6896C46.8959 54.6625 46.7882 54.5786 46.7201 54.4512C46.0568 53.2161 45.4697 51.9221 44.9349 50.6318C44.8936 50.5322 44.8982 50.4269 44.9465 50.338C44.9917 50.2551 45.0661 50.202 45.1382 50.1736ZM45.4331 50.4224C45.3378 50.2613 45.0416 50.3691 45.1188 50.5552C45.6521 51.8419 46.2364 53.1297 46.8957 54.3575C47.0575 54.6588 47.4728 54.4302 47.401 54.1341L47.3802 54.0738C46.8015 52.829 46.1332 51.6025 45.4331 50.4224Z" fill="#1E5736"/>
<path d="M29.2526 42.2026C29.425 42.5578 29.5941 42.9163 29.7711 43.2692C29.9277 43.5801 30.0661 43.9273 30.2919 44.194C30.36 44.2746 30.4939 44.1883 30.4655 44.093C30.3657 43.7594 30.1478 43.4519 29.9719 43.1512C29.7734 42.8108 29.5657 42.4749 29.3626 42.1379C29.3195 42.0664 29.2174 42.1289 29.2526 42.2026Z" fill="#1E5736"/>
<path d="M29.3621 41.9118C29.4176 41.9231 29.4652 41.9521 29.5012 41.9916L29.5333 42.0354L30.1442 43.051C30.307 43.3293 30.547 43.672 30.656 44.0356L30.6569 44.0366C30.7036 44.1942 30.6113 44.3236 30.5188 44.38C30.4216 44.4391 30.2541 44.4583 30.1394 44.3226C29.8935 44.032 29.7387 43.6465 29.5936 43.3585C29.4159 43.0043 29.2442 42.6415 29.0731 42.2893C29.0046 42.1457 29.0756 42.0052 29.1762 41.9449C29.2262 41.9151 29.2922 41.8977 29.3621 41.9118ZM29.3626 42.1379C29.3195 42.0664 29.2174 42.1289 29.2526 42.2026C29.425 42.5578 29.5941 42.9163 29.7711 43.2692C29.9277 43.5801 30.0661 43.9273 30.2919 44.194C30.36 44.2746 30.4939 44.1883 30.4655 44.093C30.4156 43.9262 30.3363 43.7657 30.2474 43.6095L29.9719 43.1512C29.7734 42.8108 29.5657 42.4749 29.3626 42.1379Z" fill="#1E5736"/>
<path d="M21.8743 44.3879C21.7983 43.9703 21.5271 43.58 21.3217 43.2135C21.1164 42.847 20.928 42.4249 20.6534 42.0947C20.6046 42.0357 20.5036 42.0992 20.5263 42.1685C20.6602 42.5769 20.9166 42.9548 21.122 43.3304C21.3274 43.706 21.5078 44.1326 21.8221 44.4185C21.8471 44.4412 21.8811 44.4185 21.8755 44.3879H21.8743Z" fill="#1E5736"/>
<path d="M20.4608 41.9128C20.5453 41.8622 20.7009 41.8391 20.8071 41.9673C21.0972 42.3162 21.3033 42.7727 21.4959 43.1163C21.5899 43.284 21.72 43.4932 21.8228 43.6883C21.9047 43.844 21.9803 44.0118 22.031 44.1883H22.0417L22.0718 44.3518C22.0901 44.4513 22.0426 44.545 21.9638 44.593C21.89 44.6381 21.7974 44.636 21.7216 44.5872H21.708L21.706 44.5765C21.7007 44.5724 21.6936 44.5704 21.6885 44.5658C21.5097 44.4031 21.3731 44.2055 21.2585 44.0084C21.1487 43.8195 21.0412 43.5975 20.9472 43.4256C20.7549 43.0741 20.4787 42.6624 20.3372 42.231C20.2881 42.081 20.3799 41.9615 20.4608 41.9128ZM20.6534 42.0947C20.6046 42.0357 20.5036 42.0992 20.5263 42.1685C20.6602 42.5769 20.9166 42.9548 21.122 43.3304C21.3274 43.706 21.5078 44.1326 21.8221 44.4185C21.8471 44.4412 21.8811 44.4185 21.8755 44.3879H21.8743L21.8685 44.3664C21.8286 44.1654 21.746 43.9704 21.6467 43.7817L21.3217 43.2135C21.1215 42.8561 20.9365 42.4464 20.6728 42.1201L20.6534 42.0947Z" fill="#1E5736"/>
<path d="M4.52996 33.4848C3.75951 35.9527 3.00492 38.4252 2.26624 40.9033C1.90201 42.1242 1.55143 43.3486 1.19627 44.5718C0.841117 45.795 0.415581 47.0874 0.202261 48.3775C0.169355 48.5727 0.420129 48.6373 0.495018 48.4581C0.984067 47.2848 1.29609 46.0321 1.64444 44.8112C2.003 43.5505 2.36723 42.291 2.71785 41.027C3.40773 38.5364 4.08177 36.0412 4.73989 33.5415C4.77506 33.4065 4.57308 33.352 4.53223 33.4848H4.52996Z" fill="#1E5736"/>
<path d="M4.50126 33.2383C4.57324 33.2041 4.6513 33.2029 4.71724 33.2208C4.78297 33.2387 4.84965 33.28 4.8943 33.3472C4.94146 33.4185 4.95454 33.5056 4.93224 33.5914C4.27392 36.0919 3.59977 38.5891 2.90967 41.0804L1.83564 44.8658C1.53314 45.9261 1.25378 47.031 0.856951 48.086L0.678919 48.5345C0.601779 48.7191 0.417765 48.7935 0.2567 48.7504C0.0921296 48.7064 -0.0280465 48.546 0.00570356 48.3447L0.096179 47.8554C0.328087 46.7137 0.696578 45.5782 1.00482 44.5166C1.35971 43.2943 1.71045 42.0678 2.07496 40.846C2.81386 38.3671 3.5691 35.8937 4.33977 33.4251L4.38355 33.2859H4.43219C4.4531 33.2673 4.47563 33.2504 4.50126 33.2383ZM4.73989 33.5415C4.77063 33.4235 4.62042 33.3672 4.55477 33.4435L4.53223 33.4848H4.52996C3.75951 35.9527 3.00492 38.4252 2.26624 40.9033L1.19627 44.5718L0.92116 45.5011C0.641652 46.4411 0.362248 47.4099 0.202261 48.3775L0.20222 48.444C0.225121 48.565 0.376224 48.6045 0.460027 48.514L0.495018 48.4581C0.73941 47.8717 0.939935 47.2651 1.12254 46.653L2.71785 41.027C3.06281 39.7816 3.40347 38.5349 3.74049 37.2873L4.73989 33.5415Z" fill="#1E5736"/>
</svg>
