<svg width="64" height="64" viewBox="0 0 64 64" fill="none" xmlns="http://www.w3.org/2000/svg">
<path d="M0.847656 18.5635L2.88601 21.8951L15.3855 33.8472L18.2541 26.9416L38.2277 27.0394L42.672 15.3726L40.2585 12.4345L24.7085 12.6148L26.0519 9.35719L23.6751 6.34131L0.847656 18.5635Z" fill="#CFF6E0"/>
<path d="M49.3559 29.2588L61.3496 40.7281L63.8717 44.4117L41.4433 56.8935L38.6942 53.1022L39.5 50.7989L23.9487 50.2355L21.3955 46.8149L26.6326 35.6817L46.6256 35.6512L49.3559 29.2588Z" fill="#CFF6E0"/>
<path d="M23.6595 6.71914C20.7561 8.42364 17.7594 9.97937 14.7966 11.5787C11.8405 13.1744 8.85374 14.709 5.85781 16.2295C4.16693 17.0875 2.49112 18.0396 0.73226 18.7518C0.536699 18.831 0.392428 18.5425 0.565062 18.4258C1.94446 17.4896 3.45057 16.7278 4.90543 15.9151C6.36462 15.0995 7.81331 14.2622 9.28552 13.4715C12.2706 11.8668 15.262 10.2739 18.2698 8.71348C19.9579 7.83835 21.6345 6.93908 23.3466 6.11183C23.6962 5.94285 23.9948 6.52163 23.6583 6.71954L23.6595 6.71914Z" fill="#1E5736"/>
<path d="M0.414829 18.2022C0.187993 18.3555 0.185593 18.6186 0.2693 18.7841C0.354441 18.9521 0.573248 19.1072 0.833605 19.0018C2.60655 18.2839 4.30483 17.3205 5.98028 16.4704C8.97678 14.9496 11.966 13.4136 14.9251 11.8164C17.8827 10.2198 20.8875 8.65959 23.7965 6.95185L23.7959 6.95045C24.13 6.75296 24.1154 6.37936 24 6.15481C23.9396 6.03725 23.8398 5.92642 23.7048 5.86323C23.5621 5.79657 23.3921 5.79009 23.2289 5.86897C21.5125 6.69833 19.8291 7.60069 18.1458 8.4734C15.1363 10.0347 12.1434 11.6291 9.15773 13.2341C7.68327 14.026 6.22852 14.8665 4.77426 15.6793C3.33288 16.4844 1.8069 17.2575 0.414829 18.2022ZM0.565062 18.4258C1.94446 17.4896 3.45057 16.7278 4.90543 15.9151L7.09105 14.6839C7.81947 14.2739 8.54959 13.8667 9.28552 13.4715C12.2706 11.8668 15.262 10.2739 18.2698 8.71348L20.7988 7.39498C21.6431 6.95731 22.4905 6.52551 23.3466 6.11183L23.4111 6.08872C23.7307 6.0134 23.9744 6.53331 23.6595 6.71914C22.2077 7.57145 20.7325 8.38665 19.2499 9.18862L14.7966 11.5787C12.5796 12.7754 10.3452 13.9374 8.10278 15.0853L5.85781 16.2295C4.16693 17.0875 2.49112 18.0396 0.73226 18.7518C0.536699 18.831 0.392428 18.5425 0.565062 18.4258Z" fill="#1E5736"/>
<path d="M16.2017 23.8585C15.1674 26.1246 14.1975 28.4388 13.0396 30.6438C12.9553 30.804 12.7291 30.6917 12.7892 30.5261C13.637 28.1811 14.6853 25.8979 15.6605 23.6039C15.8111 23.2503 16.362 23.5074 16.2017 23.8585Z" fill="#1E5736"/>
<path d="M15.4118 23.4977C14.4407 25.782 13.387 28.08 12.5358 30.4342L12.5138 30.5182C12.4836 30.7123 12.5956 30.8789 12.743 30.9501C12.8259 30.9901 12.9287 31.0054 13.0319 30.9753C13.1399 30.9436 13.2267 30.869 13.2789 30.7698C14.4415 28.556 15.4174 26.2263 16.447 23.9706C16.5194 23.812 16.5155 23.6475 16.4505 23.5072C16.3888 23.3741 16.2798 23.2776 16.1625 23.2226C16.0452 23.1676 15.8997 23.1446 15.7568 23.1856C15.6057 23.2289 15.4803 23.3372 15.4118 23.4977ZM15.6605 23.6039C15.8111 23.2503 16.362 23.5074 16.2017 23.8585C15.2968 25.8413 14.4414 27.8612 13.466 29.8123L13.0396 30.6438C12.9656 30.7836 12.7835 30.7153 12.7796 30.585L12.7892 30.5261C13.4251 28.7673 14.1741 27.0434 14.9201 25.3236L15.6605 23.6039Z" fill="#1E5736"/>
<path d="M18.5056 26.966C17.4712 29.2321 16.5013 31.5463 15.3434 33.7513C15.2591 33.9115 15.0329 33.7992 15.093 33.6335C15.9408 31.2886 16.9892 29.0053 17.9644 26.7114C18.1149 26.3577 18.6658 26.6149 18.5056 26.966Z" fill="#1E5736"/>
<path d="M17.7157 26.6051C16.7446 28.8895 15.6908 31.1875 14.8397 33.5417L14.8176 33.6257C14.7874 33.8198 14.8994 33.9864 15.0469 34.0576C15.1298 34.0976 15.2325 34.1129 15.3357 34.0827C15.4438 34.0511 15.5306 33.9765 15.5828 33.8772C16.7453 31.6635 17.7212 29.3338 18.7508 27.0781C18.8232 26.9194 18.8193 26.7549 18.7543 26.6147C18.6926 26.4816 18.5837 26.3851 18.4663 26.33C18.349 26.2751 18.2036 26.2521 18.0606 26.293C17.9095 26.3363 17.7841 26.4446 17.7157 26.6051ZM17.9644 26.7114C18.1149 26.3577 18.6658 26.6149 18.5056 26.966C17.6006 28.9487 16.7453 30.9687 15.7698 32.9197L15.3434 33.7513C15.2694 33.891 15.0874 33.8228 15.0834 33.6925L15.093 33.6335C15.7289 31.8748 16.4779 30.1509 17.2239 28.431L17.9644 26.7114Z" fill="#1E5736"/>
<path d="M24.0651 12.6595C24.6296 11.4784 25.1782 10.287 25.806 9.13764C25.8919 8.98017 26.1196 9.08926 26.0563 9.25539C25.5934 10.4813 25.0456 11.6731 24.5148 12.871C24.3852 13.1633 23.9263 12.9484 24.0651 12.6595Z" fill="#1E5736"/>
<path d="M23.7837 12.6508C23.7575 12.7598 23.7685 12.8697 23.813 12.9676C23.8689 13.0903 23.9684 13.1782 24.074 13.2279C24.1798 13.2776 24.3121 13.2979 24.4428 13.2615C24.5814 13.2229 24.6973 13.1252 24.7616 12.9802C25.1581 12.0854 25.5683 11.186 25.9451 10.2711L26.309 9.35131C26.3966 9.12098 26.2737 8.91232 26.1026 8.83113C26.0194 8.79168 25.9173 8.77766 25.8157 8.80687C25.7096 8.83735 25.6233 8.90972 25.5695 9.00809C24.9373 10.1656 24.3838 11.3667 23.8217 12.5427L23.7837 12.6508ZM24.0651 12.6595C24.6296 11.4784 25.1782 10.287 25.806 9.13764C25.8919 8.98017 26.1196 9.08926 26.0563 9.25539C25.8248 9.8684 25.5721 10.4732 25.3109 11.0742L24.5148 12.871C24.3932 13.145 23.9821 12.9731 24.0461 12.7124L24.0651 12.6595Z" fill="#1E5736"/>
<path d="M23.8129 6.50029C22.9362 8.67331 21.9656 10.8081 21.0467 12.9633C20.8719 13.3729 20.2351 13.0753 20.4205 12.6687C21.392 10.5383 22.3335 8.39177 23.3463 6.28078C23.4909 5.97972 23.9365 6.19333 23.8129 6.50029Z" fill="#1E5736"/>
<path d="M23.1029 6.16372C22.0886 8.27778 21.144 10.4314 20.1747 12.557C20.0963 12.7293 20.1005 12.9064 20.1702 13.0572C20.2368 13.2014 20.3555 13.3066 20.4838 13.3668C20.6118 13.4268 20.7692 13.4508 20.9231 13.4067C21.0853 13.3602 21.2208 13.2434 21.2953 13.069C22.1733 11.0095 23.1044 8.94967 23.9539 6.86472L23.9577 6.86652L24.0636 6.60166C24.1888 6.29075 24.0137 6.02197 23.7963 5.91875C23.688 5.86738 23.5546 5.84709 23.4227 5.88524C23.2845 5.92533 23.1704 6.02338 23.1029 6.16372L23.3463 6.28078C23.4909 5.98009 23.9373 6.19375 23.814 6.50054C23.3756 7.58695 22.913 8.66365 22.4459 9.73829L21.0467 12.9633C20.8826 13.3469 20.3125 13.1095 20.3948 12.7433L20.4205 12.6687C21.392 10.5383 22.3335 8.39177 23.3463 6.28078L23.1029 6.16372Z" fill="#1E5736"/>
<path d="M40.3365 12.4908C39.6078 14.3722 38.858 16.2458 38.1119 18.1201C37.3658 19.9944 36.6197 21.9885 35.7726 23.8776C35.7125 24.0116 35.5296 23.9147 35.5717 23.7831C36.2153 21.8091 36.9812 19.8739 37.7052 17.9288C38.41 16.035 39.1104 14.1402 39.8342 12.2545C39.962 11.9218 40.4648 12.1593 40.3365 12.4908Z" fill="#1E5736"/>
<path d="M39.5827 12.1578C38.8582 14.0451 38.1565 15.9414 37.4521 17.8341C36.7307 19.7723 35.9611 21.7188 35.3152 23.6999C35.2471 23.9127 35.3659 24.0982 35.5129 24.1717C35.5881 24.2092 35.6874 24.2272 35.7895 24.1957C35.8976 24.1623 35.9762 24.0831 36.019 23.9878C36.8692 22.0917 37.6197 20.0865 38.3629 18.2195C39.1087 16.346 39.8597 14.4708 40.5889 12.588L40.6796 12.3532L40.6213 12.3258C40.5986 12.1174 40.4545 11.9539 40.2964 11.8793C40.1847 11.8266 40.0438 11.804 39.905 11.8467C39.7574 11.8921 39.6422 12.0028 39.5827 12.1578ZM39.8342 12.2545C39.9622 11.9225 40.4631 12.1587 40.3356 12.4898L40.3365 12.4908C39.6078 14.3722 38.858 16.2458 38.1119 18.1201C37.459 19.7602 36.8061 21.4919 36.0856 23.1648L35.7726 23.8776C35.7125 24.0116 35.5296 23.9147 35.5717 23.7831C36.2153 21.8091 36.9812 19.8739 37.7052 17.9288C38.0575 16.9821 38.4085 16.0349 38.7621 15.0889L39.8342 12.2545Z" fill="#1E5736"/>
<path d="M37.9597 26.6872C38.6819 24.8027 39.4273 22.928 40.1693 21.0518C40.9303 19.1271 41.6531 17.1804 42.4929 15.2878C42.5522 15.1534 42.7359 15.2508 42.6938 15.3823C42.0571 17.3586 41.2952 19.2957 40.5761 21.2431C39.8569 23.1904 39.1793 25.0347 38.4612 26.9231C38.3342 27.2562 37.8323 27.0191 37.9597 26.6872Z" fill="#1E5736"/>
<path d="M41.9355 15.8929C41.2213 17.5661 40.5814 19.2742 39.918 20.9522C39.1762 22.8278 38.4302 24.7047 37.7073 26.5909C37.5806 26.9208 37.7804 27.1951 38.0002 27.2987C38.1119 27.3512 38.2519 27.3737 38.3907 27.3308C38.5386 27.2852 38.6543 27.174 38.7135 27.0188C39.4322 25.1289 40.1104 23.2833 40.8293 21.3366C41.4563 19.6389 42.1214 17.9356 42.7059 16.2075L42.9505 15.4647C43.0187 15.2513 42.8987 15.0671 42.7523 14.9938C42.6773 14.9564 42.5772 14.9376 42.4748 14.9693C42.3664 15.0031 42.2881 15.083 42.2458 15.1787L41.9355 15.8929ZM42.4929 15.2878C42.5522 15.1534 42.7359 15.2508 42.6938 15.3823C42.0571 17.3586 41.2952 19.2957 40.5761 21.2431C40.2165 22.2166 39.8679 23.1646 39.5189 24.105L38.4612 26.9231C38.342 27.2349 37.8941 27.0466 37.9432 26.7485L37.9597 26.6872C38.3208 25.745 38.6871 24.8051 39.0565 23.8665L40.1693 21.0518C40.9268 19.1359 41.6458 17.198 42.4807 15.3136L42.4929 15.2878Z" fill="#1E5736"/>
<path d="M1.16063 19.0163C2.19308 19.7979 3.12162 20.7729 4.05392 21.6706C4.98621 22.5682 5.9993 23.5445 6.9714 24.4816C9.01067 26.4462 11.0212 28.4319 12.9689 30.488C13.1341 30.6627 12.907 30.9457 12.7208 30.7779C10.5983 28.8682 8.54749 26.8903 6.51527 24.8855C5.5537 23.9364 4.59136 22.989 3.63098 22.0396C2.71613 21.1343 1.72576 20.236 0.923449 19.2303C0.8041 19.0802 1.02235 18.9107 1.16185 19.0159L1.16063 19.0163Z" fill="#1E5736"/>
<path d="M0.657669 18.973C0.643296 19.0043 0.629885 19.0379 0.623779 19.0747C0.609402 19.1619 0.625278 19.2481 0.664682 19.3248L0.711735 19.3982C1.52707 20.4202 2.53805 21.3375 3.44106 22.2311C4.40149 23.1806 5.36476 24.1291 6.32594 25.0777C8.35936 27.0837 10.4131 29.0652 12.5399 30.9788L12.6187 31.0369C12.7018 31.0862 12.7971 31.1082 12.8952 31.0958C13.019 31.0802 13.1188 31.0131 13.1848 30.9337C13.3146 30.777 13.3581 30.5062 13.1649 30.3019C11.2134 28.2419 9.19959 26.2535 7.1591 24.2878L4.24155 21.4759C3.43542 20.6997 2.60724 19.8414 1.70922 19.1063L1.72325 19.1012L1.32397 18.8004C1.13148 18.6554 0.901664 18.7108 0.771489 18.8202C0.747437 18.8404 0.726398 18.8659 0.705765 18.893L0.600517 18.9309L0.657669 18.973ZM0.923449 19.2303C0.8041 19.0802 1.02235 18.9107 1.16185 19.0159L1.16063 19.0163C2.19308 19.7979 3.12162 20.7729 4.05392 21.6706C4.98621 22.5682 5.9993 23.5445 6.9714 24.4816C9.01067 26.4462 11.0212 28.4319 12.9689 30.488C13.1236 30.6517 12.9339 30.9107 12.7561 30.8043L12.7208 30.7779C11.129 29.3457 9.57749 27.8751 8.04394 26.3836L6.51527 24.8855L3.63098 22.0396C2.83037 21.2473 1.97193 20.4605 1.23231 19.6023L0.923449 19.2303Z" fill="#1E5736"/>
<path d="M2.55701 21.5707C4.6547 23.449 6.65822 25.4412 8.70673 27.3735C10.8786 29.4222 13.0406 31.4792 15.1507 33.5919C15.2119 33.6533 15.1266 33.7567 15.0623 33.6957C12.8975 31.6424 10.7277 29.5957 8.5653 27.5395C6.52584 25.6006 4.41414 23.7059 2.48184 21.659C2.43251 21.6061 2.50092 21.5196 2.55701 21.5707Z" fill="#1E5736"/>
<path d="M2.2714 21.4048C2.19484 21.4978 2.1601 21.6537 2.24188 21.7872L2.28427 21.8432L2.28617 21.8441C4.22503 23.8979 6.34741 25.8033 8.37914 27.7349C10.5414 29.791 12.7125 31.8392 14.8762 33.8916C14.9461 33.9578 15.0431 33.9947 15.1463 33.9813C15.2412 33.9691 15.3143 33.9182 15.3605 33.863C15.4506 33.7554 15.4933 33.5526 15.3424 33.401C13.2294 31.2855 11.0643 29.2256 8.8923 27.1768C6.85117 25.2514 4.83739 23.2505 2.7367 21.3696L2.46716 21.1274L2.37558 21.3221C2.33278 21.3441 2.2974 21.3732 2.2714 21.4048ZM2.48184 21.659C2.43251 21.6061 2.50092 21.5196 2.55701 21.5707C4.6547 23.449 6.65822 25.4412 8.70673 27.3735C10.8786 29.4222 13.0406 31.4792 15.1507 33.5919L15.1546 33.5971C15.2003 33.651 15.1439 33.7307 15.087 33.711L15.0623 33.6957C12.8975 31.6424 10.7277 29.5957 8.5653 27.5395C6.52584 25.6006 4.41414 23.7059 2.48184 21.659Z" fill="#1E5736"/>
<path d="M15.952 23.4678C17.206 23.3176 18.5045 23.3823 19.7663 23.3713C20.9384 23.3616 22.111 23.374 23.2827 23.382C25.6739 23.3996 28.0652 23.4063 30.4548 23.446C32.0247 23.4721 33.5924 23.5218 35.1622 23.5795C35.4773 23.5912 35.5384 24.0712 35.207 24.0815C30.2274 24.2345 25.2343 24.1258 20.2542 23.9916C18.8258 23.9529 17.3545 24.0138 15.9359 23.8343C15.723 23.8074 15.7483 23.4928 15.9508 23.4683L15.952 23.4678Z" fill="#1E5736"/>
<path d="M15.8626 23.2125C15.6403 23.2664 15.5284 23.4645 15.5184 23.6345C15.5128 23.7294 15.5347 23.8359 15.6009 23.9274C15.6708 24.0239 15.778 24.0861 15.9023 24.1018C17.338 24.2835 18.8442 24.224 20.2468 24.262C25.2269 24.3962 30.2273 24.5052 35.2156 24.352C35.369 24.3472 35.5073 24.2832 35.5984 24.165C35.6845 24.0531 35.7085 23.9183 35.6959 23.8017C35.6711 23.5733 35.4895 23.3212 35.1722 23.3094C33.6016 23.2517 32.0319 23.2026 30.4594 23.1765C28.0681 23.1368 25.674 23.1292 23.2845 23.1116C22.1143 23.1036 20.9384 23.0914 19.7637 23.1011L18.8191 23.0997C17.8622 23.0931 16.8751 23.0854 15.9199 23.1998L15.8865 23.2039L15.8626 23.2125ZM15.9359 23.8343C15.723 23.8074 15.7483 23.4928 15.9508 23.4683L15.952 23.4678L16.4243 23.4208C17.53 23.3324 18.6624 23.3809 19.7663 23.3713L21.5243 23.3698C22.1105 23.3727 22.6967 23.378 23.2827 23.382L26.8688 23.406C28.0644 23.4148 29.2598 23.4262 30.4548 23.446L32.8083 23.5005C33.5926 23.5234 34.3774 23.5507 35.1622 23.5795L35.2185 23.5876C35.4656 23.6461 35.512 24.0172 35.2646 24.0744L35.207 24.0815C30.2274 24.2345 25.2343 24.1258 20.2542 23.9916C19.0043 23.9577 17.7215 24.0001 16.47 23.891L15.9359 23.8343Z" fill="#1E5736"/>
<path d="M18.3545 26.5829C19.6246 26.4344 20.9374 26.4978 22.2153 26.4884C23.4246 26.4795 24.6337 26.4922 25.8431 26.5021C28.3193 26.522 30.796 26.5324 33.2718 26.574C34.8621 26.6008 36.4486 26.6525 38.0376 26.7094C38.3527 26.721 38.4139 27.201 38.0825 27.2113C32.9643 27.3644 27.8328 27.247 22.7148 27.1073C21.2667 27.0683 19.7778 27.1268 18.3396 26.949C18.1263 26.9228 18.1516 26.6062 18.3545 26.5829Z" fill="#1E5736"/>
<path d="M18.3239 26.3153C18.062 26.3454 17.9322 26.566 17.9214 26.7496C17.916 26.8445 17.9385 26.9514 18.0049 27.0429C18.0748 27.1392 18.1815 27.2004 18.3058 27.216C19.7608 27.3959 21.2846 27.3392 22.7079 27.3775C27.8256 27.5173 32.9641 27.6351 38.0908 27.4817C38.2441 27.4769 38.3826 27.4129 38.4736 27.2947C38.5597 27.1828 38.5837 27.0481 38.5711 26.9314C38.5462 26.703 38.3647 26.4509 38.0474 26.4391C36.458 26.3823 34.8691 26.3312 33.2761 26.3043C30.7989 26.2627 28.3202 26.2523 25.8458 26.2323C24.6374 26.2224 23.4254 26.2094 22.2135 26.2184C20.9563 26.2276 19.6135 26.1645 18.3239 26.3153ZM18.3396 26.949C18.1263 26.9228 18.1516 26.6062 18.3545 26.5829C19.6246 26.4344 20.9374 26.4978 22.2153 26.4884L24.0293 26.4886C24.6339 26.4919 25.2385 26.4971 25.8431 26.5021L29.558 26.5298C30.796 26.5401 32.0341 26.5532 33.2718 26.574C34.8621 26.6008 36.4486 26.6525 38.0376 26.7094L38.0937 26.7173C38.3412 26.7757 38.3876 27.1471 38.1398 27.2041L38.0825 27.2113C32.9643 27.3644 27.8328 27.247 22.7148 27.1073C21.2667 27.0683 19.7778 27.1268 18.3396 26.949Z" fill="#1E5736"/>
<path d="M34.0631 12.6477C29.6303 12.856 25.2008 13.0699 20.7631 13.1245C20.4624 13.1285 20.4144 12.6775 20.721 12.6545C25.1448 12.3183 29.5762 12.2033 34.0085 12.0402C34.4002 12.0256 34.4568 12.6291 34.0631 12.6477Z" fill="#1E5736"/>
<path d="M20.3396 12.5765C20.2595 12.6839 20.234 12.8122 20.2451 12.9261C20.2673 13.1523 20.4491 13.3986 20.7659 13.3948C25.0594 13.3419 29.3452 13.1405 33.6277 12.939L34.0759 12.9179C34.25 12.9095 34.3971 12.8321 34.4921 12.7046C34.5821 12.5836 34.6105 12.4376 34.5987 12.3071C34.575 12.0487 34.3706 11.7566 33.9979 11.7704C29.5701 11.9333 25.1313 12.0485 20.7011 12.3853C20.5528 12.3964 20.4239 12.4637 20.3396 12.5765ZM20.7631 13.1245C20.4624 13.1285 20.4144 12.6775 20.721 12.6545C25.1448 12.3183 29.5762 12.2033 34.0085 12.0402L34.0776 12.0445C34.4054 12.0987 34.4322 12.6301 34.0631 12.6477C29.6303 12.856 25.2008 13.0699 20.7631 13.1245Z" fill="#1E5736"/>
<path d="M40.1359 12.4817C39.6655 12.5246 39.1946 12.5119 38.7224 12.5124C37.6855 12.5144 36.6502 12.5339 35.6148 12.598C35.1765 12.6253 35.1206 11.9302 35.5546 11.9226C36.5963 11.904 37.6385 11.9243 38.6795 11.9747C39.1711 11.9981 39.6686 12.0155 40.1508 12.1157C40.3525 12.1581 40.3489 12.4622 40.1359 12.4817Z" fill="#1E5736"/>
<path d="M35.1031 11.874C35.0081 12.0017 34.977 12.157 34.9886 12.2957C35.0004 12.435 35.0565 12.5817 35.1661 12.6939C35.281 12.8113 35.4433 12.8788 35.6313 12.8672C36.659 12.8036 37.6885 12.7848 38.7224 12.7828C39.1842 12.7823 39.6744 12.795 40.1606 12.7507C40.426 12.7263 40.5633 12.5107 40.5687 12.3144C40.5738 12.1246 40.4569 11.904 40.2061 11.8513L39.8233 11.7878C39.4398 11.7372 39.0556 11.7218 38.6923 11.7045C37.6463 11.6539 36.5981 11.6342 35.5498 11.6529C35.3612 11.6562 35.204 11.7384 35.1031 11.874ZM35.6148 12.598C35.1765 12.6253 35.1206 11.9302 35.5546 11.9226L36.3365 11.9157C37.1177 11.9159 37.899 11.9369 38.6795 11.9747L39.4188 12.0159C39.6648 12.0357 39.9098 12.0656 40.1508 12.1157C40.3525 12.1581 40.3489 12.4622 40.1359 12.4817C39.6655 12.5246 39.1946 12.5119 38.7224 12.5124C37.9446 12.5139 37.1677 12.5253 36.391 12.5579L35.6148 12.598Z" fill="#1E5736"/>
<path d="M7.78055 23.4399C8.62761 24.1906 9.49613 24.9168 10.3444 25.6671C11.1677 26.3947 12.065 27.1038 12.7804 27.9409C12.8558 28.0289 12.7207 28.1267 12.6392 28.0685C11.7281 27.4183 10.9315 26.5666 10.1212 25.7966C9.31991 25.0348 8.53976 24.2512 7.73773 23.491C7.7078 23.4621 7.74904 23.4122 7.78055 23.4399Z" fill="#1E5736"/>
<path d="M7.52945 23.271C7.45952 23.3544 7.42073 23.5061 7.50604 23.633L7.55022 23.6853L7.55168 23.6871C7.95096 24.0656 8.34526 24.45 8.7408 24.8363L10.5367 26.5762C11.1463 27.1722 11.7832 27.7898 12.4819 28.2885C12.6465 28.4059 12.8361 28.3521 12.9391 28.2681C12.9954 28.222 13.0517 28.1486 13.0678 28.0489C13.0808 27.9681 13.0644 27.8913 13.028 27.8262L12.9855 27.7654C12.2539 26.9093 11.3308 26.1787 10.5232 25.4649C10.0975 25.0884 9.66696 24.7177 9.2382 24.3488C8.80907 23.9795 8.38161 23.6118 7.95989 23.2381L7.68996 22.9992L7.58625 23.2197C7.56425 23.2354 7.54496 23.2526 7.52945 23.271ZM7.73773 23.491C7.7078 23.4621 7.74904 23.4122 7.78055 23.4399L10.3444 25.6671C11.1677 26.3947 12.065 27.1038 12.7804 27.9409C12.8463 28.0179 12.7512 28.102 12.6718 28.0829L12.6392 28.0685L12.6346 28.0654L12.6341 28.064C11.7253 27.4143 10.9298 26.565 10.1212 25.7966C9.31991 25.0348 8.53976 24.2512 7.73773 23.491Z" fill="#1E5736"/>
<path d="M16.0333 23.6147C16.5394 23.9438 16.9188 24.5656 17.2826 25.0375C17.691 25.568 18.1793 26.0906 18.4982 26.679C18.5749 26.8209 18.4085 27.0128 18.2716 26.8831C17.7942 26.4299 17.4252 25.8427 17.0266 25.3208C16.6507 24.8283 16.1246 24.281 15.9324 23.684C15.9116 23.6189 15.9824 23.5819 16.0333 23.6147Z" fill="#1E5736"/>
<path d="M15.8136 23.3824C15.7034 23.4506 15.6429 23.5776 15.662 23.7097L15.6752 23.766L15.6757 23.7674C15.7853 24.1077 15.9856 24.4216 16.1939 24.7024C16.2989 24.8439 16.4094 24.9809 16.5146 25.1108C16.6211 25.2423 16.7209 25.3657 16.8119 25.4849L17.4039 26.2903C17.6127 26.5677 17.8368 26.8421 18.0857 27.0784C18.1666 27.1551 18.2735 27.2019 18.3909 27.1951C18.5029 27.1886 18.5947 27.1359 18.6569 27.0732C18.7741 26.9551 18.8405 26.7448 18.736 26.5509C18.4035 25.9376 17.8823 25.3734 17.4964 24.8722C17.4084 24.758 17.3191 24.6349 17.2234 24.5036C17.1287 24.3737 17.0283 24.2372 16.9227 24.1046C16.7129 23.8413 16.4698 23.5765 16.1804 23.3883C16.0676 23.3156 15.9238 23.3143 15.8136 23.3824ZM15.9324 23.684C15.9116 23.6189 15.9824 23.5819 16.0333 23.6147C16.5394 23.9438 16.9188 24.5656 17.2826 25.0375C17.691 25.568 18.1793 26.0906 18.4982 26.679C18.5651 26.8032 18.4459 26.966 18.3234 26.9174L18.2716 26.8831C18.0329 26.6564 17.8207 26.3967 17.619 26.128L17.0266 25.3208C16.6507 24.8283 16.1246 24.281 15.9324 23.684Z" fill="#1E5736"/>
<path d="M40.4324 12.4561C40.8551 12.8281 41.1879 13.2963 41.5368 13.7345C41.9192 14.2152 42.3028 14.6955 42.6809 15.1791C42.8052 15.3375 42.5467 15.5147 42.4232 15.3567C42.0629 14.8963 41.7074 14.4322 41.3518 13.9681C40.9962 13.504 40.6082 13.0563 40.3399 12.5392C40.3092 12.4803 40.3743 12.405 40.4324 12.4561Z" fill="#1E5736"/>
<path d="M40.1617 12.2661C40.0704 12.3582 40.0241 12.517 40.1004 12.6638C40.3831 13.2084 40.7956 13.6859 41.1372 14.1318C41.4926 14.5956 41.8493 15.0609 42.2104 15.5225C42.3816 15.7414 42.647 15.7126 42.798 15.6089C42.8749 15.556 42.9458 15.4713 42.9727 15.3589C43.0017 15.2373 42.9718 15.1127 42.8932 15.0126C42.5143 14.528 42.1302 14.0461 41.7484 13.5661C41.4509 13.1926 41.1379 12.7597 40.7606 12.3928L40.7637 12.3861L40.611 12.2525C40.5502 12.1991 40.467 12.1636 40.3726 12.1695C40.2824 12.1752 40.2103 12.2171 40.1617 12.2661ZM40.3399 12.5392C40.3134 12.4876 40.3602 12.4226 40.4112 12.4417L40.4324 12.4561C40.8551 12.8281 41.1879 13.2963 41.5368 13.7345C41.9192 14.2152 42.3028 14.6955 42.6809 15.1791C42.7894 15.3176 42.6055 15.4705 42.475 15.401L42.4232 15.3567L41.3518 13.9681C40.9962 13.504 40.6082 13.0563 40.3399 12.5392Z" fill="#1E5736"/>
<path d="M23.7802 6.36941C24.2028 6.74138 24.5357 7.20962 24.8846 7.64784C25.267 8.12852 25.6506 8.60879 26.0287 9.09237C26.153 9.25081 25.8945 9.42801 25.771 9.26996C25.4107 8.80958 25.0551 8.3455 24.6996 7.8814C24.344 7.4173 23.956 6.96961 23.6876 6.45255C23.657 6.39361 23.7221 6.31833 23.7802 6.36941Z" fill="#1E5736"/>
<path d="M23.5094 6.1794C23.4182 6.27157 23.3718 6.43033 23.4482 6.57718C23.7308 7.12169 24.1434 7.59926 24.485 8.04514C24.8403 8.5089 25.197 8.97427 25.5582 9.43579C25.7293 9.65477 25.9948 9.62596 26.1458 9.5222C26.2227 9.46927 26.2941 9.38396 26.3209 9.27125C26.3497 9.14987 26.3194 9.02594 26.2409 8.92592C25.862 8.44128 25.478 7.95941 25.0961 7.47943C24.7987 7.10591 24.4857 6.67308 24.1083 6.30612L24.1115 6.29944L23.9587 6.1658C23.898 6.11242 23.8148 6.0769 23.7204 6.08281C23.6302 6.08849 23.558 6.13042 23.5094 6.1794ZM23.6876 6.45255C23.6612 6.40094 23.7079 6.33592 23.759 6.35506L23.7802 6.36941C24.2028 6.74138 24.5357 7.20962 24.8846 7.64784C25.267 8.12852 25.6506 8.60879 26.0287 9.09237C26.1374 9.23093 25.9533 9.38388 25.8228 9.31433L25.771 9.26996L24.6996 7.8814C24.344 7.4173 23.956 6.96961 23.6876 6.45255Z" fill="#1E5736"/>
<path d="M0.963142 19.2164C1.59056 19.9103 2.05521 20.7819 2.57285 21.5578C2.61937 21.6271 2.51221 21.7014 2.46607 21.6312C1.94299 20.8459 1.41428 20.0579 0.92513 19.251C0.910545 19.2273 0.942563 19.1929 0.964345 19.216L0.963142 19.2164Z" fill="#1E5736"/>
<path d="M0.654309 19.2767C0.659253 19.3138 0.671855 19.3519 0.695249 19.3904C1.18798 20.2032 1.71911 20.9971 2.24107 21.7808C2.29472 21.862 2.37955 21.9156 2.47764 21.927C2.56816 21.9375 2.64932 21.9091 2.7079 21.8687C2.76641 21.8281 2.81949 21.764 2.84254 21.6791C2.86747 21.5869 2.85134 21.4882 2.79686 21.407C2.37004 20.7672 1.94427 20.0027 1.4241 19.3474L1.45032 19.3388L1.16033 19.031C1.10499 18.9724 1.02324 18.9338 0.930726 18.9393C0.873504 18.9428 0.827882 18.9654 0.790395 18.9899L0.485202 19.0911L0.654309 19.2767ZM0.92513 19.251C0.910545 19.2273 0.942563 19.1929 0.964345 19.216L0.963142 19.2164C1.59056 19.9103 2.05521 20.7819 2.57285 21.5578C2.61293 21.6182 2.53682 21.6826 2.48613 21.6513L2.46607 21.6312C1.94299 20.8459 1.41428 20.0579 0.92513 19.251Z" fill="#1E5736"/>
<path d="M15.0253 33.5177C14.5991 33.149 14.2636 32.6825 13.9107 32.2464C13.5239 31.7686 13.138 31.2912 12.756 30.8097C12.6313 30.6521 12.8885 30.4753 13.0137 30.6321C13.3771 31.09 13.7362 31.5508 14.0949 32.0124C14.4536 32.474 14.8452 32.9185 15.1174 33.4334C15.1489 33.4927 15.0838 33.568 15.0253 33.5177Z" fill="#1E5736"/>
<path d="M12.4632 30.631C12.4416 30.7226 12.4538 30.816 12.4946 30.8987L12.5441 30.9768C12.9269 31.4593 13.314 31.9383 13.7006 32.4159C14.0398 32.8353 14.3986 33.3325 14.8486 33.7218C14.9097 33.7743 14.9927 33.8088 15.0855 33.8029C15.1743 33.7972 15.2469 33.7564 15.296 33.7073C15.3775 33.6256 15.4225 33.4925 15.3802 33.3622L15.3562 33.3067C15.0694 32.7644 14.6532 32.2897 14.3088 31.8465L13.2249 30.4637C13.0528 30.248 12.7889 30.2771 12.6379 30.381C12.5612 30.4339 12.4898 30.5184 12.4632 30.631ZM12.756 30.8097C12.6313 30.6521 12.8885 30.4753 13.0137 30.6321C13.3771 31.09 13.7362 31.5508 14.0949 32.0124C14.4536 32.474 14.8452 32.9185 15.1174 33.4334C15.1489 33.4927 15.0824 33.5678 15.0239 33.5175L15.0253 33.5177C14.8122 33.3334 14.6216 33.1245 14.4403 32.9073L13.9107 32.2464C13.5239 31.7686 13.138 31.2912 12.756 30.8097Z" fill="#1E5736"/>
<path d="M35.7605 24.1781C36.7045 24.8636 37.4991 25.9299 38.2721 26.7329C38.3546 26.8182 38.2339 26.9613 38.1509 26.8748C37.7267 26.4348 37.2824 26.014 36.8612 25.5695C36.4602 25.1474 36.0042 24.7369 35.6793 24.2517C35.6436 24.1973 35.7104 24.1416 35.7605 24.1781Z" fill="#1E5736"/>
<path d="M35.5122 23.976C35.4013 24.0713 35.354 24.2476 35.4539 24.3997L35.4554 24.4015C35.7971 24.912 36.2845 25.3545 36.6649 25.755C36.8786 25.9804 37.0982 26.1993 37.3149 26.415C37.5321 26.6313 37.7464 26.8443 37.956 27.0616C38.0301 27.1389 38.1352 27.1822 38.2482 27.1688C38.351 27.1566 38.4301 27.1019 38.4797 27.0434C38.5755 26.9305 38.6278 26.7124 38.4659 26.545C38.0807 26.1448 37.7052 25.6957 37.2794 25.2293C36.9149 24.8301 36.5255 24.4324 36.1025 24.0987L35.9194 23.9601C35.7823 23.8607 35.6151 23.8876 35.5122 23.976ZM35.6793 24.2517C35.6436 24.1973 35.7104 24.1416 35.7605 24.1781L35.9363 24.3108C36.8042 24.9957 37.5475 25.9802 38.2721 26.7329C38.3546 26.8182 38.2339 26.9613 38.1509 26.8748C37.7267 26.4348 37.2824 26.014 36.8612 25.5695C36.4602 25.1474 36.0042 24.7369 35.6793 24.2517Z" fill="#1E5736"/>
<path d="M1.99036 20.1319C2.05664 20.357 2.09752 20.6255 2.19396 20.8391C2.24258 20.9461 2.22586 21.0174 2.37464 21.025C2.45165 21.0296 2.74362 20.8127 2.80914 20.7723C2.82334 20.7632 2.84285 20.7743 2.84047 20.792C2.81124 20.9761 2.7103 21.2601 2.73745 21.4401C2.7727 21.6744 3.00849 21.5033 3.18399 21.4394C3.20067 21.4334 3.21696 21.445 3.21897 21.4618C3.25346 21.7482 3.28998 22.0345 3.32367 22.3204C3.32911 22.3635 3.26117 22.3692 3.25654 22.3264C3.23602 22.1387 3.25879 21.8526 3.189 21.6812C3.09452 21.4488 2.88273 21.6044 2.68617 21.6752C2.6683 21.6817 2.64993 21.6661 2.65269 21.6476C2.68083 21.4847 2.80343 21.1525 2.76376 21.0013C2.73157 20.8783 2.74971 20.8987 2.61681 20.9351C2.50897 20.9645 2.3528 21.1008 2.26203 21.1571C2.24702 21.1659 2.22331 21.1616 2.21806 21.1433C2.12642 20.8123 2.03514 20.4804 1.94669 20.1489C1.9392 20.1207 1.98169 20.1041 1.9896 20.1335L1.99036 20.1319Z" fill="#1E5736"/>
<path d="M1.79753 19.9073C1.72797 19.9591 1.66992 20.0449 1.67558 20.1542L1.68513 20.2181L1.9572 21.2156L1.95866 21.2174C1.99292 21.337 2.08767 21.4004 2.1669 21.4215C2.24086 21.4411 2.32521 21.4331 2.39828 21.3904L2.40479 21.3865C2.4182 21.3782 2.43117 21.368 2.4447 21.3587C2.4385 21.3822 2.43251 21.4061 2.42613 21.4304L2.38636 21.6016L2.38557 21.6083C2.3539 21.8229 2.56251 22.0067 2.77778 21.9291C2.83646 21.908 2.9003 21.8789 2.93989 21.862C2.94527 21.8597 2.95093 21.8575 2.95578 21.8555C2.9622 21.8948 2.96817 21.946 2.97129 22.0108C2.97577 22.1041 2.97722 22.2524 2.98852 22.3558L3.00183 22.4191C3.02234 22.4809 3.06195 22.5345 3.11542 22.5717C3.1806 22.6169 3.25419 22.6297 3.31673 22.6244C3.37898 22.619 3.45288 22.5938 3.51128 22.5329C3.57529 22.4661 3.60179 22.3759 3.59129 22.2885L3.4872 21.4295C3.46671 21.2595 3.29011 21.1144 3.09259 21.1856L3.09119 21.1861C3.07021 21.1937 3.0487 21.2031 3.02765 21.2121C3.02954 21.1993 3.03375 21.1864 3.03522 21.1737C3.0359 21.1678 3.0351 21.1616 3.03572 21.1553C3.05671 21.0631 3.09244 20.9281 3.1073 20.8347L3.10809 20.828C3.13919 20.597 2.92219 20.4587 2.73861 20.5109L2.663 20.5452C2.63907 20.5603 2.60231 20.5854 2.57106 20.6069C2.53361 20.6326 2.49165 20.6616 2.44988 20.6886C2.44327 20.6929 2.43572 20.6959 2.42939 20.6999C2.39711 20.6218 2.36918 20.5299 2.34256 20.4236C2.31509 20.3139 2.28477 20.1749 2.24977 20.056L2.04848 19.3738L1.79753 19.9073ZM2.73682 21.3026C2.73201 21.3523 2.73123 21.3989 2.73745 21.4401C2.7727 21.6744 3.00849 21.5033 3.18399 21.4394C3.20067 21.4334 3.21696 21.445 3.21897 21.4618C3.25346 21.7482 3.28998 22.0345 3.32367 22.3204C3.32904 22.363 3.263 22.369 3.25679 22.3281L3.25654 22.3264C3.23602 22.1387 3.25879 21.8526 3.189 21.6812C3.09452 21.4488 2.88273 21.6044 2.68617 21.6752C2.6683 21.6817 2.64993 21.6661 2.65269 21.6476C2.66742 21.5623 2.70715 21.4304 2.73682 21.3026ZM2.76812 21.1122C2.76388 21.1698 2.75237 21.2356 2.73682 21.3026C2.74268 21.2422 2.7538 21.1771 2.76812 21.1122ZM1.94669 20.1489C1.9392 20.1207 1.98169 20.1041 1.9896 20.1335L1.99036 20.1319C2.05664 20.357 2.09752 20.6255 2.19396 20.8391C2.24258 20.9461 2.22586 21.0174 2.37464 21.025C2.45165 21.0296 2.74362 20.8127 2.80914 20.7723C2.82334 20.7632 2.84285 20.7743 2.84047 20.792C2.82607 20.8827 2.79343 20.9974 2.76812 21.1122C2.77122 21.07 2.77164 21.0318 2.76376 21.0013C2.73157 20.8783 2.74971 20.8987 2.61681 20.9351C2.50897 20.9645 2.3528 21.1008 2.26203 21.1571C2.24702 21.1659 2.22331 21.1616 2.21806 21.1433C2.12642 20.8123 2.03514 20.4804 1.94669 20.1489Z" fill="#1E5736"/>
<path d="M38.3232 52.6441C41.2139 50.9099 44.1975 49.3225 47.1473 47.6922C50.0971 46.062 53.058 44.5044 56.0366 42.9543C57.6649 42.1062 59.2766 41.1722 60.9711 40.4623C61.1619 40.3824 61.2999 40.6652 61.134 40.78C59.7818 41.7136 58.3065 42.4803 56.88 43.2951C55.4535 44.1098 54.0172 44.9576 52.5693 45.7565C49.6144 47.3873 46.6502 49.0011 43.6712 50.5848C41.9944 51.4766 40.3272 52.3912 38.6262 53.236C38.2864 53.4049 37.9981 52.8392 38.3232 52.6441Z" fill="#1E5736"/>
<path d="M38.1831 52.4122C37.8559 52.6088 37.8718 52.9782 37.9844 53.1988C38.0437 53.3146 38.1422 53.4255 38.2763 53.4876C38.4181 53.5532 38.5858 53.5573 38.746 53.4778C40.4513 52.6309 42.1252 51.7131 43.7977 50.8236C46.7782 49.2391 49.744 47.6245 52.6996 45.9932C54.1496 45.1932 55.592 44.3415 57.0138 43.5294C58.4277 42.7219 59.9228 41.9447 61.2877 41.0024C61.5086 40.8495 61.5092 40.59 61.4277 40.4273C61.3856 40.3433 61.3141 40.2632 61.2132 40.2168C61.1064 40.1678 60.9827 40.1646 60.8663 40.2133C59.1582 40.929 57.5255 41.8747 55.9119 42.7151C52.933 44.2654 49.9699 45.8238 47.0173 47.4556C44.1148 49.0598 41.1669 50.6304 38.3096 52.3389L38.3068 52.3376L38.1831 52.4122ZM38.6262 53.236C38.2864 53.4049 37.9981 52.8392 38.3232 52.6441C41.2139 50.9099 44.1975 49.3225 47.1473 47.6922L49.362 46.4827C51.5788 45.2842 53.8026 44.1169 56.0366 42.9543L57.2567 42.3068C58.4762 41.6532 59.7004 40.9947 60.9711 40.4623C61.1619 40.3824 61.2999 40.6652 61.134 40.78C60.1199 41.4801 59.0366 42.0866 57.9566 42.6897L56.88 43.2951C55.8101 43.9062 54.7344 44.5353 53.6527 45.149L52.5693 45.7565C49.6144 47.3873 46.6502 49.0011 43.6712 50.5848C42.4136 51.2537 41.1614 51.9356 39.8962 52.591L38.6262 53.236Z" fill="#1E5736"/>
<path d="M40.9436 56.6764C46.781 53.3307 52.7268 50.1604 58.6642 46.9957C60.2793 46.1347 61.879 45.2346 63.5273 44.4402C63.6195 44.3959 63.6953 44.5463 63.6087 44.5991C62.2057 45.4644 60.7459 46.2414 59.307 47.0455C57.8682 47.8496 56.4204 48.6707 54.9688 49.4669C52.0607 51.0619 49.1473 52.6476 46.2275 54.2225C44.5321 55.1373 42.8417 56.0622 41.1333 56.9536C40.9467 57.0509 40.7534 56.7855 40.9436 56.6764Z" fill="#1E5736"/>
<path d="M40.5992 56.7409C40.5815 56.8618 40.6213 56.9707 40.6768 57.049C40.7846 57.201 41.0193 57.3178 41.2583 57.1932C42.9688 56.3007 44.6619 55.3739 46.3553 54.4601C49.2758 52.8848 52.1904 51.2985 55.099 49.7033C56.5516 48.9065 58.0024 48.0838 59.4391 47.2809C60.8712 46.4806 62.3399 45.6972 63.7493 44.828L63.7498 44.8294C63.9541 44.7045 63.935 44.4771 63.8759 44.3608C63.8437 44.2975 63.7877 44.2325 63.7049 44.1941C63.6144 44.1521 63.5069 44.1505 63.4096 44.1974C61.7549 44.9948 60.1449 45.9005 58.5372 46.7576C52.6005 49.9219 46.6511 53.0943 40.8095 56.4424L40.735 56.4843L40.7247 56.5063C40.659 56.5677 40.6129 56.6473 40.5992 56.7409ZM40.9436 56.6764L43.1377 55.4303C48.2676 52.5388 53.4689 49.7648 58.6642 46.9957C60.2793 46.1347 61.879 45.2346 63.5273 44.4402C63.6195 44.3959 63.6953 44.5463 63.6087 44.5991C62.9072 45.0317 62.1914 45.4422 61.4712 45.8451L59.307 47.0455C58.5877 47.4475 57.8663 47.854 57.1432 48.2592L54.9688 49.4669C53.515 50.2643 52.0598 51.0595 50.6032 51.8521L46.2275 54.2225C44.956 54.9086 43.6872 55.601 42.4116 56.28L41.1333 56.9536C40.9467 57.0509 40.7534 56.7855 40.9436 56.6764Z" fill="#1E5736"/>
<path d="M45.9311 35.4662C46.8947 33.3952 47.7974 31.2754 48.8814 29.264C48.9648 29.1094 49.1851 29.2169 49.1254 29.3788C48.3421 31.5277 47.3648 33.6154 46.4577 35.7139C46.3094 36.0577 45.7726 35.8072 45.9311 35.4662Z" fill="#1E5736"/>
<path d="M48.2428 29.899C47.3509 31.6409 46.5687 33.4491 45.7547 35.2055L45.6856 35.3525C45.6132 35.5085 45.6161 35.6714 45.68 35.8103C45.7408 35.9419 45.8487 36.0366 45.9642 36.0908C46.0797 36.145 46.2231 36.1675 46.3642 36.1275C46.5134 36.0851 46.6373 35.9788 46.7055 35.8206C47.6083 33.7322 48.5921 31.6295 49.379 29.4707C49.4617 29.2444 49.3415 29.0395 49.1733 28.959C49.0909 28.9197 48.9892 28.9048 48.8877 28.9342C48.7818 28.965 48.6965 29.0381 48.6439 29.1354L48.2428 29.899ZM45.9311 35.4662C46.8947 33.3952 47.7974 31.2754 48.8814 29.264C48.9648 29.1094 49.1851 29.2169 49.1254 29.3788C48.3421 31.5277 47.3648 33.6154 46.4577 35.7139C46.3094 36.0577 45.7726 35.8072 45.9311 35.4662Z" fill="#1E5736"/>
<path d="M38.1726 52.8593C39.11 50.5919 40.1401 48.3633 41.1185 46.1132C41.2912 45.7153 41.9117 46.0053 41.7288 46.4003C40.699 48.6262 39.6974 50.8663 38.6274 53.0732C38.4857 53.3662 38.0494 53.1581 38.1726 52.8593Z" fill="#1E5736"/>
<path d="M40.8704 46.0059C39.9331 48.1614 38.9433 50.316 38.0342 52.4961L38.0304 52.4943L37.9224 52.7559C37.7955 53.0637 37.9699 53.33 38.1849 53.4318C38.292 53.4825 38.4239 53.502 38.5542 53.4645C38.6904 53.4251 38.8034 53.3295 38.8704 53.1913C39.9417 50.9815 40.9466 48.7352 41.9743 46.5135C42.0526 46.3443 42.049 46.1692 41.9804 46.0199C41.915 45.8775 41.7978 45.7741 41.6716 45.715C41.5456 45.6558 41.3903 45.6313 41.2385 45.6744C41.0786 45.7198 40.9448 45.8346 40.8704 46.0059ZM41.1185 46.1132C41.2912 45.7153 41.9117 46.0053 41.7288 46.4003C40.9564 48.0699 40.1994 49.7472 39.418 51.4127L38.6274 53.0732C38.4857 53.3662 38.0494 53.1581 38.1726 52.8593L38.8912 51.1649C39.1348 50.602 39.3818 50.0406 39.6302 49.4798L41.1185 46.1132Z" fill="#1E5736"/>
<path d="M63.3331 44.238C62.4995 43.1468 61.6956 42.0273 60.9007 40.9071C60.733 40.671 61.1039 40.4155 61.2712 40.6523C62.0653 41.7721 62.8554 42.9006 63.6096 44.048C63.7287 44.2293 63.4637 44.4094 63.3331 44.238Z" fill="#1E5736"/>
<path d="M60.6029 40.6672C60.5773 40.7668 60.5848 40.8714 60.6267 40.9686L60.6799 41.0636L61.8845 42.7422C62.2898 43.2995 62.7004 43.8535 63.1184 44.4007C63.2866 44.6215 63.5537 44.6098 63.7171 44.4982C63.7981 44.4429 63.8686 44.3559 63.8969 44.2448C63.9267 44.1279 63.9044 44.0052 63.8354 43.9C63.0785 42.7487 62.285 41.6176 61.4906 40.4973L61.492 40.4968C61.406 40.3751 61.2813 40.3037 61.1464 40.29C61.0187 40.277 60.8986 40.3166 60.8069 40.3797C60.7154 40.4428 60.6354 40.5417 60.6029 40.6672ZM60.9007 40.9071C60.733 40.671 61.1039 40.4155 61.2712 40.6523C62.0653 41.7721 62.8554 42.9006 63.6096 44.048C63.7137 44.2066 63.5244 44.3637 63.3879 44.2862L63.3331 44.238C62.4995 43.1468 61.6956 42.0273 60.9007 40.9071Z" fill="#1E5736"/>
<path d="M38.6595 53.1545C39.5248 54.2992 40.3201 55.4966 41.1617 56.659C41.3312 56.8931 40.955 57.1538 40.7912 56.9138C39.981 55.7296 39.1693 54.5446 38.3838 53.3449C38.2655 53.1639 38.5293 52.9824 38.6595 53.1545Z" fill="#1E5736"/>
<path d="M38.0973 53.1472C38.0749 53.2345 38.0808 53.326 38.1145 53.4105L38.1575 53.4925C38.9447 54.6948 39.7589 55.8826 40.5686 57.0662C40.6536 57.1905 40.7785 57.263 40.9148 57.2768C41.0434 57.2899 41.1633 57.2492 41.2547 57.1861C41.346 57.1231 41.4268 57.0247 41.4596 56.8991C41.4944 56.7655 41.4687 56.6225 41.3803 56.5004C40.5496 55.3531 39.7391 54.137 38.874 52.9927L38.8754 52.9922C38.7074 52.7701 38.4401 52.7829 38.2767 52.8947C38.196 52.9501 38.1258 53.0367 38.0973 53.1472ZM38.3838 53.3449C38.2655 53.1639 38.5293 52.9824 38.6595 53.1545C39.5248 54.2992 40.3201 55.4966 41.1617 56.659C41.3312 56.8931 40.955 57.1538 40.7912 56.9138C39.981 55.7296 39.1693 54.5446 38.3838 53.3449Z" fill="#1E5736"/>
<path d="M21.3415 46.6545C22.2069 47.7991 23.0021 48.9966 23.8437 50.159C24.0132 50.393 23.637 50.6538 23.4731 50.4138C22.663 49.2295 21.8513 48.0445 21.0658 46.8449C20.9475 46.6639 21.2113 46.4823 21.3415 46.6545Z" fill="#1E5736"/>
<path d="M20.7793 46.6471C20.7569 46.7345 20.7628 46.8259 20.7965 46.9104L20.8395 46.9924C21.6265 48.1944 22.4407 49.3815 23.2501 50.5648C23.3351 50.6892 23.4604 50.7629 23.5968 50.7768C23.7254 50.7898 23.8453 50.7492 23.9367 50.6861C24.028 50.6231 24.1089 50.5246 24.1417 50.399C24.1764 50.2655 24.1507 50.1224 24.0623 50.0004C23.2317 48.8531 22.4211 47.637 21.556 46.4926L21.5574 46.4921C21.3894 46.2701 21.1222 46.2828 20.9587 46.3946C20.878 46.45 20.8078 46.5366 20.7793 46.6471ZM21.0658 46.8449C20.9475 46.6639 21.2113 46.4823 21.3415 46.6545C22.2069 47.7991 23.0021 48.9966 23.8437 50.159C24.0132 50.393 23.637 50.6538 23.4731 50.4138C22.663 49.2295 21.8513 48.0445 21.0658 46.8449Z" fill="#1E5736"/>
<path d="M20.9684 46.5667C21.8334 44.7483 22.7194 42.9408 23.6026 41.1309C24.4828 39.3254 25.3289 37.4981 26.2837 35.7306C26.3499 35.6084 26.5326 35.6934 26.4795 35.8227C25.7165 37.6804 24.8369 39.493 23.9973 41.3166C23.1552 43.1458 22.3174 44.976 21.4579 46.797C21.3101 47.1112 20.8194 46.8814 20.9684 46.5667Z" fill="#1E5736"/>
<path d="M20.676 46.7274C20.6809 46.7837 20.6926 46.8389 20.7158 46.8906C20.7732 47.0186 20.8771 47.11 20.9879 47.162C21.0987 47.2139 21.2348 47.2352 21.3695 47.1982C21.5117 47.159 21.6327 47.06 21.7024 46.9118C22.5625 45.0895 23.4011 43.2577 24.2429 41.4294C25.0793 39.6125 25.9637 37.7898 26.7295 35.9252C26.7691 35.8286 26.7694 35.722 26.7276 35.6271C26.6877 35.5371 26.6166 35.4733 26.5404 35.4377C26.3841 35.3647 26.157 35.3968 26.0457 35.6024C25.0873 37.3764 24.2365 39.2138 23.3596 41.0128C22.4768 42.8218 21.5903 44.6309 20.7246 46.4507L20.6083 46.6955L20.676 46.7274ZM20.9684 46.5667C21.8334 44.7483 22.7194 42.9408 23.6026 41.1309C24.4828 39.3254 25.3289 37.4981 26.2837 35.7306C26.3499 35.6084 26.5326 35.6934 26.4795 35.8227C25.7165 37.6804 24.8369 39.493 23.9973 41.3166C23.5762 42.2313 23.156 43.1461 22.7338 44.0601L21.4579 46.797C21.3101 47.1112 20.8194 46.8814 20.9684 46.5667Z" fill="#1E5736"/>
<path d="M60.5125 40.1819C59.4672 39.4279 58.5241 38.4732 57.5777 37.599C56.6314 36.7248 55.65 35.8187 54.6853 34.9281C52.7352 33.1276 50.8143 31.3041 48.9503 29.4149C48.7843 29.2471 49.0076 28.9733 49.1921 29.1324C51.2229 30.8802 53.1893 32.6932 55.136 34.5337C56.0896 35.4354 57.0429 36.3379 57.9965 37.2397C58.9501 38.1414 59.9278 38.988 60.7444 39.9718C60.865 40.1173 60.6476 40.2782 60.5121 40.1807L60.5125 40.1819Z" fill="#1E5736"/>
<path d="M48.7326 28.9782C48.602 29.1346 48.5603 29.4044 48.7585 29.6046C50.6263 31.4977 52.5504 33.324 54.5019 35.1259C55.4666 36.0164 56.4481 36.9236 57.3944 37.7978C58.3279 38.6601 59.2914 39.6345 60.3542 40.4011L61.033 40.8906L60.8673 40.3954C60.8769 40.3887 60.8874 40.3835 60.8961 40.3763C60.9639 40.3205 61.0262 40.2345 61.0444 40.1231C61.0637 40.0043 61.0263 39.8898 60.9517 39.7998C60.1213 38.7995 59.1234 37.9338 58.1817 37.0434C57.705 36.5926 57.2285 36.141 56.7518 35.69C56.2752 35.2391 55.7982 34.7885 55.3215 34.3377C53.8604 32.9564 52.3873 31.5894 50.8835 30.2534L49.3683 28.9276C49.269 28.842 49.1446 28.8016 49.0175 28.8185C48.8967 28.8347 48.7984 28.8996 48.7326 28.9782ZM48.9503 29.4149C48.7843 29.2471 49.0076 28.9733 49.1921 29.1324C51.2229 30.8802 53.1893 32.6932 55.136 34.5337C56.0896 35.4354 57.0429 36.3379 57.9965 37.2397C58.9501 38.1414 59.9278 38.988 60.7444 39.9718C60.865 40.1173 60.6476 40.2782 60.5121 40.1807L60.5125 40.1819C59.4672 39.4279 58.5241 38.4732 57.5777 37.599L54.6853 34.9281C53.2227 33.5776 51.7764 32.2143 50.3582 30.8199L48.9503 29.4149Z" fill="#1E5736"/>
<path d="M46.1779 35.844C44.6083 36.0284 42.9721 35.9606 41.393 35.9766C39.7916 35.9927 38.19 35.9991 36.5886 36.0113C33.2998 36.0359 30.0184 36.0407 26.7319 35.9313C26.4244 35.9207 26.366 35.4526 26.6881 35.4422C29.9969 35.3383 33.3016 35.331 36.6119 35.3406C38.215 35.3456 39.8178 35.3427 41.4203 35.357C42.9951 35.3708 44.6275 35.3008 46.1924 35.4873C46.4006 35.512 46.3748 35.821 46.1779 35.844Z" fill="#1E5736"/>
<path d="M26.3016 35.3568C26.2167 35.4672 26.1933 35.5998 26.2054 35.7149C26.2295 35.9404 26.4082 36.1908 26.7224 36.2017C30.0147 36.3112 33.3013 36.3064 36.5907 36.2818C38.1905 36.2696 39.7938 36.263 41.3952 36.2469C42.9551 36.2311 44.6209 36.2984 46.2096 36.1118C46.468 36.0813 46.595 35.8633 46.606 35.6828C46.6117 35.589 46.5901 35.4825 46.524 35.3913C46.4542 35.2952 46.3477 35.2334 46.2241 35.2188L45.6268 35.1604C44.226 35.0471 42.7832 35.099 41.4222 35.087C39.8189 35.0727 38.2137 35.0755 36.6127 35.0706C33.3019 35.061 29.9933 35.0682 26.6798 35.1723L26.5693 35.1867C26.4628 35.2119 26.3691 35.2691 26.3016 35.3568ZM26.7319 35.9313C26.4244 35.9207 26.366 35.4526 26.6881 35.4422C29.9969 35.3383 33.3016 35.331 36.6119 35.3406L41.4203 35.357C42.9951 35.3708 44.6275 35.3008 46.1924 35.4873C46.3746 35.5089 46.3779 35.7488 46.2437 35.8236L46.1779 35.844C45.0007 35.9823 43.7861 35.9786 42.5862 35.9749L41.393 35.9766L36.5886 36.0113C33.2998 36.0359 30.0184 36.0407 26.7319 35.9313Z" fill="#1E5736"/>
<path d="M38.7216 50.7126C37.3674 50.8141 35.9826 50.7614 34.6247 50.7417C33.5311 50.7257 32.4385 50.7016 31.3451 50.677C28.8009 50.6189 26.256 50.5749 23.7115 50.5176C23.5568 50.5143 23.5297 50.2769 23.6896 50.2731C26.2518 50.223 28.8081 50.2675 31.3694 50.3424C32.4658 50.375 33.5617 50.4065 34.6578 50.4294C36.0096 50.4579 37.3808 50.429 38.7286 50.5337C38.8319 50.5418 38.8209 50.7044 38.7212 50.7115L38.7216 50.7126Z" fill="#1E5736"/>
<path d="M23.3897 50.1479C23.3226 50.2352 23.3056 50.3376 23.3141 50.4224C23.3309 50.5875 23.4632 50.7819 23.7055 50.7871C26.2592 50.8446 28.788 50.8885 31.3394 50.9468C32.4325 50.9713 33.5259 50.9952 34.6204 51.0111C35.9691 51.0308 37.3717 51.0849 38.7414 50.9822L39.105 50.9551L39.0346 50.7728C39.0557 50.7264 39.0683 50.6789 39.0705 50.637C39.0743 50.5655 39.0578 50.48 39.0036 50.4051C38.9446 50.3238 38.8528 50.2725 38.7493 50.2644C37.3917 50.159 35.9993 50.1876 34.6633 50.1594C33.5685 50.1366 32.4736 50.1057 31.3774 50.073C28.8143 49.9981 26.2525 49.9529 23.6839 50.0031C23.5712 50.0058 23.462 50.0537 23.3897 50.1479ZM23.7115 50.5176C23.5568 50.5143 23.5297 50.2769 23.6896 50.2731C26.2518 50.223 28.8081 50.2675 31.3694 50.3424L34.6578 50.4294L36.6943 50.4528C37.3747 50.4623 38.0546 50.4813 38.7286 50.5337C38.8319 50.5418 38.8209 50.7044 38.7212 50.7115L38.7216 50.7126C38.0447 50.7633 37.3597 50.7752 36.6746 50.7723L34.6247 50.7417C33.5311 50.7257 32.4385 50.7016 31.3451 50.677C28.8009 50.6189 26.256 50.5749 23.7115 50.5176Z" fill="#1E5736"/>
<path d="M28.8734 46.2205C33.0465 46.0827 37.218 45.9402 41.394 45.9522C41.6856 45.9534 41.7351 46.3913 41.4351 46.4102C37.2696 46.6731 33.0985 46.7184 28.9262 46.8133C28.5451 46.822 28.4892 46.2336 28.8734 46.2205Z" fill="#1E5736"/>
<path d="M28.45 46.1571C28.36 46.2766 28.3325 46.4219 28.3443 46.5503C28.3678 46.8037 28.5675 47.0918 28.9327 47.0835C33.1003 46.9887 37.2794 46.9431 41.4518 46.6797C41.598 46.6705 41.7273 46.606 41.8121 46.4937C41.8925 46.3871 41.9165 46.2593 41.9052 46.1471C41.8826 45.9251 41.7049 45.6837 41.3954 45.6823C37.2137 45.6703 33.036 45.8131 28.864 45.9509L28.7408 45.9675C28.6224 45.9968 28.5215 46.0622 28.45 46.1571ZM28.9262 46.8133C28.5451 46.822 28.4892 46.2336 28.8734 46.2205C33.0465 46.0827 37.218 45.9402 41.394 45.9522C41.6672 45.9536 41.7278 46.3378 41.4871 46.4015L41.4351 46.4102C38.3109 46.6074 35.1836 46.6817 32.055 46.7468L28.9262 46.8133Z" fill="#1E5736"/>
<path d="M21.1959 46.5759C22.2319 46.4355 23.2898 46.4289 24.3338 46.3821C25.3779 46.3352 26.4065 46.2906 27.442 46.2455C27.8693 46.2267 27.9236 46.8983 27.5007 46.9037C26.4331 46.9164 25.366 46.9303 24.2989 46.9441C23.2318 46.958 22.2156 47.0093 21.1814 46.9326C20.9699 46.9169 21.0033 46.6019 21.1959 46.5759Z" fill="#1E5736"/>
<path d="M21.0697 46.3301C20.8744 46.3982 20.7785 46.5866 20.7676 46.7393C20.7611 46.8318 20.7813 46.9399 20.8497 47.0332C20.9231 47.1332 21.0356 47.1929 21.1618 47.2022C22.2113 47.28 23.2484 47.2279 24.302 47.2142C25.3691 47.2004 26.4367 47.1865 27.5041 47.1738C27.6891 47.1715 27.8452 47.092 27.9457 46.9585C28.0404 46.8326 28.0715 46.679 28.0599 46.5425C28.0369 46.2732 27.8264 45.9583 27.4301 45.9758L24.3214 46.1126C23.2915 46.1588 22.2111 46.1657 21.1593 46.3082L21.0697 46.3301ZM21.1814 46.9326C20.9699 46.9169 21.0033 46.6019 21.1959 46.5759C22.2319 46.4355 23.2898 46.4289 24.3338 46.3821C25.3779 46.3352 26.4065 46.2906 27.442 46.2455L27.5178 46.2502C27.8505 46.3048 27.8927 46.8228 27.5743 46.8957L27.5007 46.9037L24.2989 46.9441C23.3653 46.9563 22.4701 46.9965 21.5683 46.9551L21.1814 46.9326Z" fill="#1E5736"/>
<path d="M53.8802 35.8478C53.066 35.1476 52.2329 34.4712 51.4176 33.7715C50.6023 33.0717 49.8009 32.4613 49.1299 31.6906C49.0548 31.6042 49.1881 31.5116 49.2674 31.5663C50.1246 32.1546 50.8759 32.9391 51.6375 33.6444C52.405 34.3555 53.1528 35.0881 53.9211 35.7976C53.9514 35.8253 53.9108 35.8728 53.8798 35.8466L53.8802 35.8478Z" fill="#1E5736"/>
<path d="M48.842 31.5851C48.8248 31.6943 48.8621 31.7949 48.9257 31.8681C49.6138 32.6585 50.4424 33.2902 51.2418 33.9763C51.651 34.3276 52.0648 34.6725 52.4764 35.0163C52.8886 35.3605 53.2995 35.7036 53.7048 36.0522L54.4823 36.721L54.1877 35.9052C54.1954 35.8792 54.2012 35.8516 54.2013 35.8219C54.2016 35.7365 54.1663 35.6562 54.1044 35.5991L51.8208 33.4467C51.1689 32.843 50.4926 32.1471 49.7449 31.5786L49.4203 31.3443C49.259 31.2332 49.0748 31.283 48.9726 31.3645C48.9163 31.4096 48.8581 31.484 48.842 31.5851ZM49.1299 31.6906C49.0548 31.6042 49.1881 31.5116 49.2674 31.5663C50.1246 32.1546 50.8759 32.9391 51.6375 33.6444C52.405 34.3555 53.1528 35.0881 53.9211 35.7976C53.9514 35.8253 53.9108 35.8728 53.8798 35.8466L53.8802 35.8478C53.066 35.1476 52.2329 34.4712 51.4176 33.7715C50.6023 33.0717 49.8009 32.4613 49.1299 31.6906Z" fill="#1E5736"/>
<path d="M27.2769 36.9C28.5545 36.9061 29.8314 36.9321 31.1087 36.9632C32.3861 36.9942 33.5932 36.9739 34.8155 37.1159C34.9755 37.1344 34.9657 37.393 34.8039 37.3988C33.574 37.4431 32.3249 37.3231 31.097 37.2546C29.869 37.1861 28.5468 37.1069 27.2725 37.0118C27.2092 37.007 27.2129 36.8988 27.2769 36.9Z" fill="#1E5736"/>
<path d="M27.0331 36.7433C26.98 36.8072 26.9595 36.8821 26.9573 36.9442C26.9551 37.0064 26.9702 37.0805 27.0168 37.1471C27.0682 37.2202 27.1512 37.2735 27.2522 37.2811C28.5289 37.3764 29.8535 37.4557 31.082 37.5243C32.2952 37.592 33.5673 37.7138 34.8137 37.6689C35.0782 37.6594 35.1941 37.4346 35.2005 37.2728C35.2069 37.1116 35.1096 36.8782 34.8468 36.8477C33.6082 36.7037 32.3777 36.7243 31.1149 36.6936C29.8388 36.6626 28.5617 36.6363 27.2833 36.6302C27.1823 36.6283 27.0918 36.6729 27.0331 36.7433ZM27.2725 37.0118C27.2092 37.007 27.2129 36.8988 27.2769 36.9C28.5545 36.9061 29.8314 36.9321 31.1087 36.9632L32.9826 36.9975C33.5967 37.0141 34.2044 37.0449 34.8155 37.1159L34.8674 37.1336C34.9557 37.1866 34.9499 37.3392 34.8574 37.3853L34.8039 37.3988C34.189 37.421 33.5693 37.4022 32.9499 37.3692L31.097 37.2546C29.8696 37.1861 28.5478 37.1067 27.274 37.0116L27.2725 37.0118Z" fill="#1E5736"/>
<path d="M27.0194 37.5063C27.1557 38.2762 27.0254 39.3198 26.3995 39.8632C26.3295 39.9238 26.219 39.8246 26.2624 39.7467C26.439 39.4287 26.6663 39.1567 26.793 38.8094C26.9465 38.3908 26.9868 37.9547 26.9407 37.5136C26.9356 37.463 27.0104 37.4577 27.0194 37.5063Z" fill="#1E5736"/>
<path d="M26.7525 37.2999C26.7046 37.3511 26.6787 37.414 26.6723 37.4778L26.672 37.5405L26.6725 37.542C26.7148 37.9478 26.677 38.3417 26.5397 38.7162C26.4861 38.8629 26.4093 38.9997 26.3179 39.1456C26.2309 39.2843 26.1195 39.4488 26.0267 39.6159C25.9227 39.8031 26.0203 39.9808 26.1114 40.0602C26.2057 40.1424 26.4061 40.2148 26.5768 40.067C26.9469 39.7455 27.1569 39.289 27.2586 38.8282C27.3606 38.3658 27.3586 37.8763 27.2848 37.4593L27.2847 37.457C27.25 37.2697 27.0809 37.1935 26.9526 37.204C26.8872 37.2094 26.8117 37.2368 26.7525 37.2999ZM26.9407 37.5136C26.9356 37.463 27.0104 37.4577 27.0194 37.5063C27.1536 38.2644 27.0279 39.2866 26.4264 39.8366L26.3995 39.8632C26.3295 39.9238 26.219 39.8246 26.2624 39.7467C26.439 39.4287 26.6663 39.1567 26.793 38.8094C26.9465 38.3908 26.9868 37.9547 26.9407 37.5136Z" fill="#1E5736"/>
</svg>
