<svg width="64" height="64" viewBox="0 0 64 64" fill="none" xmlns="http://www.w3.org/2000/svg">
<path d="M61.496 29.984L60.1946 26.1848L56.1819 24.7098L56.2401 23.5648L59.0827 19.8124L57.4331 14.488L53.2194 9.54034L47.4669 11.4068L42.7065 9.67846L41.4405 4.81299H33.3888L29.561 9.58143L24.457 11.4605L19.9248 9.71957L18.6919 9.91592L12.5045 14.633L12.2328 16.1399L13.1712 19.4231L10.3103 24.1482L8.12075 25.1357L4.12288 26.3663L2.57031 33.3643L3.93338 38.4124L8.12075 40.0004V41.4228L5.16401 45.3567L6.857 50.535L11.2932 55.2954L16.7558 53.7338L21.031 55.4359L22.7286 59.9395H31.2506L34.3888 55.5455L39.381 53.6253L44.7831 55.324L51.8404 50.2233L51.9854 48.987L51.1851 45.3955L53.8633 41.0518L55.8794 39.5837L59.7197 38.5894L60.3373 37.8736L61.8351 31.677L61.4971 29.9886L61.496 29.984ZM43.6209 28.3995C41.8149 40.1271 29.7266 41.0484 29.7266 41.0484C29.7266 41.0484 18.4214 41.2573 19.6509 33.4796C20.8803 25.7019 29.0679 22.6093 29.0679 22.6093C44.4566 19.2542 43.6221 28.3995 43.6221 28.3995H43.6209Z" fill="#CFF6E0"/>
<path d="M42.146 22.8089C41.2772 21.6787 40.2977 20.8282 39.0032 20.2197C37.6584 19.5873 36.1823 19.1683 34.7005 19.0553C32.1114 18.859 29.2585 19.3339 26.9274 20.4937C25.2298 21.3374 23.6259 22.5406 22.2252 23.8078C22.1156 23.9071 22.2777 24.0681 22.3873 23.9699C23.2583 23.1833 24.1807 22.455 25.1796 21.8374C25.9833 21.3396 26.86 21.0029 27.7333 20.6478C29.2083 20.0485 30.7278 19.7117 32.31 19.5519C34.0327 19.3784 35.8444 19.4149 37.5088 19.9378C39.1733 20.4606 40.9553 21.5097 42.1448 22.8123C42.146 22.8134 42.1494 22.8123 42.1483 22.81L42.146 22.8089Z" fill="#1E5736"/>
<path d="M26.8156 20.2701C29.1915 19.088 32.0903 18.6069 34.719 18.8062C36.234 18.9218 37.7405 19.3498 39.1096 19.9937C40.4267 20.6128 41.4249 21.4763 42.3049 22.609L42.3342 22.6236L42.3723 22.6978C42.401 22.7553 42.4106 22.8336 42.3772 22.9107C42.3474 22.9793 42.2959 23.0172 42.259 23.0357C42.2215 23.0545 42.1796 23.0636 42.1369 23.0621C42.1046 23.0608 42.0537 23.0514 42.0041 23.0172L41.9826 23.0064L41.9699 22.9898L41.968 22.9888L41.9602 22.981C40.8046 21.7157 39.0626 20.688 37.4338 20.1763C35.8139 19.6675 34.0397 19.6287 32.3352 19.8004C30.7723 19.9582 29.2765 20.2906 27.8274 20.8795C26.9462 21.2377 26.0923 21.5663 25.3108 22.0504C24.3281 22.658 23.4179 23.3766 22.5549 24.1558C22.378 24.3143 22.1575 24.2502 22.0471 24.1402C21.991 24.0842 21.9451 24.0013 21.9397 23.9019C21.934 23.7948 21.9782 23.6948 22.0578 23.6226C23.4691 22.346 25.0914 21.1271 26.8156 20.2701ZM34.7005 19.0553C32.1114 18.859 29.2585 19.3339 26.9274 20.4937L26.6106 20.6558C25.0304 21.4878 23.5384 22.6197 22.2252 23.8078C22.13 23.8946 22.2412 24.028 22.344 23.9947L22.3873 23.9699C23.1495 23.2816 23.9511 22.6378 24.8088 22.0738L25.1796 21.8374C25.7824 21.4641 26.4266 21.1815 27.0793 20.9136L27.7333 20.6478C29.024 20.1234 30.3489 19.8004 31.7199 19.6207L32.31 19.5519C34.0327 19.3784 35.8444 19.4149 37.5088 19.9378C39.1733 20.4606 40.9553 21.5097 42.1448 22.8123L42.1483 22.81L42.146 22.8089C41.2772 21.6787 40.2977 20.8282 39.0032 20.2197C37.6584 19.5873 36.1823 19.1683 34.7005 19.0553Z" fill="#1E5736"/>
<path d="M22.8444 39.6338C23.704 40.1395 24.6755 40.6155 25.6402 40.8815C26.6048 41.1475 27.6003 41.224 28.5752 41.2274C30.6872 41.2343 32.8482 40.805 34.7946 39.9899C38.8313 38.2992 42.5974 34.8151 43.4776 30.3823C43.9411 28.0454 43.8851 25.6561 42.6922 23.5373C42.6202 23.4094 42.4228 23.5247 42.4947 23.6526C44.7402 27.6402 43.0118 32.613 40.0905 35.766C37.3769 38.6942 33.3653 40.7308 29.3538 40.9158C27.1665 41.0162 24.8034 40.6372 22.8467 39.6315C22.8444 39.6315 22.8433 39.6338 22.8444 39.6349V39.6338Z" fill="#1E5736"/>
<path d="M42.6672 23.2375C42.7697 23.2568 42.8564 23.3211 42.9094 23.4152C44.1422 25.6049 44.1928 28.0612 43.7229 30.4308C42.8214 34.9711 38.9762 38.5097 34.8908 40.2209C32.9136 41.0488 30.7195 41.4846 28.5744 41.4777C27.5882 41.4742 26.5679 41.3964 25.5734 41.1222C24.7201 40.8869 23.8681 40.4936 23.094 40.0636V40.2384L22.6672 39.8117C22.6124 39.7568 22.5944 39.693 22.5949 39.6349L22.594 39.1964L22.9074 39.381L22.9611 39.4093C24.8705 40.3907 27.1879 40.7651 29.342 40.6662C33.2815 40.4846 37.2338 38.481 39.9074 35.5959C42.7911 32.4832 44.4464 27.6288 42.2766 23.7755C42.2237 23.6816 42.2151 23.5746 42.2492 23.4787C42.2811 23.3891 42.3448 23.3234 42.4133 23.2834C42.4817 23.2434 42.5718 23.2195 42.6672 23.2375ZM42.6922 23.5373C42.621 23.4108 42.4268 23.5224 42.4924 23.6486L42.4934 23.6496C42.4938 23.6505 42.4942 23.6517 42.4947 23.6526C44.7402 27.6402 43.0118 32.613 40.0905 35.766C37.3769 38.6942 33.3653 40.7308 29.3538 40.9158L28.9416 40.9289C26.8726 40.9663 24.681 40.5743 22.8467 39.6315L22.8444 39.6338C23.704 40.1395 24.6755 40.6155 25.6402 40.8815C26.4844 41.1143 27.3522 41.2023 28.2092 41.2228L28.5752 41.2274C30.5551 41.2338 32.5781 40.8566 34.427 40.1378L34.7946 39.9899C38.7052 38.3521 42.362 35.0311 43.3869 30.7951L43.4776 30.3823C43.912 28.1916 43.8899 25.9545 42.9025 23.9377L42.6922 23.5373Z" fill="#1E5736"/>
<path d="M33.6706 19.221C32.4788 19.1776 31.2504 19.1982 30.086 19.4744C28.9215 19.7507 27.7503 20.1662 26.6521 20.6891C24.6257 21.6526 22.806 22.8615 21.3699 24.6082C20.2237 26.0032 19.3949 27.6551 18.9566 29.4086C18.5182 31.1621 18.5913 32.6907 18.9783 34.37C19.3653 36.0493 20.2626 37.708 21.5811 38.9181C21.6895 39.0174 21.8516 38.8564 21.7432 38.756C19.299 36.5127 18.678 33.2249 19.2865 30.0604C20.0125 26.292 22.653 23.2634 25.9214 21.3912C27.0996 20.7165 28.3873 20.229 29.699 19.8888C31.0107 19.5486 32.3212 19.261 33.6694 19.2233C33.6717 19.2233 33.6717 19.2199 33.6694 19.2199L33.6706 19.221Z" fill="#1E5736"/>
<path d="M30.028 19.2308C31.2139 18.9494 32.4567 18.9281 33.6442 18.97H33.6696C33.7326 18.9701 33.7954 18.9952 33.8444 19.0433L33.8454 19.0423L33.8463 19.0433L34.3034 19.4945L33.6813 19.471C33.6793 19.4711 33.6774 19.4719 33.6754 19.472L33.6764 19.473C32.3576 19.5098 31.0691 19.792 29.7614 20.1312C28.4671 20.4669 27.2007 20.9462 26.0456 21.6077C22.9243 23.3957 20.4033 26.2432 19.6041 29.765L19.5319 30.1077C18.9347 33.2138 19.5497 36.4035 21.9118 38.5716L21.9127 38.5726C21.9917 38.6457 22.0343 38.7465 22.028 38.8529C22.022 38.9513 21.9757 39.0332 21.9196 39.0892C21.8088 39.1993 21.588 39.2643 21.4118 39.1029C20.0527 37.8554 19.1322 36.1496 18.735 34.4261C18.3411 32.7167 18.2647 31.1473 18.7145 29.348C19.1618 27.5589 20.0067 25.8733 21.1764 24.4495C22.6434 22.6654 24.4978 21.4365 26.5446 20.4632C27.6582 19.933 28.846 19.5112 30.028 19.2308ZM33.6694 19.2199C32.4779 19.1765 31.2501 19.1983 30.086 19.4744L29.6491 19.5843C28.6298 19.8561 27.613 20.2316 26.6521 20.6891C24.6257 21.6526 22.806 22.8615 21.3699 24.6082C20.2237 26.0032 19.3949 27.6551 18.9566 29.4086L18.8805 29.7347C18.5287 31.3537 18.6154 32.7956 18.9783 34.37C19.3653 36.0493 20.2626 37.708 21.5811 38.9181C21.6895 39.0174 21.8516 38.8564 21.7432 38.756C19.4518 36.6529 18.7629 33.6316 19.1872 30.6546L19.2865 30.0604C19.9899 26.4098 22.4898 23.453 25.6168 21.5697L25.9214 21.3912C26.9523 20.8008 28.0673 20.3542 29.2086 20.0238L29.699 19.8888C31.0107 19.5486 32.3212 19.261 33.6694 19.2233C33.6717 19.2233 33.6717 19.2199 33.6694 19.2199Z" fill="#1E5736"/>
<path d="M47.0714 29.0855C47.2027 28.1677 47.3511 27.162 47.2403 26.2395C47.1296 25.3171 46.9024 24.4381 46.5816 23.5865C45.9355 21.8707 44.9902 20.2998 43.6169 19.0703C41.5209 17.1935 38.7115 15.9092 35.9032 15.657C34.8529 15.5622 33.741 15.657 32.6907 15.7334C31.4658 15.8236 30.2568 16.0234 29.0593 16.2917C28.8744 16.3328 28.9531 16.6159 29.1369 16.5748C31.0742 16.1398 33.1451 15.8054 35.1246 16.125C36.579 16.359 38.0162 16.5759 39.3907 17.1365C42.0735 18.229 44.7049 20.2587 45.9161 22.9403C46.335 23.8684 46.6216 24.8559 46.7814 25.8605C46.9527 26.9382 47.1216 27.9907 47.0668 29.0855C47.0668 29.0878 47.0714 29.089 47.0714 29.0855Z" fill="#1E5736"/>
<path d="M33.4694 15.4268C34.2791 15.372 35.1191 15.3355 35.9255 15.4082C38.7908 15.6657 41.6504 16.9735 43.7839 18.8838C45.1941 20.1464 46.1586 21.7548 46.8151 23.4981C47.1423 24.3666 47.3756 25.2657 47.4889 26.21C47.6043 27.1713 47.4491 28.2117 47.319 29.1211L47.3181 29.1202C47.3105 29.1735 47.2857 29.236 47.2263 29.2832C47.1596 29.336 47.0854 29.3419 47.0378 29.336C46.9898 29.3299 46.9423 29.3098 46.903 29.2754C46.8625 29.24 46.8172 29.1752 46.8171 29.086V29.0733L46.8278 28.6758C46.8298 27.7513 46.6853 26.8464 46.5348 25.8995C46.3783 24.9155 46.0974 23.9495 45.6882 23.043C44.5114 20.4378 41.9409 18.4451 39.2966 17.3682C37.9536 16.8205 36.546 16.6073 35.0847 16.3721C33.1552 16.0606 31.124 16.3847 29.1921 16.8184C28.9385 16.8749 28.7641 16.6956 28.7184 16.5303C28.6953 16.4463 28.6963 16.3439 28.7438 16.2481C28.7951 16.1451 28.8893 16.0737 29.0046 16.0479L29.9128 15.8584C30.8233 15.6833 31.7428 15.5529 32.6725 15.4844L33.4694 15.4268ZM47.0714 29.0855C47.2027 28.1677 47.3511 27.162 47.2403 26.2395C47.1434 25.4326 46.9578 24.6585 46.6979 23.9073L46.5816 23.5865C45.9759 21.978 45.1075 20.4966 43.8698 19.3047L43.6169 19.0703C41.6519 17.3108 39.0598 16.0717 36.4294 15.7159L35.9032 15.657C34.8529 15.5622 33.741 15.657 32.6907 15.7334L32.2321 15.7725C31.1637 15.8748 30.1071 16.0569 29.0593 16.2917L29.0016 16.3174C28.911 16.3871 28.9569 16.5527 29.0729 16.5762L29.1369 16.5748C31.0742 16.1398 33.1451 15.8054 35.1246 16.125C36.579 16.359 38.0162 16.5759 39.3907 17.1365C42.0735 18.229 44.7049 20.2587 45.9161 22.9403C46.335 23.8684 46.6216 24.8559 46.7814 25.8605C46.9527 26.9382 47.1216 27.9907 47.0668 29.0855H47.0714Z" fill="#1E5736"/>
<path d="M15.5868 35.5012C15.8676 36.6748 16.3003 37.8951 16.9088 38.9431C17.5172 39.9911 18.426 40.8713 19.3586 41.5985C21.2651 43.0848 23.6819 44.0392 26.0712 44.3577C28.8259 44.7264 31.697 44.4045 34.3124 43.4695C37.1538 42.4535 39.9564 40.8393 42.0136 38.6052C44.202 36.2296 46.0948 33.5388 46.8973 30.3686C46.9441 30.1848 46.661 30.1072 46.6142 30.291C45.9327 32.9863 44.4315 35.5891 42.452 37.5435C40.4724 39.4979 37.9084 41.3964 35.2177 42.4901C30.5874 44.3714 24.7881 44.7367 20.4477 41.9101C18.1839 40.4352 16.3711 38.0869 15.5902 35.5001C15.5902 35.4967 15.5845 35.4978 15.5857 35.5012H15.5868Z" fill="#1E5736"/>
<path d="M46.5757 29.975C46.6706 29.9291 46.7723 29.9274 46.857 29.9506C46.9417 29.9739 47.0272 30.0266 47.0855 30.1118C47.132 30.1798 47.1554 30.2608 47.1519 30.3452L47.1392 30.4301C46.3221 33.6579 44.399 36.3853 42.1978 38.7748C40.1064 41.0462 37.2652 42.6789 34.397 43.7045C31.7452 44.6525 28.8329 44.9801 26.0377 44.6059C23.6083 44.282 21.149 43.3112 19.2047 41.7953C18.2595 41.0584 17.3238 40.1553 16.6929 39.0688C16.0727 38.0005 15.6331 36.7642 15.3482 35.5805C15.3244 35.509 15.3331 35.425 15.3814 35.3559C15.4237 35.2956 15.4827 35.2656 15.5328 35.2543C15.5585 35.2486 15.5905 35.2465 15.6246 35.2514H15.7838L15.8218 35.4125C15.8238 35.4178 15.8261 35.4228 15.8277 35.4282H15.8297C16.5927 37.9559 18.3679 40.2564 20.5845 41.7006C24.8316 44.4663 30.5371 44.1218 35.1236 42.2582C37.7758 41.1802 40.3128 39.3038 42.2759 37.3657C44.2235 35.4429 45.7015 32.8794 46.3716 30.2289C46.4008 30.1146 46.4746 30.0241 46.5757 29.975ZM46.8973 30.3686C46.9441 30.1848 46.661 30.1072 46.6142 30.291L46.4771 30.7953C45.7434 33.3093 44.3077 35.7113 42.452 37.5435C40.4724 39.4979 37.9084 41.3964 35.2177 42.4901C30.7321 44.3126 25.1495 44.7121 20.859 42.1655L20.4477 41.9101C18.3253 40.5273 16.5994 38.3769 15.7486 35.9819L15.5902 35.5001C15.5902 35.4967 15.5845 35.4978 15.5857 35.5012H15.5868C15.8676 36.6748 16.3003 37.8951 16.9088 38.9431C17.5172 39.9911 18.426 40.8713 19.3586 41.5985C21.2651 43.0848 23.6819 44.0392 26.0712 44.3577C28.8259 44.7264 31.697 44.4045 34.3124 43.4695C37.1538 42.4535 39.9564 40.8393 42.0136 38.6052C44.202 36.2296 46.0948 33.5388 46.8973 30.3686Z" fill="#1E5736"/>
<path d="M42.9878 18.8716C42.0026 17.9994 40.845 17.1592 39.6235 16.6615C38.2992 16.1226 36.8768 15.8167 35.4578 15.6763C32.7671 15.4114 30.098 15.6991 27.5683 16.6683C25.1823 17.5827 23.0647 18.9835 21.1936 20.7141C19.3225 22.4448 17.9663 24.3159 16.9035 26.5545C15.8292 28.8172 15.0689 31.1951 15.134 33.726C15.1386 33.9144 15.4331 33.9155 15.4274 33.726C15.3109 29.1745 17.7585 25.0864 20.8249 21.9002C24.1834 18.4104 29.001 15.9274 33.9189 15.9594C35.5263 15.9697 37.1462 16.2379 38.6714 16.7425C40.1966 17.2471 41.6932 17.8716 42.9843 18.8762C42.9866 18.8784 42.99 18.875 42.9878 18.8727V18.8716Z" fill="#1E5736"/>
<path d="M27.4788 16.4353C30.0489 15.4506 32.7579 15.1593 35.4827 15.4275C36.92 15.5697 38.367 15.8797 39.718 16.4294C40.976 16.9421 42.1579 17.8029 43.1536 18.6843L43.2375 18.7585V18.8728C43.2376 18.8782 43.2388 18.8839 43.2385 18.8894C43.2344 18.9585 43.2023 19.0144 43.1643 19.0525C43.1263 19.0905 43.0704 19.1225 43.0012 19.1267C42.9369 19.1305 42.8777 19.1083 42.8313 19.072C41.5736 18.0934 40.1082 17.4815 38.593 16.9802C37.0925 16.4838 35.4983 16.2198 33.9172 16.2097C29.0818 16.1783 24.3268 18.6224 21.0051 22.074C17.9612 25.2369 15.5634 29.2626 15.677 33.7185L15.6711 33.8054C15.6557 33.8893 15.6131 33.964 15.5491 34.0203C15.4695 34.09 15.3717 34.118 15.2844 34.1179C15.1968 34.1177 15.1003 34.0892 15.0217 34.0232C14.9593 33.9707 14.9144 33.9001 14.8948 33.8181L14.884 33.7322C14.8176 31.1467 15.5951 28.7279 16.678 26.447C17.7541 24.1804 19.129 22.2835 21.0237 20.531C22.9144 18.7822 25.0589 17.3627 27.4788 16.4353ZM42.9878 18.8716C42.0641 18.0539 40.9891 17.2642 39.8518 16.7585L39.6235 16.6615C38.4647 16.19 37.2306 15.897 35.9895 15.7371L35.4578 15.6763C32.7671 15.4114 30.098 15.6991 27.5683 16.6683L27.1243 16.8455C24.9187 17.7591 22.9478 19.0916 21.1936 20.7141L20.8489 21.0408C19.1544 22.6805 17.8998 24.4559 16.9035 26.5545L16.7063 26.9802C15.7378 29.1151 15.073 31.3533 15.134 33.726C15.1386 33.9144 15.4331 33.9155 15.4274 33.726C15.3109 29.1745 17.7585 25.0864 20.8249 21.9002C24.1834 18.4104 29.001 15.9274 33.9189 15.9594L34.5217 15.9753C35.9295 16.0404 37.3368 16.301 38.6714 16.7425C40.1966 17.2471 41.6932 17.8716 42.9843 18.8762L42.9878 18.8727V18.8716Z" fill="#1E5736"/>
<path d="M37.2426 4.62685C38.0154 4.64739 38.7871 4.66794 39.56 4.68507C39.9447 4.69306 40.3386 4.68735 40.7176 4.76727C41.753 4.98645 41.6845 6.52989 41.8238 7.3838C41.9368 8.08131 41.9996 8.86331 42.3603 9.49004C42.6218 9.94326 42.9597 10.1008 43.4289 10.2572C44.2052 10.5152 44.9586 10.9033 45.7121 11.2218C46.0648 11.3702 46.3993 11.5381 46.784 11.5963C47.6334 11.7253 48.4941 11.5118 49.2841 11.2093C50.2819 10.8269 51.2294 10.3599 52.2477 10.0255C52.9749 9.78686 53.4327 10.0403 53.9007 10.5746C54.1302 10.8371 54.3539 11.1043 54.58 11.368L56.4419 13.5438C56.6143 13.7459 56.7958 13.9434 56.9613 14.1512C57.2228 14.48 57.3883 14.8293 57.249 15.2505C57.0892 15.7334 56.5903 16.2175 56.2889 16.625C55.7159 17.3979 55.072 18.1536 54.58 18.9824C54.1907 19.6377 54.1085 20.1914 54.2991 20.9163C54.5001 21.6823 54.669 22.4768 54.8129 23.2542C54.8848 23.6447 54.8893 23.9906 55.1553 24.3239C55.5709 24.8433 56.2467 25.0911 56.8517 25.3137C57.3141 25.4849 57.7787 25.6527 58.2411 25.8228C58.7034 25.9929 59.6201 26.1413 59.8793 26.5683C60.0847 26.9062 59.9135 27.4085 59.8267 27.7784L59.224 30.3333C59.0436 31.097 58.8735 31.863 58.684 32.6233C58.5424 33.1941 58.3427 33.7033 57.7856 33.9761C56.8906 34.4156 55.8072 34.6177 54.8551 34.9145C53.5754 35.3129 52.2934 35.8757 51.5091 37.023C51.0193 37.7399 50.5718 38.4888 50.1038 39.2206C49.9074 39.5265 49.6392 39.7902 49.4839 40.1179C49.2031 40.7081 49.2556 41.3839 49.3937 42.0038C49.5992 42.9285 49.9154 43.8269 50.1323 44.7482C50.3104 45.5051 49.8766 45.924 49.3161 46.3601C47.9895 47.391 46.6265 48.3762 45.2828 49.3831C44.7075 49.8146 43.8889 50.6103 43.1572 50.5897C42.6377 50.5749 42.0213 50.1605 41.5509 49.9447C41.0806 49.729 40.6057 49.5007 40.1285 49.2917C39.4721 49.0052 38.778 48.8385 38.0577 48.8842C37.1421 48.9424 36.2562 49.3534 35.3978 49.6513C34.5393 49.9493 33.5917 50.1765 32.8577 50.7153C31.7036 51.5624 31.2252 52.8204 30.4581 53.9677C30.1932 54.3627 29.9341 54.8741 29.5905 55.2029C29.1715 55.6036 28.5596 55.6287 28.0128 55.6322C26.3118 55.6413 24.6097 55.6207 22.9087 55.6139C22.7386 55.6139 22.5674 55.6173 22.3961 55.6116C21.9509 55.599 21.4064 55.5808 21.2032 55.1036C21.0171 54.6675 21.0125 54.0579 20.9338 53.5933C20.7317 52.3878 20.7123 50.592 19.3081 50.1445C18.5592 49.9059 17.832 49.5657 17.1037 49.2632C16.8114 49.1422 16.5318 48.9527 16.2384 48.8579C15.5683 48.641 14.7943 48.8477 14.1504 49.06C13.2314 49.3637 12.333 49.7381 11.4288 50.0817C10.9676 50.2564 10.3032 50.632 9.80206 50.5475C9.46757 50.4904 9.22213 50.2655 8.99837 50.0224C8.51662 49.4961 8.06683 48.9367 7.6022 48.3956C7.04967 47.7506 6.49029 47.1102 5.94347 46.4617C5.90579 46.4161 5.8647 46.3738 5.82817 46.327C5.66834 46.1227 5.53706 45.9206 5.5245 45.6592C5.50852 45.3327 5.69917 45.0987 5.88525 44.8429C6.48458 44.0199 7.11018 43.215 7.71408 42.3954C8.15702 41.7949 8.67987 41.0745 8.69814 40.2937C8.70613 39.9364 8.54402 39.6019 8.46982 39.2548C8.30885 38.5025 8.1456 37.7502 7.98692 36.9979C7.63873 35.3483 6.00397 34.8666 4.553 34.5115C4.10778 34.4031 3.91828 35.0892 4.3635 35.1976C5.24367 35.4111 6.27796 35.6131 6.91268 36.3164C7.2426 36.6817 7.2974 37.1372 7.39672 37.595C7.5691 38.3964 7.72321 39.2058 7.94811 39.9912C8.19583 40.8565 7.27228 41.844 6.79966 42.4878C6.21745 43.2801 5.4834 44.0747 5.02791 44.9457C4.5473 45.8658 5.20485 46.5873 5.78022 47.2471C6.43093 47.9926 7.0805 48.7392 7.7312 49.4847C8.17985 49.9995 8.6559 50.7096 9.28263 51.0178C10.0749 51.4071 10.9528 50.8991 11.6937 50.6148C12.6161 50.261 13.5328 49.8614 14.4769 49.5692C15.2086 49.342 15.7829 49.2792 16.4724 49.6205C16.8092 49.7872 17.1768 49.9105 17.5238 50.0532C17.9485 50.2279 18.3709 50.4151 18.8001 50.5783C19.3081 50.7712 19.6848 50.8843 19.9223 51.4379C20.2534 52.2097 20.307 53.1309 20.4497 53.9506C20.5684 54.6287 20.5536 55.5602 21.25 55.921C21.8573 56.2361 22.7112 56.131 23.3813 56.1288C24.3814 56.1253 25.3825 56.1219 26.3826 56.1185C26.9716 56.1162 27.5618 56.1276 28.1509 56.1128C28.853 56.0945 29.5574 55.9609 30.0368 55.4084C30.3382 55.0602 30.5768 54.6321 30.8325 54.2508C31.6876 52.9768 32.2173 51.4573 33.7082 50.7575C34.4902 50.39 35.3795 50.1628 36.1969 49.8876C36.4766 49.794 36.7551 49.6947 37.0359 49.6034C37.9857 49.2974 38.9504 49.3465 39.8614 49.7529C40.7724 50.1594 41.616 50.6377 42.5247 50.9973C43.3398 51.3192 44.0522 50.9767 44.7223 50.4938C45.994 49.5771 47.2315 48.6125 48.485 47.6718C48.9656 47.3122 49.4656 46.9675 49.9234 46.5782C50.4588 46.1227 50.8607 45.5964 50.7259 44.8635C50.5536 43.924 50.2134 43.0038 49.9793 42.0792C49.8812 41.6922 49.8013 41.2972 49.8412 40.8953C49.8835 40.4638 50.0981 40.1898 50.3515 39.8565C50.5399 39.6087 50.6928 39.3233 50.8595 39.0619C51.3127 38.353 51.718 37.5162 52.3093 36.9089C53.6861 35.4967 55.8483 35.2364 57.6372 34.6245C58.6543 34.2763 59.0345 33.5275 59.2651 32.54C59.6429 30.9212 60.0608 29.3058 60.3998 27.6791C60.4969 27.211 60.5836 26.6585 60.2937 26.2407C60.1099 25.9758 59.8313 25.8548 59.5402 25.7406C59.0516 25.5489 58.5539 25.381 58.0607 25.2018C57.2913 24.9221 55.9784 24.6767 55.5012 23.9278C55.33 23.6584 55.3174 23.1447 55.2432 22.8147L54.9213 21.3672C54.8266 20.9425 54.6154 20.4014 54.701 19.9847C54.8951 19.0383 55.7741 18.165 56.3323 17.4093C56.6348 16.9994 56.9385 16.5908 57.2399 16.1809C57.4933 15.8362 57.7844 15.488 57.8255 15.0462C57.8963 14.2779 57.1634 13.6386 56.6965 13.1043L54.7455 10.8725C54.2797 10.3394 53.7786 9.59279 53.0274 9.4889C52.4794 9.41355 51.9315 9.70352 51.4257 9.88846C51.0011 10.0437 50.5912 10.1955 50.1837 10.3885C49.2533 10.8314 48.219 11.3006 47.163 11.2527C46.6653 11.2298 46.2372 11.038 45.7874 10.8508C45.0442 10.5414 44.3045 10.175 43.543 9.917C43.148 9.78343 42.898 9.70581 42.6697 9.3131C42.4871 8.99802 42.3992 8.63271 42.3295 8.27881C42.14 7.31417 42.0601 6.297 41.7907 5.35062C41.5087 4.35857 40.39 4.50926 39.5623 4.52753C38.7894 4.54465 38.0177 4.56406 37.2449 4.58575C37.2163 4.58575 37.2163 4.63027 37.2449 4.63027L37.2426 4.62685Z" fill="#1E5736"/>
<path d="M39.5569 4.27739C39.9445 4.26883 40.476 4.22434 40.93 4.31547C41.164 4.36249 41.3971 4.4483 41.595 4.60551C41.7962 4.76537 41.9477 4.98752 42.0315 5.28227C42.1705 5.77064 42.2595 6.27434 42.3372 6.76958C42.4156 7.26938 42.481 7.75467 42.5745 8.23051C42.6437 8.58203 42.7259 8.91135 42.886 9.18754L42.9573 9.29692C43.0278 9.39279 43.0977 9.45228 43.1731 9.49809C43.2849 9.56592 43.417 9.60997 43.6233 9.67973C44.394 9.94089 45.1618 10.3199 45.8831 10.6202C46.3448 10.8124 46.7295 10.9825 47.1741 11.003C48.1582 11.0477 49.1378 10.61 50.0764 10.1631C50.4957 9.96466 50.9161 9.80838 51.3401 9.65336C51.5638 9.57156 51.865 9.4389 52.1341 9.35258C52.4183 9.26141 52.7344 9.19624 53.0618 9.24126L53.2268 9.27348C53.6014 9.36762 53.909 9.59203 54.1663 9.83891C54.4536 10.1147 54.7178 10.4607 54.9339 10.7081L56.885 12.9395C57.0996 13.185 57.4242 13.5066 57.6653 13.8409C57.9119 14.1827 58.118 14.5966 58.0745 15.0694C58.0254 15.5967 57.6765 16.0098 57.4417 16.3291C57.1403 16.739 56.8352 17.1489 56.5335 17.5577C56.39 17.7519 56.2263 17.9531 56.0637 18.1543C55.8996 18.3575 55.735 18.5627 55.5823 18.7725C55.2744 19.1955 55.0316 19.6156 54.9456 20.0352C54.914 20.1892 54.9353 20.3851 54.9876 20.6182C55.0131 20.7321 55.0445 20.8473 55.0764 20.9649C55.1078 21.0802 55.1401 21.1997 55.1653 21.3125L55.4876 22.7598L55.5384 23.0538C55.5537 23.1584 55.5675 23.2638 55.5823 23.3526C55.6161 23.5559 55.656 23.7055 55.7112 23.793C55.9044 24.0963 56.2872 24.3212 56.763 24.5079C56.9958 24.5992 57.2397 24.6772 57.4778 24.751C57.712 24.8237 57.9463 24.8943 58.1458 24.9668L58.886 25.2315C59.1351 25.3205 59.3851 25.4113 59.6311 25.5079C59.9186 25.6206 60.2673 25.7636 60.4993 26.0977C60.682 26.3609 60.7387 26.6584 60.7415 26.9385C60.7442 27.2162 60.6936 27.494 60.6448 27.7295C60.305 29.3596 59.884 30.9863 59.5081 32.5967C59.3898 33.1034 59.2287 33.5742 58.9505 33.9668C58.6679 34.3655 58.2743 34.671 57.718 34.8614C57.2628 35.0171 56.7852 35.1502 56.3108 35.2823C55.8339 35.4151 55.3591 35.5468 54.8987 35.7032C53.9775 36.0161 53.1365 36.4186 52.4885 37.083C52.2118 37.3673 51.974 37.7107 51.7454 38.0791C51.6368 38.2542 51.5232 38.4466 51.4094 38.6387L51.0706 39.1963C50.9186 39.4347 50.7459 39.7503 50.5501 40.0079C50.3235 40.3059 50.1671 40.512 50.1087 40.794L50.0901 40.92C50.0547 41.2756 50.1248 41.6346 50.2219 42.0176C50.3374 42.4739 50.4781 42.9272 50.6155 43.3955C50.7518 43.8601 50.8833 44.3353 50.9719 44.8184C51.1118 45.5797 50.7521 46.1411 50.2893 46.585L50.0852 46.7686C49.8524 46.9666 49.6073 47.1546 49.3616 47.337L48.635 47.8721C47.3868 48.8088 46.1424 49.778 44.8684 50.6963C44.2277 51.1581 43.4756 51.5497 42.6077 51.2901L42.4329 51.2295C41.9686 51.0458 41.5224 50.833 41.0833 50.6172C40.6418 50.4004 40.209 50.1822 39.7591 49.9815C38.905 49.6006 38.0042 49.5546 37.1126 49.8418C36.8313 49.9333 36.5643 50.0288 36.2766 50.125C35.4342 50.4086 34.5796 50.6239 33.8147 50.9834C33.1258 51.3068 32.6511 51.8224 32.2385 52.4297C32.0315 52.7345 31.8425 53.0581 31.6487 53.3916C31.4565 53.7225 31.2592 54.0635 31.0403 54.3897C30.801 54.7465 30.5403 55.209 30.2259 55.5723C29.6743 56.2079 28.8764 56.3436 28.1575 56.3623C27.5655 56.3773 26.9638 56.366 26.3831 56.3682C25.8833 56.3699 25.3832 56.3724 24.8831 56.3741C24.3828 56.3758 23.8821 56.3772 23.3821 56.3789C23.0757 56.38 22.6573 56.4065 22.2835 56.3936C21.8978 56.3803 21.4882 56.3258 21.135 56.1426C20.6977 55.916 20.4985 55.514 20.3919 55.1202C20.3385 54.9231 20.3061 54.7191 20.2796 54.5284C20.2522 54.3318 20.232 54.1579 20.2034 53.9942C20.167 53.7848 20.1359 53.5686 20.1057 53.3555C20.0754 53.1412 20.0457 52.9284 20.01 52.7178C19.9386 52.2958 19.8466 51.895 19.6926 51.5362C19.5931 51.3042 19.4714 51.1771 19.3264 51.083C19.1673 50.9798 18.9787 50.9131 18.7112 50.8116C18.2785 50.647 17.8446 50.4552 17.429 50.2842C17.1042 50.1507 16.7075 50.0159 16.3616 49.8448C15.7537 49.5438 15.2532 49.5897 14.551 49.8077C13.6173 50.0967 12.7201 50.4893 11.7835 50.8487C11.4439 50.979 10.9992 51.1919 10.5745 51.3096C10.1348 51.4314 9.64619 51.4752 9.17214 51.2422C8.81623 51.0672 8.51561 50.7843 8.25515 50.4961C8.12396 50.351 7.99874 50.2006 7.88112 50.0567C7.76212 49.9111 7.65111 49.7734 7.54226 49.6485C7.2171 49.276 6.89243 48.903 6.56765 48.5303C6.24257 48.1573 5.91734 47.7838 5.59206 47.4112C5.31206 47.0901 4.97587 46.7165 4.78152 46.2998C4.57847 45.8645 4.52359 45.3709 4.80593 44.8301C5.04394 44.375 5.35242 43.9441 5.66823 43.5342C5.99029 43.1162 6.30774 42.7347 6.59792 42.3399L7.01394 41.7969C7.15878 41.6064 7.30332 41.4057 7.42898 41.1944C7.68009 40.7721 7.80126 40.3878 7.7073 40.0596C7.47943 39.2637 7.32325 38.4408 7.15261 37.6475C7.04596 37.1558 7.00049 36.7875 6.72683 36.4844C6.44698 36.1745 6.07134 35.9652 5.64382 35.8077C5.2133 35.649 4.75377 35.5493 4.30495 35.4405C4.12479 35.3965 3.99011 35.2864 3.91823 35.1387C3.8497 34.9979 3.846 34.8417 3.88308 34.7071C3.92036 34.5721 4.0036 34.4398 4.13112 34.3516C4.26375 34.2601 4.43278 34.2248 4.61257 34.2686C5.33636 34.4457 6.14103 34.6621 6.80984 35.0538C7.48842 35.4512 8.0397 36.0366 8.23171 36.9463C8.39028 37.6981 8.55298 38.449 8.71413 39.2022C8.74908 39.3656 8.80149 39.5114 8.85573 39.7022C8.90643 39.8805 8.95328 40.0824 8.94851 40.2989C8.93806 40.7427 8.78466 41.1587 8.5862 41.5303C8.48722 41.7157 8.37427 41.894 8.25905 42.0635L7.9153 42.544C7.30171 43.3768 6.69053 44.1617 6.08718 44.9903C5.88395 45.2696 5.76407 45.4265 5.77468 45.6465C5.78334 45.8249 5.86983 45.9749 6.02468 46.1729C6.03786 46.1898 6.05324 46.2077 6.07253 46.2295C6.08992 46.2492 6.11235 46.2746 6.13405 46.3008C6.68013 46.9483 7.23756 47.5849 7.79226 48.2325C8.26438 48.7823 8.70423 49.3307 9.18288 49.8536C9.40355 50.0934 9.59899 50.259 9.84402 50.3008L9.91433 50.3086C10.0857 50.3179 10.2989 50.2669 10.5442 50.1768C10.68 50.1269 10.8165 50.0692 10.9514 50.0108C11.0836 49.9536 11.218 49.8939 11.3401 49.8477L12.6936 49.3223C13.1491 49.1467 13.6087 48.9753 14.0716 48.8223C14.7098 48.6119 15.5589 48.3752 16.3157 48.6202C16.4839 48.6745 16.6431 48.7547 16.7864 48.8291C16.9357 48.9067 17.0662 48.9771 17.1995 49.0323L18.2942 49.4971C18.6557 49.6478 19.0163 49.7891 19.3841 49.9063C20.1967 50.1653 20.5925 50.817 20.8098 51.5098C21.0221 52.1867 21.0846 52.9828 21.18 53.5518L21.2317 53.9366C21.2467 54.0703 21.2609 54.2051 21.2766 54.3272C21.3019 54.523 21.3328 54.7029 21.3801 54.8584L21.4329 55.0059L21.4915 55.1075C21.5591 55.1975 21.6555 55.2548 21.7815 55.293C21.9611 55.3474 22.1747 55.3549 22.4036 55.3614C22.5692 55.3669 22.7318 55.3643 22.9085 55.3643C24.6121 55.3712 26.3116 55.391 28.011 55.3819L28.0128 55.6322L25.4612 55.6289C24.6103 55.6241 23.7593 55.6173 22.9087 55.6139C22.7386 55.6139 22.5674 55.6173 22.3961 55.6116C21.9509 55.599 21.4064 55.5808 21.2032 55.1036C21.0636 54.7765 21.0259 54.3518 20.9827 53.9639L20.9338 53.5933C20.7381 52.4255 20.7135 50.7038 19.4358 50.1905L19.3081 50.1445C18.9338 50.0252 18.5648 49.8802 18.1985 49.7276L17.1037 49.2632C16.8846 49.1725 16.6724 49.0433 16.4563 48.9444L16.2384 48.8579C15.5683 48.641 14.7943 48.8477 14.1504 49.06C13.2314 49.3637 12.333 49.7381 11.4288 50.0817L11.0501 50.2403C10.679 50.401 10.2552 50.578 9.89773 50.5577L9.80206 50.5475C9.55123 50.5047 9.35025 50.3677 9.17116 50.1993L8.99837 50.0224C8.51662 49.4961 8.06683 48.9367 7.6022 48.3956L5.94347 46.4617C5.90579 46.4161 5.8647 46.3738 5.82817 46.327C5.68839 46.1483 5.57024 45.9714 5.53445 45.7549L5.5245 45.6592C5.50852 45.3327 5.69917 45.0987 5.88525 44.8429C6.18488 44.4314 6.49135 44.0247 6.79812 43.6182L7.71408 42.3954C8.12931 41.8324 8.61458 41.1642 8.68874 40.4395L8.69814 40.2937C8.70413 40.0259 8.61484 39.7708 8.53835 39.5137L8.46982 39.2548L7.98692 36.9979C7.68225 35.5545 6.39254 35.005 5.1028 34.6524L4.553 34.5115C4.10778 34.4031 3.91828 35.0892 4.3635 35.1976C5.24367 35.4111 6.27796 35.6131 6.91268 36.3164C7.2426 36.6817 7.2974 37.1372 7.39672 37.595C7.5691 38.3964 7.72321 39.2058 7.94811 39.9912C8.19583 40.8565 7.27228 41.844 6.79966 42.4878L6.34109 43.084C5.86778 43.6824 5.36946 44.2926 5.02791 44.9457C4.5473 45.8658 5.20485 46.5873 5.78022 47.2471C6.43093 47.9926 7.0805 48.7392 7.7312 49.4847C8.17985 49.9995 8.6559 50.7096 9.28263 51.0178C9.87673 51.3097 10.519 51.0971 11.1155 50.8526L11.6937 50.6148C12.5008 50.3052 13.3037 49.9607 14.1243 49.6836L14.4769 49.5692C15.2086 49.342 15.7829 49.2792 16.4724 49.6205C16.8092 49.7872 17.1768 49.9105 17.5238 50.0532C17.9485 50.2279 18.3709 50.4151 18.8001 50.5783C19.3081 50.7712 19.6848 50.8843 19.9223 51.4379C20.2534 52.2097 20.307 53.1309 20.4497 53.9506C20.5684 54.6287 20.5536 55.5602 21.25 55.921C21.7054 56.1572 22.2996 56.1574 22.8509 56.1416L23.3813 56.1288C24.3814 56.1253 25.3825 56.1219 26.3826 56.1185C26.9716 56.1162 27.5618 56.1276 28.1509 56.1128C28.853 56.0945 29.5574 55.9609 30.0368 55.4084C30.1875 55.2343 30.3222 55.04 30.4514 54.8418L30.8325 54.2508C31.6341 53.0565 32.15 51.6467 33.4397 50.8985L33.7082 50.7575C34.0993 50.5737 34.5174 50.4253 34.9397 50.2881L36.1969 49.8876C36.4766 49.794 36.7551 49.6947 37.0359 49.6034C37.9857 49.2974 38.9504 49.3465 39.8614 49.7529C40.7724 50.1594 41.616 50.6377 42.5247 50.9973C43.238 51.279 43.8725 51.0518 44.469 50.667L44.7223 50.4938C45.3582 50.0355 45.9856 49.5652 46.6106 49.0918L48.485 47.6718C48.8456 47.402 49.2171 47.1405 49.5735 46.8623L49.9234 46.5782C50.4588 46.1227 50.8607 45.5964 50.7259 44.8635C50.5967 44.159 50.3726 43.4653 50.1702 42.7725L49.9793 42.0792C49.8935 41.7406 49.8212 41.3959 49.8313 41.0459L49.8412 40.8953C49.8729 40.5716 50.0018 40.3367 50.1712 40.0987L50.3515 39.8565C50.4457 39.7326 50.5309 39.5989 50.6135 39.4639L50.8595 39.0619C51.256 38.4416 51.6161 37.7232 52.096 37.1465L52.3093 36.9089C53.6861 35.4967 55.8483 35.2364 57.6372 34.6245C58.5272 34.3199 58.929 33.7082 59.1702 32.8985L59.2651 32.54C59.6429 30.9212 60.0608 29.3058 60.3998 27.6791C60.4969 27.211 60.5836 26.6585 60.2937 26.2407C60.1559 26.0424 59.9646 25.9246 59.7551 25.8301L59.5402 25.7406C59.2959 25.6448 59.0492 25.5552 58.802 25.4668L58.0607 25.2018C57.3393 24.9396 56.1401 24.7077 55.5999 24.0625L55.5012 23.9278C55.33 23.6584 55.3174 23.1447 55.2432 22.8147L54.9213 21.3672C54.8384 20.9957 54.6663 20.535 54.6819 20.1465L54.701 19.9847C54.8951 19.0383 55.7741 18.165 56.3323 17.4093C56.6348 16.9994 56.9385 16.5908 57.2399 16.1809C57.4933 15.8362 57.7844 15.488 57.8255 15.0462C57.8785 14.47 57.4791 13.9666 57.0794 13.5254L56.6965 13.1043L54.7455 10.8725C54.3089 10.3727 53.8409 9.68518 53.1653 9.51567L53.0274 9.4889C52.4794 9.41355 51.9315 9.70352 51.4257 9.88846L50.7981 10.1241C50.5917 10.2055 50.3874 10.292 50.1837 10.3885C49.3114 10.8038 48.3478 11.2423 47.3606 11.2559L47.163 11.2527C46.6653 11.2298 46.2372 11.038 45.7874 10.8508C45.1371 10.5801 44.4893 10.2658 43.8274 10.0186L43.543 9.917C43.1973 9.8001 42.9624 9.72628 42.7561 9.44633L42.6697 9.3131C42.4871 8.99802 42.3992 8.63271 42.3295 8.27881C42.1638 7.435 42.0814 6.55066 41.8831 5.70903L41.7907 5.35062C41.5087 4.35857 40.39 4.50926 39.5623 4.52753C38.7894 4.54465 38.0177 4.56406 37.2449 4.58575C37.2163 4.58575 37.2163 4.63027 37.2449 4.63027L37.2426 4.62685C38.0154 4.64739 38.7871 4.66794 39.56 4.68507C39.9447 4.69306 40.3386 4.68735 40.7176 4.76727C41.753 4.98645 41.6845 6.52989 41.8238 7.3838C41.9368 8.08131 41.9996 8.86331 42.3603 9.49004C42.6218 9.94326 42.9597 10.1008 43.4289 10.2572C44.2052 10.5152 44.9586 10.9033 45.7121 11.2218C46.0648 11.3702 46.3993 11.5381 46.784 11.5963C47.527 11.709 48.2792 11.5601 48.9846 11.3184L49.2841 11.2093C50.2819 10.8269 51.2294 10.3599 52.2477 10.0255C52.9749 9.78686 53.4327 10.0403 53.9007 10.5746C54.1302 10.8371 54.3539 11.1043 54.58 11.368L56.4419 13.5438C56.6143 13.7459 56.7958 13.9434 56.9613 14.1512C57.2228 14.48 57.3883 14.8293 57.249 15.2505L57.012 15.1719C57.1114 14.871 57.0081 14.6113 56.7659 14.3067C56.6032 14.1025 56.4323 13.9183 56.2512 13.7061L54.3899 11.5303C54.1613 11.2636 53.9407 11.0008 53.7122 10.7393C53.4892 10.4848 53.2903 10.3233 53.0823 10.2442C52.8823 10.1682 52.6461 10.1575 52.3255 10.2627C51.8266 10.4266 51.3434 10.6243 50.8557 10.8301C50.3706 11.0349 49.8773 11.2492 49.3733 11.4424C48.5682 11.7508 47.659 11.9824 46.7464 11.8438C46.322 11.7795 45.9473 11.5918 45.6155 11.4522C44.9341 11.1641 44.2963 10.8413 43.635 10.5948L43.3499 10.4942C42.8623 10.3316 42.4516 10.1487 42.1438 9.61528C41.8513 9.10689 41.7396 8.50186 41.6565 7.95122L41.5774 7.42387C41.5412 7.2018 41.5178 6.93159 41.4895 6.6729C41.4604 6.40692 41.425 6.14107 41.3645 5.89848C41.2408 5.40254 41.0365 5.09034 40.6663 5.01176C40.3165 4.93801 39.9533 4.94289 39.555 4.93461C38.8208 4.91835 38.0872 4.89942 37.3538 4.87993H37.2444C37.1661 4.8798 37.0905 4.8471 37.0384 4.78618C37.0141 4.75777 36.9979 4.72637 36.9876 4.69536L36.7678 4.3643L37.1096 4.37407C37.1487 4.35145 37.192 4.33817 37.2376 4.33696C38.0109 4.31525 38.7836 4.29452 39.5569 4.27739ZM38.0423 48.6348C38.812 48.5861 39.5463 48.7646 40.2288 49.0625L41.6555 49.7178C41.7801 49.775 41.9126 49.8444 42.0432 49.9131C42.1763 49.9831 42.31 50.0535 42.4436 50.1172C42.7164 50.2472 42.9602 50.3341 43.1643 50.3399L43.1572 50.5897L43.0589 50.5821C42.694 50.5392 42.2902 50.3258 41.927 50.1348L41.5509 49.9447L40.1285 49.2917C39.4721 49.0052 38.778 48.8385 38.0577 48.8842L37.886 48.8995C37.0313 48.9937 36.2025 49.3721 35.3978 49.6513L34.7415 49.8672C34.0786 50.082 33.4081 50.3113 32.8577 50.7153C31.7036 51.5624 31.2252 52.8204 30.4581 53.9677L30.054 54.6104C29.9131 54.8287 29.7622 55.0386 29.5905 55.2029L29.51 55.2735C29.0956 55.6066 28.5255 55.6289 28.0128 55.6322L28.011 55.3819C28.5726 55.3784 29.0803 55.3445 29.4173 55.0225C29.5673 54.8789 29.7059 54.6887 29.844 54.4747C29.9713 54.2774 30.1208 54.0213 30.2503 53.8282C30.4373 53.5484 30.608 53.261 30.7786 52.9688C30.9481 52.6784 31.1189 52.3818 31.302 52.0948C31.6697 51.5186 32.0979 50.9631 32.7102 50.5137C33.1041 50.2247 33.5489 50.0234 33.9944 49.8584C34.427 49.6983 34.9094 49.5561 35.3157 49.4151C36.1395 49.1292 37.0816 48.6959 38.0423 48.6348ZM57.249 15.2505C57.0892 15.7334 56.5903 16.2175 56.2889 16.625C55.7159 17.3979 55.072 18.1536 54.58 18.9824C54.1907 19.6377 54.1085 20.1914 54.2991 20.9163C54.5001 21.6823 54.669 22.4768 54.8129 23.2542C54.8848 23.6447 54.8893 23.9906 55.1553 24.3239C55.5709 24.8433 56.2467 25.0911 56.8517 25.3137C57.3141 25.4849 57.7787 25.6527 58.2411 25.8228C58.7034 25.9929 59.6201 26.1413 59.8793 26.5683C60.0847 26.9062 59.9135 27.4085 59.8267 27.7784L59.224 30.3333C59.0436 31.097 58.8735 31.863 58.684 32.6233C58.5424 33.1941 58.3427 33.7033 57.7856 33.9761C56.8906 34.4156 55.8072 34.6177 54.8551 34.9145C53.5754 35.3129 52.2934 35.8757 51.5091 37.023L51.1487 37.5655C50.7942 38.113 50.4549 38.6717 50.1038 39.2206L49.9456 39.4434C49.78 39.662 49.6004 39.8721 49.4839 40.1179L49.4348 40.2295C49.2098 40.7923 49.2642 41.4227 49.3937 42.0038C49.5992 42.9285 49.9154 43.8269 50.1323 44.7482C50.3104 45.5051 49.8766 45.924 49.3161 46.3601L48.3147 47.126C47.3089 47.8851 46.2904 48.628 45.2828 49.3831C44.7075 49.8146 43.8889 50.6103 43.1572 50.5897L43.1643 50.3399C43.4458 50.3477 43.7764 50.1951 44.138 49.9493C44.505 49.6996 44.8179 49.419 45.1331 49.1827C46.4814 48.1723 47.8381 47.1922 49.1624 46.1631C49.4426 45.9451 49.6581 45.7545 49.7884 45.543C49.9095 45.3461 49.9629 45.1202 49.8889 44.8057C49.7823 44.3527 49.6511 43.9043 49.5188 43.4473C49.3872 42.9927 49.2543 42.5295 49.1497 42.0586L49.1009 41.8145C48.9974 41.237 48.9805 40.5944 49.2581 40.0108L49.3303 39.8731C49.407 39.7401 49.4958 39.6193 49.5803 39.5088C49.6975 39.3557 49.8022 39.2271 49.8928 39.086L50.5862 37.9834C50.8194 37.6127 51.0568 37.2423 51.303 36.8819C52.1378 35.6608 53.4914 35.0772 54.7805 34.6758L55.5237 34.4629C55.776 34.3945 56.0299 34.3271 56.2737 34.2579C56.7712 34.1165 57.2492 33.9616 57.676 33.752C58.1261 33.5315 58.303 33.1218 58.4417 32.5625C58.6307 31.804 58.7993 31.0437 58.9807 30.2754L59.5833 27.7207C59.6313 27.5163 59.6893 27.3263 59.7151 27.129C59.7406 26.934 59.7235 26.794 59.6653 26.6983C59.6301 26.6403 59.5624 26.5764 59.4514 26.5108C59.342 26.4461 59.2063 26.3883 59.054 26.335C58.9021 26.2819 58.7421 26.2362 58.5862 26.1915C58.4345 26.1479 58.2805 26.104 58.1546 26.0577C57.695 25.8886 57.2267 25.7189 56.7649 25.5479C56.1757 25.3311 55.427 25.0638 54.9602 24.4805C54.6437 24.0838 54.6301 23.6441 54.5667 23.2999C54.4236 22.5266 54.2559 21.7381 54.0569 20.9795C53.9552 20.5927 53.9236 20.2382 53.9749 19.8868C54.0262 19.5357 54.1579 19.2023 54.3645 18.8545C54.6148 18.4329 54.9061 18.0269 55.2044 17.6319L56.0882 16.4756C56.1681 16.3675 56.2605 16.2563 56.3518 16.1465C56.4447 16.0348 56.5369 15.9242 56.6253 15.8116C56.8048 15.5829 56.9465 15.3698 57.012 15.1719L57.249 15.2505Z" fill="#1E5736"/>
<path d="M12.656 20.8489C13.7497 19.9505 13.2885 18.6308 12.9848 17.4606C12.7976 16.7403 12.2348 15.5325 12.6937 14.8612C12.8981 14.5621 13.2052 14.3372 13.4928 14.1203C14.7258 13.1899 15.9758 12.2824 17.2121 11.3577C17.5775 11.0837 17.9382 10.8029 18.3092 10.5357C18.6026 10.3245 18.9428 10.0848 19.299 9.99804C19.831 9.8679 20.3298 10.2047 20.7945 10.4204C21.5913 10.7914 22.3824 11.2207 23.2147 11.5072C23.8357 11.7218 24.5412 11.8269 25.1771 11.6088C25.4328 11.5209 25.6771 11.3885 25.9317 11.2937C26.7079 11.0038 27.4933 10.7378 28.2742 10.4627C28.555 10.3633 28.8507 10.3177 29.1247 10.2081C29.7754 9.95009 30.2651 9.41012 30.6738 8.86101C31.2287 8.11669 31.7104 7.31073 32.2241 6.53787C32.481 6.15201 32.7173 5.67253 33.0598 5.35631C33.4331 5.01155 33.9365 4.97845 34.4183 4.96132C34.9 4.9442 34.876 4.22956 34.4183 4.25011C33.7801 4.2775 33.126 4.36312 32.6305 4.80492C32.0654 5.3095 31.7138 6.12004 31.32 6.75705C30.8885 7.45571 30.4832 8.19774 29.9592 8.83361C29.5277 9.3576 29.0836 9.63844 28.4443 9.83365C27.7593 10.0437 27.0892 10.3554 26.4214 10.6134C25.5481 10.9501 24.6668 11.4068 23.7249 11.1259C22.8448 10.8634 22.0034 10.377 21.1712 9.99119C20.5342 9.69552 19.8766 9.27312 19.1494 9.46834C18.4873 9.64528 17.9291 10.1373 17.388 10.5437C16.0751 11.5289 14.768 12.5221 13.4586 13.513C12.8239 13.9936 11.9745 14.5507 12.0339 15.44C12.1435 17.0965 13.8342 19.2495 12.6207 20.8181C12.6035 20.8409 12.6298 20.8683 12.6526 20.85L12.656 20.8489Z" fill="#1E5736"/>
<path d="M34.4079 4.00065C34.5931 3.99255 34.7523 4.06074 34.863 4.18131C34.9691 4.29689 35.0178 4.44618 35.0202 4.58756C35.0225 4.72926 34.9788 4.8807 34.8766 5.00162C34.7706 5.12699 34.6146 5.20487 34.4274 5.21159C33.9343 5.22911 33.5253 5.26627 33.2292 5.53971C33.0813 5.67622 32.9504 5.85428 32.82 6.05631C32.7551 6.15678 32.6928 6.25981 32.6286 6.36491L32.4323 6.67643C32.0541 7.24545 31.6815 7.85111 31.2829 8.43522L30.8747 9.01041C30.4605 9.56685 29.9352 10.1541 29.2165 10.4391L29.2175 10.4401C29.0644 10.5013 28.9083 10.5433 28.7653 10.5807C28.6179 10.6193 28.4853 10.6526 28.3571 10.6979C27.965 10.8361 27.5738 10.9715 27.1842 11.1081L26.0192 11.528C25.9012 11.5719 25.7845 11.6251 25.6569 11.6823C25.5325 11.738 25.3982 11.7973 25.2585 11.8454C24.5475 12.0892 23.779 11.9668 23.1335 11.7438C22.7091 11.5977 22.2923 11.4137 21.8844 11.2214L20.6891 10.6471C20.4269 10.5254 20.2244 10.405 19.9831 10.3131C19.8137 10.2487 19.6578 10.2129 19.5075 10.2194L19.3581 10.2409C19.0573 10.3142 18.7565 10.5224 18.4557 10.7389C18.0871 11.0043 17.7323 11.2796 17.362 11.5573C16.1196 12.4865 14.8778 13.3883 13.6432 14.32C13.346 14.5441 13.0766 14.7443 12.9001 15.0026C12.7352 15.244 12.7352 15.6179 12.8405 16.0876C12.8913 16.3139 12.9622 16.545 13.0339 16.7692C13.104 16.9886 13.1782 17.2094 13.2272 17.3981C13.3742 17.9646 13.5768 18.6249 13.5944 19.2497C13.6125 19.895 13.4354 20.5319 12.8151 21.0417L12.779 21.071L12.7526 21.0798C12.6476 21.1291 12.5235 21.1061 12.443 21.0241C12.3521 20.9311 12.3358 20.7807 12.4206 20.6676L12.4225 20.6647C12.949 19.9841 12.8648 19.1637 12.5837 18.234C12.4422 17.7663 12.2657 17.3144 12.1051 16.8385C11.9491 16.3761 11.8145 15.905 11.7848 15.4567C11.7489 14.9187 11.9915 14.4925 12.3014 14.154C12.6053 13.8221 13.0022 13.5451 13.3073 13.3141C14.6162 12.3236 15.9246 11.329 17.238 10.3434C17.497 10.1489 17.7873 9.91282 18.0837 9.71256C18.3846 9.50924 18.7159 9.3258 19.0846 9.22721L19.2448 9.19205C19.6144 9.13013 19.9606 9.1986 20.277 9.31022C20.6262 9.43341 20.9807 9.62721 21.276 9.76432C22.1372 10.1636 22.9392 10.6306 23.7966 10.8864C24.2077 11.0089 24.6133 10.9739 25.0339 10.86C25.4643 10.7434 25.8768 10.5559 26.3317 10.3805C26.977 10.1312 27.6758 9.80753 28.3708 9.5944C28.9662 9.41251 29.3683 9.15775 29.7663 8.67448C30.2759 8.05608 30.6659 7.33999 31.1071 6.62565L31.3932 6.13248C31.4898 5.9601 31.5906 5.77889 31.6969 5.60221C31.9087 5.25024 32.1538 4.89627 32.4645 4.61881C33.0309 4.11381 33.7659 4.02821 34.4079 4.00065ZM34.4183 4.25011C33.7801 4.2775 33.126 4.36312 32.6305 4.80492L32.527 4.90299C32.0213 5.41014 31.6892 6.15985 31.32 6.75705L30.6745 7.81901C30.4538 8.17126 30.2211 8.51573 29.9592 8.83361L29.7966 9.0192C29.4137 9.42664 29.0037 9.66284 28.4443 9.83365L28.1882 9.91666C27.5919 10.1205 27.0057 10.3876 26.4214 10.6134L25.7643 10.8747C25.1589 11.1106 24.5435 11.3025 23.901 11.1706L23.7249 11.1259C23.0648 10.929 22.4265 10.6064 21.7975 10.2946L21.1712 9.99119C20.5342 9.69552 19.8766 9.27312 19.1494 9.46834L18.9059 9.5485C18.3482 9.76671 17.8614 10.1881 17.388 10.5437L13.4586 13.513L12.9596 13.8922C12.4559 14.2933 11.9894 14.7732 12.0339 15.44C12.1435 17.0965 13.8342 19.2495 12.6207 20.8181C12.6079 20.8351 12.6193 20.8549 12.6354 20.8561L12.656 20.8489C13.4763 20.175 13.4221 19.2641 13.2155 18.3571L12.9848 17.4606C12.8093 16.7853 12.3031 15.6813 12.6188 14.9928L12.6937 14.8612C12.8469 14.6371 13.058 14.4544 13.2751 14.2858L13.4928 14.1203C14.1093 13.6551 14.7301 13.1957 15.3512 12.737L17.2121 11.3577L18.3092 10.5357C18.6026 10.3245 18.9428 10.0848 19.299 9.99804C19.831 9.8679 20.3298 10.2047 20.7945 10.4204C21.5913 10.7914 22.3824 11.2207 23.2147 11.5072C23.758 11.695 24.3658 11.7984 24.9352 11.6755L25.1771 11.6088C25.4328 11.5209 25.6771 11.3885 25.9317 11.2937C26.7079 11.0038 27.4933 10.7378 28.2742 10.4627C28.555 10.3633 28.8507 10.3177 29.1247 10.2081C29.7754 9.95009 30.2651 9.41012 30.6738 8.86101C30.9512 8.48893 31.2106 8.10166 31.4645 7.71061L32.2241 6.53787C32.4488 6.20025 32.658 5.79095 32.9362 5.48209L33.0598 5.35631C33.3397 5.09798 33.6931 5.01477 34.0553 4.98209L34.4183 4.96132C34.8697 4.94496 34.877 4.31591 34.4987 4.25455L34.4183 4.25011Z" fill="#1E5736"/>
<path d="M6.43431 25.6058C5.70483 25.5898 4.9628 25.6366 4.34748 26.0955C3.89084 26.4357 3.66937 26.9734 3.5358 27.5099C3.37826 28.1378 3.26753 28.7805 3.1214 29.413C2.91249 30.3228 2.6876 31.2281 2.47412 32.1368C2.32229 32.7875 2.02776 33.6666 2.53462 34.218C2.82002 34.5285 3.32232 34.6381 3.70133 34.7739C4.23674 34.9657 4.77215 35.1575 5.3087 35.3458C5.77219 35.5091 6.25166 35.6541 6.6809 35.8972C7.17749 36.1792 7.31905 36.5023 7.49714 37.0126C7.53481 37.1222 7.67408 37.1165 7.71404 37.0126C8.1467 35.8938 6.23681 35.2648 5.52332 34.9954C5.0975 34.8344 4.67055 34.6746 4.24359 34.5148C3.75727 34.3344 2.92162 34.186 2.75609 33.6506C2.65335 33.3195 2.76066 32.9611 2.84057 32.6311C3.21273 31.0877 3.53923 29.534 3.94678 27.9997C4.01755 27.7337 4.07578 27.4666 4.1808 27.2097C4.40227 26.6686 4.76758 26.4368 5.30413 26.2462C5.75734 26.0852 6.05302 25.8877 6.43774 25.6103C6.44116 25.608 6.44002 25.6035 6.43545 25.6023L6.43431 25.6058Z" fill="#1E5736"/>
<path d="M6.49622 25.3601C6.56944 25.3785 6.65233 25.4359 6.68079 25.5398C6.69835 25.6043 6.68622 25.6665 6.6593 25.7195L6.61341 25.8601L6.52063 25.8572C6.20652 26.082 5.93208 26.2639 5.5636 26.4148L5.38782 26.4822C5.1308 26.5735 4.93484 26.6678 4.7804 26.7918C4.63007 26.9126 4.5081 27.0703 4.41223 27.3045C4.31524 27.5417 4.26327 27.7836 4.1886 28.0642C3.78177 29.5959 3.45784 31.1362 3.08313 32.6902C3.04088 32.8646 2.9994 33.0186 2.97766 33.1746C2.95645 33.327 2.95882 33.4596 2.99524 33.5769C3.04374 33.7334 3.20166 33.8659 3.47962 33.9871C3.61238 34.0449 3.75757 34.0932 3.9054 34.1404C4.0482 34.186 4.20149 34.2323 4.3302 34.2801L4.33118 34.281C4.75796 34.4408 5.1853 34.6004 5.61145 34.7615L5.92688 34.8787C6.2907 35.016 6.77839 35.2139 7.18372 35.4754C7.45448 35.6501 7.71241 35.8676 7.87024 36.1365C8.0144 36.3822 8.0709 36.6649 7.99036 36.9705L7.94739 37.1023C7.89066 37.2498 7.75462 37.3402 7.60852 37.3426C7.45701 37.3449 7.31532 37.2521 7.26087 37.0945C7.1717 36.839 7.10033 36.6581 7.00012 36.5076C6.90456 36.3642 6.77569 36.2388 6.55774 36.115C6.35575 36.0006 6.14248 35.9095 5.92005 35.826L5.22571 35.5818C4.68845 35.3932 4.15244 35.2012 3.61731 35.0096C3.45859 34.9527 3.19725 34.8762 2.99036 34.7937C2.76923 34.7056 2.53108 34.5836 2.35071 34.3875C2.02966 34.0382 1.97622 33.5966 2.00794 33.1951C2.03916 32.8002 2.15919 32.3859 2.23059 32.0799L2.87805 29.3572C3.01765 28.753 3.13725 28.0701 3.29309 27.449C3.43085 26.8958 3.67108 26.2881 4.19837 25.8953C4.82913 25.4249 5.56925 25.3521 6.25403 25.3553L6.27161 25.3035L6.49622 25.3601ZM6.43431 25.6058L6.16028 25.6033C5.52128 25.6078 4.88579 25.6941 4.34748 26.0955L4.18665 26.2322C3.83683 26.5702 3.65265 27.0408 3.5358 27.5099C3.37826 28.1378 3.26753 28.7805 3.1214 29.413C2.91249 30.3228 2.6876 31.2281 2.47412 32.1368C2.32229 32.7875 2.02776 33.6666 2.53462 34.218C2.82002 34.5285 3.32232 34.6381 3.70133 34.7739C4.23674 34.9657 4.77215 35.1575 5.3087 35.3458C5.77219 35.5091 6.25166 35.6541 6.6809 35.8972C7.17749 36.1792 7.31905 36.5023 7.49714 37.0126C7.53481 37.1222 7.67408 37.1165 7.71404 37.0126C8.03842 36.1737 7.04546 35.6104 6.22766 35.2674L5.52332 34.9954C5.0975 34.8344 4.67055 34.6746 4.24359 34.5148C3.75727 34.3344 2.92162 34.186 2.75609 33.6506C2.67915 33.4022 2.72032 33.1381 2.77942 32.8826L2.84057 32.6311C3.11968 31.4736 3.37321 30.3097 3.65442 29.1531L3.94678 27.9997C3.99985 27.8002 4.04552 27.6 4.1095 27.4041L4.1808 27.2097C4.40227 26.6686 4.76758 26.4368 5.30413 26.2462C5.75734 26.0852 6.05302 25.8877 6.43774 25.6103C6.44116 25.608 6.44002 25.6035 6.43545 25.6023L6.43431 25.6058Z" fill="#1E5736"/>
<path d="M12.6161 16.9787C12.438 17.5084 12.7702 18.037 12.8764 18.553C13.0145 19.23 12.9552 19.9377 12.5921 20.5371C12.3102 21.0029 11.9357 21.4252 11.6184 21.867C11.301 22.3088 10.9357 22.7735 10.6309 23.2472C10.3523 23.6799 10.1 24.0269 9.64341 24.2964C9.18677 24.5658 8.64109 24.632 8.24153 24.9425C8.15819 25.0076 8.23468 25.1297 8.32144 25.1343C8.81004 25.1617 9.41395 24.8637 9.83976 24.632C10.3592 24.35 10.6663 23.9756 10.9848 23.4938C11.3227 22.9824 11.7245 22.5063 12.0887 22.0132C12.4917 21.4664 12.9986 20.8784 13.2394 20.2391C13.4369 19.714 13.5043 19.1637 13.4255 18.6089C13.3467 18.0541 13.1938 17.2539 12.623 16.9753C12.6207 16.9742 12.6184 16.9753 12.6173 16.9776L12.6161 16.9787Z" fill="#1E5736"/>
<path d="M12.5211 16.7454C12.5897 16.7159 12.6665 16.7193 12.732 16.7512C13.0973 16.9295 13.3106 17.2651 13.441 17.5969C13.5718 17.9301 13.6337 18.2937 13.6734 18.5735C13.7584 19.172 13.6847 19.7651 13.4732 20.3274C13.2163 21.0091 12.674 21.6398 12.2896 22.1614C11.9109 22.6742 11.5274 23.1258 11.1929 23.6321C10.8656 24.1272 10.5306 24.5403 9.95857 24.8508C9.74285 24.9682 9.47353 25.108 9.19197 25.2141C8.91381 25.319 8.60235 25.4006 8.3072 25.384C8.15702 25.3757 8.0449 25.2749 7.99372 25.1721C7.96583 25.116 7.94702 25.0424 7.95954 24.9612C7.97285 24.875 8.01866 24.7991 8.08747 24.7454C8.32127 24.5637 8.59234 24.4583 8.83552 24.3694C9.0891 24.2767 9.31263 24.2014 9.51618 24.0813C9.91988 23.8431 10.146 23.5379 10.4205 23.1116C10.7295 22.6312 11.1074 22.15 11.4156 21.721C11.5774 21.4958 11.756 21.2726 11.9205 21.0589C12.0877 20.8415 12.245 20.628 12.3785 20.4075C12.7009 19.8751 12.7601 19.2354 12.6314 18.6038L12.5875 18.429C12.57 18.3691 12.5503 18.3071 12.5289 18.2424C12.4874 18.1176 12.4381 17.9777 12.399 17.8391C12.3203 17.5597 12.2664 17.2351 12.3795 16.8987L12.398 16.844L12.439 16.802L12.44 16.801C12.4614 16.7791 12.4878 16.7597 12.5211 16.7454ZM12.6173 16.9776L12.6161 16.9787L12.609 17.0022C12.4481 17.5241 12.7718 18.0446 12.8764 18.553C13.0145 19.23 12.9552 19.9377 12.5921 20.5371L12.482 20.7102C12.2171 21.109 11.896 21.4806 11.6184 21.867L11.1197 22.5452C10.9506 22.7757 10.7833 23.0104 10.6309 23.2472L10.4234 23.5559C10.2135 23.8487 9.98588 24.0943 9.64341 24.2964C9.18677 24.5658 8.64109 24.632 8.24153 24.9425L8.21736 24.969C8.1772 25.0361 8.24548 25.1303 8.32144 25.1343C8.81004 25.1617 9.41395 24.8637 9.83976 24.632C10.2294 24.4205 10.4996 24.157 10.7447 23.8352L10.9848 23.4938C11.3227 22.9824 11.7245 22.5063 12.0887 22.0132C12.4412 21.5348 12.8734 21.025 13.1373 20.4768L13.2394 20.2391C13.4369 19.714 13.5043 19.1637 13.4255 18.6089C13.3467 18.0541 13.1938 17.2539 12.623 16.9753C12.6207 16.9742 12.6184 16.9753 12.6173 16.9776Z" fill="#1E5736"/>
<path d="M3.29918 30.0638C2.8825 30.6905 2.55829 31.2887 2.41901 32.0376C2.31056 32.6221 2.1553 33.3367 2.37106 33.9121C2.556 34.4075 3.00922 34.6336 3.4727 34.8139C4.06405 35.0445 4.89171 35.4384 5.531 35.2626C5.6737 35.2238 5.73306 35.0286 5.62004 34.9247C4.93737 34.2922 3.24895 34.5194 2.95784 33.4943C2.80601 32.96 2.97497 32.3344 3.07315 31.8058C3.17931 31.2328 3.22155 30.6483 3.32658 30.0752C3.33 30.0581 3.30946 30.0489 3.29918 30.0638Z" fill="#1E5736"/>
<path d="M3.09383 29.9215C3.16598 29.8174 3.29999 29.7782 3.41609 29.8278C3.52816 29.8758 3.59367 29.995 3.57137 30.1188L3.57234 30.1198C3.52126 30.3985 3.48544 30.6817 3.44832 30.9723C3.41151 31.2606 3.37395 31.5568 3.31941 31.8512C3.26756 32.1304 3.20432 32.399 3.17 32.6784C3.13626 32.953 3.13567 33.2047 3.19832 33.4255C3.30199 33.7897 3.65432 33.9625 4.20906 34.1159C4.46155 34.1857 4.77072 34.2553 5.03426 34.3405C5.30367 34.4276 5.57912 34.5455 5.79012 34.7409C5.9271 34.8669 5.9515 35.044 5.91219 35.1852C5.87357 35.3237 5.76493 35.4567 5.59676 35.5026L5.59773 35.5036C5.21024 35.6101 4.7884 35.5396 4.41414 35.4303C4.22684 35.3757 4.03917 35.3074 3.86336 35.2389L3.38191 35.0465C2.94703 34.8773 2.43217 34.6394 2.1827 34.109L2.1368 33.9997C2.01077 33.6635 1.99775 33.2994 2.02449 32.9587C2.05119 32.6186 2.11992 32.2776 2.17293 31.9919C2.32121 31.1946 2.66679 30.5634 3.0909 29.9255L3.09383 29.9215ZM3.29918 30.0638C2.8825 30.6905 2.55829 31.2887 2.41901 32.0376L2.33504 32.4958C2.25572 32.9703 2.20931 33.4805 2.37106 33.9121C2.556 34.4075 3.00922 34.6336 3.4727 34.8139C4.06405 35.0445 4.89171 35.4384 5.531 35.2626C5.65564 35.2284 5.71676 35.0748 5.65438 34.9674L5.62004 34.9247C4.93737 34.2922 3.24895 34.5194 2.95784 33.4943C2.8441 33.0936 2.91046 32.6413 2.99227 32.2174L3.07315 31.8058C3.17931 31.2328 3.22155 30.6483 3.32658 30.0752C3.33 30.0581 3.30946 30.0489 3.29918 30.0638Z" fill="#1E5736"/>
<path d="M12.4083 15.029C12.0532 15.4343 12.2073 16.021 12.2724 16.5142C12.3706 17.2562 12.7222 17.7574 13.1161 18.367C13.1583 18.4321 13.269 18.3921 13.2451 18.3122C13.0909 17.7917 13.0339 17.2574 12.8546 16.7391C12.6754 16.2208 12.2907 15.6671 12.5064 15.0872C12.527 15.0324 12.4459 14.9868 12.4083 15.0301V15.029Z" fill="#1E5736"/>
<path d="M12.6583 14.8488C12.7316 14.9173 12.7936 15.0331 12.7403 15.175C12.6611 15.3885 12.6865 15.6073 12.7696 15.8576C12.8115 15.9835 12.8657 16.1097 12.9239 16.2443C12.9806 16.3754 13.0424 16.5171 13.0909 16.6574C13.1861 16.9325 13.2478 17.2091 13.3038 17.4728C13.3607 17.7405 13.411 17.9922 13.4845 18.2404L13.4972 18.302C13.5034 18.3637 13.4912 18.4267 13.4601 18.4836C13.4206 18.5555 13.3583 18.6019 13.297 18.6262C13.1936 18.667 13.0472 18.6582 12.9464 18.5539L12.9064 18.5031C12.5198 17.9048 12.1314 17.355 12.0245 16.5471C11.9952 16.3248 11.9352 16.0197 11.9327 15.7404C11.9302 15.4496 11.9863 15.1312 12.2198 14.8645L12.6583 14.3645V14.8488ZM12.5064 15.0872C12.527 15.0324 12.4459 14.9868 12.4083 15.0301V15.029C12.0532 15.4343 12.2073 16.021 12.2724 16.5142C12.3706 17.2562 12.7222 17.7574 13.1161 18.367C13.1583 18.4321 13.269 18.3921 13.2451 18.3122C13.1102 17.8566 13.0493 17.3905 12.9161 16.9338L12.8546 16.7391C12.6754 16.2208 12.2907 15.6671 12.5064 15.0872Z" fill="#1E5736"/>
<path d="M42.9758 25.2588C42.1071 24.1286 41.1276 23.2782 39.833 22.6697C38.4882 22.0372 37.0121 21.6183 35.5303 21.5053C32.9412 21.3089 30.0883 21.7838 27.7572 22.9437C26.0597 23.7873 24.4557 24.9905 23.055 26.2577C22.9454 26.357 23.1075 26.518 23.2171 26.4198C24.0881 25.6333 25.0105 24.9049 26.0094 24.2873C26.8131 23.7896 27.6899 23.4528 28.5632 23.0978C30.0381 22.4984 31.5576 22.1617 33.1398 22.0019C34.8625 21.8283 36.6742 21.8649 38.3386 22.3877C40.0202 22.9151 41.7851 23.9597 42.9747 25.2622C42.9758 25.2634 42.9792 25.2622 42.9781 25.26L42.9758 25.2588Z" fill="#1E5736"/>
<path d="M27.6455 22.72C30.0213 21.5379 32.9201 21.0569 35.5488 21.2562C37.0639 21.3718 38.5703 21.7998 39.9394 22.4437C41.2565 23.0627 42.2548 23.9263 43.1347 25.0589L43.164 25.0735L43.2021 25.1478C43.2308 25.2052 43.2412 25.2837 43.208 25.3607C43.1782 25.4293 43.1257 25.4672 43.0888 25.4857C43.0513 25.5044 43.0095 25.5136 42.9668 25.512C42.9344 25.5108 42.8835 25.5013 42.834 25.4671L42.8125 25.4564L42.7998 25.4398L42.7978 25.4388L42.79 25.431C41.6343 24.1654 39.9092 23.1424 38.2636 22.6263C36.6437 22.1174 34.8695 22.0786 33.165 22.2503C31.6021 22.4082 30.1063 22.7405 28.6572 23.3294C27.776 23.6876 26.9221 24.0163 26.1406 24.5003C25.1579 25.1079 24.2477 25.8265 23.3847 26.6058C23.2078 26.7643 22.9873 26.7002 22.8769 26.5901C22.8208 26.5342 22.7749 26.4512 22.7695 26.3519C22.7638 26.2447 22.8081 26.1447 22.8877 26.0726C24.2989 24.7959 25.9212 23.577 27.6455 22.72ZM35.5303 21.5053C32.9412 21.3089 30.0883 21.7838 27.7572 22.9437C26.0597 23.7873 24.4557 24.9905 23.055 26.2577C22.9598 26.3446 23.071 26.478 23.1738 26.4446L23.2171 26.4198C23.9793 25.7315 24.7809 25.0877 25.6386 24.5237L26.0094 24.2873C26.6122 23.914 27.2564 23.6314 27.9091 23.3636L28.5632 23.0978C29.8538 22.5734 31.1787 22.2503 32.5498 22.0706L33.1398 22.0019C34.8625 21.8283 36.6742 21.8649 38.3386 22.3877C40.0202 22.9151 41.7851 23.9597 42.9747 25.2622L42.9781 25.26L42.9758 25.2588C42.1071 24.1286 41.1276 23.2782 39.833 22.6697C38.4882 22.0372 37.0121 21.6183 35.5303 21.5053Z" fill="#1E5736"/>
<path d="M34.5 21.6708C33.6974 21.6354 32.8366 21.5863 32.0421 21.705C31.122 21.8432 30.2133 22.0852 29.3342 22.3877C27.631 22.9734 26.0053 23.72 24.5544 24.7988C23.3317 25.7086 22.2929 26.8148 21.4481 28.0831C20.6193 29.3286 20.149 30.6049 19.8476 32.0604C19.5462 33.516 19.4811 35.0046 19.7483 36.483C19.7745 36.628 19.9949 36.5663 19.9686 36.4225C18.8795 30.404 23.4676 24.9106 28.8582 22.8626C29.7327 22.5304 30.6425 22.2792 31.5615 22.1046C32.541 21.9174 33.4999 21.7107 34.5 21.6753C34.5022 21.6753 34.5022 21.6719 34.5 21.6719V21.6708Z" fill="#1E5736"/>
<path d="M32.3166 21.419C33.0493 21.3469 33.8161 21.3904 34.511 21.421L34.7502 21.4317V21.671L34.7512 21.6739C34.7511 21.7277 34.7337 21.7894 34.6877 21.8409C34.6396 21.8949 34.5736 21.9218 34.508 21.9239L34.509 21.9249C33.5331 21.9594 32.597 22.1608 31.6086 22.3497C30.703 22.5218 29.8064 22.7701 28.9465 23.0968C23.6253 25.1187 19.1548 30.5187 20.2151 36.378C20.2567 36.6076 20.0918 36.7611 19.9446 36.8019C19.869 36.8227 19.7732 36.824 19.6829 36.7774C19.6091 36.7393 19.555 36.6776 19.5246 36.6046L19.5022 36.5274C19.2285 35.0128 19.296 33.4915 19.6028 32.0099C19.9092 30.5301 20.3894 29.2219 21.2395 27.9444C22.0996 26.6531 23.1592 25.5252 24.4055 24.5978C25.8838 23.4987 27.5352 22.7422 29.2532 22.1515C30.1431 21.8452 31.0669 21.599 32.0051 21.4581L32.3166 21.419ZM34.5 21.6719C33.6974 21.6365 32.8366 21.5863 32.0421 21.705L31.6975 21.7618C30.8952 21.9048 30.1033 22.123 29.3342 22.3877L28.6995 22.6153C27.2274 23.1653 25.824 23.8548 24.5544 24.7988L24.1047 25.1495C23.0753 25.9881 22.1872 26.9734 21.4481 28.0831L21.1536 28.5519C20.5042 29.6504 20.1113 30.7869 19.8476 32.0604L19.7454 32.6075C19.5347 33.8877 19.5146 35.1895 19.7483 36.483C19.7733 36.6211 19.9716 36.5718 19.968 36.4425L19.9686 36.4225C18.9135 30.5919 23.1866 25.2543 28.3557 23.0646L28.8582 22.8626C29.5139 22.6135 30.1899 22.41 30.8743 22.2501L31.5615 22.1046C32.541 21.9174 33.4999 21.7107 34.5 21.6753V21.6719Z" fill="#1E5736"/>
<path d="M8.17332 40.0219C8.13679 39.7674 7.8845 39.692 7.68015 39.5744C7.28288 39.345 6.85934 39.1703 6.4301 39.0048C5.96091 38.8233 5.49057 38.6863 5.02823 38.4853C4.71086 38.3472 4.3935 38.1931 4.05901 38.0984C3.61607 37.9728 3.42428 38.684 3.86951 38.7845C4.196 38.8575 4.52022 38.9317 4.84329 39.0162C5.3239 39.1418 5.75542 39.3358 6.21891 39.5117C6.64815 39.6738 7.07625 39.8336 7.51576 39.9626C7.74294 40.0299 7.93701 40.1521 8.1619 40.0493C8.17218 40.0448 8.17332 40.0334 8.17218 40.0242L8.17332 40.0219Z" fill="#1E5736"/>
<path d="M4.12704 37.858C4.48276 37.9587 4.824 38.1241 5.12802 38.2564C5.35033 38.353 5.5767 38.4345 5.80966 38.5162C6.03981 38.5969 6.27979 38.6787 6.51864 38.771C6.94982 38.9373 7.3898 39.1183 7.80478 39.358C7.84977 39.3838 7.89499 39.4053 7.95419 39.4361C8.0087 39.4645 8.07217 39.4999 8.1329 39.5425C8.26003 39.6317 8.38959 39.7681 8.42099 39.9869L8.43173 40.064L8.41122 40.1031C8.41038 40.1061 8.41122 40.1097 8.41024 40.1128C8.39156 40.1726 8.34622 40.2411 8.26376 40.2779L8.26278 40.2769C8.08334 40.3581 7.91792 40.3465 7.77939 40.3121C7.71316 40.2956 7.64927 40.2737 7.59579 40.2544C7.53905 40.234 7.49252 40.2169 7.44442 40.2027C6.99505 40.0707 6.55922 39.9074 6.13095 39.7457C5.64972 39.5631 5.24353 39.3794 4.78036 39.2583C4.46187 39.1751 4.14064 39.1018 3.81454 39.0289C3.63051 38.9873 3.49546 38.8746 3.42392 38.7251C3.35608 38.5833 3.3529 38.4256 3.38974 38.2906C3.42662 38.1555 3.50899 38.0221 3.63778 37.9332C3.77311 37.8398 3.94541 37.8065 4.12704 37.858ZM4.05901 38.0984C3.61607 37.9728 3.42428 38.684 3.86951 38.7845C4.196 38.8575 4.52022 38.9317 4.84329 39.0162C5.3239 39.1418 5.75542 39.3358 6.21891 39.5117C6.64815 39.6738 7.07625 39.8336 7.51576 39.9626C7.74294 40.0299 7.93701 40.1521 8.1619 40.0493C8.17218 40.0448 8.17332 40.0334 8.17218 40.0242L8.17332 40.0219C8.1459 39.8308 7.99701 39.7405 7.83798 39.6578L7.68015 39.5744C7.28288 39.345 6.85934 39.1703 6.4301 39.0048C6.07824 38.8687 5.72536 38.7573 5.37607 38.6255L5.02823 38.4853C4.71086 38.3472 4.3935 38.1931 4.05901 38.0984Z" fill="#1E5736"/>
<path d="M20.8845 54.9916C20.2373 54.4984 19.4998 54.2061 18.7726 53.8431C18.4838 53.6981 18.1869 53.4801 17.8844 53.3796C17.2212 53.1593 16.4517 53.3625 15.8124 53.5669C14.8204 53.8854 13.8523 54.2963 12.8785 54.6662C12.366 54.8603 11.7301 55.2461 11.1855 55.0167C10.9435 54.9151 10.762 54.7176 10.5942 54.5212C10.0748 53.9139 9.57704 53.286 9.06675 52.673C8.55646 52.0599 8.04045 51.4012 7.50505 50.7825C7.20481 50.4355 6.70365 50.9412 7.0016 51.2859C8.03589 52.4812 9.10442 53.6582 10.1878 54.8078C10.4663 55.1034 10.7837 55.4071 11.181 55.5292C12.0509 55.7964 13.084 55.1765 13.8706 54.8751C14.7747 54.5292 15.688 54.0965 16.6355 53.8853C17.0819 53.786 17.5214 53.7484 17.9426 53.9493C18.0648 54.0075 18.1641 54.068 18.2897 54.1171C19.1413 54.4527 19.9644 54.8648 20.8651 55.0327C20.8914 55.0372 20.9028 55.0064 20.8823 54.9916H20.8845Z" fill="#1E5736"/>
<path d="M7.24624 50.4169C7.41289 50.4091 7.57302 50.4787 7.69448 50.6191C8.23061 51.2387 8.75641 51.9089 9.25893 52.5126C9.77548 53.1332 10.2652 53.7513 10.7843 54.3583C10.9113 54.5069 11.0259 54.6304 11.1515 54.7148L11.2824 54.7861C11.473 54.8664 11.6984 54.8472 11.9689 54.7617C12.1021 54.7195 12.2373 54.6647 12.3761 54.6054C12.5111 54.5478 12.6556 54.4835 12.7902 54.4326C13.7515 54.0674 14.7365 53.6501 15.7365 53.329C16.3685 53.127 17.2127 52.8933 17.963 53.1425C18.1396 53.2011 18.3078 53.2914 18.4582 53.3779C18.6158 53.4685 18.7475 53.551 18.883 53.6191C19.585 53.9696 20.364 54.2807 21.0363 54.7929L21.6251 55.2411H21.0148C20.9593 55.2758 20.8917 55.2912 20.8224 55.2792L20.8195 55.2783C20.1205 55.148 19.4589 54.8735 18.8244 54.6074L18.1984 54.3495C18.0651 54.2974 17.9262 54.2182 17.8351 54.1747C17.491 54.0106 17.1199 54.0341 16.6896 54.1298C15.7661 54.3357 14.8891 54.7529 13.9601 55.1083C13.7704 55.181 13.5661 55.2729 13.341 55.371C13.1192 55.4677 12.8808 55.5691 12.6378 55.6523C12.2179 55.796 11.7533 55.8974 11.3009 55.8154L11.1076 55.7685C10.6409 55.625 10.2838 55.2743 10.006 54.9794C8.92051 53.8276 7.84952 52.6474 6.81264 51.4492C6.55758 51.154 6.65806 50.7932 6.85171 50.5986C6.94991 50.4999 7.08813 50.4244 7.24624 50.4169ZM7.50505 50.7825C7.20481 50.4355 6.70365 50.9412 7.0016 51.2859C8.03589 52.4812 9.10442 53.6582 10.1878 54.8078C10.4663 55.1034 10.7837 55.4071 11.181 55.5292C12.0509 55.7964 13.084 55.1765 13.8706 54.8751C14.6616 54.5725 15.4596 54.2036 16.2814 53.9745L16.6355 53.8853C17.0819 53.786 17.5214 53.7484 17.9426 53.9493C18.0648 54.0075 18.1641 54.068 18.2897 54.1171C19.0348 54.4107 19.7579 54.763 20.5304 54.9589L20.8651 55.0327C20.8914 55.0372 20.9028 55.0064 20.8823 54.9916H20.8845C20.2373 54.4984 19.4998 54.2061 18.7726 53.8431C18.5198 53.7162 18.2607 53.5338 17.9972 53.4228L17.8844 53.3796C17.2212 53.1593 16.4517 53.3625 15.8124 53.5669L15.0724 53.8212C14.336 54.0885 13.6088 54.3888 12.8785 54.6662C12.366 54.8603 11.7301 55.2461 11.1855 55.0167C11.0041 54.9405 10.857 54.81 10.7238 54.6669L10.5942 54.5212C10.0748 53.9139 9.57704 53.286 9.06675 52.673C8.55646 52.0599 8.04045 51.4012 7.50505 50.7825Z" fill="#1E5736"/>
<path d="M61.6558 30.8047C62.0622 31.4382 61.5736 32.4417 61.4 33.113C61.1637 34.0217 60.948 34.9349 60.7288 35.8471C60.5998 36.3836 60.4993 36.9384 60.3258 37.4624C60.1523 37.9864 59.8714 38.3803 59.3337 38.5835C58.9114 38.7433 58.4627 38.8506 58.03 38.9796C57.1773 39.2342 56.2834 39.4397 55.4603 39.7833C54.474 40.1966 53.6201 40.837 53.0413 41.7377C52.5801 42.4546 52.1371 43.1864 51.6577 43.8896C51.4316 44.2207 51.1645 44.4912 51.0435 44.8885C50.862 45.481 50.9647 46.1157 51.112 46.7036C51.3312 47.5758 51.6257 48.4366 51.8152 49.3167C51.967 50.0223 51.5001 50.4367 50.9875 50.8362C49.7432 51.8054 48.4612 52.729 47.1986 53.6754C46.7796 53.9893 46.3698 54.3204 45.936 54.6126C45.5022 54.9049 45.033 55.1731 44.5067 55.0133C43.9804 54.8535 43.4987 54.5555 43.0089 54.3318C42.2909 54.0041 41.5648 53.6023 40.7828 53.455C39.0761 53.1331 37.358 54.0612 35.7735 54.5852C34.3853 55.043 33.4584 56.0373 32.7483 57.2897C32.5006 57.728 32.2711 58.1515 31.988 58.5671C31.73 58.9461 31.472 59.4621 31.1044 59.7349C30.5051 60.1802 29.5861 60.0637 28.8669 60.0614C27.941 60.058 27.0163 60.0557 26.0905 60.0477C25.4352 60.042 24.78 60.0455 24.1247 60.0306C23.5756 60.0181 23.1167 59.9712 22.8427 59.4484C22.507 58.8102 22.3084 58.0819 22.0721 57.4015C21.8358 56.7211 21.6097 56.0533 21.4065 55.3706C21.2764 54.9323 20.588 55.1195 20.7204 55.5601C21.128 56.9163 21.5355 58.3867 22.176 59.6539C22.4831 60.2612 22.8701 60.5752 23.5596 60.6551C23.8244 60.6859 24.0882 60.6859 24.3541 60.6836C26.0643 60.6688 27.7732 60.6585 29.4833 60.6516C30.4057 60.6482 31.2996 60.5409 31.8807 59.7372C32.4994 58.881 32.9469 57.9449 33.5029 57.0533C33.9801 56.2885 34.6148 55.5864 35.4482 55.2051C35.7632 55.0613 36.1206 54.9619 36.4493 54.8478C37.1948 54.5886 37.9391 54.3238 38.6891 54.0772C40.6184 53.4448 42.2475 54.608 43.9473 55.3763C44.9862 55.8467 45.775 55.4323 46.6244 54.7953C48.016 53.7519 49.4076 52.7073 50.7992 51.6639C51.37 51.2358 52.1086 50.7928 52.3495 50.093C52.5903 49.3932 52.1486 48.4468 51.9602 47.7607C51.7513 46.9993 51.4019 46.1465 51.4921 45.3429C51.5492 44.8314 51.8894 44.5129 52.1485 44.1054L52.8986 42.9272C53.4534 42.0539 53.9009 41.2742 54.805 40.6966C55.6019 40.1863 56.5117 39.9477 57.4045 39.6577C58.2184 39.394 59.2595 39.2308 59.9639 38.7228C60.6032 38.2615 60.7448 37.4579 60.9092 36.7387C61.2608 35.1987 61.6877 33.6541 61.9023 32.0878C61.9663 31.6175 62.0131 31.1654 61.6968 30.7807C61.6809 30.7613 61.6478 30.7864 61.6615 30.8081L61.6558 30.8047Z" fill="#1E5736"/>
<path d="M61.6841 30.5237C61.7417 30.5241 61.7991 30.5431 61.8462 30.5794L61.8901 30.6214C62.2839 31.1007 62.2122 31.6633 62.1499 32.1214C61.9333 33.7022 61.501 35.2692 61.1528 36.7942C61.073 37.1435 60.9915 37.548 60.8472 37.9182C60.7005 38.2943 60.4813 38.6572 60.1099 38.9251C59.7236 39.2036 59.2556 39.3813 58.7983 39.5208C58.5686 39.5909 58.3354 39.6532 58.1138 39.7132C57.8904 39.7736 57.6786 39.8321 57.4819 39.8958C56.5692 40.1922 55.7021 40.4194 54.9399 40.9075C54.0919 41.4493 53.6729 42.1745 53.1099 43.0608L52.3599 44.2395C52.2903 44.349 52.2157 44.4517 52.147 44.5462C52.0769 44.6425 52.013 44.73 51.9556 44.8196C51.8425 44.9962 51.7635 45.1669 51.7407 45.3704C51.7005 45.7289 51.7576 46.1098 51.8569 46.5071C51.9064 46.7049 51.9653 46.9027 52.0259 47.1018C52.0859 47.2991 52.1483 47.5 52.2017 47.6946C52.2467 47.8587 52.3064 48.0391 52.3716 48.2386C52.4358 48.4349 52.5039 48.6467 52.5581 48.8606C52.6645 49.2806 52.7306 49.7522 52.5854 50.1741C52.4447 50.5829 52.1635 50.9037 51.8628 51.1682C51.5673 51.4282 51.2181 51.6615 50.9487 51.8636C50.253 52.3852 49.5576 52.908 48.8618 53.43C48.1661 53.9519 47.4697 54.4737 46.7739 54.9954C46.3448 55.3172 45.9053 55.6038 45.4263 55.7415C44.9968 55.8648 44.546 55.8663 44.0561 55.6907L43.8442 55.6038C43.4145 55.4096 42.9857 55.1889 42.5698 54.9846C42.1497 54.7783 41.7364 54.5858 41.3198 54.4368C40.5423 54.1589 39.7649 54.0376 38.9341 54.2649L38.7671 54.3147C38.0198 54.5604 37.2794 54.8244 36.5317 55.0843C36.1816 55.2058 35.8533 55.2954 35.5522 55.4329C34.7802 55.7862 34.1784 56.4436 33.7153 57.1858C33.4407 57.6262 33.1937 58.075 32.9321 58.5325C32.6724 58.9867 32.4009 59.4448 32.0835 59.8841C31.5068 60.6816 30.6591 60.8593 29.8354 60.8938L29.4839 60.9016C27.7743 60.9085 26.0655 60.919 24.356 60.9339C24.157 60.9356 23.9511 60.9358 23.7417 60.9221L23.5308 60.9036C23.1529 60.8598 22.8397 60.749 22.5757 60.553C22.3133 60.3581 22.1171 60.0922 21.9526 59.7669C21.2998 58.4751 20.8855 56.9783 20.481 55.6321C20.4275 55.4542 20.4542 55.2829 20.5444 55.1458C20.6308 55.0148 20.764 54.9318 20.8989 54.8948C21.034 54.8578 21.1896 54.8611 21.3306 54.9261C21.4773 54.9937 21.5932 55.1215 21.646 55.2991C21.8475 55.9762 22.0721 56.6401 22.3081 57.3196C22.5522 58.0226 22.74 58.7163 23.064 59.3323L23.1499 59.4671C23.2404 59.5846 23.3454 59.6522 23.4653 59.6956C23.64 59.7587 23.8541 59.7742 24.1304 59.7805L26.0923 59.7981C27.0173 59.8061 27.9414 59.8084 28.8677 59.8118L29.4409 59.8245C29.6313 59.8288 29.8218 59.8295 30.0142 59.8167C30.3903 59.7916 30.7129 59.7147 30.9556 59.5345C31.1048 59.4237 31.242 59.2542 31.3804 59.0501C31.4486 58.9494 31.5141 58.8449 31.5806 58.7386C31.6461 58.6336 31.714 58.5256 31.7817 58.4261L31.979 58.1214C32.1698 57.8141 32.3426 57.4992 32.5308 57.1663C33.2589 55.8822 34.2276 54.8319 35.6948 54.3479C36.0845 54.2191 36.4829 54.0651 36.896 53.9085C37.3066 53.7528 37.7306 53.5954 38.1597 53.4641C39.0165 53.202 39.9184 53.0374 40.8296 53.2093C41.6507 53.364 42.4204 53.7889 43.1128 54.1048L43.855 54.4729C44.0986 54.5935 44.3364 54.6999 44.5796 54.7737C44.9805 54.8954 45.3557 54.7024 45.7964 54.4055C46.2234 54.1179 46.6194 53.7963 47.0483 53.4749C48.3162 52.5245 49.5913 51.6064 50.8335 50.6389C51.0914 50.4379 51.3061 50.2563 51.4429 50.052C51.5708 49.8608 51.631 49.6493 51.5708 49.3694C51.478 48.9383 51.3594 48.51 51.2349 48.0764C51.111 47.6452 50.9805 47.2061 50.8696 46.7649C50.7208 46.1707 50.6016 45.4776 50.8042 44.8157C50.8753 44.5824 50.9883 44.3914 51.106 44.222C51.1642 44.138 51.2259 44.0567 51.2837 43.9798C51.3426 43.9014 51.3978 43.8258 51.4507 43.7483C51.9279 43.0485 52.3642 42.3278 52.8306 41.6028C53.4417 40.6517 54.3401 39.9819 55.3638 39.553L55.6821 39.427C56.4325 39.148 57.2309 38.9577 57.9585 38.7405L58.6167 38.553C58.8306 38.4917 59.0398 38.4278 59.2456 38.3499C59.6915 38.1813 59.9304 37.861 60.0884 37.3841C60.2576 36.8731 60.3523 36.3439 60.4858 35.7884C60.7047 34.8777 60.9207 33.9615 61.1577 33.0501L61.2388 32.7718C61.2688 32.676 61.3014 32.5783 61.3325 32.4817C61.3962 32.2839 61.4576 32.0849 61.5015 31.8899C61.5917 31.4885 61.5914 31.167 61.4458 30.9397L61.4468 30.9368C61.3539 30.7837 61.4419 30.6372 61.5161 30.5804C61.5567 30.5493 61.6146 30.5233 61.6841 30.5237ZM61.6968 30.7807C61.6809 30.7613 61.6478 30.7864 61.6615 30.8081L61.6558 30.8047C62.0622 31.4382 61.5736 32.4417 61.4 33.113C61.1637 34.0217 60.948 34.9349 60.7288 35.8471L60.5444 36.6595C60.4815 36.9307 60.4125 37.2005 60.3258 37.4624C60.1523 37.9864 59.8714 38.3803 59.3337 38.5835C58.9114 38.7433 58.4627 38.8506 58.03 38.9796C57.1773 39.2342 56.2834 39.4397 55.4603 39.7833C54.474 40.1966 53.6201 40.837 53.0413 41.7377L52.356 42.8186C52.1276 43.1791 51.8974 43.538 51.6577 43.8896C51.4316 44.2207 51.1645 44.4912 51.0435 44.8885L50.9878 45.1126C50.8879 45.6389 50.9832 46.1893 51.112 46.7036C51.3312 47.5758 51.6257 48.4366 51.8152 49.3167C51.967 50.0223 51.5001 50.4367 50.9875 50.8362L50.0483 51.5559C49.1037 52.2689 48.1455 52.9656 47.1986 53.6754L46.5728 54.1516C46.3637 54.3102 46.1529 54.4665 45.936 54.6126L45.772 54.72C45.3842 54.9651 44.9674 55.1532 44.5067 55.0133C44.2436 54.9334 43.9911 54.819 43.7436 54.6966L43.0089 54.3318C42.3807 54.0451 41.7463 53.7018 41.0737 53.5218L40.7828 53.455C39.0761 53.1331 37.358 54.0612 35.7735 54.5852L35.519 54.677C34.2706 55.168 33.414 56.1156 32.7483 57.2897C32.5006 57.728 32.2711 58.1515 31.988 58.5671C31.73 58.9461 31.472 59.4621 31.1044 59.7349C30.655 60.0687 30.0258 60.0863 29.436 60.0735L28.8669 60.0614L26.0905 60.0477C25.4352 60.042 24.78 60.0455 24.1247 60.0306C23.61 60.0188 23.1742 59.9771 22.896 59.5413L22.8427 59.4484C22.6749 59.1293 22.5416 58.7876 22.4204 58.4407L22.0721 57.4015C21.8948 56.8912 21.7234 56.3879 21.563 55.8802L21.4065 55.3706C21.2764 54.9323 20.588 55.1195 20.7204 55.5601C21.128 56.9163 21.5355 58.3867 22.176 59.6539C22.4831 60.2612 22.8701 60.5752 23.5596 60.6551C23.6919 60.6704 23.8244 60.6784 23.9565 60.6819L24.3541 60.6836C26.0643 60.6688 27.7732 60.6585 29.4833 60.6516C30.348 60.6484 31.1877 60.554 31.7681 59.8802L31.8807 59.7372C32.4994 58.881 32.9469 57.9449 33.5029 57.0533C33.9503 56.3363 34.5363 55.6746 35.2944 55.2805L35.4482 55.2051C35.6058 55.1331 35.7739 55.072 35.9438 55.0149L36.4493 54.8478C36.8221 54.7182 37.1948 54.5868 37.5679 54.4573L38.6891 54.0772C40.6184 53.4448 42.2475 54.608 43.9473 55.3763C44.8561 55.7877 45.574 55.5222 46.3081 55.0227L46.6244 54.7953L50.7992 51.6639C51.3344 51.2625 52.0167 50.8479 52.2983 50.221L52.3495 50.093C52.5301 49.5683 52.3267 48.905 52.1343 48.3167L51.9602 47.7607C51.7644 47.047 51.4449 46.253 51.48 45.4944L51.4921 45.3429C51.5349 44.9592 51.7371 44.6842 51.9448 44.3987L52.1485 44.1054L52.8986 42.9272C53.4187 42.1085 53.8448 41.3717 54.6411 40.8069L54.805 40.6966C55.4027 40.3139 56.064 40.0838 56.7339 39.8704L57.4045 39.6577C58.1674 39.4106 59.13 39.2511 59.8276 38.8138L59.9639 38.7228C60.6032 38.2615 60.7448 37.4579 60.9092 36.7387C61.2608 35.1987 61.6877 33.6541 61.9023 32.0878C61.9663 31.6175 62.0131 31.1654 61.6968 30.7807ZM61.8696 30.677C61.8804 30.694 61.8882 30.7125 61.8979 30.7298C61.8973 30.7279 61.8976 30.7258 61.897 30.7239L61.8726 30.6741L61.8696 30.677Z" fill="#1E5736"/>
<path d="M59.2028 19.6309C58.7576 19.8991 58.4254 20.4676 58.1057 20.8775C57.7119 21.3809 57.3123 21.8867 56.9653 22.4221C56.4926 23.1515 55.6284 23.8707 55.8682 24.8342C55.9789 25.2783 56.6833 25.0865 56.5543 24.6447C56.2849 23.7246 57.3933 22.736 57.8785 22.0773C58.2221 21.6104 58.5738 21.1446 58.882 20.6537C59.0749 20.3466 59.3637 20.0144 59.2347 19.6446C59.2302 19.6309 59.2153 19.6229 59.2016 19.6309H59.2028Z" fill="#1E5736"/>
<path d="M59.2586 19.3806H60.1024L59.5096 19.7371C59.5336 19.9402 59.4794 20.1257 59.4051 20.281C59.317 20.4652 59.1735 20.6596 59.0936 20.7869C58.7792 21.2875 58.4206 21.7624 58.0799 22.2253C57.9524 22.3985 57.7837 22.5931 57.6199 22.7878C57.4526 22.9868 57.2839 23.1929 57.1395 23.4041C56.8419 23.8391 56.6931 24.2312 56.7938 24.5749C56.8463 24.7551 56.8165 24.9272 56.7244 25.0632C56.6364 25.193 56.5021 25.2762 56.367 25.3132C56.232 25.3502 56.075 25.3469 55.9334 25.28C55.7847 25.2098 55.6712 25.0765 55.6258 24.8943C55.4825 24.3182 55.6759 23.8255 55.9373 23.408C56.0675 23.2002 56.2201 23.0022 56.3631 22.8181C56.5091 22.6302 56.6446 22.4573 56.7557 22.2859C57.11 21.7394 57.5171 21.2243 57.909 20.7234C57.9853 20.6256 58.0625 20.5174 58.1463 20.4011C58.2291 20.2863 58.3179 20.1647 58.411 20.0466C58.4547 19.991 58.501 19.9356 58.5486 19.8806H58.2772L59.076 19.4148C59.1395 19.3778 59.2021 19.3701 59.2586 19.3806ZM59.2028 19.6309C58.7576 19.8991 58.4254 20.4676 58.1057 20.8775L57.5184 21.6374C57.3259 21.8937 57.1388 22.1544 56.9653 22.4221L56.7723 22.696C56.2936 23.3354 55.6585 23.9914 55.8682 24.8342C55.9723 25.2502 56.5979 25.1079 56.5692 24.7244L56.5543 24.6447C56.3188 23.8396 57.1383 22.9817 57.6717 22.3386L57.8785 22.0773C58.1362 21.7272 58.3984 21.3772 58.6434 21.0173L58.882 20.6537C59.0749 20.3466 59.3637 20.0144 59.2347 19.6446C59.2302 19.6311 59.2163 19.6232 59.2028 19.6309Z" fill="#1E5736"/>
<path d="M57.3101 14.5175C57.2679 14.8405 57.4734 15.2401 57.5601 15.5438C57.7257 16.1294 57.9049 16.7116 58.0761 17.295C58.2474 17.8783 58.4118 18.4491 58.5887 19.0245C58.6835 19.3316 58.7714 19.7163 58.9997 19.9549C59.0762 20.0337 59.252 20.0074 59.2691 19.8841C59.3136 19.5508 59.2006 19.2003 59.1138 18.8795C58.946 18.2585 58.7691 17.6409 58.5864 17.0233C58.4038 16.4057 58.2382 15.8406 58.0248 15.2618C57.93 15.0049 57.8261 14.5072 57.5419 14.3828C57.4277 14.3325 57.3261 14.393 57.3113 14.5152L57.3101 14.5175Z" fill="#1E5736"/>
<path d="M57.2634 14.1678C57.3852 14.0971 57.5249 14.1025 57.6424 14.1541L57.7263 14.199C57.911 14.3169 58.0184 14.5189 58.0847 14.6746C58.1259 14.7712 58.1593 14.8706 58.1873 14.9569C58.2168 15.0478 58.2382 15.1177 58.2595 15.1756C58.4763 15.7633 58.6439 16.3365 58.8259 16.952C59.009 17.5709 59.1868 18.1909 59.3552 18.8143L59.4216 19.0565C59.4907 19.3154 59.5569 19.6203 59.5174 19.9168L59.5164 19.9188C59.4892 20.1134 59.3352 20.2117 59.2097 20.2391C59.0908 20.265 58.9322 20.2442 58.8201 20.1287L58.8191 20.1278C58.6714 19.9734 58.5778 19.7817 58.5105 19.6043C58.4445 19.4302 58.3926 19.2385 58.3494 19.0985C58.1718 18.5211 58.0075 17.9468 57.8367 17.3651C57.6669 16.7866 57.4849 16.1987 57.3191 15.6121C57.3001 15.546 57.2738 15.4709 57.2429 15.3856C57.2129 15.3024 57.1784 15.2087 57.1482 15.1141C57.0894 14.93 57.0336 14.7045 57.0623 14.4852L57.0681 14.4432L57.0769 14.4266C57.1031 14.3236 57.1619 14.2268 57.2634 14.1678ZM57.5419 14.3828C57.4277 14.3325 57.3261 14.393 57.3113 14.5152L57.3101 14.5175L57.3054 14.6414C57.3175 14.9386 57.4842 15.2779 57.5601 15.5438C57.7257 16.1294 57.9049 16.7116 58.0761 17.295C58.2474 17.8783 58.4118 18.4491 58.5887 19.0245C58.6835 19.3316 58.7714 19.7163 58.9997 19.9549C59.0666 20.0238 59.2095 20.0122 59.2556 19.9256L59.2691 19.8841C59.3025 19.6341 59.2477 19.3744 59.1814 19.1248L59.1138 18.8795C59.0299 18.5689 58.9433 18.2593 58.8552 17.95L58.5864 17.0233C58.4494 16.56 58.3217 16.1263 58.1765 15.6942L58.0248 15.2618C57.93 15.0049 57.8261 14.5072 57.5419 14.3828Z" fill="#1E5736"/>
<path d="M2.44037 33.7272C2.56823 34.9088 2.80682 36.1326 3.12533 37.2776C3.29657 37.8929 3.71439 39.0254 4.52606 38.8678C4.6642 38.8416 4.77037 38.6589 4.72014 38.5265C4.60255 38.2183 4.32857 38.0584 4.16075 37.7788C3.9644 37.45 3.87992 37.0527 3.79316 36.684C3.55457 35.6725 3.32054 34.6348 2.97121 33.6542C2.87646 33.3882 2.40384 33.4019 2.43923 33.7261L2.44037 33.7272Z" fill="#1E5736"/>
<path d="M2.63558 33.2196C2.842 33.2022 3.11155 33.3027 3.20687 33.5702C3.56188 34.5668 3.79952 35.6203 4.03695 36.6268C4.12684 37.0089 4.20373 37.3621 4.37582 37.6503C4.44304 37.7623 4.52892 37.8479 4.6434 37.9725C4.72399 38.0603 4.81464 38.1652 4.88754 38.2967L4.95394 38.4374L4.97152 38.496C5.00272 38.6318 4.96611 38.7649 4.91097 38.8612C4.84801 38.9711 4.73248 39.0817 4.57308 39.1122L4.57406 39.1131C4.01881 39.2209 3.62528 38.8722 3.37777 38.5018C3.19031 38.2212 3.05611 37.8871 2.96371 37.6053L2.88461 37.3446C2.57054 36.2155 2.33452 35.0107 2.20297 33.8426L2.20004 33.8407L2.19027 33.7528C2.17445 33.6068 2.21622 33.4697 2.31332 33.368C2.40515 33.2719 2.52632 33.2289 2.63558 33.2196ZM2.97121 33.6542C2.87646 33.3882 2.40384 33.4019 2.43923 33.7261L2.44037 33.7272C2.56823 34.9088 2.80682 36.1326 3.12533 37.2776C3.29657 37.8929 3.71439 39.0254 4.52606 38.8678C4.6642 38.8416 4.77037 38.6589 4.72014 38.5265C4.61727 38.257 4.39479 38.1008 4.22836 37.8788L4.16075 37.7788C4.01353 37.5322 3.92877 37.2473 3.85922 36.9647L3.79316 36.684C3.58439 35.799 3.37957 34.8937 3.0975 34.0243L2.97121 33.6542Z" fill="#1E5736"/>
<path d="M4.91835 45.2984C4.80648 46.392 5.37727 47.5279 5.70605 48.5428C6.03483 49.5577 6.31795 50.931 7.35908 51.5304C7.58284 51.6594 7.79745 51.447 7.76092 51.221C7.67873 50.7061 7.13761 50.3819 6.90473 49.9196C6.64559 49.4047 6.53942 48.8225 6.36019 48.278C6.03712 47.2962 5.62957 46.3315 5.51084 45.2973C5.46746 44.9194 4.95831 44.9148 4.91949 45.2973L4.91835 45.2984Z" fill="#1E5736"/>
<path d="M5.21459 44.7621C5.4734 44.7633 5.72278 44.949 5.75951 45.269C5.8744 46.2694 6.26567 47.1916 6.59741 48.1996C6.68842 48.4762 6.76494 48.7743 6.84252 49.0395C6.92252 49.3129 7.00846 49.5701 7.12768 49.8071C7.22613 50.0025 7.38738 50.1654 7.57885 50.3881C7.75526 50.5934 7.95438 50.849 8.00756 51.1811C8.03994 51.3814 7.96247 51.5783 7.81909 51.6996C7.66588 51.8293 7.44215 51.8664 7.23412 51.7465C6.64843 51.4092 6.28897 50.8612 6.03686 50.2934C5.78792 49.7326 5.62615 49.1062 5.4685 48.6196C5.38822 48.3718 5.29273 48.1161 5.19409 47.8481C5.09614 47.5819 4.995 47.3045 4.90795 47.0239C4.73449 46.4645 4.60868 45.8691 4.66967 45.2729L4.67846 45.185L4.69018 45.1733C4.75881 44.9106 4.98112 44.7612 5.21459 44.7621ZM5.51084 45.2973C5.46746 44.9194 4.95831 44.9148 4.91949 45.2973L4.91835 45.2984L4.90502 45.5043C4.87691 46.5337 5.39785 47.5916 5.70605 48.5428C6.03483 49.5577 6.31795 50.931 7.35908 51.5304C7.58284 51.6594 7.79745 51.447 7.76092 51.221C7.689 50.7705 7.26534 50.4662 7.00463 50.0873L6.90473 49.9196C6.64559 49.4047 6.53942 48.8225 6.36019 48.278C6.07752 47.419 5.73006 46.5729 5.56811 45.6821L5.51084 45.2973Z" fill="#1E5736"/>
<path d="M60.009 26.4004C59.9679 26.9872 60.4303 27.6984 60.6335 28.2349C60.8801 28.8856 61.1586 29.5238 61.4166 30.1699C61.5353 30.4679 61.6598 30.7738 61.718 31.0912C61.7945 31.5113 61.6758 31.9074 61.6027 32.3173C61.4668 33.081 61.2591 33.823 61.1472 34.5902C61.1449 34.6039 61.1643 34.6153 61.1712 34.6005C61.4908 33.9018 61.7694 33.1643 61.9475 32.4132C62.0947 31.7921 61.9908 31.0695 61.8356 30.4576C61.6666 29.7898 61.3755 29.1334 61.1061 28.5009C60.9154 28.0534 60.7271 27.6059 60.5479 27.1538C60.4314 26.8616 60.3458 26.5716 60.1083 26.3604C60.0695 26.325 60.0113 26.3502 60.0079 26.4015L60.009 26.4004Z" fill="#1E5736"/>
<path d="M60.275 26.175L60.277 26.176L60.276 26.1769C60.4946 26.3725 60.6111 26.6254 60.6988 26.8498L60.7799 27.0617C60.9579 27.5107 61.1461 27.9555 61.3365 28.4025C61.6029 29.0278 61.9029 29.7049 62.0777 30.3957C62.2359 31.0189 62.3525 31.79 62.191 32.4709C62.0081 33.2425 61.7222 33.9957 61.3981 34.7043C61.3708 34.7634 61.3162 34.8228 61.234 34.8469C61.1581 34.869 61.0895 34.8523 61.0436 34.8293C60.9623 34.7884 60.88 34.688 60.9 34.5539L61.0016 33.9709C61.0395 33.7782 61.0802 33.5874 61.1217 33.3986C61.2052 33.0189 61.2902 32.6491 61.357 32.2736C61.4369 31.8254 61.5382 31.498 61.4723 31.1359C61.4194 30.8479 61.3052 30.5665 61.1842 30.2629C60.931 29.6288 60.6468 28.9746 60.4 28.3234C60.3532 28.1997 60.2898 28.063 60.2184 27.9113C60.1482 27.7624 60.0698 27.5992 59.9996 27.4347C59.933 27.2787 59.8705 27.1105 59.8248 26.9386L59.7145 27.049L59.7584 26.3849C59.7661 26.2699 59.8351 26.1803 59.9254 26.132L60.3053 25.7511L60.275 26.175ZM60.1083 26.3604C60.0695 26.325 60.0113 26.3502 60.0079 26.4015L60.009 26.4004C59.9679 26.9872 60.4303 27.6984 60.6335 28.2349C60.8801 28.8856 61.1586 29.5238 61.4166 30.1699C61.5353 30.4679 61.6598 30.7738 61.718 31.0912C61.7945 31.5113 61.6758 31.9074 61.6027 32.3173L61.4899 32.8869C61.3689 33.4536 61.2311 34.0149 61.1472 34.5902C61.1454 34.6007 61.1563 34.6096 61.1647 34.6066L61.1712 34.6005C61.4508 33.9893 61.6986 33.3483 61.8756 32.6945L61.9475 32.4132C62.0947 31.7921 61.9908 31.0695 61.8356 30.4576C61.7089 29.9569 61.5135 29.4622 61.3102 28.9797L61.1061 28.5009C60.9154 28.0534 60.7271 27.6059 60.5479 27.1538C60.4314 26.8616 60.3458 26.5716 60.1083 26.3604Z" fill="#1E5736"/>
<path d="M61.1231 34.7501C61.1231 34.7501 61.1117 34.7683 61.1106 34.7706C61.106 34.7786 61.1026 34.7877 61.1003 34.7957C61.0957 34.8129 61.0957 34.8311 61.1003 34.8482C61.1014 34.8551 61.1128 34.8517 61.1106 34.846C61.1048 34.8266 61.1037 34.806 61.1094 34.7866C61.1117 34.7775 61.1151 34.7638 61.122 34.7569C61.1254 34.7546 61.13 34.7546 61.1322 34.7523C61.1414 34.7409 61.1185 34.7386 61.1243 34.7512L61.1231 34.7501Z" fill="#1E5736"/>
<path d="M61.2512 34.525C61.2916 34.5466 61.3334 34.5819 61.3605 34.6392C61.4011 34.7255 61.3832 34.8024 61.3586 34.855C61.3569 34.9091 61.3401 34.9603 61.3098 35.0006C61.2681 35.0556 61.2133 35.082 61.1701 35.0933C61.1266 35.1047 61.0631 35.1092 60.9973 35.0787C60.9274 35.0462 60.8795 34.9839 60.8605 34.9117L60.8586 34.9127C60.8575 34.9086 60.8585 34.9041 60.8576 34.9C60.8568 34.8963 60.8543 34.8929 60.8537 34.8892L60.8557 34.8882C60.8456 34.8362 60.8449 34.7824 60.8586 34.731L60.8596 34.7271C60.8647 34.709 60.8754 34.6856 60.8889 34.6597L60.8869 34.6588C60.8898 34.653 60.892 34.6483 60.8928 34.647C60.8938 34.6451 60.8951 34.6432 60.8957 34.6422C60.8966 34.6406 60.8979 34.6395 60.8986 34.6382C60.9059 34.6232 60.9156 34.609 60.9269 34.5943L61.0783 34.3502L61.2512 34.525ZM61.1291 34.7457C61.1253 34.7454 61.1215 34.745 61.1243 34.7512L61.1231 34.7501C61.1231 34.7501 61.1117 34.7683 61.1106 34.7706C61.106 34.7786 61.1026 34.7877 61.1003 34.7957L61.1008 34.8209L61.049 34.856L61.1003 34.8482L61.0373 34.8648L61.0305 34.8697L60.9914 34.8804L60.9963 34.8756L60.9357 34.8912C60.9424 34.9002 60.947 34.91 60.9543 34.9175L60.9914 34.8804L61.0305 34.8697L60.9572 34.9195C61.0061 34.9686 61.065 34.9867 61.1017 34.9908C61.1396 34.995 61.1987 34.9909 61.2551 34.9566L61.1691 34.8277L61.1106 34.846L61.1662 34.8238L61.1584 34.8121L61.1262 34.8023L61.1057 34.817C61.1053 34.8068 61.1065 34.7965 61.1094 34.7866L61.1379 34.7945L61.1262 34.8023L61.1574 34.8101L61.1476 34.7955L61.1389 34.7935L61.1379 34.7945L61.1094 34.7866C61.1117 34.7775 61.1151 34.7638 61.122 34.7569C61.1243 34.7554 61.1268 34.7543 61.1291 34.7535C61.1419 34.7615 61.154 34.7689 61.1652 34.7759L61.1506 34.7857L61.1818 34.817L61.1955 34.8121L61.2101 34.816L61.1955 34.8209H61.1984L61.2014 34.8218L61.2668 34.8394C61.2706 34.8418 61.2741 34.8441 61.2775 34.8463L61.2072 34.8257L61.1955 34.8228L61.1887 34.8238L61.2912 34.9263C61.2978 34.9202 61.3064 34.916 61.3127 34.9088C61.3169 34.904 61.3198 34.898 61.3234 34.8931C61.3264 34.8891 61.3295 34.8845 61.3322 34.8804L61.3332 34.8814C61.3342 34.8792 61.3364 34.8772 61.3371 34.8756C61.3412 34.8691 61.3436 34.8625 61.3469 34.856C61.3475 34.8547 61.3482 34.8534 61.3488 34.8521C61.3547 34.8299 61.3557 34.8108 61.3537 34.7955C61.3561 34.807 61.3578 34.8182 61.3586 34.8297C61.3849 34.756 61.3688 34.6856 61.3517 34.648L61.2902 34.69C61.2743 34.6713 61.2558 34.6556 61.2346 34.6422L61.1291 34.7457ZM61.341 34.8648C61.3401 34.868 61.3388 34.8713 61.3371 34.8756C61.336 34.8773 61.3334 34.8787 61.3322 34.8804C61.3271 34.8773 61.3136 34.8688 61.2775 34.8463L61.341 34.8648ZM60.9084 34.8492V34.8521C60.9128 34.8615 60.9208 34.8683 60.926 34.8765L61.009 34.8629L61.0822 34.7896L61.0549 34.7828L60.9084 34.8492ZM61.3381 34.7779C61.3398 34.7838 61.3416 34.7895 61.343 34.7955C61.3469 34.8169 61.3476 34.8387 61.342 34.8599L61.2668 34.8394C61.2606 34.8355 61.2537 34.8314 61.2463 34.8267C61.2394 34.8224 61.2318 34.8171 61.2238 34.8121L61.3381 34.7779ZM61.1877 34.8228L61.1887 34.8238L61.1955 34.8228L61.1916 34.8218L61.1877 34.8228ZM61.2111 34.815L61.1955 34.8121L61.2121 34.8052C61.2161 34.8077 61.2201 34.8098 61.2238 34.8121L61.2111 34.815ZM61.3449 34.7955L61.3469 34.8072C61.3462 34.8032 61.3438 34.7995 61.343 34.7955C61.3423 34.7917 61.343 34.7875 61.342 34.7838L61.3449 34.7955ZM61.2902 34.69C61.3076 34.7104 61.3223 34.7325 61.3322 34.7574L61.2121 34.8052C61.1981 34.7965 61.1826 34.7868 61.1652 34.7759L61.2902 34.69ZM61.1389 34.7935L61.1476 34.7955L61.1437 34.7906L61.1389 34.7935ZM61.3537 34.7955C61.3522 34.7885 61.3499 34.7819 61.3478 34.775H61.3508C61.3524 34.7804 61.3527 34.7876 61.3537 34.7955ZM61.0549 34.7828L61.0822 34.7896L61.091 34.7818L61.0695 34.7759L61.0549 34.7828ZM61.0715 34.775L61.092 34.7808L61.1037 34.7672L61.0969 34.7632L61.0715 34.775ZM61.3478 34.775L61.3381 34.7779C61.336 34.771 61.3348 34.764 61.3322 34.7574L61.343 34.7535C61.3457 34.7604 61.3457 34.768 61.3478 34.775ZM61.0969 34.7632L61.1037 34.7672L61.1183 34.7535L61.0969 34.7632Z" fill="#1E5736"/>
<path d="M61.0488 35.0241V35.1246C61.0488 35.1314 61.0591 35.1314 61.0591 35.1246V35.0241C61.0591 35.0173 61.0488 35.0173 61.0488 35.0241Z" fill="#1E5736"/>
<path d="M61.3095 35.1244C61.3095 35.1939 61.2804 35.2643 61.2236 35.3149C61.1713 35.3614 61.1082 35.3793 61.0537 35.3793C60.9992 35.3793 60.937 35.3613 60.8847 35.3149C60.8278 35.2643 60.7988 35.194 60.7988 35.1244V35.0239C60.7989 34.9544 60.8278 34.884 60.8847 34.8334C60.937 34.7871 60.9993 34.769 61.0537 34.769C61.1082 34.769 61.1713 34.7869 61.2236 34.8334C61.2804 34.884 61.3095 34.9544 61.3095 35.0239V35.1244ZM60.8916 34.9418C60.8507 34.9781 60.8259 35.0249 60.8154 35.0737C60.8257 35.1229 60.8503 35.1708 60.8916 35.2075C60.9419 35.252 61.0019 35.2689 61.0537 35.269C61.1056 35.269 61.1663 35.2523 61.2168 35.2075C61.258 35.1708 61.2827 35.123 61.2929 35.0737C61.2825 35.025 61.2575 34.9781 61.2168 34.9418C61.1663 34.897 61.1056 34.8793 61.0537 34.8793C61.0018 34.8794 60.9419 34.8971 60.8916 34.9418Z" fill="#1E5736"/>
<path d="M50.6029 47.1192C50.9271 48.1809 51.2525 49.3225 51.7844 50.3019C51.8427 50.4093 51.9899 50.3316 51.9705 50.2232C51.7753 49.133 51.2011 48.0427 50.6177 47.1135C50.6132 47.1055 50.6006 47.1112 50.6029 47.1192Z" fill="#1E5736"/>
<path d="M50.5118 46.8792C50.5981 46.8433 50.7475 46.8488 50.8292 46.9807C51.4168 47.9167 52.0129 49.04 52.2169 50.179C52.2497 50.3623 52.1396 50.5101 52.0128 50.5696C51.9465 50.6007 51.8609 50.616 51.7725 50.5911C51.6798 50.5648 51.608 50.5012 51.5645 50.4212C51.0178 49.4145 50.6846 48.2445 50.3634 47.1926L50.3624 47.1878C50.3155 47.0233 50.4324 46.9122 50.5118 46.8792ZM50.6177 47.1135C50.6132 47.1055 50.6006 47.1112 50.6029 47.1192C50.9271 48.1809 51.2525 49.3225 51.7844 50.3019C51.8354 50.3959 51.9549 50.3481 51.9708 50.262L51.9705 50.2232C51.7997 49.2692 51.3384 48.3151 50.835 47.469L50.6177 47.1135Z" fill="#1E5736"/>
<path d="M37.0363 4.86643C37.679 5.12671 38.5843 4.98858 39.275 5.01484C39.9086 5.03881 41.1529 4.85844 41.4897 5.5297C41.7602 6.06967 41.6895 6.84024 41.8036 7.43159C41.9349 8.11312 42.129 8.80036 42.4201 9.43167C42.5103 9.62688 42.8425 9.48875 42.7694 9.2844C42.4475 8.39168 42.1632 7.52064 42.0513 6.57197C41.984 6.00574 41.9931 5.36759 41.6335 4.8904C41.194 4.30476 40.3641 4.36641 39.7099 4.35386C39.2738 4.34586 38.8378 4.34129 38.4017 4.34129C37.9656 4.34129 37.4484 4.28194 37.0363 4.45432C36.8365 4.53765 36.8331 4.78424 37.0363 4.86643Z" fill="#1E5736"/>
<path d="M37.7026 4.08337C37.9355 4.07673 38.2121 4.09119 38.4018 4.09119C38.8395 4.09119 39.277 4.09587 39.7143 4.10388C40.0223 4.10979 40.4256 4.09697 40.7944 4.16052C41.1719 4.22564 41.5598 4.37692 41.8325 4.73962C42.0456 5.02249 42.1442 5.3454 42.1987 5.65466C42.2508 5.95091 42.2688 6.28586 42.2993 6.54236C42.4076 7.46083 42.6834 8.30959 43.0043 9.19958C43.1012 9.47066 42.912 9.67179 42.7524 9.73865C42.6679 9.77397 42.5638 9.78867 42.4594 9.76111C42.3757 9.73893 42.299 9.69059 42.2426 9.61755L42.1928 9.5365C41.9664 9.0454 41.798 8.52429 41.6713 8.00134L41.5581 7.47888C41.4979 7.16705 41.4849 6.79591 41.4565 6.48376C41.4264 6.1531 41.3786 5.8667 41.2661 5.64197C41.1618 5.43418 40.895 5.31987 40.4692 5.27869C40.2676 5.25921 40.0533 5.25809 39.8442 5.26111C39.6416 5.26404 39.4321 5.27133 39.2651 5.26501C39.1015 5.25881 38.9229 5.26178 38.7309 5.26697C38.5414 5.27209 38.3384 5.27934 38.1372 5.27869C37.7383 5.27738 37.3108 5.24697 36.9428 5.09802C36.7536 5.02149 36.6342 4.85181 36.6352 4.65955C36.6362 4.46922 36.7548 4.30134 36.9399 4.224L37.1284 4.15857C37.3198 4.10613 37.5171 4.08867 37.7026 4.08337ZM38.4017 4.34129C37.9656 4.34129 37.4484 4.28194 37.0363 4.45432L36.9702 4.49255C36.8387 4.59676 36.8586 4.79456 37.0363 4.86643C37.5988 5.0941 38.3625 5.01735 39.0073 5.01208L39.275 5.01484C39.9086 5.03881 41.1529 4.85844 41.4897 5.5297C41.7602 6.06967 41.6895 6.84024 41.8036 7.43159C41.9349 8.11312 42.129 8.80036 42.4201 9.43167C42.5103 9.62688 42.8425 9.48875 42.7694 9.2844C42.4475 8.39168 42.1632 7.52064 42.0513 6.57197C41.984 6.00574 41.9931 5.36759 41.6335 4.8904C41.3039 4.45162 40.7548 4.37615 40.225 4.36072L39.7099 4.35386L38.4017 4.34129Z" fill="#1E5736"/>
</svg>
